<svg xmlns="http://www.w3.org/2000/svg" width="56" height="56" viewBox="0 0 56 56"><path fill="#CC2F3C" d="M0 0h56v56H0z"/><path fill-rule="evenodd" d="M36.97 34.94c-1.55-.27-2.75-1.13-3.08-2.94H30c.27 4.02 3.4 5.7 6.97 5.96V40h1.96v-2.03c3.45-.24 7.07-1.85 7.07-5.8v-.04c0-1.58-.56-2.83-1.57-3.73-1-.9-2.51-1.56-4.55-2l-.95-.2v-5.1c.32.05.62.12.9.22 1.14.42 2.05 1.47 1.95 2.68h3.9c0-2.42-1.5-4.63-3.84-5.57a9.5 9.5 0 0 0-2.91-.65V16h-1.96v1.78a9.43 9.43 0 0 0-3.02.7 5.67 5.67 0 0 0-3.64 5.22v.03c0 3.46 2.84 5.12 5.87 5.76l.79.17v5.28Zm0-9.16v-4.69c-.38.06-.71.14-1 .26-.87.34-1.6 1.05-1.6 2.03v.03c0 1.45 1.37 2.05 2.6 2.37Zm1.96 4.3V35c.52-.04.96-.13 1.33-.27.94-.37 1.62-1.1 1.62-2.15v-.03c0-.63-.23-1.14-.68-1.52a5.55 5.55 0 0 0-2.27-.94Zm-15.29 7.33a9.48 9.48 0 0 1-4.26.92 9.7 9.7 0 0 1-5-1.24 8.32 8.32 0 0 1-3.25-3.55A12.48 12.48 0 0 1 10 28V28c0-2.15.38-3.99 1.15-5.52a8.23 8.23 0 0 1 3.25-3.53 9.62 9.62 0 0 1 4.98-1.25c1.6 0 3.02.32 4.26.94A7.8 7.8 0 0 1 27.98 25h-4a4.6 4.6 0 0 0-2.44-3.3 4.84 4.84 0 0 0-2.16-.46c-1.05 0-1.97.27-2.74.82a5.27 5.27 0 0 0-1.8 2.33 9.3 9.3 0 0 0-.63 3.6c0 1.4.2 2.62.62 3.64a5.36 5.36 0 0 0 1.8 2.35c.79.54 1.7.81 2.75.81.8 0 1.5-.14 2.12-.44A4.62 4.62 0 0 0 23.98 31H28a7.86 7.86 0 0 1-4.36 6.4Z" fill="#fff"/></svg>