<svg width="24" height="25" viewBox="0 0 24 25" fill="none" xmlns="http://www.w3.org/2000/svg">
<rect y="0.962891" width="24" height="24" rx="8" fill="#FFD8E4"/>
<path d="M22.7571 13.2112C22.7571 13.7717 22.5882 14.2141 22.2505 14.5383C21.9196 14.8557 21.4705 15.0144 20.9032 15.0144H19.9104C19.8429 15.0144 19.8091 14.7983 19.8091 14.3661C19.8091 13.9001 19.8429 13.6671 19.9104 13.6671H20.9032C21.072 13.6671 21.2071 13.6232 21.3084 13.5354C21.4165 13.4408 21.4705 13.3125 21.4705 13.1504V11.5295H22.7571V13.2112ZM23.0002 9.32104V10.4759H20.1434V9.32104H23.0002Z" fill="#31111D"/>
<path d="M19.802 13.667C19.8695 13.667 19.9033 13.9 19.9033 14.366C19.9033 14.7983 19.8695 15.0144 19.802 15.0144H19.0017C18.9341 15.7708 18.6674 16.3617 18.2014 16.7872C17.7354 17.2195 17.1309 17.4356 16.388 17.4356H15.0001L14.8887 16.0882H16.469C16.8675 16.0882 17.1782 15.9903 17.4011 15.7944C17.6239 15.6053 17.7354 15.3453 17.7354 15.0144H17.0262C16.2968 15.0144 15.7734 14.8624 15.456 14.5585C15.1453 14.2546 14.99 13.7717 14.99 13.1098C14.99 12.6776 15.0744 12.2926 15.2432 11.9549C15.4121 11.6173 15.6485 11.3539 15.9524 11.1648C16.2631 10.9757 16.621 10.8811 17.0262 10.8811C17.6476 10.8811 18.1338 11.0837 18.485 11.4889C18.843 11.8942 19.0219 12.4547 19.0219 13.1706V13.667H19.802ZM16.2664 13.0592C16.2664 13.2753 16.3238 13.434 16.4386 13.5353C16.5602 13.6299 16.773 13.6771 17.0769 13.6771H17.7354V13.1504C17.7354 12.8262 17.6712 12.5797 17.5429 12.4108C17.4146 12.242 17.2288 12.1576 16.9857 12.1576C16.7561 12.1576 16.5771 12.242 16.4488 12.4108C16.3272 12.5729 16.2664 12.789 16.2664 13.0592Z" fill="#31111D"/>
<path d="M9.98384 13.667C10.1729 13.667 10.3046 13.6299 10.3789 13.5556C10.46 13.4813 10.5005 13.3597 10.5005 13.1909V12.9072C10.5005 12.2521 10.6862 11.7354 11.0577 11.3572C11.4359 10.9723 11.9458 10.7798 12.5874 10.7798C13.229 10.7798 13.7186 10.9655 14.0563 11.337C14.4008 11.7017 14.573 12.2285 14.573 12.9173C14.573 13.5792 14.394 14.0959 14.0361 14.4673C13.6781 14.832 13.1783 15.0144 12.5367 15.0144C12.1991 15.0144 11.9188 14.9738 11.6959 14.8928C11.473 14.805 11.3076 14.6834 11.1995 14.5281C11.0712 14.6969 10.9091 14.8219 10.7132 14.9029C10.5241 14.9772 10.281 15.0144 9.98384 15.0144H9.72045C9.65291 15.0144 9.61914 14.7982 9.61914 14.366C9.61914 13.9 9.65291 13.667 9.72045 13.667H9.98384ZM13.2965 12.9173C13.2965 12.35 13.0433 12.0664 12.5367 12.0664C12.0302 12.0664 11.777 12.35 11.777 12.9173C11.777 13.1605 11.8377 13.3496 11.9593 13.4846C12.0876 13.613 12.2801 13.6771 12.5367 13.6771C12.7934 13.6771 12.9825 13.6163 13.1041 13.4948C13.2324 13.3665 13.2965 13.174 13.2965 12.9173Z" fill="#31111D"/>
<path d="M9.60972 13.667C9.64349 13.667 9.66713 13.7109 9.68064 13.7987C9.7009 13.8864 9.71103 14.0756 9.71103 14.366C9.71103 14.6361 9.7009 14.8117 9.68064 14.8928C9.66713 14.9738 9.64349 15.0143 9.60972 15.0143H9.24502C8.67771 15.0143 8.24547 14.8522 7.94831 14.5281C7.6579 14.1971 7.5127 13.7277 7.5127 13.1199V8.49023H8.80941V13.0287C8.80941 13.2448 8.84993 13.4069 8.93097 13.515C9.01877 13.6163 9.15385 13.667 9.3362 13.667H9.60972Z" fill="#31111D"/>
<path d="M3.74538 17.4356C2.8674 17.4356 2.18865 17.1824 1.70914 16.6758C1.23638 16.1761 1 15.4737 1 14.5687V12.5426H2.28658V14.5383C2.28658 15.0516 2.40477 15.4365 2.64115 15.6932C2.87753 15.9566 3.24561 16.0883 3.74538 16.0883H4.15061C4.63687 16.0883 5.01846 15.9599 5.29536 15.7033C5.57226 15.4467 5.71071 15.0921 5.71071 14.6396V11.5295H6.9973V14.5383C6.9973 15.1461 6.87911 15.6661 6.64273 16.0984C6.40635 16.5374 6.07204 16.8683 5.6398 17.0912C5.21432 17.3208 4.71792 17.4356 4.15061 17.4356H3.74538ZM3.0869 11.3775V10.2227H4.46465V11.3775H3.0869Z" fill="#31111D"/>
</svg>
