<svg xmlns="http://www.w3.org/2000/svg" width="24" height="24" viewBox="0 0 24 24" fill="none">
<rect width="24" height="24" fill="#2d59e8"/>
<path d="M22.7568 12.2483C22.7568 12.8089 22.588 13.2512 22.2503 13.5754C21.9194 13.8928 21.4703 14.0515 20.9029 14.0515H19.9101C19.8426 14.0515 19.8088 13.8354 19.8088 13.4032C19.8088 12.9372 19.8426 12.7042 19.9101 12.7042H20.9029C21.0718 12.7042 21.2069 12.6603 21.3082 12.5725C21.4162 12.4779 21.4703 12.3496 21.4703 12.1875V10.5666H22.7568V12.2483ZM23 8.35815V9.51304H20.1431V8.35815H23Z" fill="#fff"/>
<path d="M19.802 12.7041C19.8695 12.7041 19.9033 12.9371 19.9033 13.4031C19.9033 13.8354 19.8695 14.0515 19.802 14.0515H19.0017C18.9341 14.8079 18.6674 15.3989 18.2014 15.8243C17.7354 16.2566 17.1309 16.4727 16.388 16.4727H15.0001L14.8887 15.1253H16.469C16.8675 15.1253 17.1782 15.0274 17.4011 14.8315C17.6239 14.6424 17.7354 14.3824 17.7354 14.0515H17.0262C16.2968 14.0515 15.7734 13.8995 15.456 13.5956C15.1453 13.2917 14.99 12.8088 14.99 12.1469C14.99 11.7147 15.0744 11.3297 15.2432 10.9921C15.4121 10.6544 15.6485 10.391 15.9524 10.2019C16.2631 10.0128 16.621 9.91821 17.0262 9.91821C17.6476 9.91821 18.1338 10.1208 18.485 10.526C18.843 10.9313 19.0219 11.4918 19.0219 12.2077V12.7041H19.802ZM16.2664 12.0963C16.2664 12.3124 16.3238 12.4711 16.4386 12.5724C16.5602 12.667 16.773 12.7142 17.0769 12.7142H17.7354V12.1875C17.7354 11.8633 17.6712 11.6168 17.5429 11.4479C17.4146 11.2791 17.2288 11.1947 16.9857 11.1947C16.7561 11.1947 16.5771 11.2791 16.4488 11.4479C16.3272 11.61 16.2664 11.8261 16.2664 12.0963Z" fill="#fff"/>
<path d="M9.9836 12.7041C10.1727 12.7041 10.3044 12.667 10.3787 12.5927C10.4597 12.5184 10.5003 12.3968 10.5003 12.228V11.9443C10.5003 11.2892 10.686 10.7725 11.0574 10.3943C11.4356 10.0094 11.9456 9.81689 12.5872 9.81689C13.2288 9.81689 13.7184 10.0026 14.0561 10.3741C14.4005 10.7388 14.5727 11.2656 14.5727 11.9544C14.5727 12.6163 14.3938 13.133 14.0358 13.5044C13.6779 13.8691 13.1781 14.0515 12.5365 14.0515C12.1988 14.0515 11.9185 14.0109 11.6957 13.9299C11.4728 13.8421 11.3073 13.7205 11.1993 13.5652C11.0709 13.734 10.9089 13.859 10.713 13.94C10.5239 14.0143 10.2808 14.0515 9.9836 14.0515H9.7202C9.65267 14.0515 9.6189 13.8354 9.6189 13.4031C9.6189 12.9371 9.65267 12.7041 9.7202 12.7041H9.9836ZM13.2963 11.9544C13.2963 11.3871 13.043 11.1035 12.5365 11.1035C12.03 11.1035 11.7767 11.3871 11.7767 11.9544C11.7767 12.1976 11.8375 12.3867 11.9591 12.5218C12.0874 12.6501 12.2799 12.7142 12.5365 12.7142C12.7931 12.7142 12.9822 12.6535 13.1038 12.5319C13.2321 12.4036 13.2963 12.2111 13.2963 11.9544Z" fill="#fff"/>
<path d="M9.60972 12.7041C9.64349 12.7041 9.66713 12.748 9.68064 12.8358C9.7009 12.9236 9.71103 13.1127 9.71103 13.4031C9.71103 13.6732 9.7009 13.8488 9.68064 13.9299C9.66713 14.0109 9.64349 14.0514 9.60972 14.0514H9.24502C8.67771 14.0514 8.24547 13.8893 7.94831 13.5652C7.6579 13.2342 7.5127 12.7648 7.5127 12.157V7.52734H8.80941V12.0658C8.80941 12.282 8.84993 12.444 8.93097 12.5521C9.01877 12.6534 9.15385 12.7041 9.3362 12.7041H9.60972Z" fill="#fff"/>
<path d="M3.74538 16.4727C2.8674 16.4727 2.18865 16.2195 1.70914 15.7129C1.23638 15.2132 1 14.5108 1 13.6058V11.5797H2.28658V13.5754C2.28658 14.0887 2.40477 14.4736 2.64115 14.7303C2.87753 14.9937 3.24561 15.1254 3.74538 15.1254H4.15061C4.63687 15.1254 5.01846 14.997 5.29536 14.7404C5.57226 14.4838 5.71071 14.1292 5.71071 13.6767V10.5666H6.9973V13.5754C6.9973 14.1832 6.87911 14.7033 6.64273 15.1355C6.40635 15.5745 6.07204 15.9054 5.6398 16.1283C5.21432 16.3579 4.71792 16.4727 4.15061 16.4727H3.74538ZM3.0869 10.4147V9.25977H4.46465V10.4147H3.0869Z" fill="#fff"/>
</svg>
