<?xml version="1.0" encoding="utf-8"?>
<!-- Generator: Adobe Illustrator 28.3.0, SVG Export Plug-In . SVG Version: 6.00 Build 0)  -->
<svg version="1.1" id="Layer_1" xmlns="http://www.w3.org/2000/svg" xmlns:xlink="http://www.w3.org/1999/xlink" x="0px" y="0px"
	 viewBox="0 0 56 56" style="enable-background:new 0 0 56 56;" xml:space="preserve">
<style type="text/css">
	.st0{fill-rule:evenodd;clip-rule:evenodd;fill:#FFFFFF;}
</style>
<circle cx="28" cy="28" r="28"/>
<path class="st0" d="M18.7,41.6h18.6c0.7,0,1.3-0.1,2-0.5c0.8-0.4,1.3-1,1.5-1.4c0,0,0-0.1,0.1-0.1c0.4-0.6,0.6-1.3,0.6-2.1
	c0-0.7-0.1-1.4-0.6-2.1l0,0L29.3,15.1c-0.2-0.5-0.7-0.7-1.3-0.7c-0.5,0-1,0.2-1.3,0.7L15.2,35.3l0,0c-0.2,0.5-0.7,1.1-0.7,2
	c-0.1,0.8,0.1,1.5,0.5,2.2c0.4,0.7,0.9,1.3,1.8,1.5C17.4,41.6,18.2,41.6,18.7,41.6z M26.5,38.7h-7.8c-0.5,0-0.7,0-0.8-0.1
	c-0.2-0.1-0.4-0.2-0.5-0.5c-0.1-0.1-0.1-0.4-0.1-0.6c0-0.1,0.1-0.2,0.4-0.7l0,0l8.9-15.4L26.5,38.7L26.5,38.7z M29.4,38.7V21.3
	l9,15.5c0.1,0.2,0.1,0.5,0.1,0.7s0,0.5-0.1,0.6s-0.1,0.2-0.2,0.2L38,38.5c-0.2,0.1-0.5,0.1-0.8,0.1h-7.8L29.4,38.7L29.4,38.7z"/>
</svg>
