<svg width="24" height="25" viewBox="0 0 24 25" fill="none" xmlns="http://www.w3.org/2000/svg">
<rect y="0.962891" width="24" height="24" rx="8" fill="#ABECD8"/>
<path fill-rule="evenodd" clip-rule="evenodd" d="M13.4728 13.4643V13.4628C13.3903 13.4688 12.9651 13.4943 12.0163 13.4943C11.2588 13.4943 10.7256 13.4718 10.5381 13.4628V13.465C7.6221 13.3368 5.4456 12.829 5.4456 12.2215C5.4456 11.6148 7.6221 11.107 10.5381 10.9765V12.9595C10.7286 12.973 11.2746 13.0053 12.0291 13.0053C12.9343 13.0053 13.3881 12.9678 13.4728 12.9603V10.978C16.3828 11.1078 18.5541 11.6155 18.5541 12.2215C18.5541 12.829 16.3828 13.3353 13.4728 13.4643ZM13.4728 10.7718V8.99726H17.5333V6.29126H6.4776V8.99726H10.5381V10.771C7.2381 10.9225 4.75635 11.5765 4.75635 12.3595C4.75635 13.1425 7.2381 13.7958 10.5381 13.948V19.6345H13.4728V13.9465C16.7676 13.795 19.2433 13.1418 19.2433 12.3595C19.2433 11.5773 16.7676 10.924 13.4728 10.7718Z" fill="#0E7C5A"/>
</svg>
