<svg width="20" height="20" viewBox="0 0 20 20" fill="none" xmlns="http://www.w3.org/2000/svg">
<path fill-rule="evenodd" clip-rule="evenodd" d="M7.8774 13.2062C4.0334 13.2062 0.750397 13.7872 0.750397 16.1152C0.750397 18.4422 4.0124 19.0452 7.8774 19.0452C11.7214 19.0452 15.0044 18.4632 15.0044 16.1362C15.0044 13.8092 11.7424 13.2062 7.8774 13.2062Z" stroke="#03041B" stroke-width="1.5" stroke-linecap="round" stroke-linejoin="round"/>
<path fill-rule="evenodd" clip-rule="evenodd" d="M7.87739 9.88588C10.4134 9.88588 12.4454 7.85288 12.4454 5.31788C12.4454 2.78188 10.4134 0.749878 7.87739 0.749878C5.34239 0.749878 3.30939 2.78188 3.30939 5.31788C3.30939 7.85288 5.34239 9.88588 7.87739 9.88588Z" stroke="#03041B" stroke-width="1.5" stroke-linecap="round" stroke-linejoin="round"/>
<path d="M17.2041 6.66907V10.6791" stroke="#03041B" stroke-width="1.5" stroke-linecap="round" stroke-linejoin="round"/>
<path d="M19.25 8.67395H15.16" stroke="#03041B" stroke-width="1.5" stroke-linecap="round" stroke-linejoin="round"/>
</svg>
