<?xml version="1.0" encoding="UTF-8"?>
<!DOCTYPE svg PUBLIC "-//W3C//DTD SVG 1.1//EN" "http://www.w3.org/Graphics/SVG/1.1/DTD/svg11.dtd">
<svg xmlns="http://www.w3.org/2000/svg" version="1.1" width="803px" height="1125px" style="shape-rendering:geometricPrecision; text-rendering:geometricPrecision; image-rendering:optimizeQuality; fill-rule:evenodd; clip-rule:evenodd" xmlns:xlink="http://www.w3.org/1999/xlink">
<g><path style="opacity:0.997" fill="#2c58e7" d="M 405.5,-0.5 C 406.167,-0.5 406.833,-0.5 407.5,-0.5C 454.611,49.0229 487.277,107.023 505.5,173.5C 534.861,295.728 514.028,408.728 443,512.5C 435.333,522.167 427.667,531.833 420,541.5C 301.947,653.852 260.78,789.852 296.5,949.5C 191.261,920.066 110.428,858.733 54,765.5C 22.5176,710.89 4.35094,652.223 -0.5,589.5C -0.5,571.167 -0.5,552.833 -0.5,534.5C 12.2341,401.363 73.5675,297.197 183.5,222C 210.164,207.339 236.164,191.672 261.5,175C 325.254,129.264 373.254,70.7644 405.5,-0.5 Z"/></g>
<g><path style="opacity:0.997" fill="#09267a" d="M 505.5,173.5 C 633.28,211.45 723.114,291.783 775,414.5C 790.513,454.911 799.68,496.578 802.5,539.5C 802.5,554.5 802.5,569.5 802.5,584.5C 790.489,721.229 727.822,827.729 614.5,904C 584.326,920.246 555.326,938.246 527.5,958C 469.86,1002.79 425.86,1058.29 395.5,1124.5C 395.167,1124.5 394.833,1124.5 394.5,1124.5C 347.109,1074.75 314.443,1016.42 296.5,949.5C 260.78,789.852 301.947,653.852 420,541.5C 427.667,531.833 435.333,522.167 443,512.5C 514.028,408.728 534.861,295.728 505.5,173.5 Z"/></g>
</svg>
