<svg width="512" height="512" viewBox="0 0 512 512" fill="none" xmlns="http://www.w3.org/2000/svg">
<rect width="512" height="512" fill="#8B959E"/>
<path fill-rule="evenodd" clip-rule="evenodd" d="M262.154 133.752C258.473 131.419 253.777 131.417 250.093 133.747L137.248 205.117C133.007 207.799 131.05 212.962 132.446 217.781C133.842 222.6 138.256 225.917 143.274 225.917H368.726C373.742 225.917 378.154 222.603 379.552 217.786C380.95 212.969 378.997 207.808 374.761 205.123L262.154 133.752ZM329.884 203.372H182.186L256.113 156.616L329.884 203.372Z" fill="white"/>
<path d="M199.636 244.727C199.636 238.501 194.589 233.455 188.363 233.455C182.138 233.455 177.091 238.501 177.091 244.727V334.908C177.091 341.134 182.138 346.181 188.363 346.181C194.589 346.181 199.636 341.134 199.636 334.908V244.727Z" fill="white"/>
<path d="M368.726 379.999C374.951 379.999 379.998 374.952 379.998 368.726C379.998 362.5 374.951 357.453 368.726 357.453H143.273C137.047 357.453 132 362.5 132 368.726C132 374.952 137.047 379.999 143.273 379.999H368.726Z" fill="white"/>
<path d="M233.454 233.455C239.68 233.455 244.726 238.501 244.726 244.727V334.908C244.726 341.134 239.68 346.181 233.454 346.181C227.228 346.181 222.181 341.134 222.181 334.908V244.727C222.181 238.501 227.228 233.455 233.454 233.455Z" fill="white"/>
<path d="M289.817 244.727C289.817 238.501 284.77 233.455 278.544 233.455C272.319 233.455 267.272 238.501 267.272 244.727V334.908C267.272 341.134 272.319 346.181 278.544 346.181C284.77 346.181 289.817 341.134 289.817 334.908V244.727Z" fill="white"/>
<path d="M323.635 233.455C329.861 233.455 334.908 238.501 334.908 244.727V334.908C334.908 341.134 329.861 346.181 323.635 346.181C317.409 346.181 312.362 341.134 312.362 334.908V244.727C312.362 238.501 317.409 233.455 323.635 233.455Z" fill="white"/>
</svg>
