<svg width="18" height="18" viewBox="0 0 18 18" fill="none" xmlns="http://www.w3.org/2000/svg">
<path fill-rule="evenodd" clip-rule="evenodd" d="M1.49198 3.0611C1.75558 2.62464 3.20796 1.03712 4.24439 1.08505C4.5542 1.11072 4.82808 1.29814 5.0506 1.51552C5.56154 2.01445 7.02418 3.9015 7.1072 4.29859C7.30918 5.27249 6.14865 5.8339 6.50382 6.81551C7.40931 9.03118 8.96952 10.5913 11.1862 11.4959C12.167 11.8511 12.7284 10.6906 13.7024 10.8934C14.0986 10.9764 15.9866 12.439 16.4856 12.9499C16.7021 13.1716 16.8904 13.4463 16.9161 13.7561C16.9546 14.8472 15.2686 16.3201 14.9399 16.5083C14.1645 17.0629 13.1529 17.0535 11.9196 16.4801C8.47826 15.0483 2.97859 9.6525 1.52023 6.08123C0.962214 4.85486 0.923701 3.83646 1.49198 3.0611Z" stroke="#03041B" stroke-opacity="0.4" strokeWidth="1.5" strokeLinecap="round" stroke-linejoin="round"/>
</svg>
