<svg width="19" height="19" viewBox="0 0 19 19" fill="none" xmlns="http://www.w3.org/2000/svg">
<g clip-path="url(#clip0_193_5658)">
<path d="M15.8062 7.27905H8.82944C7.97318 7.27905 7.27905 7.97318 7.27905 8.82944V15.8062C7.27905 16.6624 7.97318 17.3566 8.82944 17.3566H15.8062C16.6624 17.3566 17.3566 16.6624 17.3566 15.8062V8.82944C17.3566 7.97318 16.6624 7.27905 15.8062 7.27905Z" stroke="#03041B" stroke-width="1.5" stroke-linecap="round" stroke-linejoin="round"/>
<path d="M4.17812 11.9303H3.40293C2.99174 11.9303 2.59739 11.767 2.30664 11.4762C2.01588 11.1855 1.85254 10.7911 1.85254 10.3799V3.40317C1.85254 2.99198 2.01588 2.59764 2.30664 2.30688C2.59739 2.01613 2.99174 1.85278 3.40293 1.85278H10.3797C10.7909 1.85278 11.1852 2.01613 11.476 2.30688C11.7667 2.59764 11.9301 2.99198 11.9301 3.40317V4.17836" stroke="#03041B" stroke-width="1.5" stroke-linecap="round" stroke-linejoin="round"/>
</g>
<defs>
<clipPath id="clip0_193_5658">
<rect width="18.6047" height="18.6047" fill="white" transform="translate(0.302246 0.302368)"/>
</clipPath>
</defs>
</svg>
