<svg width="98" height="74" viewBox="0 0 98 74" fill="none" xmlns="http://www.w3.org/2000/svg">
<g opacity="0.1">
<path fill-rule="evenodd" clip-rule="evenodd" d="M97.0002 21.4168C97.0273 21.1435 97.0273 20.8684 97.0002 20.5952C97.0273 20.322 97.0273 20.0468 97.0002 19.7736C96.847 18.9868 96.4612 18.2624 95.8916 17.6921L79.263 1.25988C78.8808 0.872308 78.4239 0.5642 77.9194 0.353881C77.4149 0.143561 76.8729 0.0352783 76.3253 0.0352783C75.7777 0.0352783 75.2355 0.143561 74.731 0.353881C74.2265 0.5642 73.7697 0.872308 73.3876 1.25988C72.6091 2.03014 72.1719 3.07426 72.1719 4.1629C72.1719 5.25154 72.6091 6.29567 73.3876 7.06593L82.9213 16.4871H48.611C47.5085 16.4871 46.451 16.9199 45.6714 17.6903C44.8918 18.4607 44.4539 19.5056 44.4539 20.5952C44.4539 21.6847 44.8918 22.7296 45.6714 23.5C46.451 24.2705 47.5085 24.7032 48.611 24.7032H82.9213L73.3876 34.1244C72.6091 34.8947 72.1719 35.9388 72.1719 37.0274C72.1719 38.1161 72.6091 39.1602 73.3876 39.9305C74.167 40.6998 75.2236 41.1318 76.3253 41.1318C77.4269 41.1318 78.4835 40.6998 79.263 39.9305L95.8916 23.4982C96.4612 22.9279 96.847 22.2036 97.0002 21.4168ZM51.4236 56.3488C52.2001 55.5815 52.6427 54.5448 52.6571 53.4597C52.6571 52.3702 52.219 51.3252 51.4393 50.5548C50.6597 49.7844 49.6025 49.3516 48.4999 49.3516H14.1897L23.7234 39.9304C24.5019 39.1602 24.9391 38.116 24.9391 37.0274C24.9391 35.9388 24.5019 34.8946 23.7234 34.1244C23.3412 33.7368 22.8843 33.4287 22.3798 33.2184C21.8752 33.0081 21.3333 32.8998 20.7857 32.8998C20.2381 32.8998 19.6959 33.0081 19.1914 33.2184C18.6868 33.4287 18.2301 33.7368 17.848 34.1244L1.21939 50.5566C0.6498 51.1269 0.263963 51.8513 0.110751 52.6381C-0.0377307 53.176 -0.0377307 53.7433 0.110751 54.2813C0.263963 55.0681 0.6498 55.7924 1.21939 56.3627L17.848 72.795C18.6274 73.5643 19.684 73.9963 20.7857 73.9963C21.8873 73.9963 22.9439 73.5643 23.7234 72.795C24.5019 72.0247 24.9391 70.9806 24.9391 69.892C24.9391 68.8033 24.5019 67.7592 23.7234 66.9889L14.1897 57.5677H48.4999C49.598 57.5536 50.6471 57.1162 51.4236 56.3488Z" fill="url(#paint0_linear_66_61)"/>
</g>
<defs>
<linearGradient id="paint0_linear_66_61" x1="42" y1="4" x2="15" y2="74" gradientUnits="userSpaceOnUse">
<stop stop-color="#335FFC"/>
<stop offset="1" stop-color="#335FFC" stop-opacity="0"/>
</linearGradient>
</defs>
</svg>
