<svg width="43" height="32" viewBox="0 0 43 32" fill="none" xmlns="http://www.w3.org/2000/svg">
<path d="M22.8 23.1177C22.7938 23.5869 22.6021 24.0352 22.2659 24.3671C21.9297 24.6989 21.4755 24.888 21 24.8942H6.14399L10.272 28.9682C10.6091 29.3013 10.7984 29.7528 10.7984 30.2235C10.7984 30.6943 10.6091 31.1458 10.272 31.4789C9.9345 31.8116 9.477 31.9984 9 31.9984C8.523 31.9984 8.0655 31.8116 7.728 31.4789L0.528003 24.3731C0.281377 24.1265 0.114313 23.8132 0.0479741 23.473C-0.0163169 23.2404 -0.0163169 22.995 0.0479741 22.7624C0.114313 22.4222 0.281377 22.1089 0.528003 21.8623L7.728 14.7565C7.89347 14.5889 8.09123 14.4557 8.30969 14.3647C8.52815 14.2738 8.7629 14.2269 9 14.2269C9.2371 14.2269 9.47177 14.2738 9.69023 14.3647C9.9087 14.4557 10.1065 14.5889 10.272 14.7565C10.6091 15.0896 10.7984 15.5411 10.7984 16.0118C10.7984 16.4826 10.6091 16.9341 10.272 17.2672L6.14399 21.3412H21C21.4774 21.3412 21.9352 21.5284 22.2727 21.8615C22.6103 22.1947 22.8 22.6465 22.8 23.1177Z" fill="#335FFC"/>
<path d="M42.0001 8.90602C42.0118 9.02417 42.0118 9.14315 42.0001 9.2613C41.9337 9.60156 41.7667 9.91478 41.52 10.1614L34.32 17.2672C33.9825 17.5999 33.525 17.7867 33.048 17.7867C32.571 17.7867 32.1136 17.5999 31.7761 17.2672C31.439 16.9341 31.2497 16.4826 31.2497 16.0119C31.2497 15.5411 31.439 15.0896 31.7761 14.7565L35.9041 10.6825H21.048C20.5707 10.6825 20.1128 10.4953 19.7752 10.1622C19.4377 9.82903 19.248 9.37717 19.248 8.90602C19.248 8.43488 19.4377 7.98302 19.7752 7.64987C20.1128 7.31671 20.5707 7.12956 21.048 7.12956H35.9041L31.7761 3.05554C31.439 2.72245 31.2497 2.27094 31.2497 1.80018C31.2497 1.32941 31.439 0.877902 31.7761 0.544814C31.9415 0.377218 32.1393 0.243982 32.3577 0.153033C32.5762 0.0620839 32.8109 0.0152588 33.048 0.0152588C33.2852 0.0152588 33.5198 0.0620839 33.7383 0.153033C33.9567 0.243982 34.1546 0.377218 34.32 0.544814L41.52 7.65066C41.7667 7.89727 41.9337 8.21049 42.0001 8.55075C42.0118 8.6689 42.0118 8.78788 42.0001 8.90602Z" fill="#335FFC"/>
</svg>
