<svg width="16" height="13" viewBox="0 0 16 13" fill="none" xmlns="http://www.w3.org/2000/svg">
<path d="M8.00008 2.66667C9.84008 2.66667 11.3334 4.16 11.3334 6C11.3334 6.43333 11.2467 6.84 11.0934 7.22L13.0401 9.16667C14.0467 8.32667 14.8401 7.24 15.3267 6C14.1734 3.07333 11.3267 1 7.99341 1C7.06008 1 6.16675 1.16667 5.34008 1.46667L6.78008 2.90667C7.16008 2.75333 7.56675 2.66667 8.00008 2.66667ZM1.33341 0.846667L2.85342 2.36667L3.16008 2.67333C2.04579 3.53867 1.18463 4.68765 0.666748 6C1.82008 8.92667 4.66675 11 8.00008 11C9.03341 11 10.0201 10.8 10.9201 10.44L11.2001 10.72L13.1534 12.6667L14.0001 11.82L2.18008 0L1.33341 0.846667ZM5.02008 4.53333L6.05341 5.56667C6.02008 5.70667 6.00008 5.85333 6.00008 6C6.00008 7.10667 6.89341 8 8.00008 8C8.14675 8 8.29341 7.98 8.43341 7.94667L9.46675 8.98C9.02008 9.2 8.52675 9.33333 8.00008 9.33333C6.16008 9.33333 4.66675 7.84 4.66675 6C4.66675 5.47333 4.80008 4.98 5.02008 4.53333ZM7.89341 4.01333L9.99341 6.11333L10.0067 6.00667C10.0067 4.9 9.11341 4.00667 8.00675 4.00667L7.89341 4.01333Z" fill="#9A9BA4"/>
</svg>
