<svg width="22" height="23" viewBox="0 0 22 23" fill="none" xmlns="http://www.w3.org/2000/svg">
<path d="M8.13478 20.4253V17.3175C8.13478 16.5241 8.77217 15.881 9.55844 15.881H12.4326C12.8102 15.881 13.1723 16.0324 13.4393 16.3017C13.7063 16.5711 13.8563 16.9365 13.8563 17.3175V20.4253C13.8539 20.7552 13.9821 21.0723 14.2124 21.3064C14.4427 21.5405 14.756 21.6721 15.0829 21.6721H17.0438C17.9596 21.6745 18.8388 21.3091 19.4872 20.6565C20.1356 20.004 20.5 19.1179 20.5 18.1938V9.34006C20.5 8.59362 20.1721 7.88559 19.6046 7.40669L12.934 2.03119C11.7737 1.08868 10.1111 1.11911 8.98539 2.10346L2.46701 7.40669C1.87274 7.87147 1.51755 8.58161 1.5 9.34006V18.1848C1.5 20.1108 3.04738 21.6721 4.95617 21.6721H6.87229C7.55123 21.6721 8.103 21.1194 8.10792 20.4344L8.13478 20.4253Z" stroke="#03041B" stroke-width="1.5"/>
</svg>
