<svg width="15" height="18" viewBox="0,0,256,256" xmlns:xlink="http://www.w3.org/1999/xlink" xmlns="http://www.w3.org/2000/svg" version="1.1"><g fill="#a6a7ad" fill-rule="nonzero" stroke="none" stroke-width="1" stroke-linecap="butt" stroke-linejoin="miter" stroke-miterlimit="10" stroke-dasharray="" stroke-dashoffset="0" font-family="none" font-weight="none" font-size="none" text-anchor="none" style="mix-blend-mode: normal"><g transform="scale(5.12,5.12)"><path d="M17.8125,3c-3.16797,0 -5.8125,2.88672 -5.8125,6v32c0,1.87109 0.91797,3.39453 2.09375,4.40625c1.17578,1.01172 2.58984,1.59375 3.90625,1.59375h14.40625c3.05859,0 5.59375,-2.53516 5.59375,-5.59375v-32.8125c0,-3.05859 -2.53516,-5.59375 -5.59375,-5.59375zM17.8125,5h14.59375c1.94141,0 3.59375,1.65234 3.59375,3.59375v32.8125c0,1.94141 -1.65234,3.59375 -3.59375,3.59375h-14.40625c-0.68359,0 -1.76953,-0.38281 -2.59375,-1.09375c-0.82422,-0.71094 -1.40625,-1.67969 -1.40625,-2.90625v-32c0,-1.88672 1.98047,-4 3.8125,-4zM16.8125,8c-0.47656,0.08984 -0.82031,0.51172 -0.8125,1v31c0,0.55078 0.44922,1 1,1h16c0.55078,0 1,-0.44922 1,-1v-31c0,-0.55078 -0.44922,-1 -1,-1h-16c-0.03125,0 -0.0625,0 -0.09375,0c-0.03125,0 -0.0625,0 -0.09375,0zM18,10h14v29h-14zM25,41.5c-0.82812,0 -1.5,0.67188 -1.5,1.5c0,0.82813 0.67188,1.5 1.5,1.5c0.82813,0 1.5,-0.67187 1.5,-1.5c0,-0.82812 -0.67187,-1.5 -1.5,-1.5z"></path></g></g></svg>