<svg width="15" height="18" viewBox="0 0 15 18" fill="none" xmlns="http://www.w3.org/2000/svg">
<ellipse cx="7.64917" cy="5.06568" rx="3.98169" ry="3.98169" stroke="#03041B" stroke-opacity="0.4" strokeWidth="1.5" strokeLinecap="round" stroke-linejoin="round"/>
<path fill-rule="evenodd" clip-rule="evenodd" d="M1.33339 14.5856C1.33232 14.3057 1.39492 14.0292 1.51645 13.7771C1.89784 13.0143 2.97336 12.61 3.86581 12.4269C4.50944 12.2896 5.16196 12.1978 5.81851 12.1523C7.03407 12.0456 8.25665 12.0456 9.47221 12.1523C10.1287 12.1984 10.7812 12.2901 11.4249 12.4269C12.3174 12.61 13.3929 12.9761 13.7743 13.7771C14.0187 14.2911 14.0187 14.8878 13.7743 15.4018C13.3929 16.2027 12.3174 16.5688 11.4249 16.7443C10.782 16.8873 10.1293 16.9816 9.47221 17.0265C8.48285 17.1104 7.48886 17.1257 6.49739 17.0723C6.26855 17.0723 6.04735 17.0723 5.81851 17.0265C5.1639 16.9822 4.51364 16.8878 3.87343 16.7443C2.97336 16.5688 1.90547 16.2027 1.51645 15.4018C1.39554 15.1467 1.333 14.8679 1.33339 14.5856Z" stroke="#03041B" stroke-opacity="0.4" strokeWidth="1.5" strokeLinecap="round" stroke-linejoin="round"/>
</svg>
