<svg width="42" height="51" viewBox="0 0 42 51" fill="none" xmlns="http://www.w3.org/2000/svg">
<mask id="mask0_33_66" style="mask-type:alpha" maskUnits="userSpaceOnUse" x="0" y="0" width="42" height="51">
<path fill-rule="evenodd" clip-rule="evenodd" d="M0 0H41.9724V50.3556H0V0Z" fill="white"/>
</mask>
<g mask="url(#mask0_33_66)">
<path fill-rule="evenodd" clip-rule="evenodd" d="M20.9864 3.70964C18.8886 3.70964 5.65377 8.37027 4.12744 9.64427C3.67721 10.097 3.65989 10.8836 3.75637 16.1504C3.8009 18.6885 3.86274 22.1369 3.86274 26.9114C3.86274 39.7776 18.0178 45.4896 20.9839 46.5409C23.9475 45.4846 38.11 39.7405 38.11 26.9114C38.11 22.132 38.1718 18.681 38.2188 16.1429C38.3128 10.8812 38.2955 10.0945 37.8181 9.61954C36.3214 8.37027 23.0841 3.70964 20.9864 3.70964ZM20.9862 50.3562C20.8056 50.3562 20.6251 50.3314 20.4494 50.277C19.6207 50.0271 0.151927 43.9367 0.151927 26.912C0.151927 22.1697 0.0900821 18.7386 0.0455538 16.2203C-0.0682408 9.92939 -0.0929788 8.61828 1.53231 6.99547C3.47423 5.04859 18.181 -0.000427246 20.9862 -0.000427246C23.789 -0.000427246 38.4958 5.04859 40.4426 6.99547C42.0655 8.61828 42.0407 9.92939 41.9269 16.2128C41.8824 18.7312 41.8205 22.1623 41.8205 26.912C41.8205 43.9367 22.3518 50.0271 21.5231 50.277C21.3474 50.3314 21.1668 50.3562 20.9862 50.3562Z" fill="#335FFC"/>
</g>
<path fill-rule="evenodd" clip-rule="evenodd" d="M19.2385 30.9696C18.7462 30.9696 18.2737 30.7742 17.9249 30.4254L13.2445 25.74C12.5221 25.0152 12.5221 23.8377 13.2469 23.1153C13.9693 22.3905 15.1468 22.3905 15.8716 23.1153L19.2385 26.4871L27.5702 18.1554C28.295 17.4305 29.4676 17.4305 30.1924 18.1554C30.9173 18.8802 30.9173 20.0552 30.1924 20.7801L20.5496 30.4254C20.2032 30.7742 19.7307 30.9696 19.2385 30.9696Z" fill="#335FFC"/>
</svg>
