<svg width="97" height="117" viewBox="0 0 97 117" fill="none" xmlns="http://www.w3.org/2000/svg">
<path opacity="0.1" fill-rule="evenodd" clip-rule="evenodd" d="M9.53709 22.2856C13.0639 19.3418 43.645 8.57271 48.4922 8.57271C53.3394 8.57271 83.9262 19.3418 87.3844 22.2284C88.4876 23.3259 88.5276 25.1436 88.3104 37.3017C88.2018 43.1664 88.0589 51.1404 88.0589 62.1839C88.0589 91.8275 55.3344 105.1 48.4865 107.541C41.6329 105.112 8.92547 91.9132 8.92547 62.1839C8.92547 51.3225 8.78696 43.4308 8.68448 37.5926L8.67968 37.3189C8.45675 25.1494 8.49677 23.3316 9.53709 22.2856ZM47.2515 116.174C47.6574 116.299 48.0746 116.357 48.4919 116.357C48.9092 116.357 49.3265 116.299 49.7323 116.174C51.6472 115.596 96.6328 101.523 96.6328 62.1853C96.6328 51.3589 96.7718 43.4974 96.8743 37.7007L96.8785 37.4632L96.879 37.4369C97.1415 22.9407 97.1964 19.9126 93.4489 16.1651C88.9503 11.6665 54.9682 0 48.4919 0C42.0099 0 8.02775 11.6665 3.54062 16.1651C-0.212525 19.9125 -0.15775 22.9406 0.104773 37.4535L0.105259 37.4804L0.109472 37.7185C0.212003 43.5152 0.351051 51.3763 0.351051 62.1853C0.351051 101.523 45.3366 115.596 47.2515 116.174ZM41.4182 70.3035C42.2242 71.1095 43.316 71.5611 44.4535 71.5611C45.591 71.5611 46.6827 71.1095 47.483 70.3035L69.7643 48.0165C71.4391 46.3417 71.4391 43.6266 69.7643 41.9517C68.0895 40.2769 65.38 40.2769 63.7052 41.9517L44.4535 61.2035L36.6739 53.4125C34.9991 51.7377 32.2782 51.7377 30.6091 53.4125C28.9343 55.0816 28.9343 57.8024 30.6034 59.4773L41.4182 70.3035Z" fill="url(#paint0_linear_33_73)"/>
<defs>
<linearGradient id="paint0_linear_33_73" x1="48.4919" y1="0" x2="48.4919" y2="116.357" gradientUnits="userSpaceOnUse">
<stop stop-color="#335FFC"/>
<stop offset="1" stop-color="#335FFC" stop-opacity="0"/>
</linearGradient>
</defs>
</svg>
