<svg width="51" height="50" viewBox="0 0 51 50" fill="none" xmlns="http://www.w3.org/2000/svg">
<path d="M7.25959 39.5676H6.98041C5.12909 39.5676 3.3535 38.8321 2.04442 37.523C0.735341 36.2139 0 34.4385 0 32.5872V27.1551C0 25.3038 0.735341 23.5283 2.04442 22.2193C3.3535 20.9102 5.12909 20.1747 6.98041 20.1747H7.25959C9.10885 20.1814 10.8805 20.9189 12.1881 22.2265C13.4958 23.5342 14.2333 25.3058 14.24 27.1551V32.6632C14.2134 34.4992 13.467 36.2514 12.1615 37.5427C10.856 38.8339 9.09578 39.5611 7.25959 39.5676ZM6.98041 23.906C6.55725 23.9058 6.13828 23.9904 5.74827 24.1546C5.35827 24.3188 5.00513 24.5594 4.70948 24.8622C4.41383 25.1649 4.18162 25.5237 4.02672 25.9175C3.87182 26.3113 3.79734 26.7321 3.8075 27.1551V32.6632C3.8075 33.5047 4.14171 34.3118 4.73675 34.9069C5.33179 35.5019 6.1389 35.8361 6.98041 35.8361H7.25959C8.1011 35.8361 8.90821 35.5019 9.50325 34.9069C10.0983 34.3118 10.4325 33.5047 10.4325 32.6632V27.1551C10.4325 26.3136 10.0983 25.5065 9.50325 24.9114C8.90821 24.3164 8.1011 23.9822 7.25959 23.9822L6.98041 23.906Z" fill="#335FFC"/>
<path d="M43.6341 23.9061C43.1292 23.9061 42.645 23.7055 42.2879 23.3485C41.9309 22.9915 41.7304 22.5072 41.7304 22.0023V19.464C41.5638 15.2367 39.7673 11.238 36.7175 8.30597C33.6677 5.37396 29.6014 3.73638 25.3708 3.73638C21.1402 3.73638 17.0739 5.37396 14.0241 8.30597C10.9743 11.238 9.17778 15.2367 9.01123 19.464V22.0023C9.01123 22.5072 8.81067 22.9915 8.45365 23.3485C8.09663 23.7055 7.61239 23.9061 7.10748 23.9061C6.60258 23.9061 6.11834 23.7055 5.76132 23.3485C5.4043 22.9915 5.20374 22.5072 5.20374 22.0023V19.464C5.38913 14.2392 7.59504 9.29034 11.3568 5.65965C15.1186 2.02897 20.1427 0 25.3708 0C30.5989 0 35.623 2.02897 39.3848 5.65965C43.1466 9.29034 45.3525 14.2392 45.5379 19.464V22.0023C45.5379 22.5072 45.3373 22.9915 44.9803 23.3485C44.6232 23.7055 44.139 23.9061 43.6341 23.9061Z" fill="#335FFC"/>
<path d="M30.587 50H28.0486C27.5437 50 27.0595 49.7994 26.7025 49.4424C26.3455 49.0854 26.1449 48.6011 26.1449 48.0962C26.1449 47.5913 26.3455 47.1071 26.7025 46.75C27.0595 46.393 27.5437 46.1925 28.0486 46.1925H30.587C33.1565 46.186 35.6451 45.2937 37.6334 43.6661C39.6217 42.0385 40.9879 39.7751 41.5018 37.2575C41.5999 36.763 41.8902 36.3276 42.3089 36.0469C42.7277 35.7661 43.2408 35.6629 43.7355 35.76C44.2288 35.8699 44.6604 36.1665 44.9396 36.5877C45.2188 37.0089 45.324 37.522 45.2332 38.0191C44.5394 41.3945 42.7045 44.4281 40.0372 46.61C37.37 48.7919 34.0329 49.9889 30.587 50Z" fill="#335FFC"/>
<path d="M43.9129 39.5676H43.6083C41.7591 39.5609 39.9874 38.8232 38.6798 37.5156C37.3722 36.2079 36.6346 34.4364 36.6279 32.5872V27.1551C36.6346 25.3058 37.3722 23.5342 38.6798 22.2265C39.9874 20.9189 41.7591 20.1814 43.6083 20.1747H43.9129C45.7401 20.2144 47.4793 20.9666 48.7597 22.2707C50.0401 23.5748 50.7603 25.3275 50.7665 27.1551V32.6632C50.7406 34.4776 50.0118 36.2112 48.7335 37.499C47.4552 38.7868 45.727 39.5283 43.9129 39.5676ZM43.6083 23.906C42.7689 23.9126 41.9657 24.249 41.3721 24.8426C40.7785 25.4362 40.4421 26.2394 40.4354 27.0789V32.5872C40.4421 33.4266 40.7785 34.2298 41.3721 34.8234C41.9657 35.417 42.7689 35.7534 43.6083 35.7601H43.9129C44.7544 35.7601 45.5615 35.4257 46.1566 34.8307C46.7516 34.2356 47.0858 33.4287 47.0858 32.5872V27.1551C47.0858 26.3136 46.7516 25.5065 46.1566 24.9114C45.5615 24.3164 44.7544 23.9822 43.9129 23.9822L43.6083 23.906Z" fill="#335FFC"/>
</svg>
