<svg width="126" height="124" viewBox="0 0 126 124" fill="none" xmlns="http://www.w3.org/2000/svg">
<g opacity="0.1">
<path fill-rule="evenodd" clip-rule="evenodd" d="M103.491 50.6865V48.2707C103.078 37.787 98.623 27.8702 91.0595 20.5988C83.496 13.3274 73.4115 9.26623 62.9196 9.26623C52.4277 9.26623 42.3432 13.3274 34.7797 20.5988C27.2162 27.8702 22.7609 37.787 22.3479 48.2707V50.6012C25.3037 51.3763 28.0293 52.9245 30.2266 55.1218C33.4695 58.3647 35.2986 62.7585 35.3152 67.3446V81.0048C35.2492 85.5581 33.3981 89.9035 30.1605 93.1058C26.9229 96.3081 22.5575 98.1115 18.0038 98.1276H17.3114C12.7201 98.1276 8.31669 96.3035 5.07017 93.057C1.82365 89.8105 0 85.4074 0 80.8161V67.3446C0 62.7533 1.82365 58.3503 5.07017 55.1038C7.25601 52.9179 9.9663 51.3769 12.9053 50.6033V48.2707C13.365 35.3132 18.8357 23.04 28.165 14.0359C37.4942 5.03184 49.9539 0 62.9196 0C75.8853 0 88.3449 5.03184 97.6742 14.0359C107.003 23.04 112.474 35.3132 112.934 48.2707V50.5974C115.943 51.3866 118.71 52.9762 120.924 55.2313C124.099 58.4655 125.885 62.8123 125.901 67.3446V81.0048C125.837 85.5043 124.029 89.8037 120.859 92.9975C118.243 95.6329 114.867 97.3459 111.239 97.9189C109.076 104.824 104.935 110.977 99.2925 115.593C92.6777 121.004 84.4018 123.972 75.8558 124H69.5608C68.3086 124 67.1077 123.503 66.2223 122.617C65.3369 121.732 64.8395 120.531 64.8395 119.279C64.8395 118.026 65.3369 116.826 66.2223 115.94C67.1077 115.055 68.3086 114.557 69.5608 114.557H75.8558C82.2282 114.541 88.4 112.328 93.3309 108.292C97.0618 105.238 99.9095 101.281 101.627 96.8314C99.5136 95.9659 97.5716 94.6842 95.9259 93.0386C92.683 89.7956 90.8539 85.4023 90.8373 80.8161V67.3446C90.8539 62.7585 92.683 58.3647 95.9259 55.1218C98.0453 53.0024 100.656 51.4868 103.491 50.6865ZM108.465 88.685C108.465 88.6849 108.465 88.6848 108.464 88.6847C108.028 88.5991 107.585 88.5763 107.15 88.6139C105.438 88.3827 103.838 87.5966 102.603 86.362C101.131 84.8898 100.296 82.898 100.28 80.8161V67.1556C100.296 65.0737 101.131 63.0819 102.603 61.6098C104.075 60.1376 106.067 59.3032 108.149 59.2868L108.904 59.4758C110.991 59.4758 112.993 60.3047 114.468 61.7803C115.944 63.256 116.773 65.2577 116.773 67.3446V80.8161C116.773 82.9031 115.944 84.9043 114.468 86.38C112.993 87.8557 110.991 88.685 108.904 88.685H108.465ZM14.2557 59.9034C15.2229 59.4962 16.262 59.2865 17.3114 59.2868L18.0038 59.4758C20.0907 59.4758 22.0924 60.3047 23.5681 61.7803C25.0437 63.256 25.8726 65.2577 25.8726 67.3446V81.0048C25.8726 83.0917 25.0437 85.0934 23.5681 86.5691C22.0924 88.0448 20.0907 88.8736 18.0038 88.8736H17.3114C15.2245 88.8736 13.2228 88.0448 11.7471 86.5691C10.2715 85.0934 9.44259 83.0917 9.44259 81.0048V67.3446C9.4174 66.2955 9.60211 65.2521 9.98626 64.2755C10.3704 63.2989 10.9463 62.409 11.6795 61.6582C12.4127 60.9074 13.2885 60.3106 14.2557 59.9034Z" fill="url(#paint0_linear_66_48)"/>
</g>
<defs>
<linearGradient id="paint0_linear_66_48" x1="81" y1="-1.30075e-08" x2="36.5" y2="114.5" gradientUnits="userSpaceOnUse">
<stop stop-color="#335FFC"/>
<stop offset="1" stop-color="#335FFC" stop-opacity="0"/>
</linearGradient>
</defs>
</svg>
