<svg width="19" height="20" viewBox="0 0 19 20" fill="none" xmlns="http://www.w3.org/2000/svg">
<path d="M16.3249 7.46875C16.3249 7.46875 15.7819 14.2037 15.4669 17.0407C15.3169 18.3957 14.4799 19.1898 13.1089 19.2148C10.4999 19.2618 7.88791 19.2648 5.27991 19.2098C3.96091 19.1828 3.13791 18.3788 2.99091 17.0478C2.67391 14.1858 2.13391 7.46875 2.13391 7.46875" stroke="#FF1F11" strokeWidth="1.5" strokeLinecap="round" stroke-linejoin="round"/>
<path d="M17.7082 4.24023H0.750214" stroke="#FF1F11" strokeWidth="1.5" strokeLinecap="round" stroke-linejoin="round"/>
<path d="M14.4406 4.23998C13.6556 4.23998 12.9796 3.68498 12.8256 2.91598L12.5826 1.69998C12.4326 1.13898 11.9246 0.750977 11.3456 0.750977H7.11261C6.53361 0.750977 6.02561 1.13898 5.87561 1.69998L5.63261 2.91598C5.47861 3.68498 4.80261 4.23998 4.01761 4.23998" stroke="#FF1F11" strokeWidth="1.5" strokeLinecap="round" stroke-linejoin="round"/>
</svg>
