<svg width="52" height="38" viewBox="0 0 52 38" fill="none" xmlns="http://www.w3.org/2000/svg">
<path d="M25.8808 24.9258C17.8308 24.9258 11.0386 26.2412 11.0386 31.3179C11.0386 36.3968 17.8747 37.6659 25.8808 37.6659C33.9307 37.6659 40.723 36.3505 40.723 31.2738C40.723 26.195 33.8869 24.9258 25.8808 24.9258Z" fill="#03041B" fill-opacity="0.1"/>
<path opacity="0.4" d="M25.881 20.0894C31.3319 20.0894 35.7027 15.6935 35.7027 10.2112C35.7027 4.72682 31.3319 0.333008 25.881 0.333008C20.4301 0.333008 16.0593 4.72682 16.0593 10.2112C16.0593 15.6935 20.4301 20.0894 25.881 20.0894Z" fill="#03041B" fill-opacity="0.1"/>
<path opacity="0.4" d="M47.2054 12.511C48.6157 6.96362 44.481 1.98145 39.216 1.98145C38.6436 1.98145 38.0962 2.04448 37.5613 2.15165C37.4903 2.16846 37.4109 2.20418 37.3691 2.26722C37.3211 2.34707 37.3566 2.45424 37.4088 2.52358C38.9904 4.75516 39.8992 7.47214 39.8992 10.3887C39.8992 13.1835 39.0656 15.7891 37.6031 17.9513C37.4527 18.174 37.5864 18.4745 37.8517 18.5208C38.2194 18.5859 38.5955 18.6195 38.9799 18.63C42.8138 18.7309 46.2548 16.2493 47.2054 12.511Z" fill="#03041B" fill-opacity="0.1"/>
<path d="M51.2217 25.5721C50.5197 24.0676 48.8253 23.0358 46.2492 22.5294C45.0333 22.231 41.7427 21.8108 38.6819 21.8675C38.6359 21.8738 38.6109 21.9053 38.6067 21.9263C38.6004 21.9558 38.6129 22.0062 38.6735 22.0377C40.088 22.7416 45.5556 25.8032 44.8682 32.2605C44.839 32.54 45.0625 32.7816 45.3404 32.7396C46.6859 32.5463 50.1478 31.7982 51.2217 29.4679C51.8151 28.2365 51.8151 26.8055 51.2217 25.5721Z" fill="#03041B" fill-opacity="0.1"/>
<path opacity="0.4" d="M14.4375 2.15263C13.9047 2.04336 13.3552 1.98242 12.7827 1.98242C7.51778 1.98242 3.38311 6.9646 4.79546 12.512C5.74399 16.2502 9.18502 18.7319 13.0188 18.631C13.4033 18.6205 13.7814 18.5848 14.147 18.5217C14.4124 18.4755 14.5461 18.175 14.3957 17.9523C12.9332 15.7879 12.0996 13.1844 12.0996 10.3897C12.0996 7.47101 13.0105 4.75403 14.5921 2.52456C14.6422 2.45521 14.6798 2.34805 14.6297 2.2682C14.5879 2.20306 14.5106 2.16944 14.4375 2.15263Z" fill="#03041B" fill-opacity="0.1"/>
<path d="M5.75022 22.5296C3.17414 23.036 1.48183 24.0678 0.779834 25.5723C0.184391 26.8058 0.184391 28.2368 0.779834 29.4702C1.85372 31.7985 5.31565 32.5486 6.66114 32.7398C6.93901 32.7819 7.16047 32.5423 7.13122 32.2607C6.44385 25.8056 11.9115 22.744 13.328 22.04C13.3865 22.0064 13.399 21.9581 13.3928 21.9266C13.3886 21.9055 13.3656 21.874 13.3197 21.8698C10.2568 21.811 6.96826 22.2312 5.75022 22.5296Z" fill="#03041B" fill-opacity="0.1"/>
</svg>
