<svg width="134" height="124" viewBox="0 0 134 124" fill="none" xmlns="http://www.w3.org/2000/svg">
<g opacity="0.1">
<path fill-rule="evenodd" clip-rule="evenodd" d="M38.6526 9.66642C22.671 9.66642 9.6665 22.6709 9.6665 38.6526L9.6665 84.9028C9.6665 100.884 22.671 113.889 38.6526 113.889H94.3566C110.338 113.889 123.336 100.884 123.336 84.9028V83.1023H102.084C89.8588 83.1023 79.909 73.1588 79.9025 60.9406C79.9025 48.7094 89.8524 38.7595 102.084 38.7531H123.336V38.6526C123.336 22.6709 110.338 9.66642 94.3566 9.66642L38.6526 9.66642ZM133.003 78.2691C133.003 78.2926 133.003 78.3161 133.002 78.3395V84.9027C133.002 106.214 115.667 123.555 94.3564 123.555H38.6525C17.3414 123.555 0 106.214 0 84.9027L0 38.6525C0 17.335 17.3414 0 38.6525 0L94.3564 0C115.667 0 133.002 17.335 133.002 38.6525V43.5158C133.003 43.5393 133.003 43.5628 133.003 43.5863C133.003 43.6098 133.003 43.6333 133.002 43.6567V78.1987C133.003 78.2122 133.003 78.2256 133.003 78.2391C133.003 78.2491 133.003 78.2591 133.003 78.2691ZM123.336 73.4359V48.4194H102.084C95.1818 48.4259 89.5689 54.0388 89.5689 60.9341C89.5689 67.823 95.1882 73.4359 102.084 73.4359H123.336ZM103.022 65.3676H105.032C107.7 65.3676 109.865 63.2024 109.865 60.5345C109.865 57.8666 107.7 55.7013 105.032 55.7013H103.022C100.354 55.7013 98.1885 57.8666 98.1885 60.5345C98.1885 63.2024 100.354 65.3676 103.022 65.3676ZM34.0642 38.9109L68.8566 38.9109C71.5245 38.9109 73.6898 36.7457 73.6898 34.0777C73.6898 31.4098 71.5245 29.2446 68.8566 29.2446H34.0642C31.3963 29.2446 29.231 31.4098 29.231 34.0777C29.231 36.7457 31.3963 38.9109 34.0642 38.9109Z" fill="url(#paint0_linear_33_32)"/>
</g>
<defs>
<linearGradient id="paint0_linear_33_32" x1="118.693" y1="6.00535" x2="56.9158" y2="113.007" gradientUnits="userSpaceOnUse">
<stop stop-color="#335FFC"/>
<stop offset="1" stop-color="#335FFC" stop-opacity="0"/>
</linearGradient>
</defs>
</svg>
