<svg width="54" height="50" viewBox="0 0 54 50" fill="none" xmlns="http://www.w3.org/2000/svg">
<path fill-rule="evenodd" clip-rule="evenodd" d="M15.6418 3.9118C9.17434 3.9118 3.91173 9.17441 3.91173 15.6418V34.3583C3.91173 40.8257 9.17434 46.0883 15.6418 46.0883H38.1839C44.6513 46.0883 49.9113 40.8257 49.9113 34.3583V33.6296H41.3109C36.3638 33.6296 32.3373 29.6057 32.3347 24.6612C32.3347 19.7116 36.3612 15.6851 41.3109 15.6825H49.9113V15.6418C49.9113 9.17441 44.6513 3.9118 38.1839 3.9118H15.6418ZM53.8233 31.6737L53.8231 31.7013V34.3582C53.8231 42.9823 46.808 50 38.1839 50H15.6418C7.01768 50 0 42.9823 0 34.3582V15.6418C0 7.01507 7.01768 0 15.6418 0H38.1839C46.808 0 53.8231 7.01507 53.8231 15.6418V17.6108L53.8233 17.6383L53.8231 17.6659V31.6461L53.8233 31.6737ZM49.9113 29.7178V19.5942H41.3109C38.5179 19.5968 36.2465 21.8682 36.2465 24.6586C36.2465 27.4464 38.5205 29.7178 41.3109 29.7178H49.9113ZM41.6905 26.4528H42.5041C43.5838 26.4528 44.46 25.5766 44.46 24.497C44.46 23.4173 43.5838 22.5411 42.5041 22.5411H41.6905C40.6109 22.5411 39.7346 23.4173 39.7346 24.497C39.7346 25.5766 40.6109 26.4528 41.6905 26.4528ZM13.7849 15.7463H27.8646C28.9443 15.7463 29.8205 14.8701 29.8205 13.7905C29.8205 12.7108 28.9443 11.8346 27.8646 11.8346H13.7849C12.7053 11.8346 11.829 12.7108 11.829 13.7905C11.829 14.8701 12.7053 15.7463 13.7849 15.7463Z" fill="#335FFC"/>
</svg>
