<svg width="48" height="42" viewBox="0 0 48 42" fill="none" xmlns="http://www.w3.org/2000/svg">
<path fill-rule="evenodd" clip-rule="evenodd" d="M47.3251 12.542H37.4442C32.846 12.55 29.121 16.182 29.1127 20.6653C29.1065 25.1587 32.8356 28.8069 37.4442 28.8129H47.3334V29.5268C47.3334 37.365 42.5817 42 34.5405 42H13.4617C5.41845 42 0.666748 37.365 0.666748 29.5268V12.455C0.666748 4.61678 5.41845 0 13.4617 0H34.5322C42.5734 0 47.3251 4.61678 47.3251 12.455V12.542ZM11.7254 12.5237H24.8854H24.8937H24.9103C25.8955 12.5197 26.6919 11.7371 26.6878 10.7745C26.6836 9.81392 25.8789 9.03738 24.8937 9.04142H11.7254C10.7464 9.04546 9.95207 9.81998 9.94792 10.7765C9.94377 11.7371 10.7402 12.5197 11.7254 12.5237Z" fill="#03041B" fill-opacity="0.1"/>
<path opacity="0.4" d="M33.4208 21.6918C33.9087 23.9113 35.8546 25.4728 38.0762 25.4322H45.6594C46.5837 25.4322 47.3335 24.6666 47.3335 23.7204V17.8134C47.3315 16.8692 46.5837 16.1016 45.6594 16.0996H37.8977C35.3706 16.1077 33.3295 18.2053 33.3335 20.7903C33.3335 21.0928 33.3633 21.3954 33.4208 21.6918Z" fill="#03041B" fill-opacity="0.1"/>
<ellipse cx="38.0001" cy="20.7669" rx="2.33334" ry="2.33333" fill="#03041B" fill-opacity="0.1"/>
</svg>
