<svg
    width="20"
    height="21"
    viewBox="0 0 20 21"
    fill="none"
    xmlns="http://www.w3.org/2000/svg"
>
    <path
        fillRule="evenodd"
        clipRule="evenodd"
        d="M2.73705 11.4393C3.62877 11.4393 4.35166 10.7164 4.35166 9.82473V1.87452C4.35166 1.37104 4.75981 0.962891 5.26329 0.962891C5.76676 0.962891 6.17491 1.37104 6.17491 1.87452V9.82473C6.17491 10.7164 6.8978 11.4393 7.78953 11.4393C9.01904 11.4393 9.7974 12.7588 9.2027 13.8349L6.84038 18.1096C6.15486 19.35 4.37171 19.35 3.68619 18.1096L1.32387 13.8349C0.72917 12.7588 1.50753 11.4393 2.73705 11.4393Z"
        fill="#464646"
    />
    <path
        fillRule="evenodd"
        clipRule="evenodd"
        d="M17.263 10.4864C16.3712 10.4864 15.6483 11.2093 15.6483 12.1011L15.6483 20.0513C15.6483 20.5547 15.2402 20.9629 14.7367 20.9629C14.2332 20.9629 13.8251 20.5547 13.8251 20.0513L13.8251 12.1011C13.8251 11.2093 13.1022 10.4864 12.2105 10.4864C10.981 10.4864 10.2026 9.167 10.7973 8.09087L13.1596 3.81619C13.8451 2.57573 15.6283 2.57573 16.3138 3.81619L18.6761 8.09087C19.2708 9.16699 18.4925 10.4864 17.263 10.4864Z"
        fill="#464646"
    />
</svg>