<svg
    width="24"
    height="24"
    viewBox="0 0 24 24"
    fill="none"
    xmlns="http://www.w3.org/2000/svg"
>
    <path
        fillRule="evenodd"
        clipRule="evenodd"
        d="M15.4118 5.47122C15.3992 6.69617 15.157 7.89533 14.7093 9.01403C14.1975 10.2932 13.4171 11.4672 12.4041 12.4543C11.293 13.5378 10.4954 14.8867 10.0901 16.3642C9.68471 17.8417 9.68542 19.3971 10.0921 20.8742C10.0987 20.8981 10.1039 20.9222 10.1076 20.9464C10.4206 22.0505 10.9554 23.0894 11.687 24C12.7049 22.2383 14.2116 20.787 16.0394 19.818L16.0458 19.8147C16.8128 19.419 17.5167 18.9174 18.1357 18.3257L18.3007 18.1646C19.4111 17.08 20.2081 15.7305 20.6133 14.2526C21.0184 12.7748 21.0179 11.2192 20.6119 9.74163C20.2058 8.26397 19.408 6.91497 18.2968 5.83095C17.4402 4.99521 16.4205 4.33975 15.3015 3.90128C15.3799 4.41768 15.4173 4.94248 15.4118 5.47122ZM12.235 0C12.9623 0.90708 13.4947 1.94122 13.8073 3.04009C13.8111 3.0667 13.8166 3.09325 13.8238 3.11957C14.2306 4.59665 14.2314 6.15201 13.8262 7.62949C13.7456 7.92332 13.6495 8.21208 13.5385 8.49467C13.0933 9.62536 12.407 10.6645 11.5108 11.5378C10.3009 12.7176 9.4129 14.175 8.92775 15.7766C8.65932 16.6604 8.51482 17.5839 8.50512 18.5226C8.49966 19.0514 8.53707 19.5763 8.61551 20.0928C7.49584 19.6542 6.47573 18.9983 5.61878 18.1619C4.50763 17.0775 3.70998 15.7281 3.30425 14.25C2.89855 12.7721 2.89858 11.2162 3.30436 9.73825C3.71008 8.26049 4.50759 6.91129 5.61849 5.82702L5.61907 5.82645L5.78429 5.66611C6.40438 5.07456 7.1098 4.57381 7.87856 4.17991L7.88674 4.17565C9.71172 3.2071 11.2166 1.75831 12.235 0Z"
        fill="#E0E0E0"
    />
</svg>