<svg
    width="24"
    height="25"
    viewBox="0 0 24 25"
    fill="none"
    xmlns="http://www.w3.org/2000/svg"
>
    <g clipPath="url(#clip0_4015_21393)">
        <path
            d="M12 3.12383C15.2063 3.12383 15.5859 3.13789 16.8469 3.19414C18.0188 3.2457 18.6516 3.44258 19.0734 3.60664C19.6313 3.82227 20.0344 4.08477 20.4516 4.50195C20.8734 4.92383 21.1313 5.32227 21.3469 5.88008C21.5109 6.30195 21.7078 6.93945 21.7594 8.10664C21.8156 9.37226 21.8297 9.75195 21.8297 12.9535C21.8297 16.1598 21.8156 16.5395 21.7594 17.8004C21.7078 18.9723 21.5109 19.6051 21.3469 20.027C21.1313 20.5848 20.8687 20.9879 20.4516 21.4051C20.0297 21.827 19.6313 22.0848 19.0734 22.3004C18.6516 22.4645 18.0141 22.6613 16.8469 22.7129C15.5813 22.7691 15.2016 22.7832 12 22.7832C8.79375 22.7832 8.41406 22.7691 7.15313 22.7129C5.98125 22.6613 5.34844 22.4645 4.92656 22.3004C4.36875 22.0848 3.96563 21.8223 3.54844 21.4051C3.12656 20.9832 2.86875 20.5848 2.65313 20.027C2.48906 19.6051 2.29219 18.9676 2.24063 17.8004C2.18438 16.5348 2.17031 16.1551 2.17031 12.9535C2.17031 9.74727 2.18438 9.36758 2.24063 8.10664C2.29219 6.93477 2.48906 6.30195 2.65313 5.88008C2.86875 5.32227 3.13125 4.91914 3.54844 4.50195C3.97031 4.08008 4.36875 3.82227 4.92656 3.60664C5.34844 3.44258 5.98594 3.2457 7.15313 3.19414C8.41406 3.13789 8.79375 3.12383 12 3.12383ZM12 0.962891C8.74219 0.962891 8.33438 0.976953 7.05469 1.0332C5.77969 1.08945 4.90313 1.2957 4.14375 1.59102C3.35156 1.90039 2.68125 2.3082 2.01563 2.97852C1.34531 3.64414 0.9375 4.31445 0.628125 5.10195C0.332812 5.86602 0.126563 6.73789 0.0703125 8.01289C0.0140625 9.29727 0 9.70508 0 12.9629C0 16.2207 0.0140625 16.6285 0.0703125 17.9082C0.126563 19.1832 0.332812 20.0598 0.628125 20.8191C0.9375 21.6113 1.34531 22.2816 2.01563 22.9473C2.68125 23.6129 3.35156 24.0254 4.13906 24.3301C4.90313 24.6254 5.775 24.8316 7.05 24.8879C8.32969 24.9441 8.7375 24.9582 11.9953 24.9582C15.2531 24.9582 15.6609 24.9441 16.9406 24.8879C18.2156 24.8316 19.0922 24.6254 19.8516 24.3301C20.6391 24.0254 21.3094 23.6129 21.975 22.9473C22.6406 22.2816 23.0531 21.6113 23.3578 20.8238C23.6531 20.0598 23.8594 19.1879 23.9156 17.9129C23.9719 16.6332 23.9859 16.2254 23.9859 12.9676C23.9859 9.70977 23.9719 9.30195 23.9156 8.02227C23.8594 6.74727 23.6531 5.8707 23.3578 5.11133C23.0625 4.31445 22.6547 3.64414 21.9844 2.97852C21.3188 2.31289 20.6484 1.90039 19.8609 1.5957C19.0969 1.30039 18.225 1.09414 16.95 1.03789C15.6656 0.976953 15.2578 0.962891 12 0.962891Z"
            fill="url(#paint0_radial_4015_21393)"
        />
        <path
            d="M12 6.79883C8.59688 6.79883 5.83594 9.55977 5.83594 12.9629C5.83594 16.366 8.59688 19.127 12 19.127C15.4031 19.127 18.1641 16.366 18.1641 12.9629C18.1641 9.55977 15.4031 6.79883 12 6.79883ZM12 16.9613C9.79219 16.9613 8.00156 15.1707 8.00156 12.9629C8.00156 10.7551 9.79219 8.96445 12 8.96445C14.2078 8.96445 15.9984 10.7551 15.9984 12.9629C15.9984 15.1707 14.2078 16.9613 12 16.9613Z"
            fill="url(#paint1_radial_4015_21393)"
        />
        <path
            d="M19.8469 6.55528C19.8469 7.35215 19.2 7.99434 18.4078 7.99434C17.6109 7.99434 16.9688 7.34746 16.9688 6.55528C16.9688 5.7584 17.6156 5.11621 18.4078 5.11621C19.2 5.11621 19.8469 5.76309 19.8469 6.55528Z"
            fill="#654C9F"
        />
    </g>
    <defs>
        <radialGradient
            id="paint0_radial_4015_21393"
            cx="0"
            cy="0"
            r="1"
            gradientUnits="userSpaceOnUse"
            gradientTransform="translate(0.436425 22.7613) rotate(-3.00187) scale(34.678 29.4933)"
        >
            <stop stopColor="#FED576" />
            <stop offset="0.2634" stopColor="#F47133" />
            <stop offset="0.6091" stopColor="#BC3081" />
            <stop offset="1" stopColor="#4C63D2" />
        </radialGradient>
        <radialGradient
            id="paint1_radial_4015_21393"
            cx="0"
            cy="0"
            r="1"
            gradientUnits="userSpaceOnUse"
            gradientTransform="translate(6.06025 17.9983) rotate(-3.0007) scale(17.8235 15.1529)"
        >
            <stop stopColor="#FED576" />
            <stop offset="0.2634" stopColor="#F47133" />
            <stop offset="0.6091" stopColor="#BC3081" />
            <stop offset="1" stopColor="#4C63D2" />
        </radialGradient>
        <clipPath id="clip0_4015_21393">
            <rect
                width="24"
                height="24"
                fill="white"
                transform="translate(0 0.962891)"
            />
        </clipPath>
    </defs>
</svg>