<svg
    width="24"
    height="25"
    viewBox="0 0 24 25"
    fill="none"
    xmlns="http://www.w3.org/2000/svg"
>
    <g clipPath="url(#clip0_4015_21389)">
        <path
            d="M22.2283 0.962891H1.77167C1.30179 0.962891 0.851161 1.14955 0.518909 1.4818C0.186657 1.81405 0 2.26468 0 2.73456V23.1912C0 23.6611 0.186657 24.1117 0.518909 24.444C0.851161 24.7762 1.30179 24.9629 1.77167 24.9629H22.2283C22.6982 24.9629 23.1488 24.7762 23.4811 24.444C23.8133 24.1117 24 23.6611 24 23.1912V2.73456C24 2.26468 23.8133 1.81405 23.4811 1.4818C23.1488 1.14955 22.6982 0.962891 22.2283 0.962891ZM7.15333 21.4079H3.545V9.94622H7.15333V21.4079ZM5.34667 8.35789C4.93736 8.35559 4.53792 8.23209 4.19873 8.00298C3.85955 7.77387 3.59584 7.44942 3.44088 7.07058C3.28591 6.69174 3.24665 6.27548 3.32803 5.87435C3.40941 5.47321 3.6078 5.10517 3.89816 4.81667C4.18851 4.52818 4.55782 4.33216 4.95947 4.25335C5.36112 4.17454 5.77711 4.21648 6.15495 4.37388C6.53279 4.53127 6.85554 4.79706 7.08247 5.1377C7.30939 5.47835 7.43032 5.87858 7.43 6.28789C7.43386 6.56192 7.38251 6.83393 7.27901 7.0877C7.17551 7.34146 7.02198 7.57179 6.82757 7.76496C6.63316 7.95812 6.40185 8.11017 6.14742 8.21204C5.893 8.31391 5.62067 8.36351 5.34667 8.35789ZM20.4533 21.4179H16.8467V15.1562C16.8467 13.3096 16.0617 12.7396 15.0483 12.7396C13.9783 12.7396 12.9283 13.5462 12.9283 15.2029V21.4179H9.32V9.95456H12.79V11.5429H12.8367C13.185 10.8379 14.405 9.63289 16.2667 9.63289C18.28 9.63289 20.455 10.8279 20.455 14.3279L20.4533 21.4179Z"
            fill="#0A66C2"
        />
    </g>
    <defs>
        <clipPath id="clip0_4015_21389">
            <rect
                width="24"
                height="24"
                fill="white"
                transform="translate(0 0.962891)"
            />
        </clipPath>
    </defs>
</svg>