<svg
    width="16"
    height="17"
    viewBox="0 0 16 17"
    fill="none"
    xmlns="http://www.w3.org/2000/svg"
>
    <g clipPath="url(#clip0_4015_21382)">
        <path
            d="M7.99992 2.29639C5.41992 2.29639 3.33325 4.38305 3.33325 6.96305C3.33325 10.4631 7.99992 15.6297 7.99992 15.6297C7.99992 15.6297 12.6666 10.4631 12.6666 6.96305C12.6666 4.38305 10.5799 2.29639 7.99992 2.29639ZM4.66659 6.96305C4.66659 5.12305 6.15992 3.62972 7.99992 3.62972C9.83992 3.62972 11.3333 5.12305 11.3333 6.96305C11.3333 8.88305 9.41325 11.7564 7.99992 13.5497C6.61325 11.7697 4.66659 8.86305 4.66659 6.96305Z"
            fill="#1A1A1A"
        />
        <path
            d="M7.99992 8.62972C8.92039 8.62972 9.66659 7.88353 9.66659 6.96305C9.66659 6.04258 8.92039 5.29639 7.99992 5.29639C7.07944 5.29639 6.33325 6.04258 6.33325 6.96305C6.33325 7.88353 7.07944 8.62972 7.99992 8.62972Z"
            fill="#1A1A1A"
        />
    </g>
    <defs>
        <clipPath id="clip0_4015_21382">
            <rect
                width="16"
                height="16"
                fill="white"
                transform="translate(0 0.962891)"
            />
        </clipPath>
    </defs>
</svg>