<svg
    width="12"
    height="13"
    viewBox="0 0 12 13"
    fill="none"
    xmlns="http://www.w3.org/2000/svg"
>
    <path
        d="M2.36 2.29622C2.4 2.88956 2.5 3.46956 2.66 4.02289L1.86 4.82289C1.58667 4.02289 1.41333 3.17622 1.35333 2.29622H2.36ZM8.93333 10.3096C9.5 10.4696 10.08 10.5696 10.6667 10.6096V11.6029C9.78667 11.5429 8.94 11.3696 8.13333 11.1029L8.93333 10.3096ZM3 0.962891H0.666667C0.3 0.962891 0 1.26289 0 1.62956C0 7.88956 5.07333 12.9629 11.3333 12.9629C11.7 12.9629 12 12.6629 12 12.2962V9.96956C12 9.60289 11.7 9.30289 11.3333 9.30289C10.5067 9.30289 9.7 9.16956 8.95333 8.92289C8.88667 8.89622 8.81333 8.88956 8.74667 8.88956C8.57333 8.88956 8.40667 8.95622 8.27333 9.08289L6.80667 10.5496C4.92 9.58289 3.37333 8.04289 2.41333 6.15622L3.88 4.68956C4.06667 4.50289 4.12 4.24289 4.04667 4.00956C3.8 3.26289 3.66667 2.46289 3.66667 1.62956C3.66667 1.26289 3.36667 0.962891 3 0.962891Z"
        fill="#1A1A1A"
    />
</svg>