<svg
    width="18"
    height="24"
    viewBox="0 0 18 24"
    fill="none"
    xmlns="http://www.w3.org/2000/svg"
>
    <path
        fillRule="evenodd"
        clipRule="evenodd"
        d="M12.4118 5.47122C12.3992 6.69617 12.157 7.89533 11.7093 9.01403C11.1975 10.2932 10.4171 11.4672 9.40414 12.4543C8.29297 13.5378 7.49542 14.8867 7.09006 16.3642C6.68471 17.8417 6.68542 19.3971 7.09213 20.8742C7.09871 20.8981 7.10385 20.9222 7.10759 20.9464C7.42065 22.0505 7.95543 23.0894 8.68696 24C9.70492 22.2383 11.2116 20.787 13.0394 19.818L13.0458 19.8147C13.8128 19.419 14.5167 18.9174 15.1357 18.3257L15.3007 18.1646C16.4111 17.08 17.2081 15.7305 17.6133 14.2526C18.0184 12.7748 18.0179 11.2192 17.6119 9.74163C17.2058 8.26397 16.408 6.91497 15.2968 5.83095C14.4402 4.99521 13.4205 4.33975 12.3015 3.90128C12.3799 4.41768 12.4173 4.94248 12.4118 5.47122ZM9.23496 0C9.96233 0.90708 10.4947 1.94122 10.8073 3.04009C10.8111 3.0667 10.8166 3.09325 10.8238 3.11957C11.2306 4.59665 11.2314 6.15201 10.8262 7.62949C10.7456 7.92332 10.6495 8.21208 10.5385 8.49467C10.0933 9.62536 9.40704 10.6645 8.51083 11.5378C7.30091 12.7176 6.4129 14.175 5.92775 15.7766C5.65932 16.6604 5.51482 17.5839 5.50512 18.5226C5.49966 19.0514 5.53707 19.5763 5.61551 20.0928C4.49584 19.6542 3.47573 18.9983 2.61878 18.1619C1.50763 17.0775 0.709978 15.7281 0.30425 14.25C-0.101454 12.7721 -0.101415 11.2162 0.304358 9.73825C0.710083 8.26049 1.50759 6.91129 2.61849 5.82702L2.61907 5.82645L2.78429 5.66611C3.40438 5.07456 4.1098 4.57381 4.87856 4.17991L4.88674 4.17565C6.71172 3.2071 8.2166 1.75831 9.23496 0Z"
        fill="#1A1A1A"
    />
</svg>