<svg
    width="24"
    height="25"
    viewBox="0 0 24 25"
    fill="none"
    xmlns="http://www.w3.org/2000/svg"
>
    <g clipPath="url(#clip0_4015_21403)">
        <path
            fillRule="evenodd"
            clipRule="evenodd"
            d="M1.64987 12.1423C8.09231 9.46093 12.3883 7.69323 14.5378 6.83916C20.675 4.40063 21.9503 3.97703 22.7815 3.96304C22.9643 3.95996 23.3731 4.00324 23.6379 4.20848C23.8614 4.38179 23.9229 4.61589 23.9524 4.7802C23.9818 4.94451 24.0185 5.31881 23.9893 5.61127C23.6568 8.94944 22.2177 17.0503 21.4856 20.7891C21.1758 22.3711 20.5658 22.9016 19.9753 22.9535C18.6919 23.0663 17.7174 22.1433 16.4744 21.3649C14.5294 20.1469 13.4305 19.3887 11.5425 18.2002C9.36064 16.8267 10.7751 16.0718 12.0185 14.838C12.344 14.5151 17.9985 9.60194 18.1079 9.15624C18.1216 9.1005 18.1343 8.89271 18.0051 8.783C17.8759 8.67328 17.6851 8.7108 17.5475 8.74064C17.3524 8.78293 14.2452 10.7448 8.22584 14.6264C7.34386 15.2049 6.545 15.4868 5.82924 15.472C5.04018 15.4558 3.52233 15.0458 2.39397 14.6955C1.00999 14.2657 -0.0899676 14.0385 0.00581423 13.3086C0.0557033 12.9285 0.603723 12.5397 1.64987 12.1423Z"
            fill="url(#paint0_linear_4015_21403)"
        />
    </g>
    <defs>
        <linearGradient
            id="paint0_linear_4015_21403"
            x1="12"
            y1="3.96289"
            x2="12"
            y2="22.822"
            gradientUnits="userSpaceOnUse"
        >
            <stop stopColor="#2AABEE" />
            <stop offset="1" stopColor="#229ED9" />
        </linearGradient>
        <clipPath id="clip0_4015_21403">
            <rect
                width="24"
                height="24"
                fill="white"
                transform="translate(0 0.962891)"
            />
        </clipPath>
    </defs>
</svg>