<svg xmlns="http://www.w3.org/2000/svg" fill="none" viewBox="0 51.8 140.16071428571428 36.120000000000005" style="max-height: 500px" width="140.16071428571428" height="36.120000000000005">
<path fill="#0057CE" d="M21.0617 61.295C21.0463 62.7922 20.7736 64.2605 20.2685 65.6437C19.5893 67.5085 18.4925 69.2052 17.0546 70.6078C15.5164 72.1067 14.4419 73.9721 13.9199 75.9925C13.4261 77.9104 13.4424 79.9206 13.9688 81.8323C13.9773 81.8634 13.9841 81.8946 13.989 81.926C14.4063 83.3991 15.1196 84.7852 16.0956 86C17.4529 83.6511 19.4617 81.7161 21.8989 80.424L21.9073 80.4196C22.93 79.892 23.8686 79.2232 24.6939 78.4342L24.9138 78.2195C26.3945 76.7733 27.4571 74.974 27.9973 73.0035C28.5375 71.0331 28.5368 68.9589 27.9954 66.9888C27.454 65.0186 26.3902 63.22 24.9087 61.7746C23.7664 60.6602 22.4068 59.7862 20.9146 59.2016C21.0192 59.8902 21.069 60.5899 21.0617 61.295ZM16.8259 54C17.7963 55.2101 18.5062 56.5897 18.923 58.0558C18.9281 58.0905 18.9353 58.1251 18.9447 58.1594C19.487 60.1289 19.4881 62.2027 18.9479 64.1727C18.8717 64.4505 18.7851 64.725 18.6883 64.9956C18.102 66.6312 17.1422 68.1347 15.8604 69.3838C14.1639 71.038 12.9421 73.1016 12.3205 75.3675C12.3125 75.3964 12.3047 75.4253 12.297 75.4543C12.0158 76.5044 11.8645 77.5927 11.8531 78.6968C11.8458 79.402 11.8957 80.1019 12.0003 80.7906C10.5073 80.2057 9.14703 79.3311 8.00434 78.2159C6.52281 76.77 5.45927 74.9708 4.9183 73C4.37736 71.0294 4.37741 68.9549 4.91844 66.9843C5.45941 65.014 6.52276 63.2151 8.00395 61.7694L8.00473 61.7686L8.22501 61.5548C9.05181 60.7661 9.99237 60.0984 11.0174 59.5732L11.0283 59.5675C13.4616 58.2761 15.4681 56.3444 16.8259 54Z" clip-rule="evenodd" fill-rule="evenodd"/>
<path fill="#0057CE" d="M129.366 70.0415L132.495 65.085H135.735L131.416 72.2014L135.957 79.7054H132.689L129.366 74.4166L126.044 79.7054H122.749L127.345 72.2014L122.998 65.085H126.293L129.366 70.0415Z"/>
<path fill="#0057CE" d="M115.645 79.927C114.279 79.927 113.051 79.6316 111.962 79.0409C110.891 78.4317 110.042 77.5825 109.414 76.4934C108.805 75.4042 108.501 74.1582 108.501 72.7552V72.2844C108.501 70.863 108.768 69.5893 109.304 68.4632C109.857 67.3187 110.642 66.4233 111.657 65.7772C112.673 65.1311 113.863 64.8081 115.229 64.8081C117.131 64.8081 118.644 65.4265 119.77 66.6633C120.897 67.9002 121.46 69.58 121.46 71.7029V73.0875H111.657L111.685 73.4197C111.796 74.6566 112.23 75.6534 112.986 76.4103C113.762 77.1487 114.703 77.5179 115.811 77.5179C116.66 77.5179 117.38 77.3795 117.971 77.1026C118.58 76.8072 119.115 76.3734 119.577 75.8011L121.044 77.4902C120.472 78.2655 119.715 78.8655 118.774 79.2901C117.832 79.7147 116.789 79.927 115.645 79.927ZM118.414 71.1215V70.7615C118.414 69.7277 118.128 68.8878 117.555 68.2417C117.001 67.5771 116.217 67.2448 115.202 67.2448C114.242 67.2448 113.448 67.5956 112.82 68.297C112.211 68.9801 111.833 69.9215 111.685 71.1215H118.414Z"/>
<path fill="#0057CE" d="M93.5792 65.085H96.4867L96.5975 67.6048C97.0405 66.7372 97.6589 66.0634 98.4527 65.5834C99.265 65.085 100.179 64.8358 101.194 64.8358C104.24 64.8358 105.763 66.6356 105.763 70.2354V79.7054H102.662V70.3461C102.662 69.2754 102.44 68.5001 101.997 68.0201C101.572 67.5217 100.862 67.2725 99.8649 67.2725C99.108 67.2725 98.4527 67.4756 97.8989 67.8817C97.3636 68.2694 96.9574 68.8416 96.6805 69.5985V79.7054H93.5792V65.085Z"/>
<path fill="#0057CE" d="M84.0574 79.9823C82.7283 79.9823 81.5561 79.6962 80.5408 79.1239C79.5255 78.5332 78.7317 77.7025 78.1594 76.6318C77.5871 75.5611 77.2825 74.3243 77.2456 72.9213L77.2179 72.1737C77.181 70.8261 77.421 69.5985 77.9379 68.4909C78.4732 67.3648 79.2578 66.4695 80.2915 65.8049C81.3438 65.1404 82.5898 64.8081 84.0297 64.8081C85.3958 64.8081 86.5957 65.1127 87.6295 65.7219C88.6632 66.331 89.457 67.1987 90.0108 68.3247C90.5646 69.4508 90.8415 70.7615 90.8415 72.2568V72.589C90.8415 74.0659 90.5646 75.3673 90.0108 76.4934C89.457 77.601 88.6632 78.4594 87.6295 79.0686C86.6142 79.6777 85.4235 79.9823 84.0574 79.9823ZM80.3192 72.589C80.3192 74.1582 80.6515 75.3765 81.3161 76.2442C81.9807 77.1118 82.8944 77.5456 84.0574 77.5456C85.202 77.5456 86.0973 77.121 86.7434 76.2718C87.4079 75.4042 87.7402 74.2135 87.7402 72.6998V72.2014C87.7402 70.6323 87.4172 69.4139 86.7711 68.5463C86.125 67.6786 85.2112 67.2448 84.0297 67.2448C82.9037 67.2448 82.0176 67.6509 81.3715 68.4632C80.7254 69.257 80.3746 70.3738 80.3192 71.8137V72.589Z"/>
<path fill="#0057CE" d="M71.9821 75.8011C71.9821 75.1365 71.6868 74.6289 71.096 74.2781C70.5238 73.9089 69.6377 73.6043 68.4378 73.3644C66.721 73.0136 65.4564 72.4875 64.6442 71.786C63.832 71.0845 63.4258 70.18 63.4258 69.0724C63.4258 68.2417 63.6566 67.5033 64.1181 66.8572C64.5981 66.211 65.2626 65.7126 66.1118 65.3619C66.961 64.9927 67.9393 64.8081 69.047 64.8081C70.8376 64.8081 72.2682 65.2234 73.3389 66.0541C74.4281 66.8848 74.9727 67.9832 74.9727 69.3493H71.8714C71.8714 68.5924 71.6221 67.9925 71.1237 67.5494C70.6438 67.1064 69.9423 66.8848 69.0193 66.8848C68.2255 66.8848 67.5886 67.0879 67.1086 67.494C66.6287 67.8817 66.3887 68.3709 66.3887 68.9616C66.3887 69.6077 66.7117 70.0969 67.3578 70.4292C68.0224 70.7615 68.9546 71.0661 70.1546 71.343L71.096 71.5922C72.4252 71.9614 73.4036 72.4875 74.0312 73.1705C74.6588 73.8351 74.9727 74.6843 74.9727 75.718C74.9727 76.5487 74.7235 77.2872 74.225 77.9333C73.7266 78.5609 73.0251 79.0501 72.1206 79.4008C71.2345 79.7516 70.2192 79.927 69.0746 79.927C67.9855 79.927 66.9702 79.7424 66.0287 79.3732C65.0872 78.9855 64.3396 78.4501 63.7858 77.7671C63.232 77.0841 62.9551 76.2903 62.9551 75.3858H65.8903C65.9272 76.1795 66.2318 76.7887 66.804 77.2133C67.3763 77.6379 68.1516 77.8502 69.13 77.8502C70.053 77.8502 70.7545 77.6656 71.2345 77.2964C71.7329 76.9087 71.9821 76.4103 71.9821 75.8011Z"/>
<path fill="#0057CE" d="M53.6081 65.085H56.5433L56.654 67.5494C57.0417 66.6818 57.5586 66.008 58.2047 65.528C58.8508 65.0481 59.5984 64.8081 60.4476 64.8081C60.9276 64.8081 61.3152 64.8635 61.6106 64.9742L61.5275 67.854C61.2137 67.7802 60.7891 67.7432 60.2538 67.7432C59.3861 67.7432 58.657 67.9463 58.0662 68.3524C57.4755 68.7401 57.0325 69.3308 56.7371 70.1246V79.7054H53.6081V65.085Z"/>
<path fill="#0057CE" d="M41.1845 60.0177H44.2858L51.596 79.7054H48.1347L46.5841 75.1642H38.9139L37.3632 79.7054H33.9019L41.1845 60.0177ZM45.7811 72.6444L42.7351 63.7835L39.7169 72.6444H45.7811Z"/>
</svg>