<svg xmlns="http://www.w3.org/2000/svg" fill="none" viewBox="0 51.8 140.28 36.120000000000005" style="max-height: 500px" width="140.28" height="36.120000000000005">
<path fill="white" d="M20.5491 61.295C20.5336 62.7922 20.261 64.2605 19.7559 65.6437C19.0767 67.5085 17.9799 69.2052 16.5419 70.6078C15.0037 72.1067 13.9293 73.9721 13.4073 75.9925C12.9135 77.9104 12.9298 79.9206 13.4562 81.8323C13.4647 81.8634 13.4714 81.8946 13.4764 81.926C13.8937 83.3991 14.607 84.7852 15.5829 86C16.9402 83.6511 18.9491 81.7161 21.3862 80.424L21.3947 80.4196C22.4174 79.892 23.3559 79.2232 24.1813 78.4342L24.4012 78.2195C25.8818 76.7733 26.9445 74.974 27.4847 73.0035C28.0248 71.0331 28.0242 68.9589 27.4828 66.9888C26.9414 65.0186 25.8776 63.22 24.3961 61.7746C23.2538 60.6602 21.8942 59.7862 20.402 59.2016C20.5065 59.8902 20.5564 60.5899 20.5491 61.295ZM16.3133 54C17.2836 55.2101 17.9936 56.5897 18.4104 58.0558C18.4154 58.0905 18.4226 58.1251 18.4321 58.1594C18.9744 60.1289 18.9755 62.2027 18.4352 64.1727C18.359 64.4505 18.2724 64.725 18.1757 64.9956C17.5893 66.6312 16.6296 68.1347 15.3478 69.3838C13.6513 71.038 12.4295 73.1016 11.8078 75.3675C11.7999 75.3964 11.7921 75.4253 11.7843 75.4543C11.5032 76.5044 11.3519 77.5927 11.3405 78.6968C11.3332 79.402 11.3831 80.1019 11.4877 80.7906C9.99466 80.2057 8.6344 79.3311 7.49171 78.2159C6.01017 76.77 4.94664 74.9708 4.40567 73C3.86473 71.0294 3.86478 68.9549 4.40581 66.9843C4.94678 65.014 6.01012 63.2151 7.49132 61.7694L7.49209 61.7686L7.71238 61.5548C8.53917 60.7661 9.47973 60.0984 10.5047 59.5732L10.5156 59.5675C12.949 58.2761 14.9555 56.3444 16.3133 54Z" clip-rule="evenodd" fill-rule="evenodd"/>
<path fill="white" d="M128.854 70.0415L131.983 65.085H135.223L130.903 72.2014L135.444 79.7054H132.177L128.854 74.4166L125.531 79.7054H122.236L126.832 72.2014L122.485 65.085H125.78L128.854 70.0415Z"/>
<path fill="white" d="M115.132 79.927C113.766 79.927 112.538 79.6316 111.449 79.0409C110.379 78.4317 109.529 77.5825 108.902 76.4934C108.293 75.4042 107.988 74.1582 107.988 72.7552V72.2844C107.988 70.863 108.256 69.5893 108.791 68.4632C109.345 67.3187 110.129 66.4233 111.145 65.7772C112.16 65.1311 113.351 64.8081 114.717 64.8081C116.618 64.8081 118.132 65.4265 119.258 66.6633C120.384 67.9002 120.947 69.58 120.947 71.7029V73.0875H111.145L111.172 73.4197C111.283 74.6566 111.717 75.6534 112.474 76.4103C113.249 77.1487 114.191 77.5179 115.298 77.5179C116.147 77.5179 116.867 77.3795 117.458 77.1026C118.067 76.8072 118.603 76.3734 119.064 75.8011L120.532 77.4902C119.959 78.2655 119.202 78.8655 118.261 79.2901C117.32 79.7147 116.277 79.927 115.132 79.927ZM117.901 71.1215V70.7615C117.901 69.7277 117.615 68.8878 117.043 68.2417C116.489 67.5771 115.704 67.2448 114.689 67.2448C113.729 67.2448 112.935 67.5956 112.308 68.297C111.698 68.9801 111.32 69.9215 111.172 71.1215H117.901Z"/>
<path fill="white" d="M93.0666 65.085H95.9741L96.0848 67.6048C96.5279 66.7372 97.1463 66.0634 97.9401 65.5834C98.7523 65.085 99.6661 64.8358 100.681 64.8358C103.727 64.8358 105.25 66.6357 105.25 70.2354V79.7055H102.149V70.3461C102.149 69.2755 101.927 68.5001 101.484 68.0202C101.06 67.5217 100.349 67.2725 99.3523 67.2725C98.5954 67.2725 97.9401 67.4756 97.3863 67.8817C96.8509 68.2694 96.4448 68.8416 96.1679 69.5985V79.7055H93.0666V65.085Z"/>
<path fill="white" d="M83.5448 79.9823C82.2157 79.9823 81.0434 79.6962 80.0281 79.1239C79.0128 78.5332 78.219 77.7025 77.6468 76.6318C77.0745 75.5611 76.7699 74.3243 76.733 72.9213L76.7053 72.1737C76.6684 70.8261 76.9084 69.5985 77.4252 68.4909C77.9606 67.3648 78.7451 66.4695 79.7789 65.8049C80.8311 65.1404 82.0772 64.8081 83.5171 64.8081C84.8832 64.8081 86.0831 65.1127 87.1168 65.7219C88.1506 66.331 88.9444 67.1987 89.4982 68.3247C90.052 69.4508 90.3289 70.7615 90.3289 72.2568V72.589C90.3289 74.0659 90.052 75.3673 89.4982 76.4934C88.9444 77.601 88.1506 78.4594 87.1168 79.0686C86.1015 79.6777 84.9108 79.9823 83.5448 79.9823ZM79.8066 72.589C79.8066 74.1582 80.1389 75.3765 80.8035 76.2442C81.468 77.1118 82.3818 77.5456 83.5448 77.5456C84.6893 77.5456 85.5846 77.121 86.2307 76.2718C86.8953 75.4042 87.2276 74.2135 87.2276 72.6998V72.2014C87.2276 70.6323 86.9045 69.4139 86.2584 68.5463C85.6123 67.6786 84.6986 67.2448 83.5171 67.2448C82.391 67.2448 81.5049 67.6509 80.8588 68.4632C80.2127 69.257 79.862 70.3738 79.8066 71.8137V72.589Z"/>
<path fill="white" d="M71.4695 75.8011C71.4695 75.1365 71.1741 74.6289 70.5834 74.2781C70.0111 73.9089 69.125 73.6043 67.9251 73.3644C66.2083 73.0136 64.9438 72.4875 64.1316 71.786C63.3193 71.0845 62.9132 70.18 62.9132 69.0724C62.9132 68.2417 63.1439 67.5033 63.6055 66.8572C64.0854 66.211 64.75 65.7126 65.5992 65.3619C66.4483 64.9927 67.4267 64.8081 68.5343 64.8081C70.325 64.8081 71.7556 65.2234 72.8263 66.0541C73.9155 66.8848 74.46 67.9832 74.46 69.3493H71.3587C71.3587 68.5924 71.1095 67.9925 70.6111 67.5494C70.1311 67.1064 69.4296 66.8848 68.5066 66.8848C67.7128 66.8848 67.076 67.0879 66.596 67.494C66.116 67.8817 65.8761 68.3709 65.8761 68.9616C65.8761 69.6077 66.1991 70.0969 66.8452 70.4292C67.5098 70.7615 68.442 71.0661 69.6419 71.343L70.5834 71.5922C71.9125 71.9614 72.8909 72.4875 73.5186 73.1705C74.1462 73.8351 74.46 74.6843 74.46 75.718C74.46 76.5487 74.2108 77.2872 73.7124 77.9333C73.214 78.5609 72.5125 79.0501 71.6079 79.4008C70.7218 79.7516 69.7065 79.927 68.562 79.927C67.4729 79.927 66.4575 79.7424 65.5161 79.3732C64.5746 78.9855 63.827 78.4501 63.2732 77.7671C62.7194 77.0841 62.4425 76.2903 62.4425 75.3858H65.3776C65.4145 76.1795 65.7191 76.7887 66.2914 77.2133C66.8637 77.6379 67.639 77.8502 68.6174 77.8502C69.5404 77.8502 70.2419 77.6656 70.7218 77.2964C71.2203 76.9087 71.4695 76.4103 71.4695 75.8011Z"/>
<path fill="white" d="M53.0955 65.085H56.0306L56.1414 67.5494C56.5291 66.6818 57.046 66.008 57.6921 65.528C58.3382 65.0481 59.0858 64.8081 59.935 64.8081C60.4149 64.8081 60.8026 64.8635 61.098 64.9742L61.0149 67.854C60.7011 67.7802 60.2765 67.7432 59.7411 67.7432C58.8735 67.7432 58.1443 67.9463 57.5536 68.3524C56.9629 68.7401 56.5198 69.3308 56.2245 70.1246V79.7054H53.0955V65.085Z"/>
<path fill="white" d="M40.6718 60.0177H43.7732L51.0834 79.7054H47.6221L46.0715 75.1642H38.4012L36.8506 79.7054H33.3893L40.6718 60.0177ZM45.2684 72.6444L42.2225 63.7835L39.2043 72.6444H45.2684Z"/>
</svg>