<svg xmlns="http://www.w3.org/2000/svg" fill="none" viewBox="0 51.8 140.28 36.120000000000005" style="max-height: 500px" width="140.28" height="36.120000000000005">
<path fill="#0057CE" d="M101.229 62.0208L103.451 61.9014L103.976 75.5183L101.755 75.6138L101.229 62.0208ZM98.7925 60.8503C98.7925 60.2291 98.9756 59.7354 99.3419 59.3691C99.7082 58.9869 100.194 58.7958 100.799 58.7958C100.927 58.7958 101.102 58.8117 101.325 58.8436L103.738 59.2975C103.817 59.3134 103.921 59.3214 104.048 59.3214C104.319 59.3214 104.526 59.2497 104.669 59.1064C104.813 58.963 104.884 58.7719 104.884 58.533V58.4136L106.055 58.318V58.7719C106.055 59.393 105.864 59.8947 105.481 60.2769C105.115 60.6592 104.629 60.8503 104.024 60.8503C103.913 60.8503 103.746 60.8343 103.523 60.8025L101.11 60.3486C101.03 60.3327 100.919 60.3247 100.775 60.3247C100.505 60.3247 100.298 60.3964 100.154 60.5397C100.027 60.6671 99.9631 60.8503 99.9631 61.0892V61.2325L98.7925 61.3042V60.8503Z"/>
<path fill="#0057CE" d="M90.9773 79.2689L92.1479 78.9583C93.0238 78.7194 93.7007 78.4964 94.1785 78.2894C94.6722 78.0824 95.0624 77.7957 95.349 77.4294C95.6516 77.079 95.8029 76.6092 95.8029 76.0199C95.8029 75.9084 95.787 75.7094 95.7551 75.4227L94.7996 68.5426L96.9974 68.2081L97.6902 73.2727L97.7618 73.7743L97.9291 75.136C97.9768 75.5183 98.0007 75.8686 98.0007 76.1872C98.0007 77.6205 97.5548 78.7194 96.6629 79.4839C95.787 80.2483 94.4731 80.8694 92.7212 81.3472L91.5506 81.6578L90.9773 79.2689Z"/>
<path fill="#0057CE" d="M87.473 75.5422C86.2786 75.5422 85.315 75.1281 84.5824 74.2999C83.8657 75.1281 82.8704 75.5422 81.5963 75.5422C81.007 75.5422 80.4655 75.4307 79.9718 75.2077C79.494 74.9848 79.0799 74.6742 78.7296 74.276C77.997 75.1201 77.0016 75.5422 75.7434 75.5422H74.6206V73.0577H75.7434C76.4919 73.0577 77.0016 72.9144 77.2723 72.6277C77.5431 72.341 77.6864 71.9667 77.7023 71.5049V71.3616V68.3993H79.7807V71.3616V71.5049C79.7966 71.9986 79.9559 72.3808 80.2585 72.6516C80.5611 72.9223 81.007 73.0577 81.5963 73.0577C82.3767 73.0577 82.8943 72.8984 83.1491 72.5799C83.4198 72.2614 83.5552 71.8553 83.5552 71.3616V68.3993H85.6335V71.3616V71.5049C85.6335 71.9986 85.7848 72.3808 86.0874 72.6516C86.406 72.9223 86.8678 73.0577 87.473 73.0577C88.779 73.0577 89.4319 72.5082 89.4319 71.4093C89.4319 71.0749 89.3762 70.7086 89.2647 70.3104L88.3091 66.7509L90.4592 66.1298L91.4147 69.6893C91.574 70.2786 91.6536 70.8519 91.6536 71.4093C91.6536 72.2534 91.4625 72.994 91.0803 73.631C90.714 74.2522 90.2123 74.7299 89.5753 75.0644C88.9542 75.3829 88.2534 75.5422 87.473 75.5422Z"/>
<path fill="#0057CE" d="M65.1837 79.2689C67.2222 78.8389 68.6317 78.4965 69.4121 78.2416C70.2084 78.0028 70.7578 77.6842 71.0604 77.2861C71.379 76.9038 71.5064 76.3225 71.4427 75.5422H68.5043C67.2143 75.5422 66.187 75.144 65.4226 74.3477C64.6581 73.5355 64.2759 72.4525 64.2759 71.0988C64.2759 70.2547 64.459 69.4584 64.8253 68.7098C65.1916 67.9454 65.7092 67.3402 66.3781 66.8943C67.047 66.4324 67.8035 66.2015 68.6476 66.2015C69.8739 66.2015 70.9012 66.6792 71.7293 67.6348C72.5575 68.5745 73.0592 69.8008 73.2343 71.3138L73.4255 73.0577H74.8588L75.0022 74.2999L74.8588 75.5422H74.7871H73.6882L73.7121 76.0677C73.7121 77.2303 73.4334 78.1461 72.876 78.815C72.3345 79.4839 71.5143 80.0174 70.4154 80.4156C69.3165 80.8296 67.7239 81.2517 65.6376 81.6817L65.1837 79.2689ZM66.4976 71.0988C66.4976 71.7517 66.6568 72.2454 66.9754 72.5799C67.2939 72.8984 67.8035 73.0577 68.5043 73.0577H71.1799L71.0127 71.6004C70.9171 70.6608 70.6623 69.9441 70.2482 69.4504C69.8341 68.9408 69.3006 68.6859 68.6476 68.6859C67.9787 68.6859 67.4531 68.9248 67.0709 69.4026C66.6887 69.8804 66.4976 70.4458 66.4976 71.0988Z"/>
<path fill="#0057CE" d="M55.094 73.0577H56.9812C57.7457 73.0577 58.335 72.9303 58.749 72.6754C59.1791 72.4206 59.3941 71.9826 59.3941 71.3615C59.3941 71.043 59.3383 70.6926 59.2268 70.3104L58.2713 66.7509L60.4213 66.1298L61.3769 69.6893C61.5361 70.2626 61.6158 70.82 61.6158 71.3615C61.6158 72.6675 61.1778 73.6947 60.3018 74.4432C59.4259 75.1758 58.319 75.5421 56.9812 75.5421H55.094V73.0577ZM57.0051 61.4236H59.6568V64.0753H57.0051V61.4236Z"/>
<path fill="#0057CE" d="M45.3656 73.0577H49.2118C49.9444 73.0577 50.462 72.9303 50.7646 72.6754C51.0672 72.4206 51.1946 72.0225 51.1468 71.481L50.8841 68.5426L53.1058 68.3276L53.3685 71.266V71.2899C53.4322 71.9588 53.5995 72.4206 53.8702 72.6754C54.1569 72.9303 54.6426 73.0577 55.3275 73.0577L55.4469 74.2999L55.3275 75.5421C54.0056 75.5421 53.0022 75.1758 52.3174 74.4432C51.537 75.1758 50.5018 75.5421 49.2118 75.5421H45.3656V73.0577ZM44.1951 77.8594H46.5362V80.2244H44.1951V77.8594ZM48.6624 77.8594H51.0035V80.2244H48.6624V77.8594Z"/>
<path fill="#0057CE" d="M45.2734 75.5422C44.5727 75.5422 43.9197 75.3909 43.3145 75.0883C42.7093 74.7697 42.128 74.3079 41.5706 73.7027C41.4432 73.9575 41.2759 74.1884 41.0689 74.3955C40.4319 75.1599 39.5081 75.5422 38.2977 75.5422H33.281V73.0577H38.3216C38.6879 73.0577 38.9746 72.9781 39.1817 72.8188C39.532 72.564 39.7072 72.2216 39.7072 71.7916C39.7072 71.5208 39.6276 71.258 39.4683 71.0032L34.1649 63.502L34.6666 61.6386L43.2906 58.4613L44.0789 60.7786L36.9361 63.3825L41.1406 69.5221L41.3078 69.7849C42.1041 71.0589 42.781 71.9269 43.3384 72.3888C43.9117 72.8347 44.5567 73.0577 45.2734 73.0577H45.6079L45.7512 74.2999L45.6079 75.5422H45.2734Z"/>
<path fill="#0057CE" d="M26.6214 75.5422C25.3314 75.5422 24.3281 75.1042 23.6114 74.2282C22.8469 75.1042 21.8595 75.5422 20.6491 75.5422C19.8528 75.5422 19.1441 75.3192 18.523 74.8733C18.5708 75.2236 18.5947 75.5581 18.5947 75.8766C18.5947 76.9437 18.3478 77.8196 17.8541 78.5044C17.3604 79.1893 16.6915 79.7307 15.8474 80.1289C15.0033 80.527 13.9363 80.8774 12.6462 81.18C11.8659 81.3552 11.1571 81.4428 10.5201 81.4428C9.27785 81.4428 8.20283 81.1641 7.29504 80.6067C6.38725 80.0493 5.69446 79.2609 5.21668 78.2416C4.73889 77.2224 4.5 76.0359 4.5 74.6821C4.5 73.1532 4.8026 71.5288 5.40779 69.8087L7.51005 70.6449C6.96856 72.1738 6.69781 73.5434 6.69781 74.7538C6.69781 76.0916 7.0243 77.1268 7.67727 77.8594C8.34617 78.592 9.29378 78.9583 10.5201 78.9583C11.0775 78.9583 11.619 78.8946 12.1446 78.7672C13.2594 78.5124 14.0796 78.2894 14.6052 78.0983C15.1466 77.9072 15.5687 77.6364 15.8713 77.2861C16.1898 76.9357 16.3491 76.434 16.3491 75.7811C16.3491 75.6536 16.3331 75.4307 16.3013 75.1122L15.3457 68.5665L17.5196 68.2082L17.9019 70.7643C18.0771 71.6084 18.3717 72.2056 18.7858 72.556C19.2158 72.8905 19.821 73.0577 20.6014 73.0577C21.3499 73.0577 21.8595 72.8984 22.1303 72.5799C22.401 72.2614 22.5364 71.8553 22.5364 71.3615V68.4232H24.6386V71.3615C24.6386 71.7756 24.7581 72.1578 24.997 72.5082C25.2359 72.8586 25.7296 73.0338 26.4781 73.0338C27.1789 73.0338 27.6885 72.9143 28.007 72.6754C28.3415 72.4206 28.5087 72.1021 28.5087 71.7199C28.5087 71.5447 28.4928 71.4093 28.4609 71.3138L27.6726 68.3754L29.6554 67.7782L30.4437 70.7165L30.4676 70.836C30.6587 71.5049 31.0091 72.0464 31.5187 72.4604C32.0443 72.8586 32.6415 73.0577 33.3104 73.0577H33.5732L33.7166 74.2999L33.5732 75.5422H33.3104C32.6256 75.5422 31.9886 75.4147 31.3993 75.1599C30.826 74.8892 30.3243 74.5149 29.8943 74.0371C29.5439 74.499 29.09 74.8653 28.5326 75.136C27.9752 75.4068 27.3381 75.5422 26.6214 75.5422Z"/>
<path fill="#0057CE" d="M128.104 61.295C128.089 62.7922 127.816 64.2605 127.311 65.6437C126.632 67.5085 125.535 69.2052 124.097 70.6078C122.559 72.1067 121.485 73.9721 120.963 75.9925C120.469 77.9104 120.485 79.9206 121.012 81.8323C121.02 81.8634 121.027 81.8946 121.032 81.926C121.449 83.3991 122.162 84.7852 123.138 86C124.496 83.6511 126.504 81.7161 128.942 80.424L128.95 80.4196C129.973 79.892 130.911 79.2232 131.737 78.4342L131.957 78.2195C133.437 76.7733 134.5 74.974 135.04 73.0035C135.58 71.0331 135.58 68.9589 135.038 66.9888C134.497 65.0186 133.433 63.22 131.951 61.7746C130.809 60.6602 129.45 59.7862 127.957 59.2016C128.062 59.8902 128.112 60.5899 128.104 61.295ZM123.869 54C124.839 55.2101 125.549 56.5897 125.966 58.0558C125.971 58.0905 125.978 58.1251 125.987 58.1594C126.53 60.1289 126.531 62.2027 125.991 64.1727C125.914 64.4505 125.828 64.725 125.731 64.9956C125.145 66.6312 124.185 68.1347 122.903 69.3838C121.207 71.038 119.985 73.1016 119.363 75.3675C119.355 75.3964 119.347 75.4253 119.34 75.4543C119.058 76.5044 118.907 77.5927 118.896 78.6968C118.889 79.402 118.938 80.1019 119.043 80.7906C117.55 80.2057 116.19 79.3311 115.047 78.2159C113.566 76.77 112.502 74.9708 111.961 73C111.42 71.0294 111.42 68.9549 111.961 66.9843C112.502 65.014 113.565 63.2151 115.047 61.7694L115.047 61.7686L115.268 61.5548C116.095 60.7661 117.035 60.0984 118.06 59.5732L118.071 59.5675C120.504 58.2761 122.511 56.3444 123.869 54Z" clip-rule="evenodd" fill-rule="evenodd"/>
</svg>