<svg xmlns="http://www.w3.org/2000/svg" viewBox="0 0 24 24" fill="none">
<path d="M24 18C24 18.7072 23.719 19.3855 23.219 19.8856C22.7189 20.3857 22.0406 20.6666 21.3333 20.6666H2.66667C1.95942 20.6666 1.28115 20.3857 0.781049 19.8856C0.280952 19.3855 0 18.7072 0 18V5.99998C0 5.29274 0.280952 4.61446 0.781049 4.11436C1.28115 3.61426 1.95942 3.33331 2.66667 3.33331H21.3333C22.0406 3.33331 22.7189 3.61426 23.219 4.11436C23.719 4.61446 24 5.29274 24 5.99998V18Z" fill="#E30917"></path>
<path d="M10.6666 16C9.60574 16 8.58833 15.5786 7.83818 14.8285C7.08804 14.0783 6.66661 13.0609 6.66661 12C6.66661 10.9392 7.08804 9.92174 7.83818 9.1716C8.58833 8.42145 9.60574 8.00002 10.6666 8.00002C11.5399 8.00002 12.3466 8.28336 13.0046 8.75869C12.5458 8.23685 11.9811 7.81881 11.348 7.53245C10.715 7.24609 10.0281 7.09799 9.33327 7.09802C8.03318 7.09802 6.78634 7.61448 5.86704 8.53378C4.94773 9.45309 4.43127 10.6999 4.43127 12C4.43119 12.6438 4.55792 13.2813 4.80423 13.8761C5.05054 14.471 5.4116 15.0114 5.8668 15.4667C6.322 15.922 6.86243 16.2831 7.45721 16.5295C8.05199 16.7759 8.68948 16.9027 9.33327 16.9027C10.7966 16.9027 12.1066 16.258 13.0046 15.2414C12.325 15.7349 11.5065 16.0005 10.6666 16ZM13.2753 12.1534L14.9019 12.528L15.0486 14.19L15.9073 12.7594L17.5339 13.1334L16.4379 11.8747L17.2959 10.4434L15.7606 11.0967L14.6646 9.83736L14.8113 11.5L13.2753 12.1534Z" fill="#EEEEEE"></path>
</svg>