<svg width="24" height="24" viewBox="0 0 24 24" fill="none" xmlns="http://www.w3.org/2000/svg">
<path fill-rule="evenodd" clip-rule="evenodd" d="M15.8108 22.9212C15.8108 22.7905 15.7589 22.6651 15.6666 22.5727C15.5743 22.4802 15.4491 22.4283 15.3185 22.4283C13.9828 22.4283 10.3015 22.4283 8.96576 22.4283C8.83522 22.4283 8.71 22.4802 8.61766 22.5727C8.52532 22.6651 8.47347 22.7905 8.47347 22.9212C8.47347 23.108 8.47347 23.3204 8.47347 23.5071C8.47347 23.6378 8.52532 23.7632 8.61766 23.8556C8.71 23.9481 8.83522 24.0001 8.96576 24C10.3015 24 13.9828 24 15.3185 24C15.4491 24.0001 15.5743 23.9481 15.6666 23.8556C15.7589 23.7632 15.8108 23.6378 15.8108 23.5071C15.8108 23.3204 15.8108 23.108 15.8108 22.9212ZM12.3648 15.4967C12.3648 15.4967 14.6821 12.8855 16.8784 11.6517C19.4698 10.1959 23.375 10.534 23.375 10.534C23.375 10.534 20.2692 11.4702 18.3961 14.216C16.7178 16.6761 15.6768 21.7648 15.6768 21.7648C15.6768 21.7648 14.1089 17.9447 12.3648 15.4967ZM14.7717 21.7101H8.48814C8.48814 21.7101 7.61328 20.556 7.29115 18.9676C6.94234 17.2474 6.3745 15.2046 5.49649 14.0793C3.83443 11.9493 0.625 10.6246 0.625 10.6246C0.625 10.6246 6.66842 9.62394 10.3573 14.2746C12.1468 16.5307 14.7694 21.7054 14.7717 21.7101Z" fill="#002263"/>
<path fill-rule="evenodd" clip-rule="evenodd" d="M12 7.38641C13.66 7.38641 15.0077 8.75613 15.0077 10.4432C15.0077 12.1303 13.66 13.5 12 13.5C10.34 13.5 8.99232 12.1303 8.99232 10.4432C8.99232 8.75613 10.34 7.38641 12 7.38641ZM15.5648 9.25951C16.7192 8.57402 19.1273 7.19819 20.4271 6.84538C20.5364 6.8157 20.6461 6.80172 20.7542 6.802L20.7619 6.80205C21.3091 6.807 21.8087 7.17893 21.9572 7.74028C22.1356 8.41503 21.7398 9.10961 21.0738 9.29039C19.8975 9.60968 17.5215 9.66319 16.0888 9.66391H16.0392C15.9073 9.66385 15.7838 9.66341 15.6706 9.66264C15.6425 9.5254 15.6071 9.39086 15.5648 9.25951ZM8.32937 9.66264C6.99157 9.67151 4.2262 9.64327 2.92622 9.29039C2.26017 9.10961 1.86435 8.41503 2.04281 7.74028C2.22126 7.06558 2.90687 6.66459 3.57292 6.84538C4.87263 7.19819 7.28072 8.57402 8.43517 9.25951C8.39295 9.39086 8.35752 9.5254 8.32937 9.66264ZM8.77002 8.50785C7.49971 8.08027 4.89219 7.15338 3.77376 6.39622C3.20053 6.00811 3.04609 5.22149 3.42919 4.64071C3.81234 4.05993 4.58881 3.90353 5.1621 4.29163C6.28031 5.04869 8.12261 7.13406 8.99879 8.15971C8.91652 8.27119 8.84006 8.3874 8.77002 8.50785ZM14.9788 8.12959C15.8516 7.1029 17.6914 5.01015 18.8088 4.2498C19.3813 3.86037 20.158 4.01495 20.5425 4.5948C20.927 5.1747 20.7744 5.96165 20.202 6.35113C19.0852 7.11099 16.4796 8.04405 15.2104 8.47465C15.1393 8.35519 15.0619 8.24003 14.9788 8.12959ZM9.56197 7.54887C8.49642 6.72603 6.32971 4.99413 5.51499 3.91118C5.097 3.35561 5.20291 2.56079 5.75131 2.13739C6.29971 1.71394 7.08428 1.82124 7.50221 2.37681C8.3166 3.45932 9.38999 6.03327 9.89095 7.29283C9.77662 7.37204 9.6668 7.45759 9.56197 7.54887ZM14.0913 7.2806C14.5909 6.02578 15.6702 3.43951 16.488 2.35402C16.9063 1.79872 17.6909 1.69198 18.239 2.11576C18.7872 2.53954 18.8926 3.33441 18.4743 3.88971C17.6568 4.97481 15.4803 6.71111 14.4171 7.53081C14.3132 7.44163 14.2045 7.35806 14.0913 7.2806ZM10.6047 6.90544C9.85508 5.77822 8.35437 3.4378 7.92612 2.14884C7.7062 1.48681 8.05816 0.768396 8.71166 0.545606C9.36515 0.322762 10.0743 0.679324 10.2942 1.34136C10.7224 2.63004 10.924 5.41246 10.9998 6.76979C10.8649 6.80767 10.7331 6.85308 10.6047 6.90544ZM12.9996 6.76957C13.0751 5.41224 13.2762 2.62982 13.7042 1.34109C13.924 0.678994 14.6331 0.322321 15.2866 0.545001C15.9401 0.767735 16.2922 1.48604 16.0724 2.14813C15.6444 3.43719 14.1441 5.77783 13.3947 6.90522C13.2663 6.85286 13.1345 6.8075 12.9996 6.76957ZM11.7912 6.63827C11.4357 5.3273 10.7507 2.62531 10.7507 1.26567C10.7507 0.567131 11.3105 0 12 0C12.6895 0 13.2493 0.567131 13.2493 1.26567C13.2493 2.62531 12.5643 5.3273 12.2088 6.63827C12.1397 6.63442 12.07 6.63244 12 6.63244C11.93 6.63244 11.8603 6.63442 11.7912 6.63827Z" fill="#0BBBB9"/>
</svg>
