<?xml version="1.0" encoding="utf-8"?>
<!-- Generator: Adobe Illustrator 23.0.4, SVG Export Plug-In . SVG Version: 6.00 Build 0)  -->
<svg version="1.1" id="Layer_1" xmlns="http://www.w3.org/2000/svg" xmlns:xlink="http://www.w3.org/1999/xlink" x="0px" y="0px"
	 viewBox="0 0 46 46" style="enable-background:new 0 0 46 46;" xml:space="preserve">
<style type="text/css">
	.st0{fill:#CE0E2D;}
	.st1{fill:#FF5100;}
</style>
<g>
	<path class="st0" d="M34.5,27.2l-3.9-6.4v10.5c0,1.1-0.9,2.3-2.3,2.3c-1.2,0-2.4-1-2.4-2.4c0-0.3,0.2-0.7,0.2-1l3.7-10.7l-1.7-2.7
		l-6.3,10.5h0c-0.7,1.2-1.1,2.5-1.1,4c0,3.9,3.4,7.4,7.5,7.4c4.1,0,7.5-3.6,7.5-7.5C35.7,29.9,35.3,28.4,34.5,27.2"/>
	<path class="st1" d="M12.2,19.7l3.9,6.4V15.6c0-1.1,0.9-2.3,2.3-2.3c1.2,0,2.4,1,2.4,2.4c0,0.3-0.2,0.7-0.2,1l-3.7,10.7l1.7,2.7
		l6.3-10.5l0,0c0.7-1.2,1.1-2.6,1.1-4c0-3.9-3.4-7.4-7.5-7.3c-4.1,0-7.5,3.6-7.5,7.5C11,17.1,11.4,18.5,12.2,19.7"/>
</g>
</svg>
