<?xml version="1.0" encoding="utf-8"?>
<!-- Generator: Adobe Illustrator 23.0.4, SVG Export Plug-In . SVG Version: 6.00 Build 0)  -->
<svg version="1.1" id="Layer_1" xmlns="http://www.w3.org/2000/svg" xmlns:xlink="http://www.w3.org/1999/xlink" x="0px" y="0px"
	 viewBox="0 0 46 46" style="enable-background:new 0 0 46 46;" xml:space="preserve">
<style type="text/css">
	.st0{fill-rule:evenodd;clip-rule:evenodd;fill:#9C003C;}
	.st1{fill:#FFFFFF;}
</style>
<g>
	<polygon class="st0" points="0,0 46,0 46,46 0,46 0,0 	"/>
</g>
<g>
	<path class="st1" d="M11.7,23c0-4.2,3.3-7.6,7.5-7.8c-1-0.4-2.1-0.7-3.3-0.7c-4.7,0-8.5,3.8-8.5,8.5s3.8,8.5,8.5,8.5
		c1.2,0,2.3-0.2,3.3-0.7C15,30.7,11.7,27.2,11.7,23z"/>
	<path class="st1" d="M25,15.9c0-4.2,3.3-7.6,7.5-7.8c-1-0.4-2.1-0.7-3.3-0.7c-4.7,0-8.5,3.8-8.5,8.5s3.8,8.5,8.5,8.5
		c1.2,0,2.3-0.2,3.3-0.7C28.4,23.6,25,20.1,25,15.9z"/>
	<path class="st1" d="M34.3,23c0,4.2-3.3,7.6-7.5,7.8c1,0.4,2.1,0.7,3.3,0.7c4.7,0,8.5-3.8,8.5-8.5s-3.8-8.5-8.5-8.5
		c-1.2,0-2.3,0.2-3.3,0.7C31,15.4,34.3,18.8,34.3,23z"/>
	<path class="st1" d="M20.8,30.1c0,4.2-3.3,7.6-7.5,7.8c1,0.4,2.1,0.7,3.3,0.7c4.7,0,8.5-3.8,8.5-8.5s-3.8-8.5-8.5-8.5
		c-1.2,0-2.3,0.2-3.3,0.7C17.5,22.4,20.8,25.9,20.8,30.1z"/>
</g>
</svg>
