<?xml version="1.0" encoding="UTF-8"?>
<!DOCTYPE svg PUBLIC "-//W3C//DTD SVG 1.1//EN" "http://www.w3.org/Graphics/SVG/1.1/DTD/svg11.dtd">
<svg xmlns="http://www.w3.org/2000/svg" version="1.1" width="154px" height="101px" style="shape-rendering:geometricPrecision; text-rendering:geometricPrecision; image-rendering:optimizeQuality; fill-rule:evenodd; clip-rule:evenodd" xmlns:xlink="http://www.w3.org/1999/xlink">
<g><path style="opacity:1" fill="#28baf1" d="M -0.5,-0.5 C 50.8333,-0.5 102.167,-0.5 153.5,-0.5C 153.5,33.1667 153.5,66.8333 153.5,100.5C 153.167,100.5 152.833,100.5 152.5,100.5C 152.5,67.1667 152.5,33.8333 152.5,0.5C 101.833,0.5 51.1667,0.5 0.5,0.5C 0.5,33.8333 0.5,67.1667 0.5,100.5C 0.166667,100.5 -0.166667,100.5 -0.5,100.5C -0.5,66.8333 -0.5,33.1667 -0.5,-0.5 Z"/></g>
<g><path style="opacity:1" fill="#0faeef" d="M 152.5,100.5 C 101.833,100.5 51.1667,100.5 0.5,100.5C 0.5,67.1667 0.5,33.8333 0.5,0.5C 51.1667,0.5 101.833,0.5 152.5,0.5C 152.5,33.8333 152.5,67.1667 152.5,100.5 Z"/></g>
<g><path style="opacity:1" fill="#3bc0f2" d="M 106.5,6.5 C 107.568,7.43448 108.901,7.76781 110.5,7.5C 110.5,35.8333 110.5,64.1667 110.5,92.5C 108.517,92.1568 107.183,92.8235 106.5,94.5C 105.596,93.791 105.263,92.791 105.5,91.5C 106.833,91.5 108.167,91.5 109.5,91.5C 109.5,63.8333 109.5,36.1667 109.5,8.5C 108.022,8.76202 106.689,8.42869 105.5,7.5C 105.624,6.89333 105.957,6.55999 106.5,6.5 Z"/></g>
<g><path style="opacity:1" fill="#2fbbf2" d="M 56.5,7.5 C 56.8333,7.5 57.1667,7.5 57.5,7.5C 58.8333,7.5 60.1667,7.5 61.5,7.5C 61.5,35.8333 61.5,64.1667 61.5,92.5C 59.5168,92.1568 58.1834,92.8235 57.5,94.5C 56.596,93.791 56.2627,92.791 56.5,91.5C 57.8333,91.5 59.1667,91.5 60.5,91.5C 60.5,63.8333 60.5,36.1667 60.5,8.5C 58.901,8.76781 57.5676,8.43448 56.5,7.5 Z"/></g>
<g><path style="opacity:1" fill="#74d2f5" d="M 5.5,7.5 C 7.16667,7.5 8.83333,7.5 10.5,7.5C 10.8313,36.0049 10.498,64.3382 9.5,92.5C 9.5,64.5 9.5,36.5 9.5,8.5C 7.90097,8.76781 6.56764,8.43448 5.5,7.5 Z"/></g>
<g><path style="opacity:1" fill="#fcfefe" d="M 106.5,6.5 C 115.839,6.33355 125.173,6.50021 134.5,7C 144.324,9.96267 148.991,16.6293 148.5,27C 148.634,33.4853 146.634,39.152 142.5,44C 140.091,45.7068 137.425,46.5402 134.5,46.5C 134.5,47.5 134.5,48.5 134.5,49.5C 140.57,50.3991 144.737,53.7324 147,59.5C 149.471,68.7715 148.804,77.7715 145,86.5C 141.603,90.9492 137.103,93.4492 131.5,94C 123.173,94.4997 114.84,94.6664 106.5,94.5C 107.183,92.8235 108.517,92.1568 110.5,92.5C 110.5,64.1667 110.5,35.8333 110.5,7.5C 108.901,7.76781 107.568,7.43448 106.5,6.5 Z"/></g>
<g><path style="opacity:1" fill="#2cb3f0" d="M 124.5,8.5 C 127.685,8.01964 130.519,8.68631 133,10.5C 134.123,16.228 134.623,22.0613 134.5,28C 134.333,33.1667 134.167,38.3333 134,43.5C 131.454,46.1856 128.287,47.1856 124.5,46.5C 124.5,33.8333 124.5,21.1667 124.5,8.5 Z"/></g>
<g><path style="opacity:1" fill="#fcfefe" d="M 57.5,7.5 C 70.6562,6.5044 83.9895,6.17107 97.5,6.5C 97.6665,17.505 97.4998,28.505 97,39.5C 95.6353,31.0087 93.6353,22.6754 91,14.5C 89.395,10.7241 86.5616,8.72415 82.5,8.5C 80.3926,7.53178 78.0593,7.19845 75.5,7.5C 75.1675,21.1829 75.5008,34.8496 76.5,48.5C 77.1067,48.3764 77.44,48.0431 77.5,47.5C 80.4278,46.4086 82.5945,44.4086 84,41.5C 85.6323,36.9704 86.6323,32.3038 87,27.5C 87.6667,42.1667 87.6667,56.8333 87,71.5C 86.6789,65.8887 85.3456,60.5553 83,55.5C 81.549,53.5359 79.7157,52.2026 77.5,51.5C 77.44,50.9569 77.1067,50.6236 76.5,50.5C 75.1743,64.661 75.1743,78.661 76.5,92.5C 78.288,92.2148 79.9547,92.5481 81.5,93.5C 73.5277,94.4977 65.5277,94.831 57.5,94.5C 58.1834,92.8235 59.5168,92.1568 61.5,92.5C 61.5,64.1667 61.5,35.8333 61.5,7.5C 60.1667,7.5 58.8333,7.5 57.5,7.5 Z"/></g>
<g><path style="opacity:1" fill="#48c8f3" d="M 82.5,8.5 C 80.5,8.5 78.5,8.5 76.5,8.5C 76.1712,21.6774 76.5045,34.6774 77.5,47.5C 77.44,48.0431 77.1067,48.3764 76.5,48.5C 75.5008,34.8496 75.1675,21.1829 75.5,7.5C 78.0593,7.19845 80.3926,7.53178 82.5,8.5 Z"/></g>
<g><path style="opacity:1" fill="#fafdfe" d="M 5.5,7.5 C 14.6575,6.34235 23.9908,6.17569 33.5,7C 40.8823,8.04887 45.3823,12.2155 47,19.5C 48.113,26.7149 47.4463,33.7149 45,40.5C 42.5641,44.45 39.0641,46.45 34.5,46.5C 34.5,47.5 34.5,48.5 34.5,49.5C 41.4038,50.5691 45.5704,54.5691 47,61.5C 52.3836,85.0878 43.0502,96.0878 19,94.5C 14.5,94.1667 10,93.8333 5.5,93.5C 6.68884,92.5713 8.02218,92.238 9.5,92.5C 10.498,64.3382 10.8313,36.0049 10.5,7.5C 8.83333,7.5 7.16667,7.5 5.5,7.5 Z"/></g>
<g><path style="opacity:1" fill="#0baeef" d="M 24.5,8.5 C 27.6852,8.01964 30.5185,8.68631 33,10.5C 33.6667,21.8333 33.6667,33.1667 33,44.5C 30.5185,46.3137 27.6852,46.9804 24.5,46.5C 24.5,33.8333 24.5,21.1667 24.5,8.5 Z"/></g>
<g><path style="opacity:1" fill="#6dcff5" d="M 97.5,6.5 C 83.9895,6.17107 70.6562,6.5044 57.5,7.5C 57.1667,7.5 56.8333,7.5 56.5,7.5C 62.9658,6.16971 69.7991,5.50304 77,5.5C 84.0084,5.50036 90.8417,5.8337 97.5,6.5 Z"/></g>
<g><path style="opacity:1" fill="#08aeef" d="M 24.5,49.5 C 27.6852,49.0196 30.5185,49.6863 33,51.5C 33.6667,64.1667 33.6667,76.8333 33,89.5C 30.5185,91.3137 27.6852,91.9804 24.5,91.5C 24.5,77.5 24.5,63.5 24.5,49.5 Z"/></g>
<g><path style="opacity:1" fill="#24b0f0" d="M 125.5,49.5 C 128.97,48.8748 131.804,49.8748 134,52.5C 134.667,64.5 134.667,76.5 134,88.5C 132.871,90.1412 131.371,91.1412 129.5,91.5C 128.167,91.5 126.833,91.5 125.5,91.5C 125.5,77.5 125.5,63.5 125.5,49.5 Z"/></g>
<g><path style="opacity:1" fill="#68cdf5" d="M 125.5,49.5 C 125.5,63.5 125.5,77.5 125.5,91.5C 126.833,91.5 128.167,91.5 129.5,91.5C 128.081,92.4511 126.415,92.7845 124.5,92.5C 124.171,77.9903 124.504,63.6569 125.5,49.5 Z"/></g>
<g><path style="opacity:1" fill="#48c8f3" d="M 77.5,51.5 C 76.5043,64.9898 76.171,78.6565 76.5,92.5C 75.1743,78.661 75.1743,64.661 76.5,50.5C 77.1067,50.6236 77.44,50.9569 77.5,51.5 Z"/></g>
</svg>
