<svg width="64" height="64" viewBox="0 0 64 64" fill="none" xmlns="http://www.w3.org/2000/svg">
<circle cx="32" cy="32" r="32" fill="#CE2145" fill-opacity="0.075"/>
<g clip-path="url(#clip0_1693_426)">
<path fill-rule="evenodd" clip-rule="evenodd" d="M24.99 31.32C25.14 29.94 25.68 28.67 26.48 27.63L29.11 30.27C28.92 30.6 28.78 30.95 28.69 31.33M27.72 26.37C28.71 25.58 29.92 25.03 31.23 24.84V28.59C30.92 28.69 30.62 28.82 30.34 29L27.72 26.37ZM33 24.8C34.48 24.94 35.84 25.53 36.93 26.42L34.32 29.04C33.93 28.78 33.49 28.6 33.01 28.5V24.79L33 24.8ZM38.15 27.7C38.93 28.74 39.45 29.99 39.6 31.35H35.9C35.82 30.99 35.69 30.65 35.52 30.35L38.15 27.7ZM39.58 33.12C39.41 34.48 38.86 35.73 38.06 36.76L35.44 34.13C35.63 33.82 35.78 33.48 35.87 33.12H39.58ZM36.8 38.01C35.73 38.85 34.43 39.39 33.01 39.53V35.82C33.42 35.74 33.82 35.58 34.17 35.37L36.8 38.01ZM31.24 39.49C29.97 39.31 28.81 38.8 27.83 38.05L30.46 35.4C30.7 35.54 30.96 35.65 31.23 35.73V39.48L31.24 39.49ZM26.57 36.82C25.73 35.78 25.17 34.5 24.99 33.1H28.7C28.8 33.5 28.96 33.86 29.18 34.19L26.57 36.81V36.82ZM21.1 33.44H18.47C17.66 33.44 17 32.89 17 32.21C17 31.53 17.66 30.98 18.47 30.98H21.09C21.32 28.79 22.17 26.78 23.46 25.15L21.68 23.36C21.1 22.78 21.03 21.92 21.5 21.44C21.98 20.96 22.83 21.04 23.41 21.62L25.17 23.4C26.8 22.06 28.82 21.17 31.03 20.92V18.48C31.03 17.66 31.57 17 32.24 17C32.91 17 33.46 17.66 33.46 18.48V20.88C35.7 21.12 37.74 22.01 39.39 23.37L41.03 21.71C41.61 21.13 42.46 21.05 42.94 21.53C43.42 22.01 43.34 22.87 42.76 23.45L41.1 25.12C42.39 26.76 43.23 28.76 43.46 30.95H45.63C46.44 30.95 47.1 31.5 47.1 32.18C47.1 32.86 46.44 33.41 45.63 33.41H43.46C43.21 35.63 42.33 37.66 41 39.3L42.61 40.93C43.19 41.51 43.27 42.37 42.79 42.85C42.31 43.33 41.46 43.25 40.88 42.67L39.26 41.03C37.64 42.32 35.65 43.18 33.47 43.41V45.83C33.47 46.65 32.92 47.31 32.24 47.31C31.56 47.31 31.02 46.65 31.02 45.83V43.4C28.87 43.16 26.91 42.31 25.3 41.03L23.55 42.78C22.97 43.36 22.12 43.44 21.64 42.96C21.16 42.48 21.24 41.62 21.82 41.04L23.55 39.3C22.22 37.66 21.33 35.63 21.09 33.4" fill="#CE2145"/>
</g>
<defs>
<clipPath id="clip0_1693_426">
<rect width="30.13" height="30.33" fill="white" transform="translate(17 17)"/>
</clipPath>
</defs>
</svg>
