<?xml version="1.0" encoding="utf-8"?>
<!-- Generator: Adobe Illustrator 25.2.3, SVG Export Plug-In . SVG Version: 6.00 Build 0)  -->
<svg version="1.1" id="Layer_1" xmlns="http://www.w3.org/2000/svg" xmlns:xlink="http://www.w3.org/1999/xlink" x="0px" y="0px"
	 viewBox="0 0 46 46" style="enable-background:new 0 0 46 46;" xml:space="preserve">
<style type="text/css">
	.st0{fill-rule:evenodd;clip-rule:evenodd;fill:#004F9E;}
	.st1{fill-rule:evenodd;clip-rule:evenodd;fill:#E20613;}
	.st2{fill-rule:evenodd;clip-rule:evenodd;fill:#00954F;}
</style>
<path class="st0" d="M37,9.2C37,9,36.7,8.8,36.5,8.8l-0.6,0c-1-0.1-2.3-0.1-3.1-0.2c-1.4-0.1-3.5,0-5.3,0.3
	c-1.8,0.3-5.3,0.4-6.7,0.4c-1.4,0-2-0.1-2.5-0.2c-0.5-0.1-3.2-0.1-4.1-0.2c-0.5,0-1.8-0.1-3.6-0.2L9.3,8.5c-0.6,0-1,0.4-1,1
	c0,0.6,0,2.3,0,3.8l0,0.2c0.1,1.5,0,3.3,0,3.8c0,0.6,0.3,1.1,0.7,1.2c0,0,0.1,0,0.4,0.1c0.3,0.1,1,0.5,1.3,0.6
	c0.3,0.1,0.8-0.4,1-0.5c0.2-0.2,2.8-2.2,5.9-4c2.4-1.3,6.4-2.8,8.2-3.5c0.6-0.2,1.8,0,2.5,0.4c0.6,0.4,4.1,0.9,4.4,1
	c0.4,0.1,1.6,0.5,2,0.6c0.2,0.1,0.8,0,1.2,0l0.4-0.1c0.2,0,0.4-0.2,0.4-0.5l0-0.6c0.1-0.6,0.1-1.8,0.1-2.4C37,9.4,37,9.2,37,9.2"/>
<path class="st1" d="M6.1,24.2c-0.5,0.4-0.5,1-0.1,1.3c0.4,0.3,0.9,0.3,1.2,0.1l0.6-0.5c0.7-0.5,1.5-1.2,2.3-1.6
	c1.5-0.9,3.9-2.1,6.2-3.3c2.3-1.2,4.8-2.5,5.7-3.2l0.9-0.6c0.3-0.2,0.9-0.4,1.2-0.2l1,0.4c1,0.4,1.5,0.6,2,0.6c0.5,0,1.3,0,1.5,0
	c0.2,0.1,1.9,1,3,1.6c1.1,0.7,2.8,1.7,4.1,2.4c1.4,0.7,1.3,0.5,1.7,0.5l0.4,0.1c0.8,0.2,1,0.1,1.3-0.3l0.4-0.6
	c0.2-0.2,0.3-0.5,0.4-0.6c0.3-0.5,0.4-0.9,0.3-1.2c-0.1-0.3-1.4-1.1-2.1-1.5c-0.8-0.4-1.8-1-4-1.6c-2.2-0.5-5.2-1.2-6.2-1.3
	c-1-0.1-2.2-0.6-2.6-0.8c-0.4-0.2-1-0.4-1.7-0.3c-0.7,0.2-1.2,0.3-1.6,0.4c-0.5,0.1-1.2,0.5-1.7,0.7c-0.5,0.3-3.3,1.6-3.7,1.9
	c-0.4,0.3-1.4,0.8-2.1,1.2c-0.8,0.4-2.7,1.7-3.6,2.3C10,21,9.2,21.5,8.5,22.1c-0.8,0.6-1.6,1.4-2,1.7L6.1,24.2z"/>
<path class="st2" d="M13.2,23c-0.1-0.2-0.4-0.3-0.8,0l-0.5,0.3c-0.3,0.2-0.5,0.3-0.7,0.4c-0.6,0.3-1.6,1.2-2.1,2
	c-0.4,0.7-0.4,1.8-0.4,3c0,1.2-0.1,2.2,0,4c0,0.8,0,1.6,0,2.5l0,1.1c0,0.5,0.3,0.9,0.6,1l0.3,0c0.3,0,1.5,0,1.9-0.1
	c0.4,0,1.2,0.1,1.9,0.2c0.7,0.1,1.6,0.2,2.5,0.2c0.9,0,4.1-0.1,6.1,0c1.9,0.1,4.1,0,5.2-0.1c1.1,0,2.4-0.3,3.1-0.4
	c0.8-0.1,1.8-0.3,2.2-0.3c0.2,0,1.5,0,2.6,0l1,0c0.5,0,0.9-0.5,0.9-1.1l0-0.9c0-0.3,0-0.3,0-0.5c0-0.5,0.1-1.5,0.1-2.3l0-0.6
	c0-0.3-0.3-0.6-0.9-0.7c0,0-0.1,0-1.1-0.1c-1.4-0.1-3-0.2-3.6-0.2c-1,0-2.7,0-3.6,0.1c-0.9,0-1.5-0.3-3.5-0.3
	c-2.1,0-3.2-0.3-5.2-0.1c-2.1,0.2-3.8,0.2-4.4,0.3c-0.6,0.1-1.6-0.7-1.6-2c0-1.3-0.1-3.9-0.2-4.6L13.2,23z"/>
</svg>
