<?xml version="1.0" encoding="UTF-8"?>
<!DOCTYPE svg PUBLIC "-//W3C//DTD SVG 1.1//EN" "http://www.w3.org/Graphics/SVG/1.1/DTD/svg11.dtd">
<svg xmlns="http://www.w3.org/2000/svg" version="1.1" width="300px" height="300px" style="shape-rendering:geometricPrecision; text-rendering:geometricPrecision; image-rendering:optimizeQuality; fill-rule:evenodd; clip-rule:evenodd" xmlns:xlink="http://www.w3.org/1999/xlink">
<g><path style="opacity:0.004" fill="#fefffe" d="M 173.5,60.5 C 172.833,59.1667 172.833,59.1667 173.5,60.5 Z"/></g>
<g><path style="opacity:0.004" fill="#fefffe" d="M 113.5,61.5 C 112.833,60.1667 112.833,60.1667 113.5,61.5 Z"/></g>
<g><path style="opacity:0.004" fill="#fefffe" d="M 179.5,68.5 C 180.833,69.1667 180.833,69.1667 179.5,68.5 Z"/></g>
<g><path style="opacity:0.032" fill="#fcfcfc" d="M 126.5,77.5 C 126.167,77.5 125.833,77.5 125.5,77.5C 125.5,76.1667 125.5,74.8333 125.5,73.5C 124.5,73.5 123.5,73.5 122.5,73.5C 121.504,89.3246 121.17,105.325 121.5,121.5C 137.675,121.83 153.675,121.496 169.5,120.5C 169.833,120.5 170.167,120.5 170.5,120.5C 172.628,121.281 172.795,122.281 171,123.5C 154.55,122.22 137.883,122.22 121,123.5C 120.333,105.833 120.333,88.1667 121,70.5C 125.364,69.2943 125.531,69.7943 121.5,72C 122.167,72.1667 122.833,72.3333 123.5,72.5C 125.155,71.772 126.821,71.6053 128.5,72C 126.808,73.4007 126.141,75.2341 126.5,77.5 Z"/></g>
<g><path style="opacity:0.012" fill="#fefffe" d="M 170.5,72.5 C 169.282,71.8386 167.949,71.1719 166.5,70.5C 166.667,70.1667 166.833,69.8333 167,69.5C 168.509,70.0897 170.009,70.7564 171.5,71.5C 171.376,72.1067 171.043,72.44 170.5,72.5 Z"/></g>
<g><path style="opacity:0.004" fill="#fefffe" d="M 165.5,72.5 C 165.167,72.5 164.833,72.5 164.5,72.5C 164.833,69.8333 165.167,69.8333 165.5,72.5 Z"/></g>
<g><path style="opacity:0.007" fill="#f5f7f8" d="M 111.5,73.5 C 110.833,73.5 110.167,73.5 109.5,73.5C 108.833,73.5 108.167,73.5 107.5,73.5C 106.833,73.5 106.5,73.8333 106.5,74.5C 102.94,72.7175 102.94,71.7175 106.5,71.5C 106.389,70.8826 106.056,70.3826 105.5,70C 107.971,69.2937 110.305,69.627 112.5,71C 112.116,71.9506 111.783,72.7839 111.5,73.5 Z M 106.5,71.5 C 107.789,70.4991 109.122,70.6658 110.5,72C 108.934,72.765 107.601,72.5983 106.5,71.5 Z"/></g>
<g><path style="opacity:0.004" fill="#fefffe" d="M 164.5,72.5 C 163.833,73.1667 163.833,73.1667 164.5,72.5 Z"/></g>
<g><path style="opacity:0.008" fill="#fefffe" d="M 171.5,73.5 C 172.833,74.1667 172.833,74.1667 171.5,73.5 Z"/></g>
<g><path style="opacity:0.008" fill="#fefffe" d="M 127.5,74.5 C 128.833,75.1667 128.833,75.1667 127.5,74.5 Z"/></g>
<g><path style="opacity:0.004" fill="#fefffe" d="M 171.5,75.5 C 172.833,76.1667 172.833,76.1667 171.5,75.5 Z"/></g>
<g><path style="opacity:0.006" fill="#fefffe" d="M 186.5,76.5 C 186.897,75.475 187.563,75.3083 188.5,76C 187.906,76.4643 187.239,76.631 186.5,76.5 Z"/></g>
<g><path style="opacity:0.006" fill="#fefffe" d="M 127.5,77.5 C 127.897,76.475 128.563,76.3083 129.5,77C 128.906,77.4643 128.239,77.631 127.5,77.5 Z"/></g>
<g><path style="opacity:1" fill="#2b3f74" d="M 177.5,191.5 C 177.167,191.5 176.833,191.5 176.5,191.5C 176.667,148.832 176.5,106.165 176,63.5C 175.832,84.0041 175.332,104.337 174.5,124.5C 174.5,103.833 174.5,83.1667 174.5,62.5C 175.5,62.5 176.5,62.5 177.5,62.5C 177.5,105.5 177.5,148.5 177.5,191.5 Z"/></g>
<g><path style="opacity:0.006" fill="#fefffe" d="M 188.5,82.5 C 187.475,82.1034 187.308,81.4368 188,80.5C 188.464,81.0944 188.631,81.7611 188.5,82.5 Z"/></g>
<g><path style="opacity:0.004" fill="#fefffe" d="M 190.5,81.5 C 189.833,80.1667 189.833,80.1667 190.5,81.5 Z"/></g>
<g><path style="opacity:0.006" fill="#fefffe" d="M 98.5,83.5 C 97.7611,83.631 97.0944,83.4643 96.5,83C 97.4368,82.3083 98.1034,82.475 98.5,83.5 Z"/></g>
<g><path style="opacity:0.005" fill="#fefffe" d="M 193.5,83.5 C 194.077,82.2267 194.743,82.2267 195.5,83.5C 195.03,84.463 194.363,84.463 193.5,83.5 Z"/></g>
<g><path style="opacity:0.041" fill="#d3d8e0" d="M 190.5,81.5 C 191.5,82.1667 192.5,82.8333 193.5,83.5C 193.175,112.544 193.508,141.544 194.5,170.5C 194.043,171.298 193.376,171.631 192.5,171.5C 191.081,170.549 189.415,170.216 187.5,170.5C 187.5,168.167 187.5,165.833 187.5,163.5C 188.167,165.5 188.833,167.5 189.5,169.5C 190.833,155.683 191.499,141.516 191.5,127C 191.499,112.484 190.833,98.3172 189.5,84.5C 188.833,85.1667 188.167,85.8333 187.5,86.5C 187.433,85.0413 187.766,83.7079 188.5,82.5C 189.925,84.0311 190.591,83.6977 190.5,81.5 Z"/></g>
<g><path style="opacity:0.478" fill="#c6cad4" d="M 173.5,60.5 C 175.042,61.3007 176.708,61.634 178.5,61.5C 178.832,105.337 178.499,149.003 177.5,192.5C 177.5,192.167 177.5,191.833 177.5,191.5C 177.5,148.5 177.5,105.5 177.5,62.5C 176.5,62.5 175.5,62.5 174.5,62.5C 174.5,83.1667 174.5,103.833 174.5,124.5C 174.5,125.167 174.167,125.5 173.5,125.5C 173.5,125.167 173.5,124.833 173.5,124.5C 173.5,103.167 173.5,81.8333 173.5,60.5 Z"/></g>
<g><path style="opacity:0.982" fill="#1f3878" d="M 169.5,120.5 C 168.167,120.5 166.833,120.5 165.5,120.5C 161.5,119.833 157.5,119.167 153.5,118.5C 157.833,118.5 162.167,118.5 166.5,118.5C 166.5,103.5 166.5,88.5 166.5,73.5C 167.5,73.5 168.5,73.5 169.5,73.5C 169.5,89.1667 169.5,104.833 169.5,120.5 Z"/></g>
<g><path style="opacity:1" fill="#001462" d="M 182.5,75.5 C 183.167,109.833 183.833,144.167 184.5,178.5C 184.5,178.833 184.5,179.167 184.5,179.5C 182.507,145.183 181.84,110.516 182.5,75.5 Z"/></g>
<g><path style="opacity:0.448" fill="#afb9cd" d="M 165.5,72.5 C 167.167,72.5 168.833,72.5 170.5,72.5C 170.5,88.5 170.5,104.5 170.5,120.5C 170.167,120.5 169.833,120.5 169.5,120.5C 169.5,104.833 169.5,89.1667 169.5,73.5C 168.5,73.5 167.5,73.5 166.5,73.5C 166.5,88.5 166.5,103.5 166.5,118.5C 162.167,118.5 157.833,118.5 153.5,118.5C 144.167,118.5 134.833,118.5 125.5,118.5C 125.5,104.833 125.5,91.1667 125.5,77.5C 125.833,77.5 126.167,77.5 126.5,77.5C 126.5,90.8333 126.5,104.167 126.5,117.5C 139.5,117.5 152.5,117.5 165.5,117.5C 165.5,102.5 165.5,87.5 165.5,72.5 Z"/></g>
<g><path style="opacity:0.008" fill="#f6f7f9" d="M 163.5,84.5 C 163.167,84.5 162.833,84.5 162.5,84.5C 162.167,84.5 161.833,84.5 161.5,84.5C 160.833,84.5 160.167,84.5 159.5,84.5C 158.833,84.5 158.5,84.8333 158.5,85.5C 157.833,85.5 157.167,85.5 156.5,85.5C 155.209,84.5272 155.209,83.5272 156.5,82.5C 157.905,82.24 159.238,81.9066 160.5,81.5C 163.866,80.1997 164.866,81.1997 163.5,84.5 Z"/></g>
<g><path style="opacity:0.004" fill="#fefffe" d="M 160.5,81.5 C 159.833,80.1667 159.833,80.1667 160.5,81.5 Z"/></g>
<g><path style="opacity:0.004" fill="#fefffe" d="M 127.5,78.5 C 128.833,79.1667 128.833,79.1667 127.5,78.5 Z"/></g>
<g><path style="opacity:0.801" fill="#818ba6" d="M 109.5,73.5 C 110.167,73.5 110.833,73.5 111.5,73.5C 111.5,101.833 111.5,130.167 111.5,158.5C 110.833,165.833 110.167,173.167 109.5,180.5C 109.5,144.833 109.5,109.167 109.5,73.5 Z"/></g>
<g><path style="opacity:0.178" fill="#e5e8ed" d="M 118.5,123.5 C 118.83,102.993 118.497,82.6598 117.5,62.5C 116.5,62.5 115.5,62.5 114.5,62.5C 114.5,105.5 114.5,148.5 114.5,191.5C 114.5,191.833 114.5,192.167 114.5,192.5C 113.5,149.572 113.167,105.906 113.5,61.5C 116.252,61.422 118.918,61.2554 121.5,61C 121,61.5 120.5,62 120,62.5C 119.832,83.0041 119.332,103.337 118.5,123.5 Z"/></g>
<g><path style="opacity:1" fill="#1e3479" d="M 122.5,73.5 C 123.5,73.5 124.5,73.5 125.5,73.5C 125.5,74.8333 125.5,76.1667 125.5,77.5C 125.5,91.1667 125.5,104.833 125.5,118.5C 134.833,118.5 144.167,118.5 153.5,118.5C 157.5,119.167 161.5,119.833 165.5,120.5C 151.167,120.5 136.833,120.5 122.5,120.5C 122.5,104.833 122.5,89.1667 122.5,73.5 Z"/></g>
<g><path style="opacity:0.105" fill="#dce0e8" d="M 181.5,72.5 C 181.5,72.8333 181.5,73.1667 181.5,73.5C 181.168,109.337 181.502,145.004 182.5,180.5C 182.5,180.833 182.5,181.167 182.5,181.5C 181.833,181.5 181.5,181.833 181.5,182.5C 180.778,182.918 180.278,183.584 180,184.5C 180.813,146.636 180.646,108.803 179.5,71C 181.897,69.2759 184.231,69.2759 186.5,71C 184.618,71.1981 182.952,71.6981 181.5,72.5 Z"/></g>
<g><path style="opacity:0.345" fill="#c9d0db" d="M 181.5,73.5 C 181.5,73.1667 181.5,72.8333 181.5,72.5C 182.833,72.5 184.167,72.5 185.5,72.5C 185.5,108.833 185.5,145.167 185.5,181.5C 184.5,181.5 183.5,181.5 182.5,181.5C 182.5,181.167 182.5,180.833 182.5,180.5C 183.492,180.672 184.158,180.338 184.5,179.5C 184.5,179.167 184.5,178.833 184.5,178.5C 185.16,143.151 184.493,108.151 182.5,73.5C 182.167,73.5 181.833,73.5 181.5,73.5 Z"/></g>
<g><path style="opacity:0.006" fill="#fefffe" d="M 93.5,93.5 C 93.8966,92.475 94.5632,92.3083 95.5,93C 94.9056,93.4643 94.2389,93.631 93.5,93.5 Z"/></g>
<g><path style="opacity:0.004" fill="#fefffe" d="M 196.5,92.5 C 197.833,93.1667 197.833,93.1667 196.5,92.5 Z"/></g>
<g><path style="opacity:0.004" fill="#fefffe" d="M 96.5,93.5 C 97.8333,94.1667 97.8333,94.1667 96.5,93.5 Z"/></g>
<g><path style="opacity:0.785" fill="#7684a8" d="M 181.5,73.5 C 181.833,73.5 182.167,73.5 182.5,73.5C 182.5,74.1667 182.5,74.8333 182.5,75.5C 181.84,110.516 182.507,145.183 184.5,179.5C 184.158,180.338 183.492,180.672 182.5,180.5C 181.502,145.004 181.168,109.337 181.5,73.5 Z"/></g>
<g><path style="opacity:0.004" fill="#fefffe" d="M 88.5,97.5 C 90.337,97.6395 90.6704,98.3061 89.5,99.5C 88.7025,99.0431 88.3691,98.3764 88.5,97.5 Z"/></g>
<g><path style="opacity:0.004" fill="#fefffe" d="M 201.5,97.5 C 202.662,116.329 202.829,135.329 202,154.5C 201.5,135.503 201.333,116.503 201.5,97.5 Z"/></g>
<g><path style="opacity:1" fill="#06256c" d="M 189.5,84.5 C 190.833,98.3172 191.499,112.484 191.5,127C 191.499,141.516 190.833,155.683 189.5,169.5C 189.5,141.167 189.5,112.833 189.5,84.5 Z"/></g>
<g><path style="opacity:0.108" fill="#fcfdfe" d="M 98.5,83.5 C 98.8333,83.5 99.1667,83.5 99.5,83.5C 99.5,83.8333 99.5,84.1667 99.5,84.5C 99.5,112.833 99.5,141.167 99.5,169.5C 100.5,169.5 101.5,169.5 102.5,169.5C 102.833,169.5 103.167,169.5 103.5,169.5C 104.833,170.167 104.833,170.833 103.5,171.5C 102.081,170.549 100.415,170.216 98.5,170.5C 98.5,141.5 98.5,112.5 98.5,83.5 Z"/></g>
<g><path style="opacity:1" fill="#1c3873" d="M 182.5,73.5 C 184.493,108.151 185.16,143.151 184.5,178.5C 183.833,144.167 183.167,109.833 182.5,75.5C 182.5,74.8333 182.5,74.1667 182.5,73.5 Z"/></g>
<g><path style="opacity:0.447" fill="#b9c1d1" d="M 92.5,94.5 C 92.5,95.1667 92.5,95.8333 92.5,96.5C 92.5,116.833 92.5,137.167 92.5,157.5C 92.5,157.833 92.5,158.167 92.5,158.5C 92.1667,158.5 91.8333,158.5 91.5,158.5C 92.1403,137.003 91.4736,115.67 89.5,94.5C 90.2334,93.913 91.2334,93.913 92.5,94.5 Z"/></g>
<g><path style="opacity:0.17" fill="#f5f8fa" d="M 94.5,94.5 C 95.1667,94.5 95.8333,94.5 96.5,94.5C 96.173,116.409 96.5063,138.242 97.5,160C 95.3157,160.121 93.3157,159.621 91.5,158.5C 91.8333,158.5 92.1667,158.5 92.5,158.5C 93.5,158.5 94.5,158.5 95.5,158.5C 95.8215,137.091 95.4882,115.758 94.5,94.5 Z"/></g>
<g><path style="opacity:0.372" fill="#d1d7e3" d="M 103.5,83.5 C 103.5,112.167 103.5,140.833 103.5,169.5C 103.167,169.5 102.833,169.5 102.5,169.5C 102.5,141.167 102.5,112.833 102.5,84.5C 101.5,84.5 100.5,84.5 99.5,84.5C 99.5,84.1667 99.5,83.8333 99.5,83.5C 100.598,82.603 100.598,81.7697 99.5,81C 101.134,80.5065 102.801,80.3398 104.5,80.5C 104.737,81.791 104.404,82.791 103.5,83.5 Z M 103.5,83.5 C 102.711,83.2172 102.044,82.7172 101.5,82C 102.816,81.4719 103.483,81.9719 103.5,83.5 Z"/></g>
<g><path style="opacity:0.259" fill="#edf1f6" d="M 199.5,92.5 C 200.995,92.4148 201.995,93.0815 202.5,94.5C 200.526,116.003 199.859,137.67 200.5,159.5C 198.326,159.92 196.326,159.92 194.5,159.5C 195.833,137.833 195.833,116.167 194.5,94.5C 195.218,93.8627 196.218,93.8627 197.5,94.5C 198.713,94.2528 199.38,93.5862 199.5,92.5 Z"/></g>
<g><path style="opacity:0.891" fill="#324782" d="M 196.5,95.5 C 197.496,95.4142 198.329,95.7476 199,96.5C 199.5,117.164 199.667,137.831 199.5,158.5C 198.5,158.5 197.5,158.5 196.5,158.5C 196.5,137.5 196.5,116.5 196.5,95.5 Z"/></g>
<g><path style="opacity:0.403" fill="#c5cbd6" d="M 158.5,109.5 C 150.35,110.493 142.017,110.826 133.5,110.5C 132.507,102.35 132.174,94.0168 132.5,85.5C 131.791,84.596 130.791,84.2627 129.5,84.5C 129.5,94.1667 129.5,103.833 129.5,113.5C 140.5,113.5 151.5,113.5 162.5,113.5C 162.5,103.833 162.5,94.1667 162.5,84.5C 162.833,84.5 163.167,84.5 163.5,84.5C 163.5,94.5 163.5,104.5 163.5,114.5C 151.833,114.5 140.167,114.5 128.5,114.5C 128.811,103.448 128.478,92.4484 127.5,81.5C 129.216,81.0028 130.883,80.6694 132.5,80.5C 133.672,80.9186 134.672,81.5853 135.5,82.5C 133.567,91.3028 132.9,100.303 133.5,109.5C 141.833,109.5 150.167,109.5 158.5,109.5 Z"/></g>
<g><path style="opacity:0.945" fill="#33477c" d="M 132.5,85.5 C 130.529,94.1045 129.862,103.105 130.5,112.5C 140.833,112.5 151.167,112.5 161.5,112.5C 161.5,103.167 161.5,93.8333 161.5,84.5C 161.833,84.5 162.167,84.5 162.5,84.5C 162.5,94.1667 162.5,103.833 162.5,113.5C 151.5,113.5 140.5,113.5 129.5,113.5C 129.5,103.833 129.5,94.1667 129.5,84.5C 130.791,84.2627 131.791,84.596 132.5,85.5 Z"/></g>
<g><path style="opacity:1" fill="#0e2c78" d="M 159.5,84.5 C 160.167,84.5 160.833,84.5 161.5,84.5C 161.5,93.8333 161.5,103.167 161.5,112.5C 151.167,112.5 140.833,112.5 130.5,112.5C 129.862,103.105 130.529,94.1045 132.5,85.5C 132.174,94.0168 132.507,102.35 133.5,110.5C 141.984,111.493 150.651,111.826 159.5,111.5C 159.5,102.5 159.5,93.5 159.5,84.5 Z"/></g>
<g><path style="opacity:0.92" fill="#4b5e88" d="M 159.5,84.5 C 159.5,93.5 159.5,102.5 159.5,111.5C 150.651,111.826 141.984,111.493 133.5,110.5C 142.017,110.826 150.35,110.493 158.5,109.5C 158.5,101.5 158.5,93.5 158.5,85.5C 158.5,84.8333 158.833,84.5 159.5,84.5 Z"/></g>
<g><path style="opacity:0.012" fill="#fefffe" d="M 155.5,107.5 C 156.833,108.167 156.833,108.167 155.5,107.5 Z"/></g>
<g><path style="opacity:0.004" fill="#fefffe" d="M 135.5,107.5 C 134.833,108.167 134.833,108.167 135.5,107.5 Z"/></g>
<g><path style="opacity:0.741" fill="#62769f" d="M 139.5,96.5 C 137.612,98.9878 136.945,101.988 137.5,105.5C 143.167,105.5 148.833,105.5 154.5,105.5C 154.5,105.833 154.5,106.167 154.5,106.5C 148.5,106.5 142.5,106.5 136.5,106.5C 136.5,102.833 136.5,99.1667 136.5,95.5C 137.791,95.2627 138.791,95.596 139.5,96.5 Z"/></g>
<g><path style="opacity:0.998" fill="#182c73" d="M 139.5,96.5 C 140.461,98.2646 140.795,100.265 140.5,102.5C 143.962,103.482 147.629,103.815 151.5,103.5C 151.5,101.167 151.5,98.8333 151.5,96.5C 152.5,96.5 153.5,96.5 154.5,96.5C 154.5,99.5 154.5,102.5 154.5,105.5C 148.833,105.5 143.167,105.5 137.5,105.5C 136.945,101.988 137.612,98.9878 139.5,96.5 Z"/></g>
<g><path style="opacity:0.471" fill="#c3cada" d="M 155.5,106.5 C 155.167,106.5 154.833,106.5 154.5,106.5C 154.5,106.167 154.5,105.833 154.5,105.5C 154.5,102.5 154.5,99.5 154.5,96.5C 153.5,96.5 152.5,96.5 151.5,96.5C 151.5,98.8333 151.5,101.167 151.5,103.5C 147.629,103.815 143.962,103.482 140.5,102.5C 140.833,102.5 141.167,102.5 141.5,102.5C 144.072,101.6 146.906,101.6 150,102.5C 150.769,99.9009 150.602,97.4009 149.5,95C 151.5,94.6667 153.5,94.3333 155.5,94C 153.068,92.9125 153.402,92.4125 156.5,92.5C 155.765,97.3618 155.432,102.029 155.5,106.5 Z"/></g>
<g><path style="opacity:0.18" fill="#eaeaec" d="M 141.5,102.5 C 141.167,102.5 140.833,102.5 140.5,102.5C 140.795,100.265 140.461,98.2646 139.5,96.5C 138.791,95.596 137.791,95.2627 136.5,95.5C 136.5,99.1667 136.5,102.833 136.5,106.5C 142.5,106.5 148.5,106.5 154.5,106.5C 154.833,106.5 155.167,106.5 155.5,106.5C 155.5,106.833 155.5,107.167 155.5,107.5C 148.833,107.5 142.167,107.5 135.5,107.5C 135.663,102.453 135.329,97.453 134.5,92.5C 135.619,93.4037 137.119,94.0704 139,94.5C 140.436,94.4411 141.769,94.1078 143,93.5C 142.197,95.1657 141.697,98.1657 141.5,102.5 Z"/></g>
<g><path style="opacity:0.004" fill="#fefffe" d="M 148.5,98.5 C 149.833,99.1667 149.833,99.1667 148.5,98.5 Z"/></g>
<g><path style="opacity:0.004" fill="#fefffe" d="M 138.5,92.5 C 139.833,93.1667 139.833,93.1667 138.5,92.5 Z"/></g>
<g><path style="opacity:0.004" fill="#fefffe" d="M 135.5,88.5 C 136.833,89.1667 136.833,89.1667 135.5,88.5 Z"/></g>
<g><path style="opacity:0.004" fill="#fefffe" d="M 156.5,85.5 C 156.649,86.552 156.483,87.552 156,88.5C 155.26,87.2506 155.427,86.2506 156.5,85.5 Z"/></g>
<g><path style="opacity:0.004" fill="#fefffe" d="M 135.5,85.5 C 136.833,86.1667 136.833,86.1667 135.5,85.5 Z"/></g>
<g><path style="opacity:0.829" fill="#53648c" d="M 92.5,94.5 C 93.1667,94.5 93.8333,94.5 94.5,94.5C 95.4882,115.758 95.8215,137.091 95.5,158.5C 94.5,158.5 93.5,158.5 92.5,158.5C 92.5,158.167 92.5,157.833 92.5,157.5C 93.832,147.689 94.4987,137.523 94.5,127C 94.4987,116.477 93.832,106.311 92.5,96.5C 92.5,95.8333 92.5,95.1667 92.5,94.5 Z"/></g>
<g><path style="opacity:0.008" fill="#fefffe" d="M 128.5,114.5 C 128.5,114.833 128.5,115.167 128.5,115.5C 127.83,115.019 127.83,114.685 128.5,114.5 Z"/></g>
<g><path style="opacity:0.012" fill="#fefffe" d="M 163.5,114.5 C 164.773,115.077 164.773,115.743 163.5,116.5C 162.537,116.03 162.537,115.363 163.5,114.5 Z"/></g>
<g><path style="opacity:0.012" fill="#fefffe" d="M 128.5,115.5 C 129.833,116.167 129.833,116.167 128.5,115.5 Z"/></g>
<g><path style="opacity:0.004" fill="#fefffe" d="M 132.5,115.5 C 133.833,116.167 133.833,116.167 132.5,115.5 Z"/></g>
<g><path style="opacity:0.004" fill="#fefffe" d="M 151.5,115.5 C 152.833,116.167 152.833,116.167 151.5,115.5 Z"/></g>
<g><path style="opacity:0.701" fill="#7a86a1" d="M 122.5,73.5 C 122.5,89.1667 122.5,104.833 122.5,120.5C 136.833,120.5 151.167,120.5 165.5,120.5C 166.833,120.5 168.167,120.5 169.5,120.5C 153.675,121.496 137.675,121.83 121.5,121.5C 121.17,105.325 121.504,89.3246 122.5,73.5 Z"/></g>
<g><path style="opacity:0.559" fill="#9fa8b7" d="M 107.5,73.5 C 107.5,109.167 107.5,144.833 107.5,180.5C 107.167,180.5 106.833,180.5 106.5,180.5C 106.435,145.018 106.435,109.684 106.5,74.5C 106.5,73.8333 106.833,73.5 107.5,73.5 Z"/></g>
<g><path style="opacity:0.276" fill="#bec4d3" d="M 117.5,62.5 C 118.497,82.6598 118.83,102.993 118.5,123.5C 136.659,124.497 154.992,124.83 173.5,124.5C 173.5,124.833 173.5,125.167 173.5,125.5C 155.167,125.5 136.833,125.5 118.5,125.5C 117.503,104.673 117.169,83.6733 117.5,62.5 Z"/></g>
<g><path style="opacity:0.966" fill="#30417d" d="M 99.5,84.5 C 100.5,84.5 101.5,84.5 102.5,84.5C 102.5,112.833 102.5,141.167 102.5,169.5C 101.5,169.5 100.5,169.5 99.5,169.5C 99.5,141.167 99.5,112.833 99.5,84.5 Z"/></g>
<g><path style="opacity:0.035" fill="#afb5c8" d="M 189.5,84.5 C 189.5,112.833 189.5,141.167 189.5,169.5C 188.833,167.5 188.167,165.5 187.5,163.5C 187.5,137.833 187.5,112.167 187.5,86.5C 188.167,85.8333 188.833,85.1667 189.5,84.5 Z"/></g>
<g><path style="opacity:0.951" fill="#243775" d="M 92.5,96.5 C 93.832,106.311 94.4987,116.477 94.5,127C 94.4987,137.523 93.832,147.689 92.5,157.5C 92.5,137.167 92.5,116.833 92.5,96.5 Z"/></g>
<g><path style="opacity:0.042" fill="#fcfcfc" d="M 121.5,131.5 C 121.5,132.167 121.5,132.833 121.5,133.5C 121.5,149.167 121.5,164.833 121.5,180.5C 122.833,180.5 124.167,180.5 125.5,180.5C 125.5,178.167 125.5,175.833 125.5,173.5C 125.833,173.5 126.167,173.5 126.5,173.5C 126.11,176.466 126.777,179.132 128.5,181.5C 128.043,182.298 127.376,182.631 126.5,182.5C 124.735,181.539 122.735,181.205 120.5,181.5C 120.17,164.658 120.503,147.992 121.5,131.5 Z"/></g>
<g><path style="opacity:1" fill="#0e2973" d="M 122.5,133.5 C 138.167,133.5 153.833,133.5 169.5,133.5C 169.5,148.833 169.5,164.167 169.5,179.5C 167.839,165.028 166.839,150.362 166.5,135.5C 152.833,135.5 139.167,135.5 125.5,135.5C 124.833,150.006 124.167,164.672 123.5,179.5C 122.501,164.181 122.167,148.848 122.5,133.5 Z"/></g>
<g><path style="opacity:0.48" fill="#abb1bf" d="M 173.5,128.5 C 173.837,149.687 174.837,170.687 176.5,191.5C 176.833,191.5 177.167,191.5 177.5,191.5C 177.5,191.833 177.5,192.167 177.5,192.5C 176.167,192.5 174.833,192.5 173.5,192.5C 173.5,171.5 173.5,150.5 173.5,129.5C 173.5,129.167 173.5,128.833 173.5,128.5 Z"/></g>
<g><path style="opacity:1" fill="#052569" d="M 107.5,73.5 C 108.167,73.5 108.833,73.5 109.5,73.5C 109.5,109.167 109.5,144.833 109.5,180.5C 108.833,180.5 108.167,180.5 107.5,180.5C 107.5,144.833 107.5,109.167 107.5,73.5 Z"/></g>
<g><path style="opacity:0.686" fill="#8b99b2" d="M 118.5,128.5 C 118.5,149.833 118.5,171.167 118.5,192.5C 117.167,192.5 115.833,192.5 114.5,192.5C 114.5,192.167 114.5,191.833 114.5,191.5C 115.5,191.5 116.5,191.5 117.5,191.5C 117.169,170.327 117.503,149.327 118.5,128.5 Z"/></g>
<g><path style="opacity:1" fill="#1b2e77" d="M 117.5,62.5 C 117.169,83.6733 117.503,104.673 118.5,125.5C 136.996,126.332 155.662,126.832 174.5,127C 155.662,127.168 136.996,127.668 118.5,128.5C 117.503,149.327 117.169,170.327 117.5,191.5C 116.5,191.5 115.5,191.5 114.5,191.5C 114.5,148.5 114.5,105.5 114.5,62.5C 115.5,62.5 116.5,62.5 117.5,62.5 Z"/></g>
<g><path style="opacity:1" fill="#1e3678" d="M 176.5,191.5 C 174.837,170.687 173.837,149.687 173.5,128.5C 155.167,128.5 136.833,128.5 118.5,128.5C 136.996,127.668 155.662,127.168 174.5,127C 155.662,126.832 136.996,126.332 118.5,125.5C 136.833,125.5 155.167,125.5 173.5,125.5C 174.167,125.5 174.5,125.167 174.5,124.5C 175.332,104.337 175.832,84.0041 176,63.5C 176.5,106.165 176.667,148.832 176.5,191.5 Z"/></g>
<g><path style="opacity:0.505" fill="#afb7c8" d="M 121.5,131.5 C 137.833,131.5 154.167,131.5 170.5,131.5C 170.5,148.167 170.5,164.833 170.5,181.5C 168.833,181.5 167.167,181.5 165.5,181.5C 165.5,166.833 165.5,152.167 165.5,137.5C 152.587,137.822 139.754,137.489 127,136.5C 126.5,148.829 126.333,161.162 126.5,173.5C 126.167,173.5 125.833,173.5 125.5,173.5C 125.5,160.833 125.5,148.167 125.5,135.5C 139.167,135.5 152.833,135.5 166.5,135.5C 166.5,150.5 166.5,165.5 166.5,180.5C 167.791,180.737 168.791,180.404 169.5,179.5C 169.5,164.167 169.5,148.833 169.5,133.5C 153.833,133.5 138.167,133.5 122.5,133.5C 122.167,133.5 121.833,133.5 121.5,133.5C 121.5,132.833 121.5,132.167 121.5,131.5 Z"/></g>
<g><path style="opacity:1" fill="#20367e" d="M 130.5,140.5 C 140.833,140.5 151.167,140.5 161.5,140.5C 162.139,150.227 161.472,159.56 159.5,168.5C 159.826,159.983 159.493,151.65 158.5,143.5C 149.833,143.5 141.167,143.5 132.5,143.5C 131.671,151.657 131.171,159.99 131,168.5C 130.5,159.173 130.334,149.839 130.5,140.5 Z"/></g>
<g><path style="opacity:0.101" fill="#fbfbfd" d="M 163.5,139.5 C 163.167,139.5 162.833,139.5 162.5,139.5C 151.321,139.172 140.321,139.505 129.5,140.5C 129.167,140.5 128.833,140.5 128.5,140.5C 133.96,139.171 139.793,138.504 146,138.5C 152.01,138.501 157.843,138.834 163.5,139.5 Z"/></g>
<g><path style="opacity:0.816" fill="#56678f" d="M 154.5,147.5 C 154.5,147.833 154.5,148.167 154.5,148.5C 148.833,148.5 143.167,148.5 137.5,148.5C 137.183,151.572 137.516,154.572 138.5,157.5C 139.429,156.311 139.762,154.978 139.5,153.5C 139.328,152.508 139.662,151.842 140.5,151.5C 140.5,153.833 140.5,156.167 140.5,158.5C 139.167,158.5 137.833,158.5 136.5,158.5C 136.5,154.833 136.5,151.167 136.5,147.5C 142.5,147.5 148.5,147.5 154.5,147.5 Z"/></g>
<g><path style="opacity:1" fill="#0a2675" d="M 154.5,148.5 C 154.5,151.5 154.5,154.5 154.5,157.5C 153.883,157.389 153.383,157.056 153,156.5C 152.503,154.19 152.337,151.857 152.5,149.5C 148.154,149.334 143.821,149.501 139.5,150C 138.209,151.292 138.209,152.458 139.5,153.5C 139.762,154.978 139.429,156.311 138.5,157.5C 137.516,154.572 137.183,151.572 137.5,148.5C 143.167,148.5 148.833,148.5 154.5,148.5 Z"/></g>
<g><path style="opacity:0.005" fill="#fefffe" d="M 89.5,149.5 C 90.6225,151.288 90.7891,153.288 90,155.5C 89.5045,153.527 89.3379,151.527 89.5,149.5 Z"/></g>
<g><path style="opacity:0.35" fill="#ccd2df" d="M 128.5,140.5 C 128.833,140.5 129.167,140.5 129.5,140.5C 129.5,150.167 129.5,159.833 129.5,169.5C 130.5,169.5 131.5,169.5 132.5,169.5C 132.5,160.833 132.5,152.167 132.5,143.5C 141.167,143.5 149.833,143.5 158.5,143.5C 158.5,143.833 158.5,144.167 158.5,144.5C 150.167,144.5 141.833,144.5 133.5,144.5C 133.334,152.84 133.5,161.173 134,169.5C 134.556,167.405 135.056,167.238 135.5,169C 135.37,170.059 134.87,170.892 134,171.5C 132.301,170.594 130.467,170.261 128.5,170.5C 128.5,160.5 128.5,150.5 128.5,140.5 Z"/></g>
<g><path style="opacity:0.93" fill="#2e447e" d="M 129.5,140.5 C 129.833,140.5 130.167,140.5 130.5,140.5C 130.334,149.839 130.5,159.173 131,168.5C 131.171,159.99 131.671,151.657 132.5,143.5C 132.5,152.167 132.5,160.833 132.5,169.5C 131.5,169.5 130.5,169.5 129.5,169.5C 129.5,159.833 129.5,150.167 129.5,140.5 Z"/></g>
<g><path style="opacity:0.617" fill="#a1a9bf" d="M 154.5,147.5 C 154.833,147.5 155.167,147.5 155.5,147.5C 155.994,150.659 155.994,153.992 155.5,157.5C 155.5,158.167 155.167,158.5 154.5,158.5C 154.5,158.167 154.5,157.833 154.5,157.5C 154.5,154.5 154.5,151.5 154.5,148.5C 154.5,148.167 154.5,147.833 154.5,147.5 Z"/></g>
<g><path style="opacity:0.004" fill="#fefffe" d="M 148.5,154.5 C 147.475,154.103 147.308,153.437 148,152.5C 148.464,153.094 148.631,153.761 148.5,154.5 Z"/></g>
<g><path style="opacity:0.008" fill="#fefffe" d="M 142.5,154.5 C 143.525,154.897 143.692,155.563 143,156.5C 142.536,155.906 142.369,155.239 142.5,154.5 Z"/></g>
<g><path style="opacity:0.004" fill="#fefffe" d="M 148.5,154.5 C 149.525,154.897 149.692,155.563 149,156.5C 148.536,155.906 148.369,155.239 148.5,154.5 Z"/></g>
<g><path style="opacity:0.984" fill="#2b4177" d="M 154.5,157.5 C 154.5,157.833 154.5,158.167 154.5,158.5C 153.5,158.5 152.5,158.5 151.5,158.5C 151.5,155.833 151.5,153.167 151.5,150.5C 147.629,150.185 143.962,150.518 140.5,151.5C 139.662,151.842 139.328,152.508 139.5,153.5C 138.209,152.458 138.209,151.292 139.5,150C 143.821,149.501 148.154,149.334 152.5,149.5C 152.337,151.857 152.503,154.19 153,156.5C 153.383,157.056 153.883,157.389 154.5,157.5 Z"/></g>
<g><path style="opacity:0.005" fill="#fefffe" d="M 88.5,156.5 C 90.4646,156.948 90.7979,157.948 89.5,159.5C 88.6143,158.675 88.281,157.675 88.5,156.5 Z"/></g>
<g><path style="opacity:0.067" fill="#e5e9ee" d="M 118.5,128.5 C 136.833,128.5 155.167,128.5 173.5,128.5C 173.5,128.833 173.5,129.167 173.5,129.5C 155.5,129.5 137.5,129.5 119.5,129.5C 119.833,151.243 119.499,172.243 118.5,192.5C 118.5,171.167 118.5,149.833 118.5,128.5 Z"/></g>
<g><path style="opacity:0.946" fill="#495c87" d="M 129.5,140.5 C 140.321,139.505 151.321,139.172 162.5,139.5C 162.5,149.5 162.5,159.5 162.5,169.5C 161.5,169.5 160.5,169.5 159.5,169.5C 159.5,169.167 159.5,168.833 159.5,168.5C 161.472,159.56 162.139,150.227 161.5,140.5C 151.167,140.5 140.833,140.5 130.5,140.5C 130.167,140.5 129.833,140.5 129.5,140.5 Z"/></g>
<g><path style="opacity:0.019" fill="#fafafa" d="M 155.5,147.5 C 155.167,147.5 154.833,147.5 154.5,147.5C 148.5,147.5 142.5,147.5 136.5,147.5C 136.5,151.167 136.5,154.833 136.5,158.5C 137.833,158.5 139.167,158.5 140.5,158.5C 140.5,156.167 140.5,153.833 140.5,151.5C 140.833,151.5 141.167,151.5 141.5,151.5C 141.042,154.394 141.709,156.894 143.5,159C 142.667,159.833 141.833,160.667 141,161.5C 139.933,159.717 138.433,159.217 136.5,160C 140.449,160.807 140.449,161.307 136.5,161.5C 136.728,163.355 136.061,164.188 134.5,164C 135.279,157.911 135.612,151.745 135.5,145.5C 142.297,146.132 148.963,146.799 155.5,147.5 Z"/></g>
<g><path style="opacity:0.127" fill="#dee2e9" d="M 140.5,151.5 C 143.962,150.518 147.629,150.185 151.5,150.5C 151.5,153.167 151.5,155.833 151.5,158.5C 152.5,158.5 153.5,158.5 154.5,158.5C 155.167,158.5 155.5,158.167 155.5,157.5C 156.598,158.601 156.765,159.934 156,161.5C 154,158.833 152,158.833 150,161.5C 150.201,158.223 150.368,154.889 150.5,151.5C 147.5,151.5 144.5,151.5 141.5,151.5C 141.167,151.5 140.833,151.5 140.5,151.5 Z"/></g>
<g><path style="opacity:0.006" fill="#fefffe" d="M 201.5,158.5 C 202.525,158.897 202.692,159.563 202,160.5C 201.536,159.906 201.369,159.239 201.5,158.5 Z"/></g>
<g><path style="opacity:0.004" fill="#fefffe" d="M 91.5,160.5 C 92.8333,161.167 92.8333,161.167 91.5,160.5 Z"/></g>
<g><path style="opacity:0.004" fill="#fefffe" d="M 93.5,160.5 C 94.8333,161.167 94.8333,161.167 93.5,160.5 Z"/></g>
<g><path style="opacity:0.094" fill="#f5f6f7" d="M 111.5,158.5 C 111.576,167.043 111.576,175.377 111.5,183.5C 109.961,182.233 108.294,181.233 106.5,180.5C 106.833,180.5 107.167,180.5 107.5,180.5C 108.167,180.5 108.833,180.5 109.5,180.5C 110.167,173.167 110.833,165.833 111.5,158.5 Z"/></g>
<g><path style="opacity:0.675" fill="#8292ac" d="M 158.5,143.5 C 159.493,151.65 159.826,159.983 159.5,168.5C 159.5,168.833 159.5,169.167 159.5,169.5C 159.167,169.5 158.833,169.5 158.5,169.5C 157.863,161.307 157.863,152.973 158.5,144.5C 158.5,144.167 158.5,143.833 158.5,143.5 Z"/></g>
<g><path style="opacity:0.004" fill="#fefffe" d="M 198.5,161.5 C 198.897,160.475 199.563,160.308 200.5,161C 199.906,161.464 199.239,161.631 198.5,161.5 Z"/></g>
<g><path style="opacity:0.004" fill="#fefffe" d="M 96.5,162.5 C 97.8333,163.167 97.8333,163.167 96.5,162.5 Z"/></g>
<g><path style="opacity:0.004" fill="#fefffe" d="M 155.5,163.5 C 156.573,164.251 156.74,165.251 156,166.5C 155.517,165.552 155.351,164.552 155.5,163.5 Z"/></g>
<g><path style="opacity:0.005" fill="#fefffe" d="M 194.5,163.5 C 195.573,164.251 195.74,165.251 195,166.5C 194.517,165.552 194.351,164.552 194.5,163.5 Z"/></g>
<g><path style="opacity:0.004" fill="#fefffe" d="M 96.5,164.5 C 97.7733,165.077 97.7733,165.743 96.5,166.5C 95.537,166.03 95.537,165.363 96.5,164.5 Z"/></g>
<g><path style="opacity:0.006" fill="#fefffe" d="M 134.5,166.5 C 134.897,165.475 135.563,165.308 136.5,166C 135.906,166.464 135.239,166.631 134.5,166.5 Z"/></g>
<g><path style="opacity:0.898" fill="#586790" d="M 121.5,133.5 C 121.833,133.5 122.167,133.5 122.5,133.5C 122.167,148.848 122.501,164.181 123.5,179.5C 124.167,164.672 124.833,150.006 125.5,135.5C 125.5,148.167 125.5,160.833 125.5,173.5C 125.5,175.833 125.5,178.167 125.5,180.5C 124.167,180.5 122.833,180.5 121.5,180.5C 121.5,164.833 121.5,149.167 121.5,133.5 Z"/></g>
<g><path style="opacity:0.008" fill="#fefffe" d="M 194.5,167.5 C 195.833,168.167 195.833,168.167 194.5,167.5 Z"/></g>
<g><path style="opacity:0.006" fill="#fefffe" d="M 98.5,170.5 C 98.44,171.043 98.1067,171.376 97.5,171.5C 96.4173,170.635 96.2506,169.635 97,168.5C 97.2784,169.416 97.7784,170.082 98.5,170.5 Z"/></g>
<g><path style="opacity:0.007" fill="#dbdfe4" d="M 162.5,139.5 C 162.833,139.5 163.167,139.5 163.5,139.5C 163.446,151.203 163.613,162.87 164,174.5C 163.228,173.151 162.061,172.318 160.5,172C 161.5,171.667 162.5,171.333 163.5,171C 161.833,170.333 160.167,170.333 158.5,171C 159.696,171.654 159.696,172.154 158.5,172.5C 156.616,171.307 156.116,169.641 157,167.5C 157.278,168.416 157.778,169.082 158.5,169.5C 158.833,169.5 159.167,169.5 159.5,169.5C 160.5,169.5 161.5,169.5 162.5,169.5C 162.5,159.5 162.5,149.5 162.5,139.5 Z"/></g>
<g><path style="opacity:0.007" fill="#fefffe" d="M 103.5,171.5 C 102.86,173.332 101.86,173.665 100.5,172.5C 101.325,171.614 102.325,171.281 103.5,171.5 Z"/></g>
<g><path style="opacity:0.005" fill="#fefffe" d="M 127.5,171.5 C 128.552,171.351 129.552,171.517 130.5,172C 129.151,172.772 128.318,173.939 128,175.5C 127.51,174.207 127.343,172.873 127.5,171.5 Z"/></g>
<g><path style="opacity:0.007" fill="#fefffe" d="M 192.5,171.5 C 191.457,173.852 190.124,174.019 188.5,172C 189.793,171.51 191.127,171.343 192.5,171.5 Z"/></g>
<g><path style="opacity:0.996" fill="#2b437f" d="M 166.5,135.5 C 166.839,150.362 167.839,165.028 169.5,179.5C 168.791,180.404 167.791,180.737 166.5,180.5C 166.5,165.5 166.5,150.5 166.5,135.5 Z"/></g>
<g><path style="opacity:0.006" fill="#fefffe" d="M 127.5,177.5 C 128.525,177.897 128.692,178.563 128,179.5C 127.536,178.906 127.369,178.239 127.5,177.5 Z"/></g>
<g><path style="opacity:0.005" fill="#fefffe" d="M 165.5,181.5 C 165.5,181.833 165.5,182.167 165.5,182.5C 163.656,181.796 163.156,180.463 164,178.5C 164.232,179.737 164.732,180.737 165.5,181.5 Z"/></g>
<g><path style="opacity:0.004" fill="#fefffe" d="M 103.5,179.5 C 104.833,180.167 104.833,180.167 103.5,179.5 Z"/></g>
<g><path style="opacity:0.005" fill="#fefffe" d="M 185.5,181.5 C 188.162,180.89 188.162,181.557 185.5,183.5C 184.537,183.03 184.537,182.363 185.5,181.5 Z"/></g>
<g><path style="opacity:0.004" fill="#fefffe" d="M 170.5,181.5 C 171.525,181.897 171.692,182.563 171,183.5C 170.536,182.906 170.369,182.239 170.5,181.5 Z"/></g>
<g><path style="opacity:0.004" fill="#fefffe" d="M 108.5,182.5 C 109.833,183.167 109.833,183.167 108.5,182.5 Z"/></g>
<g><path style="opacity:0.006" fill="#fefffe" d="M 120.5,182.5 C 121.525,182.897 121.692,183.563 121,184.5C 120.536,183.906 120.369,183.239 120.5,182.5 Z"/></g>
<g><path style="opacity:0.009" fill="#fefffe" d="M 122.5,182.5 C 125.001,182.511 125.168,183.178 123,184.5C 122.536,183.906 122.369,183.239 122.5,182.5 Z"/></g>
<g><path style="opacity:0.004" fill="#fefffe" d="M 126.5,182.5 C 125.833,183.167 125.833,183.167 126.5,182.5 Z"/></g>
<g><path style="opacity:0.008" fill="#fefffe" d="M 165.5,182.5 C 166.833,183.167 166.833,183.167 165.5,182.5 Z"/></g>
<g><path style="opacity:0.004" fill="#fefffe" d="M 167.5,182.5 C 168.833,183.167 168.833,183.167 167.5,182.5 Z"/></g>
<g><path style="opacity:0.006" fill="#fefffe" d="M 181.5,182.5 C 183.337,182.639 183.67,183.306 182.5,184.5C 181.702,184.043 181.369,183.376 181.5,182.5 Z"/></g>
<g><path style="opacity:0.006" fill="#fefffe" d="M 111.5,183.5 C 112.525,183.897 112.692,184.563 112,185.5C 111.536,184.906 111.369,184.239 111.5,183.5 Z"/></g>
<g><path style="opacity:0.004" fill="#fefffe" d="M 120.5,186.5 C 121.833,187.167 121.833,187.167 120.5,186.5 Z"/></g>
<g><path style="opacity:0.004" fill="#fefffe" d="M 179.5,186.5 C 180.833,187.167 180.833,187.167 179.5,186.5 Z"/></g>
<g><path style="opacity:0.004" fill="#fefffe" d="M 179.5,189.5 C 180.833,190.167 180.833,190.167 179.5,189.5 Z"/></g>
<g><path style="opacity:0.051" fill="#b7cdde" d="M 92.5,220.5 C 89.7633,217.017 88.0966,213.017 87.5,208.5C 85.7085,208.366 84.0418,208.699 82.5,209.5C 81.0474,208.175 81.3808,207.342 83.5,207C 85.1124,206.28 86.6124,206.446 88,207.5C 89.8073,211.756 91.3073,216.089 92.5,220.5 Z"/></g>
<g><path style="opacity:0.063" fill="#adcae1" d="M 189.5,209.5 C 187.958,208.699 186.292,208.366 184.5,208.5C 184.771,210.38 184.104,211.713 182.5,212.5C 182.328,208.021 184.328,206.187 188.5,207C 189.252,207.671 189.586,208.504 189.5,209.5 Z"/></g>
<g><path style="opacity:0.004" fill="#fefffe" d="M 139.5,208.5 C 138.833,207.167 138.833,207.167 139.5,208.5 Z"/></g>
<g><path style="opacity:0.415" fill="#c5d8e7" d="M 167.5,209.5 C 161.894,208.593 156.227,208.26 150.5,208.5C 149.566,209.568 149.232,210.901 149.5,212.5C 148.207,210.636 148.207,208.636 149.5,206.5C 153.145,207.755 156.811,207.755 160.5,206.5C 163.292,206.761 165.625,207.761 167.5,209.5 Z"/></g>
<g><path style="opacity:0.004" fill="#fefffe" d="M 169.5,207.5 C 170.833,208.167 170.833,208.167 169.5,207.5 Z"/></g>
<g><path style="opacity:0.004" fill="#fefffe" d="M 190.5,207.5 C 191.525,207.897 191.692,208.563 191,209.5C 190.536,208.906 190.369,208.239 190.5,207.5 Z"/></g>
<g><path style="opacity:0.008" fill="#fefffe" d="M 201.5,207.5 C 202.833,208.167 202.833,208.167 201.5,207.5 Z"/></g>
<g><path style="opacity:0.486" fill="#cddde8" d="M 211.5,209.5 C 211.5,210.167 211.5,210.833 211.5,211.5C 209.787,209.15 207.453,208.15 204.5,208.5C 204.5,213.167 204.5,217.833 204.5,222.5C 204.167,222.5 203.833,222.5 203.5,222.5C 203.334,217.156 203.501,211.823 204,206.5C 205.333,207.833 206.667,207.833 208,206.5C 209.039,207.71 210.206,208.71 211.5,209.5 Z"/></g>
<g><path style="opacity:0.005" fill="#fefffe" d="M 211.5,209.5 C 211.747,207.025 212.413,207.025 213.5,209.5C 213.03,210.463 212.363,210.463 211.5,209.5 Z"/></g>
<g><path style="opacity:0.004" fill="#fefffe" d="M 233.5,207.5 C 234.833,208.167 234.833,208.167 233.5,207.5 Z"/></g>
<g><path style="opacity:0.008" fill="#fefffe" d="M 250.5,207.5 C 251.833,208.167 251.833,208.167 250.5,207.5 Z"/></g>
<g><path style="opacity:0.406" fill="#c6d7e5" d="M 258.5,209.5 C 256.545,208.07 254.879,208.403 253.5,210.5C 253.167,210.5 252.833,210.5 252.5,210.5C 252.685,208.804 253.519,207.471 255,206.5C 256.458,207.747 257.958,207.747 259.5,206.5C 260.798,208.052 260.465,209.052 258.5,209.5 Z"/></g>
<g><path style="opacity:0.004" fill="#fefffe" d="M 89.5,209.5 C 89.8966,208.475 90.5632,208.308 91.5,209C 90.9056,209.464 90.2389,209.631 89.5,209.5 Z"/></g>
<g><path style="opacity:1" fill="#6a85a7" d="M 139.5,208.5 C 139.833,208.5 140.167,208.5 140.5,208.5C 142.415,208.216 144.081,208.549 145.5,209.5C 144.833,210.833 143.833,211.833 142.5,212.5C 142.719,211.325 142.386,210.325 141.5,209.5C 140.482,210.193 139.482,210.859 138.5,211.5C 138.557,210.391 138.89,209.391 139.5,208.5 Z"/></g>
<g><path style="opacity:0.224" fill="#d6e2ea" d="M 145.5,209.5 C 144.081,208.549 142.415,208.216 140.5,208.5C 142.343,207.717 144.343,207.05 146.5,206.5C 147.665,207.86 147.332,208.86 145.5,209.5 Z"/></g>
<g><path style="opacity:0.004" fill="#fefffe" d="M 81.5,210.5 C 80.8333,209.167 80.8333,209.167 81.5,210.5 Z"/></g>
<g><path style="opacity:0.004" fill="#fefffe" d="M 249.5,209.5 C 250.833,210.167 250.833,210.167 249.5,209.5 Z"/></g>
<g><path style="opacity:1" fill="#29588f" d="M 258.5,209.5 C 258.5,210.167 258.167,210.5 257.5,210.5C 256.518,211.141 255.518,211.807 254.5,212.5C 253.702,212.043 253.369,211.376 253.5,210.5C 254.879,208.403 256.545,208.07 258.5,209.5 Z"/></g>
<g><path style="opacity:0.004" fill="#fefffe" d="M 171.5,210.5 C 172.525,210.897 172.692,211.563 172,212.5C 171.536,211.906 171.369,211.239 171.5,210.5 Z"/></g>
<g><path style="opacity:0.004" fill="#fefffe" d="M 249.5,210.5 C 249.217,211.289 248.717,211.956 248,212.5C 247.472,211.184 247.972,210.517 249.5,210.5 Z"/></g>
<g><path style="opacity:0.004" fill="#fefffe" d="M 70.5,211.5 C 71.8333,212.167 71.8333,212.167 70.5,211.5 Z"/></g>
<g><path style="opacity:0.58" fill="#adc5d7" d="M 129.5,208.5 C 130.167,208.5 130.833,208.5 131.5,208.5C 131.335,211.85 131.502,215.183 132,218.5C 132.383,217.944 132.883,217.611 133.5,217.5C 133.5,218.167 133.5,218.833 133.5,219.5C 132.518,220.141 131.518,220.807 130.5,221.5C 129.508,217.217 129.174,212.884 129.5,208.5 Z"/></g>
<g><path style="opacity:0.004" fill="#fefffe" d="M 135.5,213.5 C 134.475,213.103 134.308,212.437 135,211.5C 135.464,212.094 135.631,212.761 135.5,213.5 Z"/></g>
<g><path style="opacity:1" fill="#7995b9" d="M 252.5,210.5 C 252.833,210.5 253.167,210.5 253.5,210.5C 253.369,211.376 253.702,212.043 254.5,212.5C 255.518,211.807 256.518,211.141 257.5,210.5C 256.243,213.427 254.243,215.761 251.5,217.5C 251.657,216.127 251.49,214.793 251,213.5C 250.617,214.056 250.117,214.389 249.5,214.5C 249.738,212.596 250.738,211.262 252.5,210.5 Z"/></g>
<g><path style="opacity:0.004" fill="#fefffe" d="M 91.5,212.5 C 92.8333,213.167 92.8333,213.167 91.5,212.5 Z"/></g>
<g><path style="opacity:0.008" fill="#fefffe" d="M 132.5,212.5 C 133.525,212.897 133.692,213.563 133,214.5C 132.536,213.906 132.369,213.239 132.5,212.5 Z"/></g>
<g><path style="opacity:0.996" fill="#145797" d="M 211.5,211.5 C 213.43,215.1 216.097,218.1 219.5,220.5C 221.167,221.5 222.5,222.833 223.5,224.5C 223.712,226.384 224.712,227.717 226.5,228.5C 226.857,221.45 227.857,214.783 229.5,208.5C 229.5,214.5 229.5,220.5 229.5,226.5C 229.5,230.5 229.5,234.5 229.5,238.5C 228.5,238.5 227.5,238.5 226.5,238.5C 225.167,237.833 224.167,236.833 223.5,235.5C 222.92,233.251 221.587,231.585 219.5,230.5C 217.833,229.5 216.5,228.167 215.5,226.5C 214.19,223.527 212.19,221.193 209.5,219.5C 209.189,218.522 208.522,217.855 207.5,217.5C 206.833,224.167 206.167,230.833 205.5,237.5C 204.506,232.544 204.173,227.544 204.5,222.5C 204.5,217.833 204.5,213.167 204.5,208.5C 207.453,208.15 209.787,209.15 211.5,211.5 Z"/></g>
<g><path style="opacity:0.004" fill="#fefffe" d="M 215.5,211.5 C 216.833,212.167 216.833,212.167 215.5,211.5 Z"/></g>
<g><path style="opacity:0.973" fill="#9eb6cb" d="M 211.5,211.5 C 214.903,213.9 217.57,216.9 219.5,220.5C 216.097,218.1 213.43,215.1 211.5,211.5 Z"/></g>
<g><path style="opacity:0.009" fill="#fefffe" d="M 232.5,212.5 C 235.001,212.511 235.168,213.178 233,214.5C 232.536,213.906 232.369,213.239 232.5,212.5 Z"/></g>
<g><path style="opacity:0.997" fill="#065496" d="M 108.5,208.5 C 108.173,217.682 108.507,226.682 109.5,235.5C 112.167,235.5 114.833,235.5 117.5,235.5C 118.043,235.56 118.376,235.893 118.5,236.5C 113.208,237.495 107.875,237.828 102.5,237.5C 103.8,227.838 103.8,218.171 102.5,208.5C 104.5,208.5 106.5,208.5 108.5,208.5 Z"/></g>
<g><path style="opacity:1" fill="#295e99" d="M 189.5,209.5 C 190.363,211.421 191.029,213.421 191.5,215.5C 191.584,218.327 192.25,220.994 193.5,223.5C 191.088,223.756 189.421,222.756 188.5,220.5C 188.094,221.557 188.094,222.891 188.5,224.5C 188.167,224.5 187.833,224.5 187.5,224.5C 186.262,222.786 185.595,220.786 185.5,218.5C 184.923,217.227 184.257,217.227 183.5,218.5C 182.691,220.071 182.357,221.738 182.5,223.5C 182.5,223.833 182.5,224.167 182.5,224.5C 180.952,224.821 180.285,225.821 180.5,227.5C 183.167,228.167 185.833,228.833 188.5,229.5C 185.287,229.19 182.287,229.523 179.5,230.5C 179.737,231.791 179.404,232.791 178.5,233.5C 177.655,234.671 176.989,236.005 176.5,237.5C 175.325,237.719 174.325,237.386 173.5,236.5C 174.246,235.264 174.579,233.93 174.5,232.5C 176.834,230.824 177.834,228.491 177.5,225.5C 177.5,225.167 177.5,224.833 177.5,224.5C 179.293,222.574 180.293,220.241 180.5,217.5C 182.213,216.365 182.88,214.698 182.5,212.5C 184.104,211.713 184.771,210.38 184.5,208.5C 186.292,208.366 187.958,208.699 189.5,209.5 Z"/></g>
<g><path style="opacity:0.675" fill="#a5bbcd" d="M 138.5,211.5 C 137.581,214.089 135.914,216.089 133.5,217.5C 133.733,215.938 134.4,214.605 135.5,213.5C 136.5,212.833 137.5,212.167 138.5,211.5 Z"/></g>
<g><path style="opacity:0.008" fill="#fefffe" d="M 217.5,214.5 C 218.833,215.167 218.833,215.167 217.5,214.5 Z"/></g>
<g><path style="opacity:0.371" fill="#c6d6e2" d="M 231.5,209.5 C 230.833,209.167 230.167,208.833 229.5,208.5C 227.857,214.783 226.857,221.45 226.5,228.5C 224.712,227.717 223.712,226.384 223.5,224.5C 224.458,224.953 225.292,225.619 226,226.5C 226.772,220.294 226.605,214.128 225.5,208C 225.833,207.5 226.167,207 226.5,206.5C 227.833,207.833 229.167,207.833 230.5,206.5C 231.386,207.325 231.719,208.325 231.5,209.5 Z"/></g>
<g><path style="opacity:0.004" fill="#fefffe" d="M 92.5,215.5 C 93.8333,216.167 93.8333,216.167 92.5,215.5 Z"/></g>
<g><path style="opacity:0.906" fill="#5e89b0" d="M 108.5,208.5 C 109.167,208.5 109.833,208.5 110.5,208.5C 110.5,212.5 110.5,216.5 110.5,220.5C 109.513,225.305 109.179,230.305 109.5,235.5C 108.507,226.682 108.173,217.682 108.5,208.5 Z"/></g>
<g><path style="opacity:0.082" fill="#d3e1eb" d="M 142.5,212.5 C 141.92,214.749 140.587,216.415 138.5,217.5C 139.08,215.251 140.413,213.585 142.5,212.5 Z"/></g>
<g><path style="opacity:0.863" fill="#abbfd2" d="M 182.5,212.5 C 182.88,214.698 182.213,216.365 180.5,217.5C 180.402,215.447 181.069,213.78 182.5,212.5 Z"/></g>
<g><path style="opacity:0.11" fill="#e6edf2" d="M 245.5,218.5 C 245.5,218.833 245.5,219.167 245.5,219.5C 245.167,220.167 244.833,220.833 244.5,221.5C 243.515,217.366 243.182,213.032 243.5,208.5C 241.167,208.5 238.833,208.5 236.5,208.5C 236.5,211.833 236.5,215.167 236.5,218.5C 236.81,221.713 236.477,224.713 235.5,227.5C 235.17,220.468 235.503,213.468 236.5,206.5C 238.833,207.833 241.167,207.833 243.5,206.5C 244.167,210.647 244.834,214.647 245.5,218.5 Z"/></g>
<g><path style="opacity:0.004" fill="#fefffe" d="M 219.5,216.5 C 220.833,217.167 220.833,217.167 219.5,216.5 Z"/></g>
<g><path style="opacity:0.998" fill="#225b99" d="M 150.5,208.5 C 156.227,208.26 161.894,208.593 167.5,209.5C 168.458,209.953 169.292,210.619 170,211.5C 171.683,216.457 170.183,219.79 165.5,221.5C 164.957,221.56 164.624,221.893 164.5,222.5C 165.325,223.386 166.325,223.719 167.5,223.5C 171.266,225.992 172.266,229.326 170.5,233.5C 169.094,233.973 168.427,234.973 168.5,236.5C 168.5,236.833 168.5,237.167 168.5,237.5C 167.833,237.5 167.167,237.5 166.5,237.5C 161.167,237.5 155.833,237.5 150.5,237.5C 150.5,227.833 150.5,218.167 150.5,208.5 Z M 157.5,211.5 C 162.549,212.311 163.715,214.978 161,219.5C 159.989,220.337 158.822,220.67 157.5,220.5C 157.5,217.5 157.5,214.5 157.5,211.5 Z M 161.5,225.5 C 162.388,228.054 162.721,230.721 162.5,233.5C 161.193,234.153 159.86,234.82 158.5,235.5C 157.513,232.232 157.18,228.898 157.5,225.5C 158.833,225.5 160.167,225.5 161.5,225.5 Z"/></g>
<g><path style="opacity:0.41" fill="#aac2d6" d="M 155.5,210.5 C 163.629,210.294 165.629,213.794 161.5,221C 159.527,221.495 157.527,221.662 155.5,221.5C 155.5,217.833 155.5,214.167 155.5,210.5 Z M 157.5,211.5 C 157.5,214.5 157.5,217.5 157.5,220.5C 158.822,220.67 159.989,220.337 161,219.5C 163.715,214.978 162.549,212.311 157.5,211.5 Z"/></g>
<g><path style="opacity:0.733" fill="#95adc6" d="M 249.5,214.5 C 248.92,216.749 247.587,218.415 245.5,219.5C 245.5,219.167 245.5,218.833 245.5,218.5C 246.5,216.833 247.833,215.5 249.5,214.5 Z"/></g>
<g><path style="opacity:0.361" fill="#becfdd" d="M 185.5,218.5 C 184.313,220.072 183.313,221.739 182.5,223.5C 182.357,221.738 182.691,220.071 183.5,218.5C 184.257,217.227 184.923,217.227 185.5,218.5 Z"/></g>
<g><path style="opacity:0.004" fill="#fefffe" d="M 221.5,218.5 C 222.833,219.167 222.833,219.167 221.5,218.5 Z"/></g>
<g><path style="opacity:0.999" fill="#065493" d="M 129.5,208.5 C 129.174,212.884 129.508,217.217 130.5,221.5C 131.518,220.807 132.518,220.141 133.5,219.5C 134.451,220.919 134.784,222.585 134.5,224.5C 132.585,224.216 130.919,224.549 129.5,225.5C 129.5,229.5 129.5,233.5 129.5,237.5C 127.5,237.5 125.5,237.5 123.5,237.5C 123.5,227.833 123.5,218.167 123.5,208.5C 125.5,208.5 127.5,208.5 129.5,208.5 Z"/></g>
<g><path style="opacity:0.004" fill="#fefffe" d="M 69.5,220.5 C 70.8333,221.167 70.8333,221.167 69.5,220.5 Z"/></g>
<g><path style="opacity:0.961" fill="#8fa8c5" d="M 81.5,210.5 C 81.8333,210.5 82.1667,210.5 82.5,210.5C 81.8948,215.032 80.2281,219.032 77.5,222.5C 78.6318,218.438 79.9651,214.438 81.5,210.5 Z"/></g>
<g><path style="opacity:0.098" fill="#e6ecef" d="M 180.5,217.5 C 180.293,220.241 179.293,222.574 177.5,224.5C 177.707,221.759 178.707,219.426 180.5,217.5 Z"/></g>
<g><path style="opacity:1" fill="#215a98" d="M 92.5,220.5 C 92.4021,222.553 93.0687,224.22 94.5,225.5C 94.5,225.833 94.5,226.167 94.5,226.5C 94.1663,229.491 95.1663,231.824 97.5,233.5C 97.4326,234.959 97.7659,236.292 98.5,237.5C 96.1667,237.5 93.8333,237.5 91.5,237.5C 91.4484,234.654 90.4484,232.32 88.5,230.5C 85.1667,230.5 81.8333,230.5 78.5,230.5C 76.7202,231.99 76.0535,233.99 76.5,236.5C 75.2921,237.234 73.9587,237.567 72.5,237.5C 72.5,236.5 72.5,235.5 72.5,234.5C 74.2132,233.365 74.8799,231.698 74.5,229.5C 76.2927,227.574 77.2927,225.241 77.5,222.5C 80.2281,219.032 81.8948,215.032 82.5,210.5C 82.5,210.167 82.5,209.833 82.5,209.5C 84.0418,208.699 85.7085,208.366 87.5,208.5C 88.0966,213.017 89.7633,217.017 92.5,220.5 Z M 84.5,219.5 C 84.8333,221.5 85.1667,223.5 85.5,225.5C 84.0222,225.762 82.6888,225.429 81.5,224.5C 82.2745,222.604 83.2745,220.937 84.5,219.5 Z"/></g>
<g><path style="opacity:0.255" fill="#bbcedd" d="M 191.5,215.5 C 193.352,218.551 194.686,221.884 195.5,225.5C 194.833,224.833 194.167,224.167 193.5,223.5C 192.25,220.994 191.584,218.327 191.5,215.5 Z"/></g>
<g><path style="opacity:0.659" fill="#a6bdd1" d="M 209.5,219.5 C 212.19,221.193 214.19,223.527 215.5,226.5C 214.5,225.833 213.5,225.167 212.5,224.5C 211.248,222.999 210.248,221.332 209.5,219.5 Z"/></g>
<g><path style="opacity:0.008" fill="#fefffe" d="M 138.5,222.5 C 139.833,223.167 139.833,223.167 138.5,222.5 Z"/></g>
<g><path style="opacity:0.848" fill="#6b8eaf" d="M 150.5,208.5 C 150.5,218.167 150.5,227.833 150.5,237.5C 155.833,237.5 161.167,237.5 166.5,237.5C 165.791,238.404 164.791,238.737 163.5,238.5C 158.833,238.5 154.167,238.5 149.5,238.5C 149.806,235.615 149.473,232.948 148.5,230.5C 148.211,224.409 148.545,218.409 149.5,212.5C 149.232,210.901 149.566,209.568 150.5,208.5 Z"/></g>
<g><path style="opacity:0.627" fill="#aec0ce" d="M 165.5,221.5 C 166.167,222.167 166.833,222.833 167.5,223.5C 166.325,223.719 165.325,223.386 164.5,222.5C 164.624,221.893 164.957,221.56 165.5,221.5 Z"/></g>
<g><path style="opacity:0.773" fill="#7c9fbf" d="M 229.5,208.5 C 230.167,208.833 230.833,209.167 231.5,209.5C 231.822,215.358 231.489,221.025 230.5,226.5C 230.167,226.5 229.833,226.5 229.5,226.5C 229.5,220.5 229.5,214.5 229.5,208.5 Z"/></g>
<g><path style="opacity:1" fill="#1e5a97" d="M 251.5,217.5 C 248.145,219.185 247.811,221.185 250.5,223.5C 250.427,225.027 251.094,226.027 252.5,226.5C 252.241,228.989 253.241,230.656 255.5,231.5C 255.738,233.404 256.738,234.738 258.5,235.5C 256.721,237.344 254.388,238.01 251.5,237.5C 250.833,237.5 250.5,237.167 250.5,236.5C 250.573,234.973 249.906,233.973 248.5,233.5C 248.573,231.973 247.906,230.973 246.5,230.5C 245.662,230.158 245.328,229.492 245.5,228.5C 245.539,227.244 245.039,226.244 244,225.5C 243.199,228.367 243.366,231.034 244.5,233.5C 244.5,234.167 244.5,234.833 244.5,235.5C 243.596,236.209 243.263,237.209 243.5,238.5C 240.941,238.802 238.607,238.468 236.5,237.5C 238.5,237.5 240.5,237.5 242.5,237.5C 242.772,233.098 242.439,228.765 241.5,224.5C 242.993,223.859 243.993,222.859 244.5,221.5C 244.833,220.833 245.167,220.167 245.5,219.5C 247.587,218.415 248.92,216.749 249.5,214.5C 250.117,214.389 250.617,214.056 251,213.5C 251.49,214.793 251.657,216.127 251.5,217.5 Z"/></g>
<g><path style="opacity:0.38" fill="#cedce6" d="M 251.5,217.5 C 251.489,219.017 250.823,220.184 249.5,221C 250.252,221.671 250.586,222.504 250.5,223.5C 247.811,221.185 248.145,219.185 251.5,217.5 Z"/></g>
<g><path style="opacity:0.063" fill="#e9f0f6" d="M 92.5,220.5 C 93.9313,221.78 94.5979,223.447 94.5,225.5C 93.0687,224.22 92.4021,222.553 92.5,220.5 Z"/></g>
<g><path style="opacity:0.992" fill="#275d99" d="M 142.5,212.5 C 140.413,213.585 139.08,215.251 138.5,217.5C 137.058,218.82 136.392,220.486 136.5,222.5C 136.427,224.027 137.094,225.027 138.5,225.5C 139.89,226.899 140.89,228.566 141.5,230.5C 141.427,232.027 142.094,233.027 143.5,233.5C 143.511,235.017 144.177,236.184 145.5,237C 142.177,237.932 139.177,237.432 136.5,235.5C 136.13,232.733 134.796,230.733 132.5,229.5C 132.446,227.368 131.446,226.035 129.5,225.5C 130.919,224.549 132.585,224.216 134.5,224.5C 134.784,222.585 134.451,220.919 133.5,219.5C 133.5,218.833 133.5,218.167 133.5,217.5C 135.914,216.089 137.581,214.089 138.5,211.5C 139.482,210.859 140.482,210.193 141.5,209.5C 142.386,210.325 142.719,211.325 142.5,212.5 Z"/></g>
<g><path style="opacity:1" fill="#105796" d="M 47.5,220.5 C 46.9569,220.56 46.6236,220.893 46.5,221.5C 51.6511,222.167 56.6511,222.834 61.5,223.5C 56.8333,223.5 52.1667,223.5 47.5,223.5C 47.5,228.167 47.5,232.833 47.5,237.5C 45.5,237.5 43.5,237.5 41.5,237.5C 41.8064,234.615 41.4731,231.948 40.5,229.5C 40.5,225.5 40.5,221.5 40.5,217.5C 41.4767,214.713 41.81,211.713 41.5,208.5C 43.5,208.5 45.5,208.5 47.5,208.5C 47.5,212.5 47.5,216.5 47.5,220.5 Z"/></g>
<g><path style="opacity:0.333" fill="#c8d5e0" d="M 136.5,222.5 C 137.167,222.833 137.833,223.167 138.5,223.5C 138.5,224.167 138.5,224.833 138.5,225.5C 137.094,225.027 136.427,224.027 136.5,222.5 Z"/></g>
<g><path style="opacity:0.004" fill="#fefffe" d="M 212.5,224.5 C 211.833,225.167 211.833,225.167 212.5,224.5 Z"/></g>
<g><path style="opacity:0.216" fill="#d5e1ea" d="M 77.5,222.5 C 77.2927,225.241 76.2927,227.574 74.5,229.5C 74.7073,226.759 75.7073,224.426 77.5,222.5 Z"/></g>
<g><path style="opacity:0.043" fill="#c5d7e4" d="M 84.5,219.5 C 86.2671,221.792 87.2671,224.458 87.5,227.5C 84.8333,227.5 82.1667,227.5 79.5,227.5C 80.2456,223.93 81.5789,220.596 83.5,217.5C 84.2975,217.957 84.6309,218.624 84.5,219.5 Z M 84.5,219.5 C 83.2745,220.937 82.2745,222.604 81.5,224.5C 82.6888,225.429 84.0222,225.762 85.5,225.5C 85.1667,223.5 84.8333,221.5 84.5,219.5 Z"/></g>
<g><path style="opacity:0.996" fill="#115898" d="M 244.5,221.5 C 243.993,222.859 242.993,223.859 241.5,224.5C 242.439,228.765 242.772,233.098 242.5,237.5C 240.5,237.5 238.5,237.5 236.5,237.5C 236.5,237.167 236.5,236.833 236.5,236.5C 237.833,230.5 237.833,224.5 236.5,218.5C 236.5,215.167 236.5,211.833 236.5,208.5C 238.833,208.5 241.167,208.5 243.5,208.5C 243.182,213.032 243.515,217.366 244.5,221.5 Z"/></g>
<g><path style="opacity:0.388" fill="#c3d4e0" d="M 250.5,223.5 C 251.906,223.973 252.573,224.973 252.5,226.5C 251.094,226.027 250.427,225.027 250.5,223.5 Z"/></g>
<g><path style="opacity:0.004" fill="#fefffe" d="M 96.5,227.5 C 96.8966,226.475 97.5632,226.308 98.5,227C 97.9056,227.464 97.2389,227.631 96.5,227.5 Z"/></g>
<g><path style="opacity:0.667" fill="#a1bfd7" d="M 182.5,224.5 C 184.167,225.833 185.833,225.833 187.5,224.5C 187.833,224.5 188.167,224.5 188.5,224.5C 188.5,225.5 188.5,226.5 188.5,227.5C 185.833,227.5 183.167,227.5 180.5,227.5C 180.285,225.821 180.952,224.821 182.5,224.5 Z"/></g>
<g><path style="opacity:0.078" fill="#bdd1e0" d="M 161.5,225.5 C 160.167,225.5 158.833,225.5 157.5,225.5C 157.18,228.898 157.513,232.232 158.5,235.5C 159.86,234.82 161.193,234.153 162.5,233.5C 161.108,236.393 158.941,237.06 156,235.5C 155.333,231.833 155.333,228.167 156,224.5C 158.235,223.02 160.068,223.353 161.5,225.5 Z"/></g>
<g><path style="opacity:1" fill="#195795" d="M 193.5,223.5 C 194.167,224.167 194.833,224.833 195.5,225.5C 195.402,227.553 196.069,229.22 197.5,230.5C 198.537,231.93 199.204,233.597 199.5,235.5C 199.5,236.5 199.5,237.5 199.5,238.5C 197.167,238.5 194.833,238.5 192.5,238.5C 192.674,234.64 191.341,231.64 188.5,229.5C 185.833,228.833 183.167,228.167 180.5,227.5C 183.167,227.5 185.833,227.5 188.5,227.5C 188.5,226.5 188.5,225.5 188.5,224.5C 188.094,222.891 188.094,221.557 188.5,220.5C 189.421,222.756 191.088,223.756 193.5,223.5 Z"/></g>
<g><path style="opacity:0.004" fill="#e1e9f2" d="M 195.5,225.5 C 196.931,226.78 197.598,228.447 197.5,230.5C 196.069,229.22 195.402,227.553 195.5,225.5 Z"/></g>
<g><path style="opacity:0.953" fill="#88a6c3" d="M 177.5,225.5 C 177.834,228.491 176.834,230.824 174.5,232.5C 174.935,229.843 175.935,227.509 177.5,225.5 Z"/></g>
<g><path style="opacity:0.614" fill="#a9bfd1" d="M 229.5,226.5 C 229.833,226.5 230.167,226.5 230.5,226.5C 230.942,230.731 230.942,235.064 230.5,239.5C 228.901,239.768 227.568,239.434 226.5,238.5C 227.5,238.5 228.5,238.5 229.5,238.5C 229.5,234.5 229.5,230.5 229.5,226.5 Z"/></g>
<g><path style="opacity:0.098" fill="#80a5c2" d="M 236.5,218.5 C 237.833,224.5 237.833,230.5 236.5,236.5C 236.5,235.833 236.167,235.5 235.5,235.5C 235.5,232.833 235.5,230.167 235.5,227.5C 236.477,224.713 236.81,221.713 236.5,218.5 Z"/></g>
<g><path style="opacity:0.945" fill="#87a5c1" d="M 94.5,226.5 C 96.0652,228.509 97.0652,230.843 97.5,233.5C 95.1663,231.824 94.1663,229.491 94.5,226.5 Z"/></g>
<g><path style="opacity:0.192" fill="#d7e2ea" d="M 131.5,208.5 C 130.833,208.5 130.167,208.5 129.5,208.5C 127.5,208.5 125.5,208.5 123.5,208.5C 123.5,218.167 123.5,227.833 123.5,237.5C 125.948,238.473 128.615,238.806 131.5,238.5C 128.313,239.806 124.98,239.806 121.5,238.5C 122.833,228.167 122.833,217.833 121.5,207.5C 124.394,207.661 127.394,207.328 130.5,206.5C 131.298,206.957 131.631,207.624 131.5,208.5 Z"/></g>
<g><path style="opacity:0.996" fill="#a0b5c9" d="M 132.5,229.5 C 134.796,230.733 136.13,232.733 136.5,235.5C 134.684,233.882 133.351,231.882 132.5,229.5 Z"/></g>
<g><path style="opacity:0.106" fill="#cfdde7" d="M 161.5,225.5 C 162.748,226.334 163.415,227.667 163.5,229.5C 163.489,231.045 163.156,232.378 162.5,233.5C 162.721,230.721 162.388,228.054 161.5,225.5 Z"/></g>
<g><path style="opacity:0.145" fill="#c8d7e3" d="M 179.5,230.5 C 182.287,229.523 185.287,229.19 188.5,229.5C 191.341,231.64 192.674,234.64 192.5,238.5C 190.98,236.11 189.98,233.443 189.5,230.5C 186.167,230.5 182.833,230.5 179.5,230.5 Z"/></g>
<g><path style="opacity:1" fill="#6d8fb3" d="M 252.5,226.5 C 253.89,227.899 254.89,229.566 255.5,231.5C 253.241,230.656 252.241,228.989 252.5,226.5 Z"/></g>
<g><path style="opacity:0.004" fill="#fefffe" d="M 200.5,230.5 C 201.833,231.167 201.833,231.167 200.5,230.5 Z"/></g>
<g><path style="opacity:0.124" fill="#e8eef2" d="M 245.5,228.5 C 244.549,229.919 244.216,231.585 244.5,233.5C 243.366,231.034 243.199,228.367 244,225.5C 245.039,226.244 245.539,227.244 245.5,228.5 Z"/></g>
<g><path style="opacity:0.004" fill="#fefffe" d="M 144.5,232.5 C 145.077,231.227 145.743,231.227 146.5,232.5C 146.03,233.463 145.363,233.463 144.5,232.5 Z"/></g>
<g><path style="opacity:0.024" fill="#c2d1de" d="M 219.5,230.5 C 221.587,231.585 222.92,233.251 223.5,235.5C 221.413,234.415 220.08,232.749 219.5,230.5 Z"/></g>
<g><path style="opacity:0.008" fill="#dfe7ef" d="M 246.5,230.5 C 247.906,230.973 248.573,231.973 248.5,233.5C 247.094,233.027 246.427,232.027 246.5,230.5 Z"/></g>
<g><path style="opacity:0.969" fill="#0a5597" d="M 61.5,223.5 C 56.6511,222.834 51.6511,222.167 46.5,221.5C 46.6236,220.893 46.9569,220.56 47.5,220.5C 52.1667,220.5 56.8333,220.5 61.5,220.5C 61.5,216.5 61.5,212.5 61.5,208.5C 63.5,208.5 65.5,208.5 67.5,208.5C 67.5,218.167 67.5,227.833 67.5,237.5C 65.5,237.5 63.5,237.5 61.5,237.5C 61.5,232.833 61.5,228.167 61.5,223.5 Z"/></g>
<g><path style="opacity:0.504" fill="#afc5d6" d="M 40.5,229.5 C 41.4731,231.948 41.8064,234.615 41.5,237.5C 43.5,237.5 45.5,237.5 47.5,237.5C 47.5,232.833 47.5,228.167 47.5,223.5C 52.1667,223.5 56.8333,223.5 61.5,223.5C 61.5,228.167 61.5,232.833 61.5,237.5C 63.5,237.5 65.5,237.5 67.5,237.5C 67.5,227.833 67.5,218.167 67.5,208.5C 65.5,208.5 63.5,208.5 61.5,208.5C 61.5,212.5 61.5,216.5 61.5,220.5C 56.8333,220.5 52.1667,220.5 47.5,220.5C 47.5,216.5 47.5,212.5 47.5,208.5C 45.5,208.5 43.5,208.5 41.5,208.5C 41.81,211.713 41.4767,214.713 40.5,217.5C 40.7507,214.091 40.4173,210.758 39.5,207.5C 42.2582,207.619 45.0916,207.285 48,206.5C 48.499,210.821 48.6657,215.154 48.5,219.5C 52.5,219.5 56.5,219.5 60.5,219.5C 60.52,215.413 60.3533,211.413 60,207.5C 62.3693,207.677 64.8693,207.344 67.5,206.5C 68.4988,217.48 68.8321,228.48 68.5,239.5C 65.8333,239.5 63.1667,239.5 60.5,239.5C 60.5,234.5 60.5,229.5 60.5,224.5C 56.5,224.5 52.5,224.5 48.5,224.5C 48.5,229.5 48.5,234.5 48.5,239.5C 45.8333,239.5 43.1667,239.5 40.5,239.5C 40.5,236.167 40.5,232.833 40.5,229.5 Z"/></g>
<g><path style="opacity:0.004" fill="#fefffe" d="M 49.5,212.5 C 50.525,212.897 50.6917,213.563 50,214.5C 49.5357,213.906 49.369,213.239 49.5,212.5 Z"/></g>
<g><path style="opacity:0.867" fill="#9ab3c9" d="M 74.5,229.5 C 74.8799,231.698 74.2132,233.365 72.5,234.5C 72.7959,232.597 73.4625,230.93 74.5,229.5 Z"/></g>
<g><path style="opacity:0.722" fill="#a1b9cd" d="M 78.5,230.5 C 78.405,232.786 77.7384,234.786 76.5,236.5C 76.0535,233.99 76.7202,231.99 78.5,230.5 Z"/></g>
<g><path style="opacity:0.651" fill="#95b0c6" d="M 88.5,230.5 C 90.4484,232.32 91.4484,234.654 91.5,237.5C 93.8333,237.5 96.1667,237.5 98.5,237.5C 96.3926,238.468 94.0593,238.802 91.5,238.5C 89.9802,236.11 88.9802,233.443 88.5,230.5 Z"/></g>
<g><path style="opacity:0.624" fill="#9bb6cd" d="M 141.5,230.5 C 142.906,230.973 143.573,231.973 143.5,233.5C 142.094,233.027 141.427,232.027 141.5,230.5 Z"/></g>
<g><path style="opacity:0.557" fill="#9fb9cc" d="M 129.5,225.5 C 131.446,226.035 132.446,227.368 132.5,229.5C 131.523,232.287 131.19,235.287 131.5,238.5C 128.615,238.806 125.948,238.473 123.5,237.5C 125.5,237.5 127.5,237.5 129.5,237.5C 129.5,233.5 129.5,229.5 129.5,225.5 Z"/></g>
<g><path style="opacity:0.647" fill="#9fb9cd" d="M 255.5,231.5 C 257.262,232.262 258.262,233.596 258.5,235.5C 256.738,234.738 255.738,233.404 255.5,231.5 Z"/></g>
<g><path style="opacity:0.004" fill="#fefffe" d="M 78.5,234.5 C 79.525,234.897 79.6917,235.563 79,236.5C 78.5357,235.906 78.369,235.239 78.5,234.5 Z"/></g>
<g><path style="opacity:0.322" fill="#d4e1eb" d="M 110.5,208.5 C 109.833,208.5 109.167,208.5 108.5,208.5C 106.5,208.5 104.5,208.5 102.5,208.5C 103.8,218.171 103.8,227.838 102.5,237.5C 107.975,238.489 113.642,238.822 119.5,238.5C 119.762,237.022 119.429,235.689 118.5,234.5C 117.893,234.624 117.56,234.957 117.5,235.5C 114.833,235.5 112.167,235.5 109.5,235.5C 109.179,230.305 109.513,225.305 110.5,220.5C 110.334,225.179 110.501,229.845 111,234.5C 111.333,233.833 111.667,233.167 112,232.5C 112.689,233.357 113.522,234.023 114.5,234.5C 116.409,233.652 118.409,233.318 120.5,233.5C 120.5,235.5 120.5,237.5 120.5,239.5C 114.167,239.5 107.833,239.5 101.5,239.5C 101.168,228.48 101.501,217.48 102.5,206.5C 104.833,207.833 107.167,207.833 109.5,206.5C 110.298,206.957 110.631,207.624 110.5,208.5 Z"/></g>
<g><path style="opacity:0.839" fill="#517fa4" d="M 209.5,219.5 C 207.577,223.029 206.911,227.029 207.5,231.5C 207.5,233.833 207.5,236.167 207.5,238.5C 206.167,238.5 204.833,238.5 203.5,238.5C 203.5,236.833 203.5,235.167 203.5,233.5C 203.5,229.833 203.5,226.167 203.5,222.5C 203.833,222.5 204.167,222.5 204.5,222.5C 204.173,227.544 204.506,232.544 205.5,237.5C 206.167,230.833 206.833,224.167 207.5,217.5C 208.522,217.855 209.189,218.522 209.5,219.5 Z"/></g>
<g><path style="opacity:0.004" fill="#fefffe" d="M 133.5,235.5 C 134.833,236.167 134.833,236.167 133.5,235.5 Z"/></g>
<g><path style="opacity:0.122" fill="#d8e3ed" d="M 170.5,233.5 C 170.443,234.609 170.11,235.609 169.5,236.5C 169.167,236.5 168.833,236.5 168.5,236.5C 168.427,234.973 169.094,233.973 170.5,233.5 Z"/></g>
<g><path style="opacity:0.243" fill="#cfdfec" d="M 248.5,233.5 C 249.906,233.973 250.573,234.973 250.5,236.5C 249.094,236.027 248.427,235.027 248.5,233.5 Z"/></g>
<g><path style="opacity:0.004" fill="#fefffe" d="M 49.5,236.5 C 50.525,236.897 50.6917,237.563 50,238.5C 49.5357,237.906 49.369,237.239 49.5,236.5 Z"/></g>
<g><path style="opacity:0.008" fill="#fefffe" d="M 169.5,236.5 C 170.833,237.167 170.833,237.167 169.5,236.5 Z"/></g>
<g><path style="opacity:0.196" fill="#f3f7fa" d="M 207.5,231.5 C 208.473,233.948 208.806,236.615 208.5,239.5C 206.5,239.5 204.5,239.5 202.5,239.5C 202.205,237.265 202.539,235.265 203.5,233.5C 203.5,235.167 203.5,236.833 203.5,238.5C 204.833,238.5 206.167,238.5 207.5,238.5C 207.5,236.167 207.5,233.833 207.5,231.5 Z"/></g>
<g><path style="opacity:0.004" fill="#fefffe" d="M 247.5,236.5 C 248.833,237.167 248.833,237.167 247.5,236.5 Z"/></g>
<g><path style="opacity:0.004" fill="#fefffe" d="M 77.5,237.5 C 78.8333,238.167 78.8333,238.167 77.5,237.5 Z"/></g>
<g><path style="opacity:0.849" fill="#618bac" d="M 117.5,235.5 C 117.56,234.957 117.893,234.624 118.5,234.5C 119.429,235.689 119.762,237.022 119.5,238.5C 113.642,238.822 107.975,238.489 102.5,237.5C 107.875,237.828 113.208,237.495 118.5,236.5C 118.376,235.893 118.043,235.56 117.5,235.5 Z"/></g>
<g><path style="opacity:0.843" fill="#84a4be" d="M 143.5,233.5 C 144.833,234.167 145.833,235.167 146.5,236.5C 144.365,238.369 141.698,239.036 138.5,238.5C 137.094,238.027 136.427,237.027 136.5,235.5C 139.177,237.432 142.177,237.932 145.5,237C 144.177,236.184 143.511,235.017 143.5,233.5 Z"/></g>
<g><path style="opacity:0.008" fill="#fefffe" d="M 168.5,237.5 C 168.833,237.5 169.167,237.5 169.5,237.5C 169.167,240.167 168.833,240.167 168.5,237.5 Z"/></g>
<g><path style="opacity:0.843" fill="#8ba8bf" d="M 174.5,232.5 C 174.579,233.93 174.246,235.264 173.5,236.5C 174.325,237.386 175.325,237.719 176.5,237.5C 176.083,238.124 175.416,238.457 174.5,238.5C 173.287,238.253 172.62,237.586 172.5,236.5C 172.66,234.847 173.326,233.514 174.5,232.5 Z"/></g>
<g><path style="opacity:0.831" fill="#638eaf" d="M 258.5,235.5 C 259.167,235.5 259.5,235.833 259.5,236.5C 257.365,238.369 254.698,239.036 251.5,238.5C 251.5,238.167 251.5,237.833 251.5,237.5C 254.388,238.01 256.721,237.344 258.5,235.5 Z"/></g>
<g><path style="opacity:0.194" fill="#c5d4e1" d="M 72.5,234.5 C 72.5,235.5 72.5,236.5 72.5,237.5C 73.9587,237.567 75.2921,237.234 76.5,236.5C 76.5,237.5 76.5,238.5 76.5,239.5C 74.5,239.5 72.5,239.5 70.5,239.5C 70.4021,237.447 71.0687,235.78 72.5,234.5 Z"/></g>
<g><path style="opacity:0.043" fill="#dce5ed" d="M 97.5,233.5 C 98.7255,234.937 99.7255,236.604 100.5,238.5C 97.3553,239.803 94.3553,239.803 91.5,238.5C 94.0593,238.802 96.3926,238.468 98.5,237.5C 97.7659,236.292 97.4326,234.959 97.5,233.5 Z"/></g>
<g><path style="opacity:0.184" fill="#dfe9f0" d="M 146.5,236.5 C 147.404,237.209 147.737,238.209 147.5,239.5C 144.287,239.81 141.287,239.477 138.5,238.5C 141.698,239.036 144.365,238.369 146.5,236.5 Z"/></g>
<g><path style="opacity:0.184" fill="#e4ecf1" d="M 148.5,230.5 C 149.473,232.948 149.806,235.615 149.5,238.5C 154.167,238.5 158.833,238.5 163.5,238.5C 158.695,239.487 153.695,239.821 148.5,239.5C 148.5,236.5 148.5,233.5 148.5,230.5 Z"/></g>
<g><path style="opacity:0.176" fill="#e1eaf1" d="M 178.5,233.5 C 178.828,238.418 176.495,240.418 171.5,239.5C 171.263,238.209 171.596,237.209 172.5,236.5C 172.62,237.586 173.287,238.253 174.5,238.5C 175.416,238.457 176.083,238.124 176.5,237.5C 176.989,236.005 177.655,234.671 178.5,233.5 Z"/></g>
<g><path style="opacity:0.18" fill="#e0e9f1" d="M 199.5,235.5 C 200.391,236.261 201.058,237.261 201.5,238.5C 198.355,239.803 195.355,239.803 192.5,238.5C 194.833,238.5 197.167,238.5 199.5,238.5C 199.5,237.5 199.5,236.5 199.5,235.5 Z"/></g>
<g><path style="opacity:0.173" fill="#e4ecf3" d="M 235.5,235.5 C 236.167,235.5 236.5,235.833 236.5,236.5C 236.5,236.833 236.5,237.167 236.5,237.5C 238.607,238.468 240.941,238.802 243.5,238.5C 243.263,237.209 243.596,236.209 244.5,235.5C 244.5,236.833 244.5,238.167 244.5,239.5C 241.5,239.5 238.5,239.5 235.5,239.5C 235.5,238.167 235.5,236.833 235.5,235.5 Z"/></g>
<g><path style="opacity:0.196" fill="#e3eaf0" d="M 259.5,236.5 C 260.478,236.811 261.145,237.478 261.5,238.5C 258.02,239.806 254.687,239.806 251.5,238.5C 254.698,239.036 257.365,238.369 259.5,236.5 Z"/></g>
</svg>
