<?xml version="1.0" encoding="UTF-8"?>
<!DOCTYPE svg PUBLIC "-//W3C//DTD SVG 1.1//EN" "http://www.w3.org/Graphics/SVG/1.1/DTD/svg11.dtd">
<svg xmlns="http://www.w3.org/2000/svg" version="1.1" width="412px" height="412px" style="shape-rendering:geometricPrecision; text-rendering:geometricPrecision; image-rendering:optimizeQuality; fill-rule:evenodd; clip-rule:evenodd" xmlns:xlink="http://www.w3.org/1999/xlink">
<g><path style="opacity:0.008" fill="#ef3a3a" d="M 110.5,39.5 C 173.332,38.3347 236.332,38.168 299.5,39C 236.501,39.5 173.501,39.6667 110.5,39.5 Z"/></g>
<g><path style="opacity:0.008" fill="#ec4244" d="M 107.5,40.5 C 108.833,41.1667 108.833,41.1667 107.5,40.5 Z"/></g>
<g><path style="opacity:0.229" fill="#ec4e4d" d="M 299.5,42.5 C 299.167,42.5 298.833,42.5 298.5,42.5C 267.502,41.8334 236.335,41.5 205,41.5C 173.493,41.5001 142.326,42.1668 111.5,43.5C 110.733,42.828 110.066,41.9947 109.5,41C 141.167,40.8333 172.833,40.6667 204.5,40.5C 236.507,40.5001 268.174,41.1668 299.5,42.5 Z"/></g>
<g><path style="opacity:0.004" fill="#ef2b2e" d="M 302.5,40.5 C 303.833,41.1667 303.833,41.1667 302.5,40.5 Z"/></g>
<g><path style="opacity:0.004" fill="#e90000" d="M 301.5,42.5 C 300.833,41.1667 300.833,41.1667 301.5,42.5 Z"/></g>
<g><path style="opacity:1" fill="#fd0603" d="M 298.5,42.5 C 298.5,42.8333 298.5,43.1667 298.5,43.5C 267.167,74.1667 236.167,105.167 205.5,136.5C 204.833,136.5 204.167,136.5 203.5,136.5C 178.55,109.883 152.884,83.8832 126.5,58.5C 126.5,57.8333 126.167,57.5 125.5,57.5C 121.167,52.5 116.5,47.8333 111.5,43.5C 142.326,42.1668 173.493,41.5001 205,41.5C 236.335,41.5 267.502,41.8334 298.5,42.5 Z"/></g>
<g><path style="opacity:1" fill="#fd0703" d="M 303.5,43.5 C 313.5,53.1667 323.5,62.8333 333.5,72.5C 335.5,75.1667 337.833,77.5 340.5,79.5C 340.5,80.1667 340.833,80.5 341.5,80.5C 360.086,98.7515 378.753,117.085 397.5,135.5C 397.5,136.167 397.5,136.833 397.5,137.5C 396.833,137.5 396.5,137.833 396.5,138.5C 396.167,138.5 395.833,138.5 395.5,138.5C 392.286,139.388 389.286,140.721 386.5,142.5C 386.5,144.167 386.5,145.833 386.5,147.5C 382.774,146.551 381.107,148.218 381.5,152.5C 381.5,152.833 381.5,153.167 381.5,153.5C 380.833,153.5 380.5,153.833 380.5,154.5C 369.866,163.467 359.866,173.134 350.5,183.5C 349.833,183.5 349.5,183.833 349.5,184.5C 347.833,185.5 346.5,186.833 345.5,188.5C 344.833,188.5 344.5,188.833 344.5,189.5C 343.833,189.5 343.5,189.833 343.5,190.5C 342.833,190.5 342.5,190.833 342.5,191.5C 341.833,191.5 341.5,191.833 341.5,192.5C 340.833,192.5 340.5,192.833 340.5,193.5C 339.833,193.5 339.5,193.833 339.5,194.5C 338.833,194.5 338.5,194.833 338.5,195.5C 337.833,195.5 337.5,195.833 337.5,196.5C 336.833,196.5 336.5,196.833 336.5,197.5C 335.833,197.5 335.5,197.833 335.5,198.5C 334.833,198.5 334.5,198.833 334.5,199.5C 333.833,199.5 333.5,199.833 333.5,200.5C 332.833,200.5 332.5,200.833 332.5,201.5C 331.833,201.5 331.5,201.833 331.5,202.5C 330.833,202.5 330.5,202.833 330.5,203.5C 329.833,203.5 329.5,203.833 329.5,204.5C 328.833,204.5 328.5,204.833 328.5,205.5C 327.833,205.5 327.5,205.833 327.5,206.5C 326.833,206.5 326.5,206.833 326.5,207.5C 325.833,207.5 325.5,207.833 325.5,208.5C 324.833,208.5 324.5,208.833 324.5,209.5C 323.833,209.5 323.5,209.833 323.5,210.5C 322.833,210.5 322.5,210.833 322.5,211.5C 321.833,211.5 321.5,211.833 321.5,212.5C 320.833,212.5 320.5,212.833 320.5,213.5C 319.833,213.5 319.5,213.833 319.5,214.5C 318.833,214.5 318.5,214.833 318.5,215.5C 317.833,215.5 317.5,215.833 317.5,216.5C 316.833,216.5 316.5,216.833 316.5,217.5C 315.833,217.5 315.5,217.833 315.5,218.5C 314.833,218.5 314.5,218.833 314.5,219.5C 313.833,219.5 313.5,219.833 313.5,220.5C 312.833,220.5 312.5,220.833 312.5,221.5C 311.833,221.5 311.5,221.833 311.5,222.5C 310.833,222.5 310.5,222.833 310.5,223.5C 309.833,223.5 309.5,223.833 309.5,224.5C 308.833,224.5 308.5,224.833 308.5,225.5C 307.833,225.5 307.5,225.833 307.5,226.5C 306.833,226.5 306.5,226.833 306.5,227.5C 306.167,227.5 305.833,227.5 305.5,227.5C 304.504,227.586 303.671,227.252 303,226.5C 302.168,165.332 302.335,104.332 303.5,43.5 Z"/></g>
<g><path style="opacity:1" fill="#fd0603" d="M 106.5,44.5 C 107.833,74.4926 108.5,104.826 108.5,135.5C 108.167,165.833 107.833,196.167 107.5,226.5C 106.583,225.873 105.583,225.539 104.5,225.5C 88.7014,210.202 73.0348,194.702 57.5,179C 56.9056,178.536 56.2389,178.369 55.5,178.5C 41.7019,164.201 27.7019,150.035 13.5,136C 28.7015,120.632 44.0348,105.465 59.5,90.5C 61.8333,90.1667 63.1667,88.8333 63.5,86.5C 65.8333,86.1667 67.1667,84.8333 67.5,82.5C 80.4466,69.8881 93.4466,57.2215 106.5,44.5 Z"/></g>
<g><path style="opacity:0.008" fill="#f5201e" d="M 299.5,42.5 C 299.833,42.5 300.167,42.5 300.5,42.5C 300.832,104.669 300.499,166.669 299.5,228.5C 299.827,166.97 299.494,105.303 298.5,43.5C 299.167,43.5 299.5,43.1667 299.5,42.5 Z"/></g>
<g><path style="opacity:0.004" fill="#fc6654" d="M 125.5,57.5 C 126.167,57.5 126.5,57.8333 126.5,58.5C 125.947,60.6569 124.947,60.4903 123.5,58C 124.094,57.5357 124.761,57.369 125.5,57.5 Z"/></g>
<g><path style="opacity:0.004" fill="#e0787a" d="M 85.5,61.5 C 86.8333,62.1667 86.8333,62.1667 85.5,61.5 Z"/></g>
<g><path style="opacity:0.004" fill="#e47578" d="M 85.5,62.5 C 84.8333,63.1667 84.8333,63.1667 85.5,62.5 Z"/></g>
<g><path style="opacity:0.004" fill="#e77375" d="M 84.5,63.5 C 83.8333,64.1667 83.8333,64.1667 84.5,63.5 Z"/></g>
<g><path style="opacity:0.004" fill="#e87b7c" d="M 83.5,64.5 C 82.8333,65.1667 82.8333,65.1667 83.5,64.5 Z"/></g>
<g><path style="opacity:0.004" fill="#e98586" d="M 82.5,65.5 C 81.8333,66.1667 81.8333,66.1667 82.5,65.5 Z"/></g>
<g><path style="opacity:0.004" fill="#eb8c8d" d="M 81.5,66.5 C 80.8333,67.1667 80.8333,67.1667 81.5,66.5 Z"/></g>
<g><path style="opacity:0.004" fill="#eb9498" d="M 80.5,67.5 C 79.8333,68.1667 79.8333,68.1667 80.5,67.5 Z"/></g>
<g><path style="opacity:0.004" fill="#ed8e93" d="M 79.5,68.5 C 78.8333,69.1667 78.8333,69.1667 79.5,68.5 Z"/></g>
<g><path style="opacity:0.004" fill="#ee848b" d="M 78.5,69.5 C 77.8333,70.1667 77.8333,70.1667 78.5,69.5 Z"/></g>
<g><path style="opacity:0.004" fill="#ed7880" d="M 77.5,70.5 C 76.8333,71.1667 76.8333,71.1667 77.5,70.5 Z"/></g>
<g><path style="opacity:0.004" fill="#ef6970" d="M 76.5,71.5 C 75.8333,72.1667 75.8333,72.1667 76.5,71.5 Z"/></g>
<g><path style="opacity:0.004" fill="#f60000" d="M 333.5,71.5 C 334.833,72.1667 334.833,72.1667 333.5,71.5 Z"/></g>
<g><path style="opacity:0.004" fill="#ed7675" d="M 336.5,73.5 C 335.833,72.1667 335.833,72.1667 336.5,73.5 Z"/></g>
<g><path style="opacity:0.004" fill="#ef7373" d="M 336.5,73.5 C 337.167,73.5 337.5,73.8333 337.5,74.5C 337.167,74.1667 336.833,73.8333 336.5,73.5 Z"/></g>
<g><path style="opacity:0.004" fill="#ef7373" d="M 337.5,74.5 C 338.167,74.5 338.5,74.8333 338.5,75.5C 338.167,75.1667 337.833,74.8333 337.5,74.5 Z"/></g>
<g><path style="opacity:0.004" fill="#ed7676" d="M 338.5,75.5 C 339.167,75.5 339.5,75.8333 339.5,76.5C 339.167,76.1667 338.833,75.8333 338.5,75.5 Z"/></g>
<g><path style="opacity:0.004" fill="#eb797b" d="M 339.5,76.5 C 340.167,76.5 340.5,76.8333 340.5,77.5C 340.167,77.1667 339.833,76.8333 339.5,76.5 Z"/></g>
<g><path style="opacity:0.008" fill="#ef2122" d="M 112.5,226.5 C 111.833,226.5 111.5,226.833 111.5,227.5C 110.335,166.668 110.168,105.668 111,44.5C 111.5,45 112,45.5 112.5,46C 111.169,106.167 111.169,166.333 112.5,226.5 Z"/></g>
<g><path style="opacity:0.004" fill="#fb5e4d" d="M 340.5,77.5 C 343.217,78.6782 343.55,79.6782 341.5,80.5C 340.833,80.5 340.5,80.1667 340.5,79.5C 340.5,78.8333 340.5,78.1667 340.5,77.5 Z"/></g>
<g><path style="opacity:0.616" fill="#f68b77" d="M 67.5,82.5 C 67.1667,84.8333 65.8333,86.1667 63.5,86.5C 64.5,84.8333 65.8333,83.5 67.5,82.5 Z"/></g>
<g><path style="opacity:0.239" fill="#f44f48" d="M 301.5,42.5 C 302.492,42.3284 303.158,42.6618 303.5,43.5C 302.335,104.332 302.168,165.332 303,226.5C 303.671,227.252 304.504,227.586 305.5,227.5C 305.5,227.833 305.5,228.167 305.5,228.5C 304.833,228.5 304.5,228.833 304.5,229.5C 303.833,229.5 303.5,229.833 303.5,230.5C 301.504,168.176 300.837,105.509 301.5,42.5 Z"/></g>
<g><path style="opacity:0.655" fill="#fc8a77" d="M 63.5,86.5 C 63.1667,88.8333 61.8333,90.1667 59.5,90.5C 60.5,88.8333 61.8333,87.5 63.5,86.5 Z"/></g>
<g><path style="opacity:0.243" fill="#ec5050" d="M 109.5,229.5 C 108.833,229.5 108.167,229.5 107.5,229.5C 106.5,228.167 105.5,226.833 104.5,225.5C 105.583,225.539 106.583,225.873 107.5,226.5C 107.833,196.167 108.167,165.833 108.5,135.5C 108.5,104.826 107.833,74.4926 106.5,44.5C 106.811,43.5222 107.478,42.8555 108.5,42.5C 109.5,104.83 109.833,167.163 109.5,229.5 Z"/></g>
<g><path style="opacity:0.004" fill="#ec2c2d" d="M 398.5,135.5 C 397.833,134.167 397.833,134.167 398.5,135.5 Z"/></g>
<g><path style="opacity:0.004" fill="#e65154" d="M 11.5,135.5 C 12.8333,136.167 12.8333,136.167 11.5,135.5 Z"/></g>
<g><path style="opacity:0.004" fill="#ec4a4f" d="M 398.5,135.5 C 399.833,136.167 399.833,136.167 398.5,135.5 Z"/></g>
<g><path style="opacity:0.999" fill="#fd0703" d="M 203.5,136.5 C 204.167,136.5 204.833,136.5 205.5,136.5C 236.302,166.635 266.635,196.969 296.5,227.5C 266.174,228.833 235.507,229.5 204.5,229.5C 173.833,229.333 143.167,229.167 112.5,229C 114.141,227.871 115.141,226.371 115.5,224.5C 128.833,210.5 142.5,196.833 156.5,183.5C 159.167,182.833 160.833,181.167 161.5,178.5C 162.5,176.833 163.833,175.5 165.5,174.5C 167.749,173.92 169.415,172.587 170.5,170.5C 170.987,169.527 171.487,168.527 172,167.5C 182.78,157.512 193.28,147.179 203.5,136.5 Z"/></g>
<g><path style="opacity:0.004" fill="#eb4345" d="M 397.5,137.5 C 398.833,138.167 398.833,138.167 397.5,137.5 Z"/></g>
<g><path style="opacity:0.008" fill="#eb3f44" d="M 396.5,138.5 C 396.833,138.5 397.167,138.5 397.5,138.5C 397.315,139.17 396.981,139.17 396.5,138.5 Z"/></g>
<g><path style="opacity:0.008" fill="#ec3d40" d="M 395.5,139.5 C 395.833,139.5 396.167,139.5 396.5,139.5C 396.315,140.17 395.981,140.17 395.5,139.5 Z"/></g>
<g><path style="opacity:0.996" fill="#ff6e54" d="M 395.5,138.5 C 395.5,138.833 395.5,139.167 395.5,139.5C 394.833,139.5 394.5,139.833 394.5,140.5C 393.833,140.5 393.5,140.833 393.5,141.5C 392.833,141.5 392.5,141.833 392.5,142.5C 391.833,142.5 391.5,142.833 391.5,143.5C 390.833,143.5 390.5,143.833 390.5,144.5C 389.833,144.5 389.5,144.833 389.5,145.5C 388.833,145.5 388.5,145.833 388.5,146.5C 387.833,146.5 387.5,146.833 387.5,147.5C 387.167,147.5 386.833,147.5 386.5,147.5C 386.5,145.833 386.5,144.167 386.5,142.5C 389.286,140.721 392.286,139.388 395.5,138.5 Z"/></g>
<g><path style="opacity:0.008" fill="#ee3d42" d="M 394.5,140.5 C 394.833,140.5 395.167,140.5 395.5,140.5C 395.315,141.17 394.981,141.17 394.5,140.5 Z"/></g>
<g><path style="opacity:0.008" fill="#f03b40" d="M 393.5,141.5 C 393.833,141.5 394.167,141.5 394.5,141.5C 394.315,142.17 393.981,142.17 393.5,141.5 Z"/></g>
<g><path style="opacity:0.008" fill="#ed3d3e" d="M 392.5,142.5 C 392.833,142.5 393.167,142.5 393.5,142.5C 393.315,143.17 392.981,143.17 392.5,142.5 Z"/></g>
<g><path style="opacity:0.008" fill="#f04445" d="M 391.5,143.5 C 391.833,143.5 392.167,143.5 392.5,143.5C 392.315,144.17 391.981,144.17 391.5,143.5 Z"/></g>
<g><path style="opacity:0.008" fill="#ee4b4d" d="M 390.5,144.5 C 390.833,144.5 391.167,144.5 391.5,144.5C 391.315,145.17 390.981,145.17 390.5,144.5 Z"/></g>
<g><path style="opacity:0.008" fill="#ee4c51" d="M 389.5,145.5 C 389.833,145.5 390.167,145.5 390.5,145.5C 390.315,146.17 389.981,146.17 389.5,145.5 Z"/></g>
<g><path style="opacity:0.008" fill="#ec4f54" d="M 388.5,146.5 C 388.833,146.5 389.167,146.5 389.5,146.5C 389.315,147.17 388.981,147.17 388.5,146.5 Z"/></g>
<g><path style="opacity:0.008" fill="#ee4f53" d="M 387.5,147.5 C 387.833,147.5 388.167,147.5 388.5,147.5C 388.315,148.17 387.981,148.17 387.5,147.5 Z"/></g>
<g><path style="opacity:0.996" fill="#ff7156" d="M 386.5,147.5 C 386.5,147.833 386.5,148.167 386.5,148.5C 385.833,148.5 385.5,148.833 385.5,149.5C 384.833,149.5 384.5,149.833 384.5,150.5C 383.833,150.5 383.5,150.833 383.5,151.5C 382.833,151.5 382.5,151.833 382.5,152.5C 382.167,152.5 381.833,152.5 381.5,152.5C 381.107,148.218 382.774,146.551 386.5,147.5 Z"/></g>
<g><path style="opacity:0.008" fill="#f25556" d="M 386.5,148.5 C 386.833,148.5 387.167,148.5 387.5,148.5C 387.315,149.17 386.981,149.17 386.5,148.5 Z"/></g>
<g><path style="opacity:0.008" fill="#ee5357" d="M 385.5,149.5 C 385.833,149.5 386.167,149.5 386.5,149.5C 386.315,150.17 385.981,150.17 385.5,149.5 Z"/></g>
<g><path style="opacity:0.008" fill="#ee5057" d="M 384.5,150.5 C 384.833,150.5 385.167,150.5 385.5,150.5C 385.315,151.17 384.981,151.17 384.5,150.5 Z"/></g>
<g><path style="opacity:0.008" fill="#ec5157" d="M 383.5,151.5 C 383.833,151.5 384.167,151.5 384.5,151.5C 384.315,152.17 383.981,152.17 383.5,151.5 Z"/></g>
<g><path style="opacity:0.008" fill="#ed4a50" d="M 382.5,152.5 C 382.833,152.5 383.167,152.5 383.5,152.5C 383.315,153.17 382.981,153.17 382.5,152.5 Z"/></g>
<g><path style="opacity:0.008" fill="#eb4b4e" d="M 381.5,153.5 C 381.833,153.5 382.167,153.5 382.5,153.5C 382.315,154.17 381.981,154.17 381.5,153.5 Z"/></g>
<g><path style="opacity:0.008" fill="#ea4e52" d="M 380.5,154.5 C 380.833,154.5 381.167,154.5 381.5,154.5C 381.315,155.17 380.981,155.17 380.5,154.5 Z"/></g>
<g><path style="opacity:0.612" fill="#f4836e" d="M 170.5,170.5 C 169.415,172.587 167.749,173.92 165.5,174.5C 166.585,172.413 168.251,171.08 170.5,170.5 Z"/></g>
<g><path style="opacity:0.008" fill="#ec585b" d="M 55.5,178.5 C 55.5,178.833 55.5,179.167 55.5,179.5C 54.8299,179.019 54.8299,178.685 55.5,178.5 Z"/></g>
<g><path style="opacity:0.004" fill="#ea5c5e" d="M 55.5,179.5 C 56.1667,179.5 56.5,179.833 56.5,180.5C 56.1667,180.167 55.8333,179.833 55.5,179.5 Z"/></g>
<g><path style="opacity:0.004" fill="#ec5f61" d="M 56.5,180.5 C 57.1667,180.5 57.5,180.833 57.5,181.5C 57.1667,181.167 56.8333,180.833 56.5,180.5 Z"/></g>
<g><path style="opacity:0.004" fill="#ec6463" d="M 57.5,181.5 C 58.1667,181.5 58.5,181.833 58.5,182.5C 58.1667,182.167 57.8333,181.833 57.5,181.5 Z"/></g>
<g><path style="opacity:0.004" fill="#e96c6d" d="M 58.5,182.5 C 59.1667,182.5 59.5,182.833 59.5,183.5C 59.1667,183.167 58.8333,182.833 58.5,182.5 Z"/></g>
<g><path style="opacity:0.655" fill="#f58772" d="M 161.5,178.5 C 160.833,181.167 159.167,182.833 156.5,183.5C 157.833,181.5 159.5,179.833 161.5,178.5 Z"/></g>
<g><path style="opacity:0.004" fill="#e86d70" d="M 59.5,183.5 C 60.1667,183.5 60.5,183.833 60.5,184.5C 60.1667,184.167 59.8333,183.833 59.5,183.5 Z"/></g>
<g><path style="opacity:0.004" fill="#fe0000" d="M 350.5,183.5 C 351.833,184.167 351.833,184.167 350.5,183.5 Z"/></g>
<g><path style="opacity:0.004" fill="#e96e6e" d="M 60.5,184.5 C 61.1667,184.5 61.5,184.833 61.5,185.5C 61.1667,185.167 60.8333,184.833 60.5,184.5 Z"/></g>
<g><path style="opacity:0.004" fill="#fe0000" d="M 349.5,184.5 C 349.833,184.5 350.167,184.5 350.5,184.5C 350.315,185.17 349.981,185.17 349.5,184.5 Z"/></g>
<g><path style="opacity:0.004" fill="#eb6f6e" d="M 61.5,185.5 C 62.1667,185.5 62.5,185.833 62.5,186.5C 62.1667,186.167 61.8333,185.833 61.5,185.5 Z"/></g>
<g><path style="opacity:0.004" fill="#ea7070" d="M 62.5,186.5 C 63.1667,186.5 63.5,186.833 63.5,187.5C 63.1667,187.167 62.8333,186.833 62.5,186.5 Z"/></g>
<g><path style="opacity:0.004" fill="#e86f71" d="M 63.5,187.5 C 64.1667,187.5 64.5,187.833 64.5,188.5C 64.1667,188.167 63.8333,187.833 63.5,187.5 Z"/></g>
<g><path style="opacity:0.004" fill="#e67778" d="M 64.5,188.5 C 65.1667,188.5 65.5,188.833 65.5,189.5C 65.1667,189.167 64.8333,188.833 64.5,188.5 Z"/></g>
<g><path style="opacity:0.004" fill="#fe0000" d="M 345.5,188.5 C 346.833,189.167 346.833,189.167 345.5,188.5 Z"/></g>
<g><path style="opacity:0.004" fill="#e77e7b" d="M 65.5,189.5 C 66.1667,189.5 66.5,189.833 66.5,190.5C 66.1667,190.167 65.8333,189.833 65.5,189.5 Z"/></g>
<g><path style="opacity:0.004" fill="#fe0000" d="M 344.5,189.5 C 344.833,189.5 345.167,189.5 345.5,189.5C 345.315,190.17 344.981,190.17 344.5,189.5 Z"/></g>
<g><path style="opacity:0.004" fill="#ea8582" d="M 66.5,190.5 C 67.8333,191.167 67.8333,191.167 66.5,190.5 Z"/></g>
<g><path style="opacity:0.004" fill="#fe0000" d="M 343.5,190.5 C 343.833,190.5 344.167,190.5 344.5,190.5C 344.315,191.17 343.981,191.17 343.5,190.5 Z"/></g>
<g><path style="opacity:0.004" fill="#fe0000" d="M 342.5,191.5 C 342.833,191.5 343.167,191.5 343.5,191.5C 343.315,192.17 342.981,192.17 342.5,191.5 Z"/></g>
<g><path style="opacity:0.004" fill="#fc0000" d="M 341.5,192.5 C 341.833,192.5 342.167,192.5 342.5,192.5C 342.315,193.17 341.981,193.17 341.5,192.5 Z"/></g>
<g><path style="opacity:0.004" fill="#fe0000" d="M 340.5,193.5 C 340.833,193.5 341.167,193.5 341.5,193.5C 341.315,194.17 340.981,194.17 340.5,193.5 Z"/></g>
<g><path style="opacity:0.004" fill="#f90000" d="M 339.5,194.5 C 339.833,194.5 340.167,194.5 340.5,194.5C 340.315,195.17 339.981,195.17 339.5,194.5 Z"/></g>
<g><path style="opacity:0.008" fill="#fe0000" d="M 338.5,195.5 C 338.833,195.5 339.167,195.5 339.5,195.5C 339.315,196.17 338.981,196.17 338.5,195.5 Z"/></g>
<g><path style="opacity:0.008" fill="#f40000" d="M 337.5,196.5 C 337.833,196.5 338.167,196.5 338.5,196.5C 338.315,197.17 337.981,197.17 337.5,196.5 Z"/></g>
<g><path style="opacity:0.008" fill="#ef0000" d="M 336.5,197.5 C 336.833,197.5 337.167,197.5 337.5,197.5C 337.315,198.17 336.981,198.17 336.5,197.5 Z"/></g>
<g><path style="opacity:0.008" fill="#fe0000" d="M 335.5,198.5 C 335.833,198.5 336.167,198.5 336.5,198.5C 336.315,199.17 335.981,199.17 335.5,198.5 Z"/></g>
<g><path style="opacity:0.004" fill="#f30000" d="M 334.5,199.5 C 334.833,199.5 335.167,199.5 335.5,199.5C 335.315,200.17 334.981,200.17 334.5,199.5 Z"/></g>
<g><path style="opacity:0.008" fill="#fb0000" d="M 333.5,200.5 C 333.833,200.5 334.167,200.5 334.5,200.5C 334.315,201.17 333.981,201.17 333.5,200.5 Z"/></g>
<g><path style="opacity:0.008" fill="#f80000" d="M 332.5,201.5 C 332.833,201.5 333.167,201.5 333.5,201.5C 333.315,202.17 332.981,202.17 332.5,201.5 Z"/></g>
<g><path style="opacity:0.008" fill="#ef0000" d="M 331.5,202.5 C 331.833,202.5 332.167,202.5 332.5,202.5C 332.315,203.17 331.981,203.17 331.5,202.5 Z"/></g>
<g><path style="opacity:0.008" fill="#fc0000" d="M 330.5,203.5 C 330.833,203.5 331.167,203.5 331.5,203.5C 331.315,204.17 330.981,204.17 330.5,203.5 Z"/></g>
<g><path style="opacity:0.008" fill="#e90000" d="M 329.5,204.5 C 329.833,204.5 330.167,204.5 330.5,204.5C 330.315,205.17 329.981,205.17 329.5,204.5 Z"/></g>
<g><path style="opacity:0.008" fill="#f00000" d="M 328.5,205.5 C 328.833,205.5 329.167,205.5 329.5,205.5C 329.315,206.17 328.981,206.17 328.5,205.5 Z"/></g>
<g><path style="opacity:0.008" fill="#f20000" d="M 327.5,206.5 C 327.833,206.5 328.167,206.5 328.5,206.5C 328.315,207.17 327.981,207.17 327.5,206.5 Z"/></g>
<g><path style="opacity:0.008" fill="#f10000" d="M 326.5,207.5 C 326.833,207.5 327.167,207.5 327.5,207.5C 327.315,208.17 326.981,208.17 326.5,207.5 Z"/></g>
<g><path style="opacity:0.008" fill="#fa0000" d="M 325.5,208.5 C 325.833,208.5 326.167,208.5 326.5,208.5C 326.315,209.17 325.981,209.17 325.5,208.5 Z"/></g>
<g><path style="opacity:0.008" fill="#f10000" d="M 324.5,209.5 C 324.833,209.5 325.167,209.5 325.5,209.5C 325.315,210.17 324.981,210.17 324.5,209.5 Z"/></g>
<g><path style="opacity:0.008" fill="#f50000" d="M 323.5,210.5 C 323.833,210.5 324.167,210.5 324.5,210.5C 324.315,211.17 323.981,211.17 323.5,210.5 Z"/></g>
<g><path style="opacity:0.008" fill="#f50000" d="M 322.5,211.5 C 322.833,211.5 323.167,211.5 323.5,211.5C 323.315,212.17 322.981,212.17 322.5,211.5 Z"/></g>
<g><path style="opacity:0.008" fill="#f10000" d="M 321.5,212.5 C 321.833,212.5 322.167,212.5 322.5,212.5C 322.315,213.17 321.981,213.17 321.5,212.5 Z"/></g>
<g><path style="opacity:0.008" fill="#ed0000" d="M 320.5,213.5 C 320.833,213.5 321.167,213.5 321.5,213.5C 321.315,214.17 320.981,214.17 320.5,213.5 Z"/></g>
<g><path style="opacity:0.008" fill="#f20000" d="M 319.5,214.5 C 319.833,214.5 320.167,214.5 320.5,214.5C 320.315,215.17 319.981,215.17 319.5,214.5 Z"/></g>
<g><path style="opacity:0.008" fill="#eb0000" d="M 318.5,215.5 C 318.833,215.5 319.167,215.5 319.5,215.5C 319.315,216.17 318.981,216.17 318.5,215.5 Z"/></g>
<g><path style="opacity:0.008" fill="#f30000" d="M 317.5,216.5 C 317.833,216.5 318.167,216.5 318.5,216.5C 318.315,217.17 317.981,217.17 317.5,216.5 Z"/></g>
<g><path style="opacity:0.008" fill="#ed0000" d="M 316.5,217.5 C 316.833,217.5 317.167,217.5 317.5,217.5C 317.315,218.17 316.981,218.17 316.5,217.5 Z"/></g>
<g><path style="opacity:0.012" fill="#ed0000" d="M 315.5,218.5 C 315.833,218.5 316.167,218.5 316.5,218.5C 316.315,219.17 315.981,219.17 315.5,218.5 Z"/></g>
<g><path style="opacity:0.008" fill="#f30000" d="M 314.5,219.5 C 314.833,219.5 315.167,219.5 315.5,219.5C 315.315,220.17 314.981,220.17 314.5,219.5 Z"/></g>
<g><path style="opacity:0.008" fill="#e60000" d="M 313.5,220.5 C 313.833,220.5 314.167,220.5 314.5,220.5C 314.315,221.17 313.981,221.17 313.5,220.5 Z"/></g>
<g><path style="opacity:0.008" fill="#f20000" d="M 312.5,221.5 C 312.833,221.5 313.167,221.5 313.5,221.5C 313.315,222.17 312.981,222.17 312.5,221.5 Z"/></g>
<g><path style="opacity:0.008" fill="#e50000" d="M 311.5,222.5 C 311.833,222.5 312.167,222.5 312.5,222.5C 312.315,223.17 311.981,223.17 311.5,222.5 Z"/></g>
<g><path style="opacity:0.012" fill="#f20000" d="M 310.5,223.5 C 310.833,223.5 311.167,223.5 311.5,223.5C 311.315,224.17 310.981,224.17 310.5,223.5 Z"/></g>
<g><path style="opacity:0.012" fill="#ed0000" d="M 309.5,224.5 C 309.833,224.5 310.167,224.5 310.5,224.5C 310.315,225.17 309.981,225.17 309.5,224.5 Z"/></g>
<g><path style="opacity:0.012" fill="#f20000" d="M 308.5,225.5 C 308.833,225.5 309.167,225.5 309.5,225.5C 309.315,226.17 308.981,226.17 308.5,225.5 Z"/></g>
<g><path style="opacity:0.008" fill="#ed0004" d="M 307.5,226.5 C 307.833,226.5 308.167,226.5 308.5,226.5C 308.315,227.17 307.981,227.17 307.5,226.5 Z"/></g>
<g><path style="opacity:0.008" fill="#e91114" d="M 306.5,227.5 C 306.833,227.5 307.167,227.5 307.5,227.5C 307.315,228.17 306.981,228.17 306.5,227.5 Z"/></g>
<g><path style="opacity:0.008" fill="#ec0a0f" d="M 305.5,228.5 C 305.833,228.5 306.167,228.5 306.5,228.5C 306.315,229.17 305.981,229.17 305.5,228.5 Z"/></g>
<g><path style="opacity:0.004" fill="#f26264" d="M 107.5,229.5 C 107.5,229.833 107.5,230.167 107.5,230.5C 106.83,230.019 106.83,229.685 107.5,229.5 Z"/></g>
<g><path style="opacity:0.876" fill="#f41e1b" d="M 115.5,224.5 C 115.141,226.371 114.141,227.871 112.5,229C 143.167,229.167 173.833,229.333 204.5,229.5C 235.507,229.5 266.174,228.833 296.5,227.5C 297.167,227.833 297.833,228.167 298.5,228.5C 267.507,229.833 236.174,230.5 204.5,230.5C 172.998,230.5 141.665,230.167 110.5,229.5C 110.833,228.833 111.167,228.167 111.5,227.5C 112.167,227.5 112.5,227.167 112.5,226.5C 113.5,225.833 114.5,225.167 115.5,224.5 Z"/></g>
<g><path style="opacity:0.008" fill="#e70002" d="M 304.5,229.5 C 304.833,229.5 305.167,229.5 305.5,229.5C 305.315,230.17 304.981,230.17 304.5,229.5 Z"/></g>
<g><path style="opacity:0.004" fill="#ea9697" d="M 107.5,230.5 C 108.833,231.167 108.833,231.167 107.5,230.5 Z"/></g>
<g><path style="opacity:0.094" fill="#ddc1bc" d="M 298.5,228.5 C 298.833,228.5 299.167,228.5 299.5,228.5C 299.414,229.496 299.748,230.329 300.5,231C 268.667,231.167 236.833,231.333 205,231.5C 172.826,231.5 140.993,230.833 109.5,229.5C 109.833,229.5 110.167,229.5 110.5,229.5C 141.665,230.167 172.998,230.5 204.5,230.5C 236.174,230.5 267.507,229.833 298.5,228.5 Z"/></g>
<g><path style="opacity:0.004" fill="#ee1f24" d="M 303.5,230.5 C 303.833,230.5 304.167,230.5 304.5,230.5C 304.315,231.17 303.981,231.17 303.5,230.5 Z"/></g>
<g><path style="opacity:0.004" fill="#e16c6b" d="M 303.5,231.5 C 302.833,232.167 302.833,232.167 303.5,231.5 Z"/></g>
<g><path style="opacity:0.004" fill="#ea7170" d="M 110.5,233.5 C 173.332,232.335 236.332,232.168 299.5,233C 236.501,233.5 173.501,233.667 110.5,233.5 Z"/></g>
<g><path style="opacity:0.004" fill="#5d5d5d" d="M 167.5,267.5 C 168.601,266.402 169.934,266.235 171.5,267C 170.207,267.49 168.873,267.657 167.5,267.5 Z"/></g>
<g><path style="opacity:0.004" fill="#5e5e5e" d="M 194.5,267.5 C 194.897,266.475 195.563,266.308 196.5,267C 195.906,267.464 195.239,267.631 194.5,267.5 Z"/></g>
<g><path style="opacity:0.004" fill="#5e5e5e" d="M 348.5,267.5 C 349.946,266.387 351.613,266.22 353.5,267C 351.866,267.494 350.199,267.66 348.5,267.5 Z"/></g>
<g><path style="opacity:0.004" fill="#5c5c5c" d="M 379.5,267.5 C 379.897,266.475 380.563,266.308 381.5,267C 380.906,267.464 380.239,267.631 379.5,267.5 Z"/></g>
<g><path style="opacity:0.006" fill="#191919" d="M 160.5,268.5 C 161.601,267.402 162.934,267.235 164.5,268C 163.207,268.49 161.873,268.657 160.5,268.5 Z"/></g>
<g><path style="opacity:0.004" fill="#343434" d="M 173.5,268.5 C 174.601,267.402 175.934,267.235 177.5,268C 176.207,268.49 174.873,268.657 173.5,268.5 Z"/></g>
<g><path style="opacity:0.005" fill="#191919" d="M 340.5,268.5 C 341.946,267.387 343.613,267.22 345.5,268C 343.866,268.494 342.199,268.66 340.5,268.5 Z"/></g>
<g><path style="opacity:0.006" fill="#171717" d="M 356.5,268.5 C 357.251,267.427 358.251,267.26 359.5,268C 358.552,268.483 357.552,268.649 356.5,268.5 Z"/></g>
<g><path style="opacity:0.008" fill="#171717" d="M 337.5,269.5 C 337.897,268.475 338.563,268.308 339.5,269C 338.906,269.464 338.239,269.631 337.5,269.5 Z"/></g>
<g><path style="opacity:0.993" fill="#151515" d="M 185.5,272.5 C 187.5,273.833 189.5,273.833 191.5,272.5C 192.338,272.158 192.672,271.492 192.5,270.5C 193.167,270.5 193.5,270.167 193.5,269.5C 194.5,269.5 195.5,269.5 196.5,269.5C 196.5,280.167 196.5,290.833 196.5,301.5C 194.801,301.473 193.467,300.806 192.5,299.5C 192.784,297.585 192.451,295.919 191.5,294.5C 191.737,293.209 191.404,292.209 190.5,291.5C 190.539,288.911 189.539,286.911 187.5,285.5C 187.068,284.29 186.401,283.29 185.5,282.5C 185.027,281.094 184.027,280.427 182.5,280.5C 181.089,278.461 179.089,277.461 176.5,277.5C 173.263,275.624 169.93,275.29 166.5,276.5C 164.901,276.232 163.568,276.566 162.5,277.5C 161.508,277.328 160.842,277.662 160.5,278.5C 159.508,278.328 158.842,278.662 158.5,279.5C 157.833,279.5 157.5,279.833 157.5,280.5C 156.662,280.842 156.328,281.508 156.5,282.5C 155.662,282.842 155.328,283.508 155.5,284.5C 154.167,287.167 154.167,289.833 155.5,292.5C 157.167,297.5 160.5,300.833 165.5,302.5C 165.973,303.906 166.973,304.573 168.5,304.5C 170.336,306.588 172.669,307.921 175.5,308.5C 175.842,309.338 176.508,309.672 177.5,309.5C 177.842,310.338 178.508,310.672 179.5,310.5C 179.842,311.338 180.508,311.672 181.5,311.5C 182.659,313.25 184.326,314.25 186.5,314.5C 187.29,315.401 188.29,316.068 189.5,316.5C 192.808,319.471 196.141,322.471 199.5,325.5C 199.992,327.819 200.992,329.819 202.5,331.5C 202.216,333.415 202.549,335.081 203.5,336.5C 203.091,340.876 202.425,345.21 201.5,349.5C 200.662,349.842 200.328,350.508 200.5,351.5C 199.662,351.842 199.328,352.508 199.5,353.5C 198.833,353.5 198.5,353.833 198.5,354.5C 197.833,354.5 197.5,354.833 197.5,355.5C 196.833,355.5 196.5,355.833 196.5,356.5C 195.833,356.5 195.5,356.833 195.5,357.5C 194.833,357.5 194.5,357.833 194.5,358.5C 193.833,358.5 193.5,358.833 193.5,359.5C 192.508,359.328 191.842,359.662 191.5,360.5C 190.833,360.5 190.5,360.833 190.5,361.5C 189.508,361.328 188.842,361.662 188.5,362.5C 187.508,362.328 186.842,362.662 186.5,363.5C 182.473,363.949 178.473,364.616 174.5,365.5C 171.551,364.698 168.551,364.364 165.5,364.5C 163.095,363.232 160.428,362.565 157.5,362.5C 156.791,361.596 155.791,361.263 154.5,361.5C 152.393,360.532 150.059,360.198 147.5,360.5C 148.244,363.95 146.91,365.616 143.5,365.5C 143.5,354.5 143.5,343.5 143.5,332.5C 144.822,332.33 145.989,332.663 147,333.5C 147.279,336.457 148.113,339.123 149.5,341.5C 150.675,347.526 154.008,351.859 159.5,354.5C 160.287,356.104 161.62,356.771 163.5,356.5C 167.737,358.527 172.07,358.861 176.5,357.5C 178.099,357.768 179.432,357.434 180.5,356.5C 188.905,353.364 191.571,347.697 188.5,339.5C 188.672,338.508 188.338,337.842 187.5,337.5C 187.573,335.973 186.906,334.973 185.5,334.5C 185.5,333.833 185.167,333.5 184.5,333.5C 182.664,331.412 180.331,330.079 177.5,329.5C 175.853,327.674 173.853,326.34 171.5,325.5C 169.178,323.336 166.511,321.669 163.5,320.5C 162.101,319.11 160.434,318.11 158.5,317.5C 158.158,316.662 157.492,316.328 156.5,316.5C 156.027,315.094 155.027,314.427 153.5,314.5C 151.833,312.167 149.833,310.167 147.5,308.5C 145.819,305.797 144.153,303.131 142.5,300.5C 142.5,295.833 142.5,291.167 142.5,286.5C 143.404,285.791 143.737,284.791 143.5,283.5C 154.354,268.718 168.354,265.052 185.5,272.5 Z M 182.5,280.5 C 184.027,280.427 185.027,281.094 185.5,282.5C 184.833,282.5 184.167,282.5 183.5,282.5C 183.167,281.833 182.833,281.167 182.5,280.5 Z M 185.5,334.5 C 186.906,334.973 187.573,335.973 187.5,337.5C 186.833,337.167 186.167,336.833 185.5,336.5C 185.5,335.833 185.5,335.167 185.5,334.5 Z"/></g>
<g><path style="opacity:0.008" fill="#000000" d="M 192.5,270.5 C 191.833,269.167 191.833,269.167 192.5,270.5 Z"/></g>
<g><path style="opacity:0.006" fill="#151515" d="M 252.5,270.5 C 255.64,269.359 258.973,269.192 262.5,270C 259.183,270.498 255.85,270.665 252.5,270.5 Z"/></g>
<g><path style="opacity:0.008" fill="#151515" d="M 336.5,270.5 C 335.761,270.631 335.094,270.464 334.5,270C 335.437,269.308 336.103,269.475 336.5,270.5 Z"/></g>
<g><path style="opacity:0.997" fill="#171717" d="M 360.5,269.5 C 364.969,271.312 369.469,273.312 374,275.5C 374.765,275.43 375.265,275.097 375.5,274.5C 376.833,274.5 377.5,273.833 377.5,272.5C 377.933,269.741 379.6,268.408 382.5,268.5C 383.498,279.477 384.165,290.477 384.5,301.5C 383.178,301.67 382.011,301.337 381,300.5C 380.76,298.148 379.927,296.148 378.5,294.5C 378.672,293.508 378.338,292.842 377.5,292.5C 377.672,291.508 377.338,290.842 376.5,290.5C 376.672,289.508 376.338,288.842 375.5,288.5C 375.573,286.973 374.906,285.973 373.5,285.5C 371.363,282.027 368.363,279.694 364.5,278.5C 364.158,277.662 363.492,277.328 362.5,277.5C 361.791,276.596 360.791,276.263 359.5,276.5C 357.022,275.836 354.355,275.503 351.5,275.5C 347.531,275.294 343.865,275.961 340.5,277.5C 339.508,277.328 338.842,277.662 338.5,278.5C 337.508,278.328 336.842,278.662 336.5,279.5C 334.973,279.427 333.973,280.094 333.5,281.5C 332.833,281.5 332.5,281.833 332.5,282.5C 331.833,282.5 331.5,282.833 331.5,283.5C 330.094,283.973 329.427,284.973 329.5,286.5C 328.662,286.842 328.328,287.508 328.5,288.5C 327.662,288.842 327.328,289.508 327.5,290.5C 326.662,290.842 326.328,291.508 326.5,292.5C 325.662,292.842 325.328,293.508 325.5,294.5C 324.596,295.209 324.263,296.209 324.5,297.5C 322.96,299.838 322.294,302.505 322.5,305.5C 319.942,313.84 319.942,322.173 322.5,330.5C 322.232,332.099 322.566,333.432 323.5,334.5C 323.263,335.791 323.596,336.791 324.5,337.5C 324.402,339.553 325.069,341.22 326.5,342.5C 326.738,344.404 327.738,345.738 329.5,346.5C 329.833,348.833 331.167,350.167 333.5,350.5C 333.5,351.167 333.833,351.5 334.5,351.5C 335.659,353.25 337.326,354.25 339.5,354.5C 340.209,355.404 341.209,355.737 342.5,355.5C 349.972,357.981 357.639,358.148 365.5,356C 372.741,352.094 378.741,346.761 383.5,340C 385.489,339.481 386.489,340.314 386.5,342.5C 385.662,342.842 385.328,343.508 385.5,344.5C 384.833,344.5 384.5,344.833 384.5,345.5C 383.662,345.842 383.328,346.508 383.5,347.5C 382.833,347.5 382.5,347.833 382.5,348.5C 381.833,348.5 381.5,348.833 381.5,349.5C 380.094,349.973 379.427,350.973 379.5,352.5C 378.833,352.5 378.5,352.833 378.5,353.5C 377.833,353.5 377.5,353.833 377.5,354.5C 375.973,354.427 374.973,355.094 374.5,356.5C 373.833,356.5 373.5,356.833 373.5,357.5C 372.833,357.5 372.5,357.833 372.5,358.5C 371.508,358.328 370.842,358.662 370.5,359.5C 369.833,359.5 369.5,359.833 369.5,360.5C 368.508,360.328 367.842,360.662 367.5,361.5C 366.508,361.328 365.842,361.662 365.5,362.5C 364.209,362.263 363.209,362.596 362.5,363.5C 352.105,365.991 341.772,365.658 331.5,362.5C 329.819,360.992 327.819,359.992 325.5,359.5C 322.192,356.529 318.859,353.529 315.5,350.5C 314.136,348.809 312.803,347.142 311.5,345.5C 311.573,343.973 310.906,342.973 309.5,342.5C 309.672,341.508 309.338,340.842 308.5,340.5C 308.598,338.447 307.931,336.78 306.5,335.5C 306.435,332.572 305.768,329.905 304.5,327.5C 304.354,319.804 304.687,312.138 305.5,304.5C 309.332,292.488 316.332,282.822 326.5,275.5C 329.872,273.814 333.205,272.147 336.5,270.5C 344.442,268.506 352.442,268.173 360.5,269.5 Z M 377.5,272.5 C 377.5,273.833 376.833,274.5 375.5,274.5C 375.833,273.5 376.5,272.833 377.5,272.5 Z M 329.5,346.5 C 331.167,347.5 332.5,348.833 333.5,350.5C 331.167,350.167 329.833,348.833 329.5,346.5 Z"/></g>
<g><path style="opacity:0.006" fill="#1a1a1a" d="M 360.5,269.5 C 361.251,268.427 362.251,268.26 363.5,269C 362.552,269.483 361.552,269.649 360.5,269.5 Z"/></g>
<g><path style="opacity:0.004" fill="#484848" d="M 364.5,270.5 C 364.897,269.475 365.563,269.308 366.5,270C 365.906,270.464 365.239,270.631 364.5,270.5 Z"/></g>
<g><path style="opacity:0.006" fill="#000000" d="M 383.5,269.5 C 384.598,270.601 384.765,271.934 384,273.5C 383.51,272.207 383.343,270.873 383.5,269.5 Z"/></g>
<g><path style="opacity:0.138" fill="#8f8f8f" d="M 193.5,269.5 C 194.568,268.566 195.901,268.232 197.5,268.5C 197.828,279.679 197.495,290.679 196.5,301.5C 196.5,290.833 196.5,280.167 196.5,269.5C 195.5,269.5 194.5,269.5 193.5,269.5 Z"/></g>
<g><path style="opacity:0.004" fill="#606060" d="M 198.5,269.5 C 199.659,279.658 199.825,289.992 199,300.5C 198.5,290.172 198.334,279.839 198.5,269.5 Z"/></g>
<g><path style="opacity:0.004" fill="#373737" d="M 264.5,271.5 C 265.601,270.402 266.934,270.235 268.5,271C 267.207,271.49 265.873,271.657 264.5,271.5 Z"/></g>
<g><path style="opacity:0.008" fill="#333333" d="M 185.5,272.5 C 186.251,271.427 187.251,271.26 188.5,272C 187.552,272.483 186.552,272.649 185.5,272.5 Z"/></g>
<g><path style="opacity:0.016" fill="#323332" d="M 191.5,272.5 C 190.833,271.167 190.833,271.167 191.5,272.5 Z"/></g>
<g><path style="opacity:0.005" fill="#000100" d="M 209.5,271.5 C 210.573,272.251 210.74,273.251 210,274.5C 209.517,273.552 209.351,272.552 209.5,271.5 Z"/></g>
<g><path style="opacity:0.008" fill="#373737" d="M 272.5,272.5 C 271.448,272.649 270.448,272.483 269.5,272C 270.749,271.26 271.749,271.427 272.5,272.5 Z"/></g>
<g><path style="opacity:0.997" fill="#151515" d="M 71.5,275.5 C 70.209,275.263 69.209,275.596 68.5,276.5C 67.8333,276.5 67.5,276.833 67.5,277.5C 66.6618,277.842 66.3284,278.508 66.5,279.5C 65.6981,280.952 65.1981,282.618 65,284.5C 64.5002,294.161 64.3335,303.828 64.5,313.5C 78.1667,313.5 91.8333,313.5 105.5,313.5C 105.828,302.321 105.495,291.321 104.5,280.5C 104.737,279.209 104.404,278.209 103.5,277.5C 102.22,276.069 100.553,275.402 98.5,275.5C 96.7354,274.539 94.7354,274.205 92.5,274.5C 92.5,273.5 92.5,272.5 92.5,271.5C 105.833,271.5 119.167,271.5 132.5,271.5C 132.5,272.5 132.5,273.5 132.5,274.5C 128.946,274.15 125.612,274.816 122.5,276.5C 121.05,277.85 120.383,279.516 120.5,281.5C 119.167,305.5 119.167,329.5 120.5,353.5C 120.229,355.38 120.896,356.713 122.5,357.5C 125.36,358.244 128.36,358.911 131.5,359.5C 132.429,360.689 132.762,362.022 132.5,363.5C 119.167,363.5 105.833,363.5 92.5,363.5C 92.2865,361.856 92.6198,360.356 93.5,359C 96.2018,359.228 98.8685,358.728 101.5,357.5C 102.833,357.5 103.5,356.833 103.5,355.5C 104.434,354.432 104.768,353.099 104.5,351.5C 105.404,350.791 105.737,349.791 105.5,348.5C 106.494,338.681 106.827,328.681 106.5,318.5C 92.3234,318.171 78.3234,318.504 64.5,319.5C 64.1348,331.547 64.6348,343.547 66,355.5C 66.3826,356.056 66.8826,356.389 67.5,356.5C 67.6107,357.117 67.944,357.617 68.5,358C 71.1667,358.333 73.8333,358.667 76.5,359C 77.3366,360.011 77.67,361.178 77.5,362.5C 64.8158,362.832 52.1492,362.499 39.5,361.5C 41.3596,360.675 43.0262,359.675 44.5,358.5C 47.3667,358.631 49.0334,357.297 49.5,354.5C 50.8333,329.167 50.8333,303.833 49.5,278.5C 49.0269,277.094 48.0269,276.427 46.5,276.5C 43.8774,274.735 40.8774,274.068 37.5,274.5C 37.5,273.5 37.5,272.5 37.5,271.5C 50.8333,271.5 64.1667,271.5 77.5,271.5C 77.5,272.5 77.5,273.5 77.5,274.5C 75.2646,274.205 73.2646,274.539 71.5,275.5 Z M 103.5,355.5 C 103.5,356.833 102.833,357.5 101.5,357.5C 101.833,356.5 102.5,355.833 103.5,355.5 Z"/></g>
<g><path style="opacity:0.008" fill="#0b0b0b" d="M 78.5,271.5 C 79.5735,272.251 79.7401,273.251 79,274.5C 78.5172,273.552 78.3505,272.552 78.5,271.5 Z"/></g>
<g><path style="opacity:0.008" fill="#404040" d="M 90.5,271.5 C 91.5735,272.251 91.7401,273.251 91,274.5C 90.5172,273.552 90.3505,272.552 90.5,271.5 Z"/></g>
<g><path style="opacity:0.008" fill="#4d4d4d" d="M 133.5,271.5 C 134.525,271.897 134.692,272.563 134,273.5C 133.536,272.906 133.369,272.239 133.5,271.5 Z"/></g>
<g><path style="opacity:0.997" fill="#131313" d="M 264.5,271.5 C 266.905,272.768 269.572,273.435 272.5,273.5C 273.78,274.931 275.447,275.598 277.5,275.5C 278.29,276.401 279.29,277.068 280.5,277.5C 283.577,280.569 286.244,283.903 288.5,287.5C 289.021,291.481 289.354,295.481 289.5,299.5C 288.566,300.568 288.232,301.901 288.5,303.5C 287.662,303.842 287.328,304.508 287.5,305.5C 286.662,305.842 286.328,306.508 286.5,307.5C 285.833,307.5 285.5,307.833 285.5,308.5C 283.833,309.5 282.5,310.833 281.5,312.5C 280.027,313.072 278.693,313.905 277.5,315C 278.449,315.617 279.282,315.451 280,314.5C 280.456,315.744 279.956,316.577 278.5,317C 279.745,317.791 281.078,318.291 282.5,318.5C 287.69,322.017 291.356,326.684 293.5,332.5C 293.5,335.833 293.5,339.167 293.5,342.5C 292.596,343.209 292.263,344.209 292.5,345.5C 291.326,346.514 290.66,347.847 290.5,349.5C 289.662,349.842 289.328,350.508 289.5,351.5C 288.833,351.5 288.5,351.833 288.5,352.5C 287.833,352.5 287.5,352.833 287.5,353.5C 286.833,353.5 286.5,353.833 286.5,354.5C 285.833,354.5 285.5,354.833 285.5,355.5C 284.833,355.5 284.5,355.833 284.5,356.5C 282.973,356.427 281.973,357.094 281.5,358.5C 279.847,358.66 278.514,359.326 277.5,360.5C 276.508,360.328 275.842,360.662 275.5,361.5C 254.218,363.295 232.885,363.962 211.5,363.5C 211.343,362.127 211.51,360.793 212,359.5C 214.499,358.997 217.332,358.497 220.5,358C 222.733,355.887 224.067,353.387 224.5,350.5C 225.663,328.004 225.83,305.337 225,282.5C 224.95,280.256 224.117,278.589 222.5,277.5C 219.373,274.945 215.706,273.945 211.5,274.5C 211.5,273.5 211.5,272.5 211.5,271.5C 229.167,271.5 246.833,271.5 264.5,271.5 Z M 259.5,278.5 C 260.791,278.263 261.791,278.596 262.5,279.5C 261.761,279.369 261.094,279.536 260.5,280C 262.86,281.18 265.193,282.347 267.5,283.5C 267.5,284.167 267.833,284.5 268.5,284.5C 268.5,285.167 268.833,285.5 269.5,285.5C 270.32,287.14 271.153,288.807 272,290.5C 272.464,289.906 272.631,289.239 272.5,288.5C 275.167,293.167 275.167,297.833 272.5,302.5C 272.649,301.448 272.483,300.448 272,299.5C 271.427,301.641 270.594,303.641 269.5,305.5C 268.833,305.5 268.5,305.833 268.5,306.5C 265.739,308.212 262.739,309.378 259.5,310C 260.793,310.49 262.127,310.657 263.5,310.5C 262.391,311.29 261.058,311.79 259.5,312C 252.508,312.5 245.508,312.666 238.5,312.5C 238.5,300.833 238.5,289.167 238.5,277.5C 242.332,277.223 246.165,276.89 250,276.5C 253.451,276.421 256.618,277.087 259.5,278.5 Z M 267.5,283.5 C 267.5,283.167 267.5,282.833 267.5,282.5C 269.5,282.5 270.5,283.5 270.5,285.5C 270.167,285.5 269.833,285.5 269.5,285.5C 268.833,285.5 268.5,285.167 268.5,284.5C 267.833,284.5 267.5,284.167 267.5,283.5 Z M 269.5,305.5 C 269.833,305.5 270.167,305.5 270.5,305.5C 270.5,306.833 269.833,307.5 268.5,307.5C 268.5,307.167 268.5,306.833 268.5,306.5C 269.167,306.5 269.5,306.167 269.5,305.5 Z M 242.5,318.5 C 250.172,318.076 257.505,319.076 264.5,321.5C 263.448,321.351 262.448,321.517 261.5,322C 263.854,322.847 266.188,323.68 268.5,324.5C 268.5,325.167 268.833,325.5 269.5,325.5C 269.5,326.167 269.833,326.5 270.5,326.5C 270.5,327.167 270.833,327.5 271.5,327.5C 271.5,328.167 271.833,328.5 272.5,328.5C 272.833,329.833 273.167,329.833 273.5,328.5C 275.104,329.287 275.771,330.62 275.5,332.5C 274.167,336.5 274.167,340.5 275.5,344.5C 275.771,346.38 275.104,347.713 273.5,348.5C 273.565,348.062 273.399,347.728 273,347.5C 271.833,348.667 270.667,349.833 269.5,351C 269.728,351.399 270.062,351.565 270.5,351.5C 270.027,352.906 269.027,353.573 267.5,353.5C 266.791,354.404 265.791,354.737 264.5,354.5C 263.737,355.268 262.737,355.768 261.5,356C 253.798,356.731 246.131,356.564 238.5,355.5C 238.5,343.5 238.5,331.5 238.5,319.5C 240.099,319.768 241.432,319.434 242.5,318.5 Z M 268.5,324.5 C 268.5,324.167 268.5,323.833 268.5,323.5C 271.167,324.167 272.833,325.833 273.5,328.5C 273.167,328.5 272.833,328.5 272.5,328.5C 271.833,328.5 271.5,328.167 271.5,327.5C 270.833,327.5 270.5,327.167 270.5,326.5C 269.833,326.5 269.5,326.167 269.5,325.5C 268.833,325.5 268.5,325.167 268.5,324.5 Z"/></g>
<g><path style="opacity:0.008" fill="#2e2e2e" d="M 272.5,273.5 C 272.5,273.167 272.5,272.833 272.5,272.5C 275.167,272.833 275.167,273.167 272.5,273.5 Z"/></g>
<g><path style="opacity:0.004" fill="#848584" d="M 149.5,273.5 C 150.833,274.167 150.833,274.167 149.5,273.5 Z"/></g>
<g><path style="opacity:0.004" fill="#505050" d="M 277.5,274.5 C 276.761,274.631 276.094,274.464 275.5,274C 276.437,273.308 277.103,273.475 277.5,274.5 Z"/></g>
<g><path style="opacity:0.008" fill="#444544" d="M 326.5,273.5 C 327.833,274.167 327.833,274.167 326.5,273.5 Z"/></g>
<g><path style="opacity:0.008" fill="#191a19" d="M 277.5,274.5 C 278.833,275.167 278.833,275.167 277.5,274.5 Z"/></g>
<g><path style="opacity:0.008" fill="#000000" d="M 326.5,274.5 C 326.5,274.833 326.5,275.167 326.5,275.5C 325.83,275.019 325.83,274.685 326.5,274.5 Z"/></g>
<g><path style="opacity:0.011" fill="#020202" d="M 38.5,276.5 C 39.9464,275.387 41.6131,275.22 43.5,276C 41.8659,276.494 40.1992,276.66 38.5,276.5 Z"/></g>
<g><path style="opacity:0.009" fill="#0a0a0a" d="M 71.5,275.5 C 73.5273,275.338 75.5273,275.505 77.5,276C 75.2884,276.789 73.2884,276.622 71.5,275.5 Z"/></g>
<g><path style="opacity:0.009" fill="#0e0d0d" d="M 98.5,275.5 C 96.7116,276.622 94.7116,276.789 92.5,276C 94.4727,275.505 96.4727,275.338 98.5,275.5 Z"/></g>
<g><path style="opacity:0.011" fill="#000101" d="M 126.5,276.5 C 127.946,275.387 129.613,275.22 131.5,276C 129.866,276.494 128.199,276.66 126.5,276.5 Z"/></g>
<g><path style="opacity:0.009" fill="#090909" d="M 211.5,276.5 C 213.288,275.378 215.288,275.211 217.5,276C 215.527,276.495 213.527,276.662 211.5,276.5 Z"/></g>
<g><path style="opacity:0.012" fill="#494949" d="M 46.5,276.5 C 46.1034,277.525 45.4368,277.692 44.5,277C 45.0944,276.536 45.7611,276.369 46.5,276.5 Z"/></g>
<g><path style="opacity:0.008" fill="#414141" d="M 68.5,277.5 C 68.5,277.167 68.5,276.833 68.5,276.5C 71.1667,276.833 71.1667,277.167 68.5,277.5 Z"/></g>
<g><path style="opacity:0.009" fill="#000000" d="M 166.5,276.5 C 168.199,276.34 169.866,276.506 171.5,277C 169.613,277.78 167.946,277.613 166.5,276.5 Z"/></g>
<g><path style="opacity:0.008" fill="#000000" d="M 280.5,276.5 C 281.833,277.167 281.833,277.167 280.5,276.5 Z"/></g>
<g><path style="opacity:0.004" fill="#4f4f4f" d="M 344.5,277.5 C 345.946,276.387 347.613,276.22 349.5,277C 347.866,277.494 346.199,277.66 344.5,277.5 Z"/></g>
<g><path style="opacity:0.004" fill="#494949" d="M 359.5,276.5 C 357.712,277.622 355.712,277.789 353.5,277C 355.473,276.505 357.473,276.338 359.5,276.5 Z"/></g>
<g><path style="opacity:0.016" fill="#232423" d="M 67.5,277.5 C 67.8333,277.5 68.1667,277.5 68.5,277.5C 68.3147,278.17 67.9813,278.17 67.5,277.5 Z"/></g>
<g><path style="opacity:0.008" fill="#303030" d="M 103.5,277.5 C 103.489,280.001 102.822,280.168 101.5,278C 102.094,277.536 102.761,277.369 103.5,277.5 Z"/></g>
<g><path style="opacity:0.004" fill="#787a79" d="M 145.5,277.5 C 146.833,278.167 146.833,278.167 145.5,277.5 Z"/></g>
<g><path style="opacity:0.008" fill="#3b3b3b" d="M 162.5,278.5 C 162.5,278.167 162.5,277.833 162.5,277.5C 166.5,277.833 166.5,278.167 162.5,278.5 Z"/></g>
<g><path style="opacity:0.008" fill="#3e3e3e" d="M 176.5,277.5 C 175.749,278.573 174.749,278.74 173.5,278C 174.448,277.517 175.448,277.351 176.5,277.5 Z"/></g>
<g><path style="opacity:0.004" fill="#656664" d="M 283.5,278.5 C 282.833,277.167 282.833,277.167 283.5,278.5 Z"/></g>
<g><path style="opacity:0.008" fill="#3c3c3c" d="M 340.5,278.5 C 340.5,278.167 340.5,277.833 340.5,277.5C 344.5,277.833 344.5,278.167 340.5,278.5 Z"/></g>
<g><path style="opacity:0.012" fill="#1e1e1e" d="M 362.5,277.5 C 362.103,278.525 361.437,278.692 360.5,278C 361.094,277.536 361.761,277.369 362.5,277.5 Z"/></g>
<g><path style="opacity:0.004" fill="#535353" d="M 160.5,279.5 C 160.5,279.167 160.5,278.833 160.5,278.5C 161.167,278.5 161.833,278.5 162.5,278.5C 162.158,279.338 161.492,279.672 160.5,279.5 Z"/></g>
<g><path style="opacity:0.004" fill="#595a58" d="M 283.5,278.5 C 284.167,278.5 284.5,278.833 284.5,279.5C 284.167,279.167 283.833,278.833 283.5,278.5 Z"/></g>
<g><path style="opacity:0.004" fill="#6a6b6a" d="M 319.5,278.5 C 320.833,279.167 320.833,279.167 319.5,278.5 Z"/></g>
<g><path style="opacity:0.004" fill="#535353" d="M 338.5,279.5 C 338.5,279.167 338.5,278.833 338.5,278.5C 339.167,278.5 339.833,278.5 340.5,278.5C 340.158,279.338 339.492,279.672 338.5,279.5 Z"/></g>
<g><path style="opacity:0.012" fill="#2c2d2c" d="M 364.5,278.5 C 363.833,279.167 363.833,279.167 364.5,278.5 Z"/></g>
<g><path style="opacity:0.004" fill="#696a68" d="M 284.5,279.5 C 285.833,280.167 285.833,280.167 284.5,279.5 Z"/></g>
<g><path style="opacity:0.004" fill="#555555" d="M 336.5,280.5 C 336.5,280.167 336.5,279.833 336.5,279.5C 337.167,279.5 337.833,279.5 338.5,279.5C 338.158,280.338 337.492,280.672 336.5,280.5 Z"/></g>
<g><path style="opacity:0.008" fill="#292929" d="M 239.5,278.5 C 243.838,278.622 244.172,278.955 240.5,279.5C 240.5,289.833 240.5,300.167 240.5,310.5C 246.509,310.334 252.509,310.501 258.5,311C 252.175,311.5 245.842,311.666 239.5,311.5C 239.5,300.5 239.5,289.5 239.5,278.5 Z"/></g>
<g><path style="opacity:0.008" fill="#4e4f4e" d="M 336.5,280.5 C 335.833,281.167 335.833,281.167 336.5,280.5 Z"/></g>
<g><path style="opacity:0.004" fill="#535353" d="M 158.5,279.5 C 159.167,279.5 159.833,279.5 160.5,279.5C 159.833,280.833 158.833,281.833 157.5,282.5C 157.5,281.833 157.5,281.167 157.5,280.5C 158.167,280.5 158.5,280.167 158.5,279.5 Z"/></g>
<g><path style="opacity:0.008" fill="#000000" d="M 333.5,281.5 C 334.833,282.167 334.833,282.167 333.5,281.5 Z"/></g>
<g><path style="opacity:0.006" fill="#1e1e1e" d="M 384.5,275.5 C 385.645,279.311 385.812,283.311 385,287.5C 384.501,283.514 384.334,279.514 384.5,275.5 Z"/></g>
<g><path style="opacity:0.004" fill="#3c3c3c" d="M 66.5,279.5 C 67.5983,280.601 67.765,281.934 67,283.5C 66.51,282.207 66.3433,280.873 66.5,279.5 Z"/></g>
<g><path style="opacity:0.008" fill="#131413" d="M 143.5,283.5 C 142.833,282.167 142.833,282.167 143.5,283.5 Z"/></g>
<g><path style="opacity:0.008" fill="#262726" d="M 156.5,282.5 C 156.833,282.5 157.167,282.5 157.5,282.5C 157.315,283.17 156.981,283.17 156.5,282.5 Z"/></g>
<g><path style="opacity:0.004" fill="#3b3b3b" d="M 183.5,282.5 C 184.167,282.5 184.833,282.5 185.5,282.5C 185.214,284.933 184.548,284.933 183.5,282.5 Z"/></g>
<g><path style="opacity:0.012" fill="#000000" d="M 332.5,282.5 C 332.833,282.5 333.167,282.5 333.5,282.5C 333.315,283.17 332.981,283.17 332.5,282.5 Z"/></g>
<g><path style="opacity:0.004" fill="#000000" d="M 223.5,283.5 C 223.667,305.503 223.5,327.503 223,349.5C 222.17,327.329 222.337,305.329 223.5,283.5 Z"/></g>
<g><path style="opacity:0.008" fill="#000000" d="M 331.5,283.5 C 331.833,283.5 332.167,283.5 332.5,283.5C 332.315,284.17 331.981,284.17 331.5,283.5 Z"/></g>
<g><path style="opacity:0.004" fill="#000000" d="M 65.5,285.5 C 66.6573,294.324 66.824,303.324 66,312.5C 65.5002,303.506 65.3336,294.506 65.5,285.5 Z"/></g>
<g><path style="opacity:0.004" fill="#0d0d0d" d="M 142.5,286.5 C 141.475,286.103 141.308,285.437 142,284.5C 142.464,285.094 142.631,285.761 142.5,286.5 Z"/></g>
<g><path style="opacity:0.008" fill="#161716" d="M 187.5,285.5 C 186.833,286.167 186.833,286.167 187.5,285.5 Z"/></g>
<g><path style="opacity:0.004" fill="#515150" d="M 330.5,285.5 C 331.833,286.167 331.833,286.167 330.5,285.5 Z"/></g>
<g><path style="opacity:0.012" fill="#000000" d="M 373.5,285.5 C 372.833,286.167 372.833,286.167 373.5,285.5 Z"/></g>
<g><path style="opacity:0.004" fill="#565656" d="M 49.5,278.5 C 49.5,303.833 49.5,329.167 49.5,354.5C 48.1667,329.167 48.1667,303.833 49.5,278.5 Z"/></g>
<g><path style="opacity:0.012" fill="#2b2b2b" d="M 288.5,287.5 C 288.369,286.761 288.536,286.094 289,285.5C 289.692,286.437 289.525,287.103 288.5,287.5 Z"/></g>
<g><path style="opacity:0.008" fill="#000000" d="M 329.5,286.5 C 329.833,286.5 330.167,286.5 330.5,286.5C 330.315,287.17 329.981,287.17 329.5,286.5 Z"/></g>
<g><path style="opacity:0.008" fill="#414141" d="M 120.5,281.5 C 121.833,305.5 121.833,329.5 120.5,353.5C 120.5,329.5 120.5,305.5 120.5,281.5 Z"/></g>
<g><path style="opacity:0.008" fill="#2d2e2d" d="M 187.5,287.5 C 188.833,288.167 188.833,288.167 187.5,287.5 Z"/></g>
<g><path style="opacity:0.004" fill="#5f605f" d="M 311.5,287.5 C 312.833,288.167 312.833,288.167 311.5,287.5 Z"/></g>
<g><path style="opacity:0.008" fill="#474847" d="M 374.5,288.5 C 373.833,287.167 373.833,287.167 374.5,288.5 Z"/></g>
<g><path style="opacity:0.006" fill="#121212" d="M 140.5,287.5 C 141.573,288.251 141.74,289.251 141,290.5C 140.517,289.552 140.351,288.552 140.5,287.5 Z"/></g>
<g><path style="opacity:0.004" fill="#4e4e4e" d="M 155.5,284.5 C 156.833,287.167 156.833,289.833 155.5,292.5C 155.5,289.833 155.5,287.167 155.5,284.5 Z"/></g>
<g><path style="opacity:0.541" fill="#363636" d="M 222.5,277.5 C 224.117,278.589 224.95,280.256 225,282.5C 225.83,305.337 225.663,328.004 224.5,350.5C 224.831,327.994 224.497,305.66 223.5,283.5C 223.675,281.379 223.341,279.379 222.5,277.5 Z"/></g>
<g><path style="opacity:0.008" fill="#181918" d="M 328.5,288.5 C 329.833,289.167 329.833,289.167 328.5,288.5 Z"/></g>
<g><path style="opacity:0.008" fill="#0e0f0e" d="M 188.5,289.5 C 189.833,290.167 189.833,290.167 188.5,289.5 Z"/></g>
<g><path style="opacity:0.012" fill="#252525" d="M 289.5,288.5 C 290.573,289.251 290.74,290.251 290,291.5C 289.517,290.552 289.351,289.552 289.5,288.5 Z"/></g>
<g><path style="opacity:0.004" fill="#5c5c5c" d="M 374.5,288.5 C 374.833,288.5 375.167,288.5 375.5,288.5C 375.5,289.167 375.5,289.833 375.5,290.5C 374.662,290.158 374.328,289.492 374.5,288.5 Z"/></g>
<g><path style="opacity:0.008" fill="#171817" d="M 327.5,290.5 C 328.833,291.167 328.833,291.167 327.5,290.5 Z"/></g>
<g><path style="opacity:0.012" fill="#1b1c1b" d="M 375.5,290.5 C 375.833,290.5 376.167,290.5 376.5,290.5C 376.315,291.17 375.981,291.17 375.5,290.5 Z"/></g>
<g><path style="opacity:0.008" fill="#333333" d="M 190.5,291.5 C 190.5,292.5 190.5,293.5 190.5,294.5C 189.167,293.5 189.167,292.5 190.5,291.5 Z"/></g>
<g><path style="opacity:0.008" fill="#0a0a0a" d="M 104.5,280.5 C 104.667,291.172 104.5,301.839 104,312.5C 103.175,301.659 103.341,290.992 104.5,280.5 Z"/></g>
<g><path style="opacity:0.004" fill="#444444" d="M 326.5,292.5 C 327.833,293.167 327.833,293.833 326.5,294.5C 326.5,293.833 326.5,293.167 326.5,292.5 Z"/></g>
<g><path style="opacity:0.004" fill="#494949" d="M 377.5,292.5 C 377.5,293.167 377.5,293.833 377.5,294.5C 376.167,293.833 376.167,293.167 377.5,292.5 Z"/></g>
<g><path style="opacity:0.006" fill="#1d1d1d" d="M 385.5,289.5 C 386.643,292.976 386.81,296.642 386,300.5C 385.501,296.848 385.335,293.182 385.5,289.5 Z"/></g>
<g><path style="opacity:0.004" fill="#666666" d="M 290.5,293.5 C 291.613,294.946 291.78,296.613 291,298.5C 290.506,296.866 290.34,295.199 290.5,293.5 Z"/></g>
<g><path style="opacity:0.008" fill="#232323" d="M 325.5,294.5 C 325.833,294.5 326.167,294.5 326.5,294.5C 326.167,297.167 325.833,297.167 325.5,294.5 Z"/></g>
<g><path style="opacity:0.004" fill="#2a2a2a" d="M 377.5,294.5 C 377.833,294.5 378.167,294.5 378.5,294.5C 378.167,297.167 377.833,297.167 377.5,294.5 Z"/></g>
<g><path style="opacity:0.006" fill="#141414" d="M 140.5,296.5 C 141.573,297.251 141.74,298.251 141,299.5C 140.517,298.552 140.351,297.552 140.5,296.5 Z"/></g>
<g><path style="opacity:0.004" fill="#3a3a3a" d="M 190.5,294.5 C 190.833,294.5 191.167,294.5 191.5,294.5C 191.167,299.833 190.833,299.833 190.5,294.5 Z"/></g>
<g><path style="opacity:0.008" fill="#323232" d="M 324.5,297.5 C 325.573,298.251 325.74,299.251 325,300.5C 324.517,299.552 324.351,298.552 324.5,297.5 Z"/></g>
<g><path style="opacity:0.004" fill="#272727" d="M 378.5,297.5 C 379.525,297.897 379.692,298.563 379,299.5C 378.536,298.906 378.369,298.239 378.5,297.5 Z"/></g>
<g><path style="opacity:0.006" fill="#000000" d="M 192.5,299.5 C 192.631,300.239 192.464,300.906 192,301.5C 191.308,300.563 191.475,299.897 192.5,299.5 Z"/></g>
<g><path style="opacity:0.008" fill="#161616" d="M 289.5,299.5 C 290.573,300.251 290.74,301.251 290,302.5C 289.517,301.552 289.351,300.552 289.5,299.5 Z"/></g>
<g><path style="opacity:0.008" fill="#1c1c1c" d="M 142.5,300.5 C 142.631,301.239 142.464,301.906 142,302.5C 141.308,301.563 141.475,300.897 142.5,300.5 Z"/></g>
<g><path style="opacity:0.008" fill="#0d0e0d" d="M 165.5,301.5 C 166.833,302.167 166.833,302.167 165.5,301.5 Z"/></g>
<g><path style="opacity:0.004" fill="#4d4e4d" d="M 168.5,303.5 C 167.833,302.167 167.833,302.167 168.5,303.5 Z"/></g>
<g><path style="opacity:0.005" fill="#000000" d="M 193.5,303.5 C 194.251,302.427 195.251,302.26 196.5,303C 195.552,303.483 194.552,303.649 193.5,303.5 Z"/></g>
<g><path style="opacity:0.012" fill="#303030" d="M 305.5,304.5 C 304.427,303.749 304.26,302.749 305,301.5C 305.483,302.448 305.649,303.448 305.5,304.5 Z"/></g>
<g><path style="opacity:0.008" fill="#333333" d="M 323.5,301.5 C 324.573,302.251 324.74,303.251 324,304.5C 323.517,303.552 323.351,302.552 323.5,301.5 Z"/></g>
<g><path style="opacity:0.004" fill="#3e3f3e" d="M 382.5,302.5 C 383.833,303.167 383.833,303.167 382.5,302.5 Z"/></g>
<g><path style="opacity:0.008" fill="#1e1f1e" d="M 142.5,303.5 C 143.833,304.167 143.833,304.167 142.5,303.5 Z"/></g>
<g><path style="opacity:0.008" fill="#000000" d="M 168.5,303.5 C 169.833,304.167 169.833,304.167 168.5,303.5 Z"/></g>
<g><path style="opacity:0.004" fill="#393939" d="M 288.5,303.5 C 289.833,304.167 289.833,304.833 288.5,305.5C 288.5,304.833 288.5,304.167 288.5,303.5 Z"/></g>
<g><path style="opacity:0.004" fill="#4e4f4e" d="M 143.5,305.5 C 144.833,306.167 144.833,306.167 143.5,305.5 Z"/></g>
<g><path style="opacity:0.004" fill="#464646" d="M 287.5,305.5 C 287.833,305.5 288.167,305.5 288.5,305.5C 288.672,306.492 288.338,307.158 287.5,307.5C 287.5,306.833 287.5,306.167 287.5,305.5 Z"/></g>
<g><path style="opacity:0.012" fill="#2a2a2a" d="M 303.5,305.5 C 304.573,306.251 304.74,307.251 304,308.5C 303.517,307.552 303.351,306.552 303.5,305.5 Z"/></g>
<g><path style="opacity:0.012" fill="#0e0f0e" d="M 175.5,307.5 C 176.833,308.167 176.833,308.167 175.5,307.5 Z"/></g>
<g><path style="opacity:0.008" fill="#262726" d="M 286.5,307.5 C 286.833,307.5 287.167,307.5 287.5,307.5C 287.315,308.17 286.981,308.17 286.5,307.5 Z"/></g>
<g><path style="opacity:0.008" fill="#0c0d0c" d="M 177.5,308.5 C 178.833,309.167 178.833,309.167 177.5,308.5 Z"/></g>
<g><path style="opacity:0.008" fill="#000000" d="M 285.5,308.5 C 285.833,308.5 286.167,308.5 286.5,308.5C 286.315,309.17 285.981,309.17 285.5,308.5 Z"/></g>
<g><path style="opacity:0.004" fill="#5f5f5f" d="M 147.5,308.5 C 147.5,309.167 147.5,309.833 147.5,310.5C 146.167,309.833 146.167,309.167 147.5,308.5 Z"/></g>
<g><path style="opacity:0.008" fill="#0a0b0a" d="M 179.5,309.5 C 180.833,310.167 180.833,310.167 179.5,309.5 Z"/></g>
<g><path style="opacity:0.008" fill="#363636" d="M 322.5,305.5 C 323.622,307.288 323.789,309.288 323,311.5C 322.505,309.527 322.338,307.527 322.5,305.5 Z"/></g>
<g><path style="opacity:0.004" fill="#888988" d="M 147.5,310.5 C 148.167,310.5 148.5,310.833 148.5,311.5C 148.167,311.167 147.833,310.833 147.5,310.5 Z"/></g>
<g><path style="opacity:0.008" fill="#0e0f0e" d="M 181.5,310.5 C 182.833,311.167 182.833,311.167 181.5,310.5 Z"/></g>
<g><path style="opacity:0.004" fill="#858685" d="M 284.5,310.5 C 285.833,311.167 285.833,311.167 284.5,310.5 Z"/></g>
<g><path style="opacity:0.004" fill="#888988" d="M 148.5,311.5 C 149.833,312.167 149.833,312.167 148.5,311.5 Z"/></g>
<g><path style="opacity:0.008" fill="#282928" d="M 183.5,311.5 C 184.833,312.167 184.833,312.167 183.5,311.5 Z"/></g>
<g><path style="opacity:0.004" fill="#7f807f" d="M 284.5,311.5 C 283.833,312.167 283.833,312.167 284.5,311.5 Z"/></g>
<g><path style="opacity:0.004" fill="#494a49" d="M 186.5,313.5 C 185.833,312.167 185.833,312.167 186.5,313.5 Z"/></g>
<g><path style="opacity:0.004" fill="#000000" d="M 281.5,312.5 C 282.833,313.167 282.833,313.167 281.5,312.5 Z"/></g>
<g><path style="opacity:0.008" fill="#000000" d="M 186.5,313.5 C 187.833,314.167 187.833,314.167 186.5,313.5 Z"/></g>
<g><path style="opacity:0.004" fill="#3f403f" d="M 153.5,314.5 C 152.833,315.167 152.833,315.167 153.5,314.5 Z"/></g>
<g><path style="opacity:0.008" fill="#000000" d="M 189.5,315.5 C 190.833,316.167 190.833,316.167 189.5,315.5 Z"/></g>
<g><path style="opacity:0.012" fill="#222222" d="M 302.5,310.5 C 303.651,315.65 303.817,320.984 303,326.5C 302.501,321.177 302.334,315.844 302.5,310.5 Z"/></g>
<g><path style="opacity:0.008" fill="#353635" d="M 156.5,316.5 C 155.833,317.167 155.833,317.167 156.5,316.5 Z"/></g>
<g><path style="opacity:0.008" fill="#000000" d="M 158.5,317.5 C 158.5,317.833 158.5,318.167 158.5,318.5C 157.83,318.019 157.83,317.685 158.5,317.5 Z"/></g>
<g><path style="opacity:0.008" fill="#000000" d="M 282.5,317.5 C 283.833,318.167 283.833,318.167 282.5,317.5 Z"/></g>
<g><path style="opacity:0.004" fill="#000000" d="M 321.5,317.5 C 322.525,317.897 322.692,318.563 322,319.5C 321.536,318.906 321.369,318.239 321.5,317.5 Z"/></g>
<g><path style="opacity:0.004" fill="#444545" d="M 158.5,318.5 C 159.833,319.167 159.833,319.167 158.5,318.5 Z"/></g>
<g><path style="opacity:0.004" fill="#141414" d="M 104.5,351.5 C 103.506,341.681 103.173,331.681 103.5,321.5C 91.1667,321.5 78.8333,321.5 66.5,321.5C 66.6664,330.506 66.4998,339.506 66,348.5C 65.5002,339.173 65.3335,329.839 65.5,320.5C 78.5,320.5 91.5,320.5 104.5,320.5C 104.5,330.833 104.5,341.167 104.5,351.5 Z"/></g>
<g><path style="opacity:0.38" fill="#3e3e3e" d="M 64.5,319.5 C 78.3234,318.504 92.3234,318.171 106.5,318.5C 106.827,328.681 106.494,338.681 105.5,348.5C 105.5,338.833 105.5,329.167 105.5,319.5C 91.8333,319.5 78.1667,319.5 64.5,319.5 Z"/></g>
<g><path style="opacity:0.008" fill="#252525" d="M 163.5,320.5 C 163.5,320.833 163.5,321.167 163.5,321.5C 160.833,321.167 160.833,320.833 163.5,320.5 Z"/></g>
<g><path style="opacity:0.279" fill="#626262" d="M 242.5,318.5 C 241.432,319.434 240.099,319.768 238.5,319.5C 238.5,331.5 238.5,343.5 238.5,355.5C 237.505,343.345 237.171,331.011 237.5,318.5C 239.167,318.5 240.833,318.5 242.5,318.5 Z"/></g>
<g><path style="opacity:0.008" fill="#3e3f3e" d="M 163.5,321.5 C 164.833,322.167 164.833,322.167 163.5,321.5 Z"/></g>
<g><path style="opacity:0.008" fill="#3d3e3d" d="M 199.5,324.5 C 200.833,325.167 200.833,325.167 199.5,324.5 Z"/></g>
<g><path style="opacity:0.008" fill="#2b2b2b" d="M 171.5,325.5 C 171.5,325.833 171.5,326.167 171.5,326.5C 168.833,326.167 168.833,325.833 171.5,325.5 Z"/></g>
<g><path style="opacity:0.006" fill="#2f2f2f" d="M 322.5,330.5 C 322.338,328.473 322.505,326.473 323,324.5C 323.789,326.712 323.622,328.712 322.5,330.5 Z"/></g>
<g><path style="opacity:0.008" fill="#3f403f" d="M 171.5,326.5 C 172.833,327.167 172.833,327.167 171.5,326.5 Z"/></g>
<g><path style="opacity:0.008" fill="#292a29" d="M 177.5,329.5 C 176.833,330.167 176.833,330.167 177.5,329.5 Z"/></g>
<g><path style="opacity:0.008" fill="#606060" d="M 143.5,331.5 C 144.251,330.427 145.251,330.26 146.5,331C 145.552,331.483 144.552,331.649 143.5,331.5 Z"/></g>
<g><path style="opacity:0.008" fill="#1a1a1a" d="M 202.5,331.5 C 202.369,330.761 202.536,330.094 203,329.5C 203.692,330.437 203.525,331.103 202.5,331.5 Z"/></g>
<g><path style="opacity:0.006" fill="#1a1a1a" d="M 293.5,332.5 C 293.351,331.448 293.517,330.448 294,329.5C 294.74,330.749 294.573,331.749 293.5,332.5 Z"/></g>
<g><path style="opacity:0.004" fill="#3c3c3b" d="M 304.5,327.5 C 304.657,328.873 304.49,330.207 304,331.5C 303.235,329.934 303.402,328.601 304.5,327.5 Z"/></g>
<g><path style="opacity:0.012" fill="#313131" d="M 323.5,334.5 C 323.351,333.448 323.517,332.448 324,331.5C 324.74,332.749 324.573,333.749 323.5,334.5 Z"/></g>
<g><path style="opacity:0.004" fill="#434343" d="M 184.5,333.5 C 185.167,333.5 185.5,333.833 185.5,334.5C 185.5,335.167 185.5,335.833 185.5,336.5C 182.783,335.322 182.45,334.322 184.5,333.5 Z"/></g>
<g><path style="opacity:0.007" fill="#101010" d="M 203.5,336.5 C 203.343,335.127 203.51,333.793 204,332.5C 204.765,334.066 204.598,335.399 203.5,336.5 Z"/></g>
<g><path style="opacity:0.008" fill="#313131" d="M 304.5,332.5 C 305.525,332.897 305.692,333.563 305,334.5C 304.536,333.906 304.369,333.239 304.5,332.5 Z"/></g>
<g><path style="opacity:0.008" fill="#262626" d="M 148.5,334.5 C 149.573,335.251 149.74,336.251 149,337.5C 148.517,336.552 148.351,335.552 148.5,334.5 Z"/></g>
<g><path style="opacity:0.008" fill="#333333" d="M 294.5,333.5 C 295.634,335.966 295.801,338.633 295,341.5C 294.503,338.854 294.336,336.187 294.5,333.5 Z"/></g>
<g><path style="opacity:0.008" fill="#363636" d="M 306.5,335.5 C 306.631,336.239 306.464,336.906 306,337.5C 305.308,336.563 305.475,335.897 306.5,335.5 Z"/></g>
<g><path style="opacity:0.008" fill="#1e1e1e" d="M 324.5,337.5 C 324.369,336.761 324.536,336.094 325,335.5C 325.692,336.437 325.525,337.103 324.5,337.5 Z"/></g>
<g><path style="opacity:0.004" fill="#202020" d="M 383.5,338.5 C 383.897,337.475 384.563,337.308 385.5,338C 384.906,338.464 384.239,338.631 383.5,338.5 Z"/></g>
<g><path style="opacity:0.004" fill="#5d5e5d" d="M 204.5,338.5 C 205.833,339.167 205.833,339.167 204.5,338.5 Z"/></g>
<g><path style="opacity:0.008" fill="#222322" d="M 306.5,338.5 C 307.833,339.167 307.833,339.167 306.5,338.5 Z"/></g>
<g><path style="opacity:0.008" fill="#313131" d="M 150.5,341.5 C 150.167,341.5 149.833,341.5 149.5,341.5C 149.833,337.5 150.167,337.5 150.5,341.5 Z"/></g>
<g><path style="opacity:0.008" fill="#323232" d="M 188.5,339.5 C 188.649,340.552 188.483,341.552 188,342.5C 187.26,341.251 187.427,340.251 188.5,339.5 Z"/></g>
<g><path style="opacity:0.008" fill="#101110" d="M 308.5,340.5 C 307.833,341.167 307.833,341.167 308.5,340.5 Z"/></g>
<g><path style="opacity:0.004" fill="#2f2f2e" d="M 387.5,342.5 C 387.369,341.761 387.536,341.094 388,340.5C 388.692,341.437 388.525,342.103 387.5,342.5 Z"/></g>
<g><path style="opacity:0.004" fill="#1c1c1c" d="M 327.5,342.5 C 327.167,342.5 326.833,342.5 326.5,342.5C 326.833,339.833 327.167,339.833 327.5,342.5 Z"/></g>
<g><path style="opacity:0.012" fill="#3e3e3e" d="M 150.5,341.5 C 151.525,341.897 151.692,342.563 151,343.5C 150.536,342.906 150.369,342.239 150.5,341.5 Z"/></g>
<g><path style="opacity:0.006" fill="#161616" d="M 203.5,342.5 C 204.598,343.601 204.765,344.934 204,346.5C 203.51,345.207 203.343,343.873 203.5,342.5 Z"/></g>
<g><path style="opacity:0.006" fill="#1a1a1a" d="M 293.5,342.5 C 294.833,343.5 294.833,344.5 293.5,345.5C 293.5,344.5 293.5,343.5 293.5,342.5 Z"/></g>
<g><path style="opacity:0.008" fill="#191a19" d="M 309.5,342.5 C 308.833,343.167 308.833,343.167 309.5,342.5 Z"/></g>
<g><path style="opacity:0.008" fill="#3e3f3e" d="M 327.5,342.5 C 328.833,343.167 328.833,343.167 327.5,342.5 Z"/></g>
<g><path style="opacity:0.004" fill="#6a6b6a" d="M 378.5,342.5 C 379.833,343.167 379.833,343.167 378.5,342.5 Z"/></g>
<g><path style="opacity:0.004" fill="#434343" d="M 386.5,342.5 C 386.833,342.5 387.167,342.5 387.5,342.5C 387.672,343.492 387.338,344.158 386.5,344.5C 386.5,343.833 386.5,343.167 386.5,342.5 Z"/></g>
<g><path style="opacity:0.008" fill="#353635" d="M 151.5,344.5 C 152.833,345.167 152.833,345.167 151.5,344.5 Z"/></g>
<g><path style="opacity:0.004" fill="#3d3e3d" d="M 310.5,345.5 C 309.833,344.167 309.833,344.167 310.5,345.5 Z"/></g>
<g><path style="opacity:0.008" fill="#1c1d1c" d="M 385.5,344.5 C 385.833,344.5 386.167,344.5 386.5,344.5C 386.315,345.17 385.981,345.17 385.5,344.5 Z"/></g>
<g><path style="opacity:0.008" fill="#000000" d="M 310.5,345.5 C 310.833,345.5 311.167,345.5 311.5,345.5C 311.315,346.17 310.981,346.17 310.5,345.5 Z"/></g>
<g><path style="opacity:0.008" fill="#1d1d1d" d="M 292.5,345.5 C 292.833,345.5 293.167,345.5 293.5,345.5C 293.167,348.167 292.833,348.167 292.5,345.5 Z"/></g>
<g><path style="opacity:0.004" fill="#444444" d="M 384.5,345.5 C 384.833,345.5 385.167,345.5 385.5,345.5C 385.672,346.492 385.338,347.158 384.5,347.5C 384.5,346.833 384.5,346.167 384.5,345.5 Z"/></g>
<g><path style="opacity:0.008" fill="#2d2e2d" d="M 383.5,347.5 C 383.833,347.5 384.167,347.5 384.5,347.5C 384.315,348.17 383.981,348.17 383.5,347.5 Z"/></g>
<g><path style="opacity:0.004" fill="#353535" d="M 202.5,349.5 C 202.369,348.761 202.536,348.094 203,347.5C 203.692,348.437 203.525,349.103 202.5,349.5 Z"/></g>
<g><path style="opacity:0.008" fill="#3b3c3b" d="M 291.5,348.5 C 292.833,349.167 292.833,349.167 291.5,348.5 Z"/></g>
<g><path style="opacity:0.008" fill="#000000" d="M 382.5,348.5 C 382.833,348.5 383.167,348.5 383.5,348.5C 383.315,349.17 382.981,349.17 382.5,348.5 Z"/></g>
<g><path style="opacity:0.004" fill="#000000" d="M 381.5,349.5 C 381.833,349.5 382.167,349.5 382.5,349.5C 382.315,350.17 381.981,350.17 381.5,349.5 Z"/></g>
<g><path style="opacity:0.004" fill="#363636" d="M 201.5,349.5 C 201.833,349.5 202.167,349.5 202.5,349.5C 202.672,350.492 202.338,351.158 201.5,351.5C 201.5,350.833 201.5,350.167 201.5,349.5 Z"/></g>
<g><path style="opacity:0.004" fill="#555555" d="M 290.5,349.5 C 290.833,349.5 291.167,349.5 291.5,349.5C 291.672,350.492 291.338,351.158 290.5,351.5C 290.5,350.833 290.5,350.167 290.5,349.5 Z"/></g>
<g><path style="opacity:0.004" fill="#000000" d="M 315.5,350.5 C 314.833,351.167 314.833,351.167 315.5,350.5 Z"/></g>
<g><path style="opacity:0.012" fill="#000000" d="M 334.5,350.5 C 335.833,351.167 335.833,351.167 334.5,350.5 Z"/></g>
<g><path style="opacity:0.004" fill="#5f605f" d="M 370.5,350.5 C 371.833,351.167 371.833,351.167 370.5,350.5 Z"/></g>
<g><path style="opacity:0.008" fill="#000000" d="M 200.5,351.5 C 200.833,351.5 201.167,351.5 201.5,351.5C 201.315,352.17 200.981,352.17 200.5,351.5 Z"/></g>
<g><path style="opacity:0.008" fill="#4b4c4b" d="M 289.5,351.5 C 289.833,351.5 290.167,351.5 290.5,351.5C 290.315,352.17 289.981,352.17 289.5,351.5 Z"/></g>
<g><path style="opacity:0.008" fill="#373837" d="M 336.5,351.5 C 337.833,352.167 337.833,352.167 336.5,351.5 Z"/></g>
<g><path style="opacity:0.004" fill="#6a6b6a" d="M 380.5,351.5 C 381.833,352.167 381.833,352.167 380.5,351.5 Z"/></g>
<g><path style="opacity:0.008" fill="#212221" d="M 288.5,352.5 C 288.833,352.5 289.167,352.5 289.5,352.5C 289.315,353.17 288.981,353.17 288.5,352.5 Z"/></g>
<g><path style="opacity:0.004" fill="#767675" d="M 316.5,353.5 C 315.833,352.167 315.833,352.167 316.5,353.5 Z"/></g>
<g><path style="opacity:0.004" fill="#5d5e5d" d="M 379.5,352.5 C 379.833,352.5 380.167,352.5 380.5,352.5C 380.315,353.17 379.981,353.17 379.5,352.5 Z"/></g>
<g><path style="opacity:0.008" fill="#2c2d2c" d="M 159.5,353.5 C 160.833,354.167 160.833,354.167 159.5,353.5 Z"/></g>
<g><path style="opacity:0.004" fill="#515251" d="M 199.5,353.5 C 200.833,354.167 200.833,354.167 199.5,353.5 Z"/></g>
<g><path style="opacity:0.008" fill="#0c0d0c" d="M 287.5,353.5 C 287.833,353.5 288.167,353.5 288.5,353.5C 288.315,354.17 287.981,354.17 287.5,353.5 Z"/></g>
<g><path style="opacity:0.004" fill="#6e6f6e" d="M 316.5,353.5 C 317.167,353.5 317.5,353.833 317.5,354.5C 317.167,354.167 316.833,353.833 316.5,353.5 Z"/></g>
<g><path style="opacity:0.008" fill="#1f1f1f" d="M 339.5,354.5 C 339.897,353.475 340.563,353.308 341.5,354C 340.906,354.464 340.239,354.631 339.5,354.5 Z"/></g>
<g><path style="opacity:0.008" fill="#5d5e5d" d="M 378.5,353.5 C 378.833,353.5 379.167,353.5 379.5,353.5C 379.315,354.17 378.981,354.17 378.5,353.5 Z"/></g>
<g><path style="opacity:0.004" fill="#3d3d3d" d="M 163.5,355.5 C 162.761,355.631 162.094,355.464 161.5,355C 162.437,354.308 163.103,354.475 163.5,355.5 Z"/></g>
<g><path style="opacity:0.008" fill="#2d2e2d" d="M 198.5,354.5 C 198.833,354.5 199.167,354.5 199.5,354.5C 199.315,355.17 198.981,355.17 198.5,354.5 Z"/></g>
<g><path style="opacity:0.012" fill="#121312" d="M 286.5,354.5 C 286.833,354.5 287.167,354.5 287.5,354.5C 287.315,355.17 286.981,355.17 286.5,354.5 Z"/></g>
<g><path style="opacity:0.004" fill="#717271" d="M 317.5,354.5 C 318.833,355.167 318.833,355.167 317.5,354.5 Z"/></g>
<g><path style="opacity:0.008" fill="#242424" d="M 342.5,355.5 C 343.251,354.427 344.251,354.26 345.5,355C 344.552,355.483 343.552,355.649 342.5,355.5 Z"/></g>
<g><path style="opacity:0.004" fill="#626362" d="M 377.5,354.5 C 377.833,354.5 378.167,354.5 378.5,354.5C 378.315,355.17 377.981,355.17 377.5,354.5 Z"/></g>
<g><path style="opacity:0.012" fill="#2a2b2a" d="M 67.5,355.5 C 68.8333,356.167 68.8333,356.167 67.5,355.5 Z"/></g>
<g><path style="opacity:0.006" fill="#262626" d="M 163.5,356.5 C 163.5,356.167 163.5,355.833 163.5,355.5C 168.833,355.833 168.833,356.167 163.5,356.5 Z"/></g>
<g><path style="opacity:0.004" fill="#292929" d="M 180.5,356.5 C 179.448,356.649 178.448,356.483 177.5,356C 178.749,355.26 179.749,355.427 180.5,356.5 Z"/></g>
<g><path style="opacity:0.012" fill="#151615" d="M 197.5,355.5 C 197.833,355.5 198.167,355.5 198.5,355.5C 198.315,356.17 197.981,356.17 197.5,355.5 Z"/></g>
<g><path style="opacity:0.012" fill="#191a19" d="M 285.5,355.5 C 285.833,355.5 286.167,355.5 286.5,355.5C 286.315,356.17 285.981,356.17 285.5,355.5 Z"/></g>
<g><path style="opacity:0.004" fill="#727372" d="M 377.5,355.5 C 376.833,356.167 376.833,356.167 377.5,355.5 Z"/></g>
<g><path style="opacity:0.004" fill="#222222" d="M 69.5,357.5 C 69.8966,356.475 70.5632,356.308 71.5,357C 70.9056,357.464 70.2389,357.631 69.5,357.5 Z"/></g>
<g><path style="opacity:0.008" fill="#212121" d="M 122.5,357.5 C 123.251,356.427 124.251,356.26 125.5,357C 124.552,357.483 123.552,357.649 122.5,357.5 Z"/></g>
<g><path style="opacity:0.007" fill="#000000" d="M 176.5,357.5 C 174.143,357.663 171.81,357.497 169.5,357C 172.039,356.204 174.372,356.371 176.5,357.5 Z"/></g>
<g><path style="opacity:0.012" fill="#151615" d="M 196.5,356.5 C 196.833,356.5 197.167,356.5 197.5,356.5C 197.315,357.17 196.981,357.17 196.5,356.5 Z"/></g>
<g><path style="opacity:0.008" fill="#2a2b2a" d="M 284.5,356.5 C 284.833,356.5 285.167,356.5 285.5,356.5C 285.315,357.17 284.981,357.17 284.5,356.5 Z"/></g>
<g><path style="opacity:0.008" fill="#000000" d="M 374.5,356.5 C 375.833,357.167 375.833,357.167 374.5,356.5 Z"/></g>
<g><path style="opacity:0.012" fill="#1c1d1c" d="M 195.5,357.5 C 195.833,357.5 196.167,357.5 196.5,357.5C 196.315,358.17 195.981,358.17 195.5,357.5 Z"/></g>
<g><path style="opacity:0.004" fill="#545554" d="M 284.5,357.5 C 283.833,358.167 283.833,358.167 284.5,357.5 Z"/></g>
<g><path style="opacity:0.008" fill="#000000" d="M 373.5,357.5 C 373.833,357.5 374.167,357.5 374.5,357.5C 374.315,358.17 373.981,358.17 373.5,357.5 Z"/></g>
<g><path style="opacity:0.008" fill="#2e2f2e" d="M 194.5,358.5 C 194.833,358.5 195.167,358.5 195.5,358.5C 195.315,359.17 194.981,359.17 194.5,358.5 Z"/></g>
<g><path style="opacity:0.008" fill="#000000" d="M 281.5,358.5 C 282.833,359.167 282.833,359.167 281.5,358.5 Z"/></g>
<g><path style="opacity:0.008" fill="#2a2b2a" d="M 372.5,358.5 C 372.833,358.5 373.167,358.5 373.5,358.5C 373.315,359.17 372.981,359.17 372.5,358.5 Z"/></g>
<g><path style="opacity:0.688" fill="#afafaf" d="M 44.5,358.5 C 43.0262,359.675 41.3596,360.675 39.5,361.5C 52.1492,362.499 64.8158,362.832 77.5,362.5C 64.6732,363.66 51.6732,363.827 38.5,363C 37.269,361.817 37.269,360.651 38.5,359.5C 40.4086,358.652 42.4086,358.318 44.5,358.5 Z"/></g>
<g><path style="opacity:0.004" fill="#545554" d="M 193.5,359.5 C 193.833,359.5 194.167,359.5 194.5,359.5C 194.315,360.17 193.981,360.17 193.5,359.5 Z"/></g>
<g><path style="opacity:0.005" fill="#000000" d="M 209.5,359.5 C 210.573,360.251 210.74,361.251 210,362.5C 209.517,361.552 209.351,360.552 209.5,359.5 Z"/></g>
<g><path style="opacity:0.004" fill="#464746" d="M 281.5,359.5 C 280.833,360.167 280.833,360.167 281.5,359.5 Z"/></g>
<g><path style="opacity:0.004" fill="#262626" d="M 325.5,359.5 C 325.5,359.833 325.5,360.167 325.5,360.5C 322.833,360.167 322.833,359.833 325.5,359.5 Z"/></g>
<g><path style="opacity:0.004" fill="#434343" d="M 370.5,360.5 C 370.5,360.167 370.5,359.833 370.5,359.5C 371.167,359.5 371.833,359.5 372.5,359.5C 372.158,360.338 371.492,360.672 370.5,360.5 Z"/></g>
<g><path style="opacity:0.006" fill="#040404" d="M 78.5,359.5 C 79.5735,360.251 79.7401,361.251 79,362.5C 78.5172,361.552 78.3505,360.552 78.5,359.5 Z"/></g>
<g><path style="opacity:0.008" fill="#3a3a3a" d="M 90.5,359.5 C 91.5735,360.251 91.7401,361.251 91,362.5C 90.5172,361.552 90.3505,360.552 90.5,359.5 Z"/></g>
<g><path style="opacity:0.008" fill="#4c4c4c" d="M 133.5,359.5 C 134.573,360.251 134.74,361.251 134,362.5C 133.517,361.552 133.351,360.552 133.5,359.5 Z"/></g>
<g><path style="opacity:0.004" fill="#000000" d="M 191.5,360.5 C 192.833,361.167 192.833,361.167 191.5,360.5 Z"/></g>
<g><path style="opacity:0.004" fill="#212121" d="M 277.5,361.5 C 277.5,361.167 277.5,360.833 277.5,360.5C 280.167,360.833 280.167,361.167 277.5,361.5 Z"/></g>
<g><path style="opacity:0.004" fill="#333433" d="M 325.5,360.5 C 326.833,361.167 326.833,361.167 325.5,360.5 Z"/></g>
<g><path style="opacity:0.008" fill="#2b2c2b" d="M 369.5,360.5 C 369.833,360.5 370.167,360.5 370.5,360.5C 370.315,361.17 369.981,361.17 369.5,360.5 Z"/></g>
<g><path style="opacity:0.004" fill="#1f1f1f" d="M 154.5,361.5 C 153.399,362.598 152.066,362.765 150.5,362C 151.793,361.51 153.127,361.343 154.5,361.5 Z"/></g>
<g><path style="opacity:0.008" fill="#282928" d="M 190.5,361.5 C 190.833,361.5 191.167,361.5 191.5,361.5C 191.315,362.17 190.981,362.17 190.5,361.5 Z"/></g>
<g><path style="opacity:0.004" fill="#333333" d="M 275.5,361.5 C 276.167,361.5 276.833,361.5 277.5,361.5C 276.833,362.833 276.167,362.833 275.5,361.5 Z"/></g>
<g><path style="opacity:0.008" fill="#181918" d="M 327.5,361.5 C 328.833,362.167 328.833,362.167 327.5,361.5 Z"/></g>
<g><path style="opacity:0.008" fill="#070807" d="M 367.5,361.5 C 368.833,362.167 368.833,362.167 367.5,361.5 Z"/></g>
<g><path style="opacity:0.004" fill="#515050" d="M 148.5,361.5 C 149.525,361.897 149.692,362.563 149,363.5C 148.536,362.906 148.369,362.239 148.5,361.5 Z"/></g>
<g><path style="opacity:0.004" fill="#151515" d="M 157.5,362.5 C 157.103,363.525 156.437,363.692 155.5,363C 156.094,362.536 156.761,362.369 157.5,362.5 Z"/></g>
<g><path style="opacity:0.008" fill="#000000" d="M 188.5,362.5 C 189.833,363.167 189.833,363.167 188.5,362.5 Z"/></g>
<g><path style="opacity:0.008" fill="#191919" d="M 271.5,363.5 C 272.251,362.427 273.251,362.26 274.5,363C 273.552,363.483 272.552,363.649 271.5,363.5 Z"/></g>
<g><path style="opacity:0.004" fill="#101010" d="M 331.5,362.5 C 331.5,362.833 331.5,363.167 331.5,363.5C 328.833,363.167 328.833,362.833 331.5,362.5 Z"/></g>
<g><path style="opacity:0.008" fill="#0a0b0a" d="M 365.5,362.5 C 366.833,363.167 366.833,363.167 365.5,362.5 Z"/></g>
<g><path style="opacity:0.004" fill="#3d3d3d" d="M 186.5,363.5 C 187.167,363.5 187.833,363.5 188.5,363.5C 187.833,364.833 187.167,364.833 186.5,363.5 Z"/></g>
<g><path style="opacity:0.006" fill="#131313" d="M 261.5,364.5 C 263.966,363.366 266.633,363.199 269.5,364C 266.854,364.497 264.187,364.664 261.5,364.5 Z"/></g>
<g><path style="opacity:0.008" fill="#1d1d1d" d="M 331.5,363.5 C 332.239,363.369 332.906,363.536 333.5,364C 332.563,364.692 331.897,364.525 331.5,363.5 Z"/></g>
<g><path style="opacity:0.004" fill="#232323" d="M 362.5,363.5 C 363.239,363.369 363.906,363.536 364.5,364C 363.563,364.692 362.897,364.525 362.5,363.5 Z"/></g>
<g><path style="opacity:0.006" fill="#161515" d="M 165.5,364.5 C 164.399,365.598 163.066,365.765 161.5,365C 162.793,364.51 164.127,364.343 165.5,364.5 Z"/></g>
<g><path style="opacity:0.004" fill="#1d1d1d" d="M 183.5,365.5 C 183.897,364.475 184.563,364.308 185.5,365C 184.906,365.464 184.239,365.631 183.5,365.5 Z"/></g>
<g><path style="opacity:0.008" fill="#1a1a1a" d="M 334.5,365.5 C 335.251,364.427 336.251,364.26 337.5,365C 336.552,365.483 335.552,365.649 334.5,365.5 Z"/></g>
<g><path style="opacity:0.004" fill="#171717" d="M 359.5,365.5 C 359.897,364.475 360.563,364.308 361.5,365C 360.906,365.464 360.239,365.631 359.5,365.5 Z"/></g>
<g><path style="opacity:0.006" fill="#0d0d0d" d="M 166.5,366.5 C 167.946,365.387 169.613,365.22 171.5,366C 169.866,366.494 168.199,366.66 166.5,366.5 Z"/></g>
<g><path style="opacity:0.006" fill="#1a1a1a" d="M 177.5,366.5 C 178.946,365.387 180.613,365.22 182.5,366C 180.866,366.494 179.199,366.66 177.5,366.5 Z"/></g>
<g><path style="opacity:0.006" fill="#171717" d="M 338.5,366.5 C 340.288,365.378 342.288,365.211 344.5,366C 342.527,366.495 340.527,366.662 338.5,366.5 Z"/></g>
<g><path style="opacity:0.004" fill="#1b1b1b" d="M 352.5,366.5 C 354.288,365.378 356.288,365.211 358.5,366C 356.527,366.495 354.527,366.662 352.5,366.5 Z"/></g>
</svg>
