<?xml version="1.0" encoding="utf-8"?>
<!-- Generator: Adobe Illustrator 23.0.4, SVG Export Plug-In . SVG Version: 6.00 Build 0)  -->
<svg version="1.1" id="Layer_1" xmlns="http://www.w3.org/2000/svg" xmlns:xlink="http://www.w3.org/1999/xlink" x="0px" y="0px"
	 viewBox="0 0 46 46" style="enable-background:new 0 0 46 46;" xml:space="preserve">
<style type="text/css">
	.st0{fill:#FF5200;}
	.st1{fill:#FFFFFF;}
</style>
<g>
	<rect class="st0" width="46" height="46"/>
	<path class="st1" d="M38.6,34.3c0,0,0.3,2.1-1.1,3.9l-1.7-1.6c0,0,0.1,2-0.3,2.1c-0.4,0.1-1.4,0.2-1.7,0s-0.8-0.8-0.9-1.2
		c0,0-0.2,1.4-1,1.5c-0.9,0.1-1.5,0-1.6-1.1c0-1.1,0-1.8,0-1.8L29,37.3c0,0-1.6-1.3-1.4-2.5C27.6,34.8,32.2,31.3,38.6,34.3z"/>
	<path class="st1" d="M18.2,10.3c0,0-0.5,2.3-0.4,3.1c0.2,0.9,0.7,2.1,0.8,2.2c0.1,0.1,0.4,0.7-0.1,1.1c-0.6,0.4-3.4,2.3-3.9,3.3
		l-0.4-3.2l1.9-1.3c0,0-0.5-1.8-0.3-3S15.6,9.9,18.2,10.3z"/>
	<path class="st1" d="M14.5,24.6c0,0,3.2-2.9,4.4-3.4c0,0,0.1-1.2,0.3-1.4s-0.9-0.4-0.9-0.4s-3.8,0.4-4.1,1.4
		C13.9,21.7,14.2,24.5,14.5,24.6z"/>
	<path class="st1" d="M13.2,30.9c0,0,3.5-4.4,5.2-4.7c0,0,0.1,0,0.2-0.3c0.1-0.3,0.2-1.7,0.2-1.7s0-0.2-0.3-0.1
		c-0.2,0-3.7,0.9-5.6,3c0,0-0.1,0.8,0,1.4C13,28.8,13.2,30.4,13.2,30.9z"/>
	<path class="st1" d="M15.9,30.3c0,0-0.6,1.3-0.4,2.6c0.1,1.3,0.8,2.8,0.4,3.4s-0.9,1.8-1.5,2.1c0,0-0.5-1-0.6-1.6
		c-0.1-0.6-0.7-5-0.4-5.2C13.7,31.4,15.4,30.3,15.9,30.3z"/>
	<path class="st1" d="M14.5,39.2c0,0,0.1,0.3,0.2,0.6c0.1,0.2,0.2,0.2,0.2,0.7c0,0.6,0.1,1.8,0.3,1.6c0.2-0.2,2.1-2.7,2.7-2.9
		c0,0,0,0-0.1-0.3c-0.1-0.3-0.6-1.4-0.9-1.4C16.6,37.4,14.9,38.8,14.5,39.2z"/>
	<path class="st1" d="M18.6,42c0,0,0.5,1.1,0.8,1.4c0.3,0.3-0.7,0.3-2.5,2.5h-0.7c0,0-0.9-2.6-1.2-2.7C14.9,43.3,17.4,42,18.6,42z"
		/>
	<path class="st1" d="M20.9,41.4l2.4,1.3c0,0-0.1-0.3-0.3-1.1c-0.2-0.8-0.5-1.2-0.4-1.7c0-0.6,0.2-1.1,0-1.5c-0.3-0.4-1-0.9-1.2-0.9
		c-0.2,0-0.4,0-0.6,0.3s-0.3,0.7-0.3,1.1c0,0.4,0,0.8,0.1,1.2S20.7,41.3,20.9,41.4z"/>
	<path class="st1" d="M24.8,40.9c0,0,0.7,0.5,0.9,1.3c0.2,0.8,0.4,1.8,0.7,1.8c0.3,0,0.5-0.1,0.6-0.8s0.4-1.3,0.2-1.9
		c-0.2-0.6-0.7-1.7-1.1-2s-0.9-0.5-1-0.3c-0.1,0.2,0.1,0.6-0.2,1.2C24.7,40.7,24.8,40.9,24.8,40.9z"/>
	<path class="st1" d="M28.6,42.9c0,0,0,0.4,0.1,0.7c0.1,0.3,0.1,0.4,0.1,0.7c0,0.3,0.4,0.7,0.7,1.2S30,46,30,46h1.8
		c0,0-0.2-0.7-0.2-1.3c0-0.6,0-1.3-0.2-1.5c-0.2-0.2-0.3-0.4-0.8-0.4c-0.5,0-0.5,0-0.8-0.1s-0.7,0-0.8,0
		C28.7,42.7,28.6,42.9,28.6,42.9z"/>
	<path class="st1" d="M33.4,46c0,0,0.1-0.9-0.1-1.3c-0.2-0.4-0.5-1.9,0.1-2.1c0.6-0.2,1.8-0.6,2-0.5c0.2,0.1,0.2,0,0.2,0.5
		s0.2,1.4,0.1,1.6c0,0.2-0.1,0.7-0.3,0.9c-0.2,0.3-0.5,0.6-0.5,0.7c0,0.1-0.1,0.2-0.1,0.2H33.4z"/>
	<path class="st1" d="M39.5,46c0,0-0.4-1.3-0.4-1.8s0-2.9,0-2.9s-1.9,0.4-2.1,1.1c-0.1,0.6,0.1,1.7,0.1,2.3c0,0.6-0.2,0.9,0.2,1
		c0.3,0.1,0.7,0.3,0.8,0.3S39.5,46,39.5,46z"/>
	<path class="st1" d="M40.8,40.4c0,0,2,0.7,2,0.9s-0.1,1.1,0.2,2c0.3,0.8,0.6,1.6,0.7,1.7c0.1,0.1,0.1,0.4-0.3,0.4s-1.1,0-1.4-0.1
		c-0.3-0.2-0.7-0.7-0.8-1.1c-0.1-0.3-0.5-1-0.5-1.6C40.8,42,40.6,40.6,40.8,40.4z"/>
	<path class="st1" d="M46,40.7c-0.1-0.2-0.1-0.3-0.3-0.7c-0.2-0.5-0.2-0.4-0.4-0.4c-0.2,0-0.3,0-0.5-0.1c-0.2-0.1-0.9-0.1-0.9-0.1
		c0,1.2,0.8,2.3,1.3,2.7c0.2,0.2,0.5,0.3,0.9,0.3V40.7z"/>
	<path class="st1" d="M40.7,28.3c-0.2-0.3,0.4-0.7,1.2-1.5c0.8-0.8,0.6-1.3,1.1-2.2c0.5-0.9,1-1.6,1.3-2.4c0.3-0.8,0.1-0.7,0.1-0.7
		s-1.6,1-1.3,0.5c0.4-0.4,0.9-4.8,0.9-4.8c1-0.2,1.8-1.1,1.8-1.7c0-0.3,0.1-0.9,0.3-1.4v-2.3c-0.3-1.5-1.3-3.6-4-3.7
		c-4.3-0.2-4.2,3.5-4.2,3.5C34.6,11.7,33,13,33,13c-1.4-0.9-4.7-0.9-4.7-0.9c0-1.3-1.3-2.1-2.3-2.7c-0.9-0.6-2.7-0.7-3.5-0.8
		c-0.8,0-1.7,1-2.1,1.2c-0.4,0.2-1.1,2.6-1.1,3.4c0,0.7,1.1,2.6,1.4,2.9c0.3,0.3,1.8,0.9,1.8,0.9c-0.8,2.3,0.3,5.9,0.3,5.9
		s-0.2-0.4-1.1-0.5c-0.9,0,0.6,2.3,0.6,2.3c1.8,1.6,2,2.3,2.3,2.8c0.4,0.5,0.1,0.8,0.1,0.8c-3.9,0-7.3,2-7.3,2l0.1,1.5
		c2.1-1.3,5.4-1.8,6.4-2c1-0.2,0.9,0.5,1,0.8c0.1,0.3-0.1,0.4-0.1,0.4l-6.7,3.4l0.3,1.4c0,0,5.3-2.7,6.4-3.2
		c1.1-0.5,1.6,0.2,1.9,0.6c0.4,0.4,0.6,0.3,0.6,0.3c1.1-0.7,4.1-1.6,4.7-1.7c0.7-0.2,0.5-1.1,0.5-1.1c0.2-0.2,0.2-0.9,0.2-0.9
		c-1.7-0.7-1.4-2.3-1.4-2.3s-0.4,0.3-0.8,0.5c-0.4,0.2-0.7-0.1-0.8-0.7C29.5,26.5,30,26,30,26c2.6-1.2,5.5-0.4,5.5-0.4
		s1.2,0.5,1.3,1.1c0.1,0.6-0.4,1-0.7,1.1c-0.3,0.1-0.8-0.2-0.8-0.2c0,1.4-1.5,2-1.5,2s0,0.5,0.1,0.7c0.1,0.2,0.2,0.8,0.2,1
		c-0.1,0.2,0.1,0.3,0.1,0.3c1.8,0,4.1,1.8,4.5,2c0.4,0.2,0.6,0,0.6,0l0.9-1.3l5.8,2.9v-1.4c-1.4-1-5.1-2.4-5.1-2.4l0-1.5
		c2.9,0.3,5,1.4,5,1.4v-1.4c0,0-3.4-1-4.4-1.1C40.7,28.5,40.9,28.6,40.7,28.3z M23.3,15.6c-0.4,0.1-1-0.9-1.7-2s-0.1-1.8,0-2.1
		s1.3-1.2,2.8-1.1c1.4,0.1,2,1.3,2.3,1.7c0.2,0.4,0,0.7,0,0.7C25.2,13.2,23.3,15.6,23.3,15.6z M26.9,30.7l-0.4-1.2
		c1.6-0.2,2.5,0,2.5,0L26.9,30.7z M30,24.6l-1.3,0.8c0,0-0.1,0.8-0.4,0.9c-0.2,0.1-1,0.5-1.2,0.7c-0.2,0.2-0.8,0.3-0.8-0.4
		c0-0.7,0.4-1.9,1.2-2.2c0.9-0.3,1.3-0.4,1.3-1.1c0.1-0.7,0.1-2.6,0.1-2.6s-0.7,0.3-1.4,0.2c-0.7-0.1-2.4-1.5-3.1-2.7h5.2
		c0,0,0.9,0.1,0.9,1C30.5,20.2,30,24.6,30,24.6z M31.7,14.7c-0.1,0.6-1.4,2.1-1.4,2.1s-1.9-0.2-2.3-0.2c-0.4,0,1.2-1.6,2.3-1.9
		C31.4,14.4,31.8,14.1,31.7,14.7z M40.5,10.9c0.8-1.2,2.1-0.8,2.8-0.6c0.7,0.2,1.1,0.9,1.3,1.5s0,2.2-0.4,2.9S43,15.2,43,15.2
		c-0.9-1.6-3.2-2.3-3.2-2.3C39.5,12.7,39.6,12.1,40.5,10.9z M34.9,14.8c-0.7-0.4,0-0.6,0.6-0.6c0.7,0,3.4,0.9,3.6,1.3
		c0.2,0.4-1.1,0.9-1.1,0.9h-1.9c0,0,0-0.4-0.1-0.9C36.1,15,35.6,15.1,34.9,14.8z M39.6,30.7c-0.7-0.5-1.8-0.7-2.2-0.8
		c-0.3,0-0.1-0.2-0.1-0.5c0-0.3,0.3-0.4,0.3-0.4c1.8,0,2.2,0.5,2.2,0.5C39.8,29.6,39.6,30.7,39.6,30.7z M40.2,27.2
		c0,0-0.8-0.4-1.7-1c-0.9-0.6-1.1-1-1.2-1.4c-0.1-0.4-0.5-0.4-0.9-0.6c-0.4-0.2-0.4-0.6-0.3-1.5c0.1-0.9-0.6-3.7-0.6-3.7
		c1-1,1.3-0.8,1.3-0.8h5.3c0,0-0.9,0.9-1.1,1.1c-0.2,0.2-0.5,0.3-0.6,0.6c0,0.3-0.6,0.7-1.6,0.9c-1,0.2-1.7-0.7-1.7-0.7l0.1,3
		c0,0,0,0,0.3-0.1c0.3-0.1,0.7,0.7,0.9,1.1c0.3,0.4,0.3,0.3,0.7,0.6C39.5,25.1,41,26,41,26L40.2,27.2z"/>
	<path class="st1" d="M46,5c-1.4-0.8-4-2.4-4.3-2.4c-0.4,0-2.1,1.7-2.1,1.7s-0.8,0.4-0.7-0.2c0.1-0.6,0-1.6,0-1.6s-1.2-0.1-1.4-0.2
		c-0.2-0.1-0.4,3.1-1.8,3.6L35.1,6c0,0-0.1-2.4,0.6-3.3c0,0-1.1-0.1-2,0.5c-0.9,0.5-1.5,1.1-2.1,0.8C31,3.6,29.9,3.2,29.7,3
		l-0.9,2.6c0,0-3.2-2.3-3.6-2.8c-0.4-0.5-4.9,1.5-4.9,1.5s-3.5,3.5-3.6,4.6l1.9,0.9l1.4-1.9c0,0,3.5-1.8,4.4-2.9
		c0,0,4.6,3.3,5.8,3.5c0,0,1.2-2,1.2-2.5c0,0,1.4,0.6,2,0.5c0,0-0.1,2.7,0.3,2.6c0,0,2.2-1,3.8-1.1c0,0,0.5-0.3,1.6-1.3
		c1.1-1,1.8-1.7,3.8-0.8c1.5,0.7,2.5,1.3,3.4,0.8V5z"/>
</g>
</svg>
