<?xml version="1.0" encoding="utf-8"?>
<!-- Generator: Adobe Illustrator 23.0.4, SVG Export Plug-In . SVG Version: 6.00 Build 0)  -->
<svg version="1.1" id="Layer_1" xmlns="http://www.w3.org/2000/svg" xmlns:xlink="http://www.w3.org/1999/xlink" x="0px" y="0px"
	 viewBox="0 0 46 46" style="enable-background:new 0 0 46 46;" xml:space="preserve">
<style type="text/css">
	.st0{fill:#102831;}
	.st1{fill:#8CA3B0;}
</style>
<rect y="0" class="st0" width="46" height="46"/>
<g>
	<path class="st1" d="M22.9,23c0,2.5-1,4.8-2.7,6.5c-0.6,0.6-1.3,1.1-2,1.5c1.4,0.8,3.1,1.2,4.8,1.2c1.7,0,3.3-0.4,4.7-1.2
		c0,0-0.1,0-0.1-0.1l4.1-4.2c0.5-1.2,0.8-2.4,0.8-3.8c0-0.5-0.1-1.1-0.2-1.6l-7.3,7.4c-0.7-0.9-1.3-2-1.6-3.1L31,18
		c-0.6-0.9-1.4-1.7-2.3-2.4l-5.5,5.6c0.5-2.6,2.2-4.9,4.5-6.2c-1.4-0.8-3.1-1.3-4.9-1.3c-1.7,0-3.4,0.5-4.8,1.3
		C20.9,16.6,22.8,19.6,22.9,23"/>
	<path class="st1" d="M19.1,23c0-2.5-1.7-4.6-4-5.3c-1.1,1.5-1.7,3.4-1.7,5.4c0,2,0.7,3.8,1.8,5.3c0.9-0.3,1.6-0.7,2.3-1.4
		C18.5,25.9,19.1,24.5,19.1,23"/>
	<path class="st1" d="M13.4,32.2L13.4,32.2c1.7,0,3.3-0.4,4.8-1.3c-1.2-0.7-2.2-1.6-3-2.7c-0.5,0.2-1.1,0.3-1.7,0.3h0
		c-3.1,0-5.7-2.5-5.7-5.5c0-3.1,2.5-5.6,5.7-5.6h0c0.6,0,1.2,0.1,1.8,0.3c0.8-1.1,1.8-2,3-2.7c-1.4-0.8-3-1.2-4.8-1.2l0,0
		c-5.2,0-9.5,4.2-9.4,9.3C3.9,28.1,8.2,32.3,13.4,32.2"/>
	<path class="st1" d="M27.7,31c0.9,0.6,2,1,3.1,1.2l11.3-11.5c-0.3-1.1-0.8-2.2-1.5-3.1l-8.9,9.1C30.8,28.5,29.4,30.1,27.7,31"/>
	<path class="st1" d="M38.2,15.3c-1-0.7-2.1-1.1-3.3-1.4L31,18c0.7,1,1.1,2.1,1.4,3.4L38.2,15.3z"/>
	<path class="st1" d="M42.1,25.4L35.6,32C38.8,31,41.3,28.5,42.1,25.4"/>
	<path class="st1" d="M30.3,14c-0.9,0.2-1.7,0.6-2.5,1c0.3,0.2,0.6,0.4,0.9,0.6L30.3,14z"/>
</g>
<path class="st1" d="M15.4,36.5c0,0.5-0.2,0.7-0.5,0.7c-0.4,0-0.5-0.2-0.5-0.7c0-0.5,0.3-0.7,0.5-0.7C15.2,35.8,15.4,36.1,15.4,36.5
	 M16,36.5c0-0.8-0.4-1.2-1.1-1.2c-0.7,0-1.2,0.5-1.2,1.2c0,0.8,0.4,1.2,1.1,1.2C15.5,37.7,16,37.2,16,36.5 M17.7,36.5
	c0,0.4-0.2,0.8-0.5,0.8c-0.3,0-0.4-0.2-0.4-0.7c0-0.6,0.3-0.8,0.6-0.8c0.1,0,0.2,0,0.3,0L17.7,36.5z M17.8,37.7l0.6,0l0-3.4l-0.6,0
	l0,1.1c-0.1,0-0.2,0-0.3,0c-0.8,0-1.3,0.5-1.3,1.3c0,0.7,0.3,1.1,0.9,1.1c0.4,0,0.6-0.2,0.8-0.4l0,0L17.8,37.7z M20.1,36.2l-0.9,0
	c0-0.3,0.2-0.5,0.5-0.5C19.9,35.8,20.1,35.9,20.1,36.2 M20.7,36.6c0-0.1,0-0.2,0-0.3c0-0.6-0.3-1-1-1c-0.7,0-1.1,0.5-1.1,1.2
	c0,0.8,0.4,1.2,1.2,1.2c0.3,0,0.6-0.1,0.9-0.1l-0.1-0.5c-0.2,0.1-0.5,0.1-0.7,0.1c-0.4,0-0.7-0.2-0.7-0.6L20.7,36.6z M22.2,36.7
	c0,0.3-0.2,0.6-0.5,0.6c-0.2,0-0.3-0.1-0.3-0.2C21.4,36.9,21.6,36.7,22.2,36.7L22.2,36.7z M22.3,37.7l0.5,0c0,0,0-0.5,0-0.5l0-1.1
	c0-0.5-0.2-0.8-1-0.8c-0.3,0-0.6,0.1-0.9,0.1l0.1,0.5c0.2-0.1,0.5-0.2,0.7-0.2c0.3,0,0.5,0.1,0.5,0.4l0,0.1c-0.8,0-1.4,0.3-1.4,0.8
	c0,0.4,0.2,0.6,0.7,0.6c0.4,0,0.7-0.2,0.8-0.4h0L22.3,37.7z M24.8,36.5c0,0.6-0.3,0.8-0.6,0.8c-0.1,0-0.2,0-0.3,0l0-0.7
	c0-0.4,0.2-0.7,0.5-0.7C24.6,35.8,24.8,36.1,24.8,36.5 M25.4,36.4c0-0.7-0.3-1.1-0.9-1.1c-0.3,0-0.6,0.1-0.7,0.3l0-0.4l0-0.7l0-0.3
	l-0.6,0l0,3.3c0.3,0.1,0.5,0.1,0.9,0.1C24.9,37.8,25.4,37.2,25.4,36.4 M26.9,36.7c0,0.3-0.2,0.6-0.5,0.6c-0.2,0-0.3-0.1-0.3-0.2
	C26.1,36.9,26.2,36.7,26.9,36.7L26.9,36.7z M27,37.7l0.5,0c0,0,0-0.5,0-0.5l0-1.1c0-0.5-0.2-0.8-1-0.8c-0.3,0-0.6,0.1-0.9,0.1
	l0.1,0.5c0.2-0.1,0.5-0.2,0.7-0.2c0.3,0,0.5,0.1,0.5,0.4l0,0.1c-0.8,0-1.4,0.3-1.4,0.8c0,0.4,0.2,0.6,0.7,0.6c0.4,0,0.7-0.2,0.8-0.4
	h0L27,37.7z M29.3,37.7l0.6,0l0-1.6c0-0.4-0.2-0.7-0.7-0.7c-0.4,0-0.7,0.2-0.8,0.5l0,0l0-0.4l-0.5,0l0,2.3l0.6,0l0-1.1
	c0-0.4,0.2-0.7,0.6-0.7c0.2,0,0.3,0.1,0.3,0.4L29.3,37.7z M31.4,36.5l0.8-1.1l-0.8,0l-0.7,1l0-2.1l-0.6,0l0,3.4l0.6,0l0-1.1l0.7,1.2
	l0.8,0L31.4,36.5z"/>
</svg>
