<?xml version="1.0" encoding="utf-8"?>
<!-- Generator: Adobe Illustrator 23.0.4, SVG Export Plug-In . SVG Version: 6.00 Build 0)  -->
<svg version="1.1" id="Layer_1" xmlns="http://www.w3.org/2000/svg" xmlns:xlink="http://www.w3.org/1999/xlink" x="0px" y="0px"
	 viewBox="0 0 46 46" style="enable-background:new 0 0 46 46;" xml:space="preserve">
<style type="text/css">
	.st0{fill-rule:evenodd;clip-rule:evenodd;fill:#00A6CF;}
	.st1{fill:#FDC801;}
	.st2{fill:#FFFFFF;}
</style>
<g>
	<polygon class="st0" points="0,0 46,0 46,46 0,46 0,0 	"/>
</g>
<g>
	<g>
		<path class="st1" d="M14.5,28.3c0,0-5.4-0.4-8.9-4l5.5-3.2c0,0,0.1,5,5.2,6.1c5.4,1.1,5.8-4.2,5.8-4.2l0.9,1.5
			c0,0-2.1,4.7-7.6,3.1c-4.3-1.2-5.4-4.4-5.4-4.4l-2.4,1.4C7.6,24.5,10,27.2,14.5,28.3"/>
		<path class="st1" d="M16.9,23.3c0,0-2.3,0.4-4.2-1.8c0,0,0.7,0.2,2.1,0.4c0,0-1.6-0.8-2.3-1.8c0,0,0.6,0.3,2.2,0.4
			c0,0-0.2-0.2-1-0.6c-1.7-1-2.2-2.1-2.2-2.1c0.8,0.7,1.9,0.3,5.1,1.4c4,1.3,4.4,2.8,4.4,3.6C21.2,23.8,20,25,20,25s0.7-3-1.9-4.3
			c-2.7-1.4-5.3-2-5.3-2s0.2,0.3,0.8,0.7c0,0,0.3,0.2,0.5,0.2c0.9,0.4,1.5,0.6,1.7,1.1c0,0-1,0.2-2.1-0.1c0,0,0.7,0.7,2.1,1.5
			c0,0-0.9,0.3-1.9-0.1C13.9,22.1,15,23.3,16.9,23.3"/>
	</g>
	<g>
		<path class="st2" d="M35.6,28.3c-0.4,0-0.8-0.1-1.2-0.2c-0.4-0.1-0.7-0.4-1-0.6c-0.3-0.3-0.5-0.6-0.7-1.1
			c-0.2-0.4-0.2-0.9-0.2-1.4v-6.6c0-0.2,0.1-0.3,0.2-0.4c0.1-0.1,0.2-0.2,0.4-0.2h0.7c0.2,0,0.3,0.1,0.4,0.2
			c0.1,0.1,0.2,0.2,0.2,0.4v1.8h1.1c0.2,0,0.3,0.1,0.4,0.2c0.1,0.1,0.2,0.2,0.2,0.4v0.6c0,0.2-0.1,0.3-0.2,0.4
			c-0.1,0.1-0.2,0.2-0.4,0.2h-1.1v2.9c0,0.6,0.1,1,0.4,1.3c0.2,0.3,0.6,0.5,1,0.5h0c0.2,0,0.3,0,0.4,0.1c0.1,0.1,0.1,0.2,0.1,0.4
			v0.6c0,0.2,0,0.3-0.1,0.4c-0.1,0.1-0.2,0.1-0.4,0.1H35.6z"/>
		<path class="st2" d="M39.8,28.3c-0.4,0-0.8-0.1-1.2-0.2c-0.4-0.1-0.7-0.4-1-0.6c-0.3-0.3-0.5-0.6-0.7-1.1
			c-0.2-0.4-0.2-0.9-0.2-1.4v-6.6c0-0.2,0.1-0.3,0.2-0.4c0.1-0.1,0.2-0.2,0.4-0.2H38c0.2,0,0.3,0.1,0.4,0.2c0.1,0.1,0.2,0.2,0.2,0.4
			v1.8h1.1c0.2,0,0.3,0.1,0.4,0.2c0.1,0.1,0.2,0.2,0.2,0.4v0.6c0,0.2-0.1,0.3-0.2,0.4c-0.1,0.1-0.2,0.2-0.4,0.2h-1.1v2.9
			c0,0.6,0.1,1,0.4,1.3c0.2,0.3,0.6,0.5,1,0.5h0c0.2,0,0.3,0,0.4,0.1c0.1,0.1,0.1,0.2,0.1,0.4v0.6c0,0.2,0,0.3-0.1,0.4
			c-0.1,0.1-0.2,0.1-0.4,0.1H39.8z"/>
		<path class="st2" d="M31.7,19.9c-0.1-0.3-0.3-0.6-0.5-0.9c-0.2-0.2-0.4-0.5-0.7-0.6c-0.3-0.2-0.6-0.3-0.9-0.4
			c-0.3-0.1-0.7-0.1-1-0.1h-3.1c-0.2,0-0.3,0.1-0.4,0.2c-0.1,0.1-0.2,0.2-0.2,0.4v9.4c0,0.2,0.1,0.3,0.2,0.4
			c0.1,0.1,0.2,0.2,0.4,0.2h0.8c0.2,0,0.3-0.1,0.4-0.2c0.1-0.1,0.2-0.2,0.2-0.4v-3.4h1.7c0.5,0,1-0.1,1.4-0.3
			c0.5-0.2,0.8-0.5,1.1-0.8c0.3-0.4,0.5-0.7,0.6-1.1c0.1-0.4,0.2-0.7,0.2-1C31.9,20.6,31.8,20.2,31.7,19.9 M30.1,21.1
			c0,0.7-0.6,1.4-1.4,1.4h-1.9v-2.7h1.9C29.5,19.8,30.1,20.4,30.1,21.1"/>
	</g>
</g>
</svg>
