<?xml version="1.0" encoding="UTF-8"?>
<!DOCTYPE svg PUBLIC "-//W3C//DTD SVG 1.1//EN" "http://www.w3.org/Graphics/SVG/1.1/DTD/svg11.dtd">
<svg xmlns="http://www.w3.org/2000/svg" version="1.1" width="971px" height="421px" style="shape-rendering:geometricPrecision; text-rendering:geometricPrecision; image-rendering:optimizeQuality; fill-rule:evenodd; clip-rule:evenodd" xmlns:xlink="http://www.w3.org/1999/xlink">
<g><path style="opacity:0.996" fill="#0a946d" d="M 421.5,59.5 C 418.5,59.5 415.5,59.5 412.5,59.5C 412.5,54.5 412.5,49.5 412.5,44.5C 412.5,41.1667 412.5,37.8333 412.5,34.5C 412.585,31.3511 411.585,28.6845 409.5,26.5C 407.737,23.4445 405.07,21.6111 401.5,21C 287.167,20.3333 172.833,20.3333 58.5,21C 56.34,22.332 54.34,23.832 52.5,25.5C 45.8333,25.5 39.1667,25.5 32.5,25.5C 32.5,21.5 32.5,17.5 32.5,13.5C 162.167,13.5 291.833,13.5 421.5,13.5C 421.5,28.8333 421.5,44.1667 421.5,59.5 Z"/></g>
<g><path style="opacity:1" fill="#6dc8ab" d="M 409.5,26.5 C 290.5,26.5 171.5,26.5 52.5,26.5C 52.5,26.1667 52.5,25.8333 52.5,25.5C 54.34,23.832 56.34,22.332 58.5,21C 172.833,20.3333 287.167,20.3333 401.5,21C 405.07,21.6111 407.737,23.4445 409.5,26.5 Z"/></g>
<g><path style="opacity:1" fill="#73c9ae" d="M 52.5,26.5 C 171.5,26.5 290.5,26.5 409.5,26.5C 411.585,28.6845 412.585,31.3511 412.5,34.5C 352.21,33.1704 291.71,32.5037 231,32.5C 170.43,32.5019 109.93,32.8352 49.5,33.5C 50.2271,31.0462 51.2271,28.7128 52.5,26.5 Z"/></g>
<g><path style="opacity:1" fill="#79cbb0" d="M 412.5,34.5 C 412.5,37.8333 412.5,41.1667 412.5,44.5C 412.167,44.5 411.833,44.5 411.5,44.5C 411.5,42.5 411.5,40.5 411.5,38.5C 290.289,37.8382 169.289,38.5048 48.5,40.5C 48.6741,38.139 49.0074,35.8056 49.5,33.5C 109.93,32.8352 170.43,32.5019 231,32.5C 291.71,32.5037 352.21,33.1704 412.5,34.5 Z"/></g>
<g><path style="opacity:1" fill="#80ccb3" d="M 411.5,44.5 C 411.5,44.8333 411.5,45.1667 411.5,45.5C 290.167,45.5 168.833,45.5 47.5,45.5C 47.366,43.7085 47.6993,42.0418 48.5,40.5C 169.289,38.5048 290.289,37.8382 411.5,38.5C 411.5,40.5 411.5,42.5 411.5,44.5 Z"/></g>
<g><path style="opacity:1" fill="#86ceb5" d="M 47.5,45.5 C 168.833,45.5 290.167,45.5 411.5,45.5C 411.5,47.1667 411.5,48.8333 411.5,50.5C 290.167,50.5 168.833,50.5 47.5,50.5C 47.5,48.8333 47.5,47.1667 47.5,45.5 Z"/></g>
<g><path style="opacity:1" fill="#8bcfb7" d="M 47.5,50.5 C 168.833,50.5 290.167,50.5 411.5,50.5C 411.5,55.5 411.5,60.5 411.5,65.5C 374.996,65.1682 338.663,65.5016 302.5,66.5C 286.917,61.9767 271.251,59.31 255.5,58.5C 253.171,56.9976 251.837,57.6643 251.5,60.5C 183.167,60.5 114.833,60.5 46.5,60.5C 46.5,59.5 46.5,58.5 46.5,57.5C 46.448,55.0971 46.7814,52.7638 47.5,50.5 Z"/></g>
<g><path style="opacity:1" fill="#1f9d79" d="M 32.5,25.5 C 39.1667,25.5 45.8333,25.5 52.5,25.5C 52.5,25.8333 52.5,26.1667 52.5,26.5C 51.2271,28.7128 50.2271,31.0462 49.5,33.5C 49.0074,35.8056 48.6741,38.139 48.5,40.5C 47.6993,42.0418 47.366,43.7085 47.5,45.5C 47.5,47.1667 47.5,48.8333 47.5,50.5C 46.7814,52.7638 46.448,55.0971 46.5,57.5C 45.5184,60.9619 45.185,64.6286 45.5,68.5C 44.5206,71.6248 44.1872,74.9581 44.5,78.5C 43.5233,81.2869 43.19,84.2869 43.5,87.5C 42.6618,87.8417 42.3284,88.5084 42.5,89.5C 39.1667,89.5 35.8333,89.5 32.5,89.5C 32.5,68.1667 32.5,46.8333 32.5,25.5 Z"/></g>
<g><path style="opacity:1" fill="#20b589" d="M 255.5,58.5 C 275.002,67.7425 293.335,78.7425 310.5,91.5C 309.311,92.4287 307.978,92.762 306.5,92.5C 306.167,91.5 305.5,90.8333 304.5,90.5C 299.672,86.9186 294.672,83.5852 289.5,80.5C 283.738,76.7375 277.738,73.4042 271.5,70.5C 265.151,66.6588 258.484,63.3255 251.5,60.5C 251.837,57.6643 253.171,56.9976 255.5,58.5 Z"/></g>
<g><path style="opacity:1" fill="#fcfefd" d="M 255.5,58.5 C 271.251,59.31 286.917,61.9767 302.5,66.5C 318.352,71.1183 333.685,77.1183 348.5,84.5C 358.202,81.8964 367.869,81.2297 377.5,82.5C 374.89,87.1089 371.89,91.4422 368.5,95.5C 365.497,97.0068 362.83,99.0068 360.5,101.5C 361.683,107.478 361.683,113.478 360.5,119.5C 359.761,127.53 358.761,135.53 357.5,143.5C 356.039,150.807 354.705,158.141 353.5,165.5C 351.702,172.226 349.702,178.893 347.5,185.5C 346.685,176.658 346.018,167.658 345.5,158.5C 345.072,148.672 343.572,139.005 341,129.5C 339.748,125.048 337.748,121.048 335,117.5C 316.573,127.462 298.073,136.962 279.5,146C 280.71,144.961 281.71,143.794 282.5,142.5C 286.513,138.485 290.179,134.152 293.5,129.5C 298.687,123.801 303.354,117.635 307.5,111C 280.254,111.684 253.254,114.351 226.5,119C 227.416,118.722 228.082,118.222 228.5,117.5C 236.725,113.887 245.058,110.554 253.5,107.5C 257.421,105.971 261.421,104.637 265.5,103.5C 278.95,99.0541 292.617,95.3874 306.5,92.5C 307.978,92.762 309.311,92.4287 310.5,91.5C 293.335,78.7425 275.002,67.7425 255.5,58.5 Z"/></g>
<g><path style="opacity:1" fill="#81cdb3" d="M 46.5,57.5 C 46.5,58.5 46.5,59.5 46.5,60.5C 114.833,60.5 183.167,60.5 251.5,60.5C 258.484,63.3255 265.151,66.6588 271.5,70.5C 196.335,71.4993 121.002,71.8326 45.5,71.5C 45.5,70.5 45.5,69.5 45.5,68.5C 45.185,64.6286 45.5184,60.9619 46.5,57.5 Z"/></g>
<g><path style="opacity:0.91" fill="#2ba380" d="M 411.5,44.5 C 411.833,44.5 412.167,44.5 412.5,44.5C 412.5,49.5 412.5,54.5 412.5,59.5C 415.5,59.5 418.5,59.5 421.5,59.5C 421.5,72.8333 421.5,86.1667 421.5,99.5C 418.167,99.5 414.833,99.5 411.5,99.5C 411.5,90.8333 411.5,82.1667 411.5,73.5C 411.5,70.8333 411.5,68.1667 411.5,65.5C 411.5,60.5 411.5,55.5 411.5,50.5C 411.5,48.8333 411.5,47.1667 411.5,45.5C 411.5,45.1667 411.5,44.8333 411.5,44.5 Z"/></g>
<g><path style="opacity:1" fill="#7acbb0" d="M 302.5,66.5 C 338.663,65.5016 374.996,65.1682 411.5,65.5C 411.5,68.1667 411.5,70.8333 411.5,73.5C 410.527,75.9479 410.194,78.6146 410.5,81.5C 399.419,81.1901 388.419,81.5234 377.5,82.5C 367.869,81.2297 358.202,81.8964 348.5,84.5C 333.685,77.1183 318.352,71.1183 302.5,66.5 Z"/></g>
<g><path style="opacity:1" fill="#74caae" d="M 45.5,68.5 C 45.5,69.5 45.5,70.5 45.5,71.5C 121.002,71.8326 196.335,71.4993 271.5,70.5C 277.738,73.4042 283.738,76.7375 289.5,80.5C 208.002,81.4993 126.335,81.8326 44.5,81.5C 44.5,80.5 44.5,79.5 44.5,78.5C 44.1872,74.9581 44.5206,71.6248 45.5,68.5 Z"/></g>
<g><path style="opacity:1" fill="#69c7a9" d="M 44.5,78.5 C 44.5,79.5 44.5,80.5 44.5,81.5C 126.335,81.8326 208.002,81.4993 289.5,80.5C 294.672,83.5852 299.672,86.9186 304.5,90.5C 217.668,91.4994 130.668,91.8327 43.5,91.5C 43.5,90.1667 43.5,88.8333 43.5,87.5C 43.19,84.2869 43.5233,81.2869 44.5,78.5 Z"/></g>
<g><path style="opacity:1" fill="#5fc5a6" d="M 410.5,81.5 C 410.5,88.8333 410.5,96.1667 410.5,103.5C 394.563,102.848 378.563,102.181 362.5,101.5C 364.854,99.8122 366.854,97.8122 368.5,95.5C 371.89,91.4422 374.89,87.1089 377.5,82.5C 388.419,81.5234 399.419,81.1901 410.5,81.5 Z"/></g>
<g><path style="opacity:1" fill="#5cc4a4" d="M 43.5,87.5 C 43.5,88.8333 43.5,90.1667 43.5,91.5C 130.668,91.8327 217.668,91.4994 304.5,90.5C 305.5,90.8333 306.167,91.5 306.5,92.5C 292.617,95.3874 278.95,99.0541 265.5,103.5C 191.335,102.501 117.002,102.167 42.5,102.5C 42.5,98.1667 42.5,93.8333 42.5,89.5C 42.3284,88.5084 42.6618,87.8417 43.5,87.5 Z"/></g>
<g><path style="opacity:1" fill="#53c2a1" d="M 42.5,102.5 C 117.002,102.167 191.335,102.501 265.5,103.5C 261.421,104.637 257.421,105.971 253.5,107.5C 183.335,106.501 113.002,106.167 42.5,106.5C 42.5,105.167 42.5,103.833 42.5,102.5 Z"/></g>
<g><path style="opacity:1" fill="#4cc19e" d="M 42.5,106.5 C 113.002,106.167 183.335,106.501 253.5,107.5C 245.058,110.554 236.725,113.887 228.5,117.5C 166.336,116.501 104.002,116.168 41.5,116.5C 41.6159,113.14 41.9492,109.807 42.5,106.5 Z"/></g>
<g><path style="opacity:1" fill="#3dab8b" d="M 32.5,89.5 C 35.8333,89.5 39.1667,89.5 42.5,89.5C 42.5,93.8333 42.5,98.1667 42.5,102.5C 42.5,103.833 42.5,105.167 42.5,106.5C 41.9492,109.807 41.6159,113.14 41.5,116.5C 41.8128,120.042 41.4794,123.375 40.5,126.5C 38.0521,125.527 35.3854,125.194 32.5,125.5C 32.5,113.5 32.5,101.5 32.5,89.5 Z"/></g>
<g><path style="opacity:1" fill="#4bc19e" d="M 368.5,95.5 C 366.854,97.8122 364.854,99.8122 362.5,101.5C 378.563,102.181 394.563,102.848 410.5,103.5C 409.92,107.81 409.586,112.143 409.5,116.5C 393.5,116.5 377.5,116.5 361.5,116.5C 361.737,117.791 361.404,118.791 360.5,119.5C 361.683,113.478 361.683,107.478 360.5,101.5C 362.83,99.0068 365.497,97.0068 368.5,95.5 Z"/></g>
<g><path style="opacity:1" fill="#3cbd97" d="M 293.5,129.5 C 209.668,128.501 125.668,128.167 41.5,128.5C 41.7373,129.791 41.404,130.791 40.5,131.5C 40.5,129.833 40.5,128.167 40.5,126.5C 41.4794,123.375 41.8128,120.042 41.5,116.5C 104.002,116.168 166.336,116.501 228.5,117.5C 228.082,118.222 227.416,118.722 226.5,119C 253.254,114.351 280.254,111.684 307.5,111C 303.354,117.635 298.687,123.801 293.5,129.5 Z"/></g>
<g><path style="opacity:1" fill="#2eba92" d="M 293.5,129.5 C 290.179,134.152 286.513,138.485 282.5,142.5C 251.931,141.826 221.264,141.159 190.5,140.5C 191.945,137.882 193.611,135.382 195.5,133C 187.024,134.73 179.024,137.896 171.5,142.5C 128.003,141.501 84.3365,141.168 40.5,141.5C 40.5,138.167 40.5,134.833 40.5,131.5C 41.404,130.791 41.7373,129.791 41.5,128.5C 125.668,128.167 209.668,128.501 293.5,129.5 Z"/></g>
<g><path style="opacity:1" fill="#34bb94" d="M 409.5,116.5 C 409.5,124.833 409.5,133.167 409.5,141.5C 391.929,140.869 374.596,141.536 357.5,143.5C 358.761,135.53 359.761,127.53 360.5,119.5C 361.404,118.791 361.737,117.791 361.5,116.5C 377.5,116.5 393.5,116.5 409.5,116.5 Z"/></g>
<g><path style="opacity:1" fill="#fbfefd" d="M 190.5,140.5 C 187.997,144.507 186.33,148.84 185.5,153.5C 193.207,154.957 200.873,156.624 208.5,158.5C 222.393,162.944 235.726,168.777 248.5,176C 239.543,175.089 230.543,174.089 221.5,173C 206.401,171.885 191.401,172.552 176.5,175C 175.418,176.33 174.751,177.83 174.5,179.5C 172.397,183.574 171.064,187.907 170.5,192.5C 168.409,197.191 167.076,202.191 166.5,207.5C 164.732,212.676 163.732,218.01 163.5,223.5C 161.716,222.426 160.549,220.76 160,218.5C 156.259,207.109 152.425,195.776 148.5,184.5C 136.213,193.127 124.546,202.461 113.5,212.5C 108.836,216.996 104.002,221.33 99,225.5C 101.846,218.804 105.012,212.137 108.5,205.5C 114.243,197.028 120.243,188.695 126.5,180.5C 129.167,177.5 131.833,174.5 134.5,171.5C 135.848,170.473 136.348,169.14 136,167.5C 124.87,161.758 113.037,158.258 100.5,157C 120.073,151.301 140.073,148.968 160.5,150C 164.195,147.49 167.862,144.99 171.5,142.5C 179.024,137.896 187.024,134.73 195.5,133C 193.611,135.382 191.945,137.882 190.5,140.5 Z"/></g>
<g><path style="opacity:0.921" fill="#46af90" d="M 411.5,73.5 C 411.5,82.1667 411.5,90.8333 411.5,99.5C 414.833,99.5 418.167,99.5 421.5,99.5C 421.5,114.5 421.5,129.5 421.5,144.5C 417.5,144.5 413.5,144.5 409.5,144.5C 409.5,143.5 409.5,142.5 409.5,141.5C 409.5,133.167 409.5,124.833 409.5,116.5C 409.586,112.143 409.92,107.81 410.5,103.5C 410.5,96.1667 410.5,88.8333 410.5,81.5C 410.194,78.6146 410.527,75.9479 411.5,73.5 Z"/></g>
<g><path style="opacity:0.962" fill="#1e1e23" d="M 517.5,140.5 C 559.167,140.5 600.833,140.5 642.5,140.5C 642.5,148.167 642.5,155.833 642.5,163.5C 629.867,162.188 617.2,161.188 604.5,160.5C 602.036,160.59 599.87,161.257 598,162.5C 597.006,201.532 597.506,240.532 599.5,279.5C 586.5,279.5 573.5,279.5 560.5,279.5C 562.657,239.85 562.991,200.183 561.5,160.5C 546.79,160.953 532.124,161.953 517.5,163.5C 517.5,155.833 517.5,148.167 517.5,140.5 Z"/></g>
<g><path style="opacity:0.956" fill="#1e1e23" d="M 668.5,140.5 C 705.167,140.5 741.833,140.5 778.5,140.5C 778.5,147.5 778.5,154.5 778.5,161.5C 754.186,159.51 729.853,159.177 705.5,160.5C 705.167,173.167 704.833,185.833 704.5,198.5C 721.168,198.218 737.835,197.885 754.5,197.5C 754.5,204.833 754.5,212.167 754.5,219.5C 737.844,218.76 721.177,218.426 704.5,218.5C 704.833,232.5 705.167,246.5 705.5,260.5C 731.183,260.384 756.85,259.718 782.5,258.5C 782.5,265.5 782.5,272.5 782.5,279.5C 744.5,279.5 706.5,279.5 668.5,279.5C 669.827,233.167 669.827,186.834 668.5,140.5 Z"/></g>
<g><path style="opacity:0.96" fill="#1e1e23" d="M 809.5,140.5 C 836.169,140.333 862.835,140.5 889.5,141C 903.372,141.727 915.205,146.894 925,156.5C 932.996,170.694 931.163,183.527 919.5,195C 914.816,198.344 909.816,201.177 904.5,203.5C 915.006,207.16 923.84,213.16 931,221.5C 942.833,248.341 934.666,266.175 906.5,275C 898.646,277.198 890.646,278.531 882.5,279C 858.169,279.5 833.836,279.667 809.5,279.5C 812.114,233.165 812.114,186.831 809.5,140.5 Z M 855.5,156.5 C 865.732,156.574 875.732,158.074 885.5,161C 893.585,166.154 896.085,173.321 893,182.5C 889.099,189.205 883.266,193.038 875.5,194C 871.179,194.499 866.846,194.666 862.5,194.5C 859.969,201.426 857.636,208.426 855.5,215.5C 868.349,214.25 880.349,216.75 891.5,223C 899.248,228.571 902.082,236.071 900,245.5C 896.267,253.3 890.1,258.134 881.5,260C 869.887,261.387 858.221,261.887 846.5,261.5C 845.258,226.835 845.258,192.168 846.5,157.5C 849.713,157.81 852.713,157.477 855.5,156.5 Z"/></g>
<g><path style="opacity:1" fill="#20b68c" d="M 345.5,158.5 C 344.71,157.391 344.21,156.058 344,154.5C 343.517,155.448 343.351,156.448 343.5,157.5C 298.33,157.168 253.33,157.501 208.5,158.5C 200.873,156.624 193.207,154.957 185.5,153.5C 186.33,148.84 187.997,144.507 190.5,140.5C 221.264,141.159 251.931,141.826 282.5,142.5C 281.71,143.794 280.71,144.961 279.5,146C 298.073,136.962 316.573,127.462 335,117.5C 337.748,121.048 339.748,125.048 341,129.5C 343.572,139.005 345.072,148.672 345.5,158.5 Z"/></g>
<g><path style="opacity:1" fill="#1fb68c" d="M 40.5,141.5 C 84.3365,141.168 128.003,141.501 171.5,142.5C 167.862,144.99 164.195,147.49 160.5,150C 140.073,148.968 120.073,151.301 100.5,157C 113.037,158.258 124.87,161.758 136,167.5C 136.348,169.14 135.848,170.473 134.5,171.5C 132.599,169.204 130.266,167.371 127.5,166C 117.849,162.28 107.849,160.28 97.5,160C 97.9574,159.586 98.2907,159.086 98.5,158.5C 79.1782,157.5 59.8448,157.167 40.5,157.5C 40.8214,163.026 40.4881,168.36 39.5,173.5C 39.5,170.833 39.5,168.167 39.5,165.5C 39.6436,157.49 39.9769,149.49 40.5,141.5 Z"/></g>
<g><path style="opacity:1" fill="#53b597" d="M 32.5,125.5 C 35.3854,125.194 38.0521,125.527 40.5,126.5C 40.5,128.167 40.5,129.833 40.5,131.5C 40.5,134.833 40.5,138.167 40.5,141.5C 39.9769,149.49 39.6436,157.49 39.5,165.5C 37.1667,165.5 34.8333,165.5 32.5,165.5C 32.5,152.167 32.5,138.833 32.5,125.5 Z"/></g>
<g><path style="opacity:1" fill="#19b589" d="M 409.5,141.5 C 409.5,142.5 409.5,143.5 409.5,144.5C 409.828,156.678 409.495,168.678 408.5,180.5C 408.5,174.5 408.5,168.5 408.5,162.5C 390.5,162.5 372.5,162.5 354.5,162.5C 354.737,163.791 354.404,164.791 353.5,165.5C 354.705,158.141 356.039,150.807 357.5,143.5C 374.596,141.536 391.929,140.869 409.5,141.5 Z"/></g>
<g><path style="opacity:0.925" fill="#5bb99c" d="M 409.5,144.5 C 413.5,144.5 417.5,144.5 421.5,144.5C 421.5,157.5 421.5,170.5 421.5,183.5C 417.5,183.5 413.5,183.5 409.5,183.5C 409.5,200.167 409.5,216.833 409.5,233.5C 409.5,238.167 409.5,242.833 409.5,247.5C 408.51,241.355 408.177,235.022 408.5,228.5C 408.5,220.5 408.5,212.5 408.5,204.5C 408.5,200.5 408.5,196.5 408.5,192.5C 408.5,188.5 408.5,184.5 408.5,180.5C 409.495,168.678 409.828,156.678 409.5,144.5 Z"/></g>
<g><path style="opacity:1" fill="#05b081" d="M 134.5,171.5 C 131.833,174.5 129.167,177.5 126.5,180.5C 98.0049,179.502 69.3382,179.169 40.5,179.5C 40.7678,181.099 40.4345,182.432 39.5,183.5C 39.5,180.167 39.5,176.833 39.5,173.5C 40.4881,168.36 40.8214,163.026 40.5,157.5C 59.8448,157.167 79.1782,157.5 98.5,158.5C 98.2907,159.086 97.9574,159.586 97.5,160C 107.849,160.28 117.849,162.28 127.5,166C 130.266,167.371 132.599,169.204 134.5,171.5 Z"/></g>
<g><path style="opacity:1" fill="#09b182" d="M 345.5,158.5 C 346.018,167.658 346.685,176.658 347.5,185.5C 347.217,186.289 346.717,186.956 346,187.5C 345.713,185.109 345.213,182.776 344.5,180.5C 287.837,179.5 231.171,179.167 174.5,179.5C 174.751,177.83 175.418,176.33 176.5,175C 191.401,172.552 206.401,171.885 221.5,173C 230.543,174.089 239.543,175.089 248.5,176C 235.726,168.777 222.393,162.944 208.5,158.5C 253.33,157.501 298.33,157.168 343.5,157.5C 343.351,156.448 343.517,155.448 344,154.5C 344.21,156.058 344.71,157.391 345.5,158.5 Z"/></g>
<g><path style="opacity:1" fill="#01ad7e" d="M 408.5,180.5 C 408.5,184.5 408.5,188.5 408.5,192.5C 329.167,192.5 249.833,192.5 170.5,192.5C 171.064,187.907 172.397,183.574 174.5,179.5C 231.171,179.167 287.837,179.5 344.5,180.5C 345.213,182.776 345.713,185.109 346,187.5C 346.717,186.956 347.217,186.289 347.5,185.5C 349.702,178.893 351.702,172.226 353.5,165.5C 354.404,164.791 354.737,163.791 354.5,162.5C 372.5,162.5 390.5,162.5 408.5,162.5C 408.5,168.5 408.5,174.5 408.5,180.5 Z"/></g>
<g><path style="opacity:1" fill="#01ab7c" d="M 126.5,180.5 C 120.243,188.695 114.243,197.028 108.5,205.5C 85.6727,204.502 62.6727,204.169 39.5,204.5C 39.5,197.5 39.5,190.5 39.5,183.5C 40.4345,182.432 40.7678,181.099 40.5,179.5C 69.3382,179.169 98.0049,179.502 126.5,180.5 Z"/></g>
<g><path style="opacity:1" fill="#13ae82" d="M 163.5,223.5 C 163.396,225.973 162.396,226.639 160.5,225.5C 157.701,218.631 155.368,211.631 153.5,204.5C 143.828,204.334 134.161,204.5 124.5,205C 121.872,206.626 119.539,208.626 117.5,211C 116.255,211.791 114.922,212.291 113.5,212.5C 124.546,202.461 136.213,193.127 148.5,184.5C 152.425,195.776 156.259,207.109 160,218.5C 160.549,220.76 161.716,222.426 163.5,223.5 Z"/></g>
<g><path style="opacity:1" fill="#00a97b" d="M 170.5,192.5 C 249.833,192.5 329.167,192.5 408.5,192.5C 408.5,196.5 408.5,200.5 408.5,204.5C 328.167,204.5 247.833,204.5 167.5,204.5C 167.737,205.791 167.404,206.791 166.5,207.5C 167.076,202.191 168.409,197.191 170.5,192.5 Z"/></g>
<g><path style="opacity:1" fill="#6cc0a5" d="M 32.5,165.5 C 34.8333,165.5 37.1667,165.5 39.5,165.5C 39.5,168.167 39.5,170.833 39.5,173.5C 39.5,176.833 39.5,180.167 39.5,183.5C 39.5,190.5 39.5,197.5 39.5,204.5C 39.5,206.5 39.5,208.5 39.5,210.5C 37.1667,210.5 34.8333,210.5 32.5,210.5C 32.5,195.5 32.5,180.5 32.5,165.5 Z"/></g>
<g><path style="opacity:1" fill="#00a578" d="M 39.5,204.5 C 62.6727,204.169 85.6727,204.502 108.5,205.5C 105.012,212.137 101.846,218.804 99,225.5C 104.002,221.33 108.836,216.996 113.5,212.5C 114.922,212.291 116.255,211.791 117.5,211C 119.539,208.626 121.872,206.626 124.5,205C 134.161,204.5 143.828,204.334 153.5,204.5C 155.368,211.631 157.701,218.631 160.5,225.5C 162.396,226.639 163.396,225.973 163.5,223.5C 163.732,218.01 164.732,212.676 166.5,207.5C 167.404,206.791 167.737,205.791 167.5,204.5C 247.833,204.5 328.167,204.5 408.5,204.5C 408.5,212.5 408.5,220.5 408.5,228.5C 285.694,228.623 163.027,228.623 40.5,228.5C 40.5,231.833 40.5,235.167 40.5,238.5C 39.5064,229.348 39.1731,220.015 39.5,210.5C 39.5,208.5 39.5,206.5 39.5,204.5 Z"/></g>
<g><path style="opacity:1" fill="#81cab1" d="M 32.5,210.5 C 34.8333,210.5 37.1667,210.5 39.5,210.5C 39.1731,220.015 39.5064,229.348 40.5,238.5C 40.5,250.167 40.5,261.833 40.5,273.5C 40.5,276.167 40.5,278.833 40.5,281.5C 37.8333,281.5 35.1667,281.5 32.5,281.5C 32.5,257.833 32.5,234.167 32.5,210.5 Z"/></g>
<g><path style="opacity:0.925" fill="#79c6ac" d="M 421.5,183.5 C 421.5,200.167 421.5,216.833 421.5,233.5C 417.5,233.5 413.5,233.5 409.5,233.5C 409.5,216.833 409.5,200.167 409.5,183.5C 413.5,183.5 417.5,183.5 421.5,183.5 Z"/></g>
<g><path style="opacity:1" fill="#009f73" d="M 408.5,228.5 C 408.177,235.022 408.51,241.355 409.5,247.5C 409.5,253.5 409.5,259.5 409.5,265.5C 408.517,261.702 408.183,257.702 408.5,253.5C 304.665,253.167 200.999,253.501 97.5,254.5C 95.8676,250.756 94.7009,246.756 94,242.5C 90.8851,257.966 90.7184,273.466 93.5,289C 93.3158,290.376 92.6491,291.209 91.5,291.5C 91.81,288.287 91.4767,285.287 90.5,282.5C 90.5,274.5 90.5,266.5 90.5,258.5C 74.1667,258.5 57.8333,258.5 41.5,258.5C 41.5,263.5 41.5,268.5 41.5,273.5C 41.1667,273.5 40.8333,273.5 40.5,273.5C 40.5,261.833 40.5,250.167 40.5,238.5C 40.5,235.167 40.5,231.833 40.5,228.5C 163.027,228.623 285.694,228.623 408.5,228.5 Z"/></g>
<g><path style="opacity:1" fill="#fafdfc" d="M 97.5,254.5 C 99.4177,266.429 103.584,277.429 110,287.5C 118.268,285.58 126.601,283.913 135,282.5C 136.376,282.684 137.209,283.351 137.5,284.5C 131.779,291.609 127.945,299.609 126,308.5C 133.439,315.8 141.939,321.466 151.5,325.5C 153.509,327.065 155.843,328.065 158.5,328.5C 157.726,329.147 156.726,329.48 155.5,329.5C 143.99,328.397 132.656,326.397 121.5,323.5C 121.5,324.5 121.5,325.5 121.5,326.5C 121.251,333.602 121.918,340.602 123.5,347.5C 113.767,338.226 106.1,327.393 100.5,315C 90.1202,310.485 80.4535,304.985 71.5,298.5C 78.0161,295.772 84.6827,293.439 91.5,291.5C 92.6491,291.209 93.3158,290.376 93.5,289C 90.7184,273.466 90.8851,257.966 94,242.5C 94.7009,246.756 95.8676,250.756 97.5,254.5 Z"/></g>
<g><path style="opacity:0.925" fill="#88ceb6" d="M 409.5,233.5 C 413.5,233.5 417.5,233.5 421.5,233.5C 421.5,247.167 421.5,260.833 421.5,274.5C 417.5,274.5 413.5,274.5 409.5,274.5C 409.5,271.5 409.5,268.5 409.5,265.5C 409.5,259.5 409.5,253.5 409.5,247.5C 409.5,242.833 409.5,238.167 409.5,233.5 Z"/></g>
<g><path style="opacity:1" fill="#00986e" d="M 90.5,282.5 C 74.5,282.5 58.5,282.5 42.5,282.5C 42.5,286.833 42.5,291.167 42.5,295.5C 41.5084,288.352 41.175,281.019 41.5,273.5C 41.5,268.5 41.5,263.5 41.5,258.5C 57.8333,258.5 74.1667,258.5 90.5,258.5C 90.5,266.5 90.5,274.5 90.5,282.5 Z"/></g>
<g><path style="opacity:1" fill="#00996e" d="M 409.5,265.5 C 409.5,268.5 409.5,271.5 409.5,274.5C 409.5,277.167 409.5,279.833 409.5,282.5C 318.621,281.84 227.955,282.506 137.5,284.5C 137.209,283.351 136.376,282.684 135,282.5C 126.601,283.913 118.268,285.58 110,287.5C 103.584,277.429 99.4177,266.429 97.5,254.5C 200.999,253.501 304.665,253.167 408.5,253.5C 408.183,257.702 408.517,261.702 409.5,265.5 Z"/></g>
<g><path style="opacity:1" fill="#01926a" d="M 409.5,282.5 C 409.92,296.831 410.254,311.164 410.5,325.5C 354.664,325.832 298.998,325.499 243.5,324.5C 249.14,319.527 254.473,314.194 259.5,308.5C 260.625,306.871 261.959,305.371 263.5,304C 261.188,304.447 259.188,305.613 257.5,307.5C 250.109,311.948 242.609,316.281 235,320.5C 233.717,315.343 233.05,310.01 233,304.5C 228.048,311.949 222.548,318.949 216.5,325.5C 194.833,325.5 173.167,325.5 151.5,325.5C 141.939,321.466 133.439,315.8 126,308.5C 127.945,299.609 131.779,291.609 137.5,284.5C 227.955,282.506 318.621,281.84 409.5,282.5 Z"/></g>
<g><path style="opacity:0.918" fill="#6ec8ab" d="M 409.5,274.5 C 413.5,274.5 417.5,274.5 421.5,274.5C 421.5,283.5 421.5,292.5 421.5,301.5C 417.833,301.5 414.167,301.5 410.5,301.5C 410.823,294.978 410.49,288.645 409.5,282.5C 409.5,279.833 409.5,277.167 409.5,274.5 Z"/></g>
<g><path style="opacity:1" fill="#27b896" d="M 71.5,298.5 C 80.4535,304.985 90.1202,310.485 100.5,315C 106.1,327.393 113.767,338.226 123.5,347.5C 124.738,347.81 124.738,348.31 123.5,349C 122.5,349.667 121.5,349.667 120.5,349C 114.874,342.882 109.874,336.382 105.5,329.5C 103.64,325.615 101.64,321.781 99.5,318C 88.7645,313.646 79.0978,307.812 70.5,300.5C 70.5427,299.584 70.8761,298.917 71.5,298.5 Z"/></g>
<g><path style="opacity:1" fill="#a7e2d4" d="M 259.5,308.5 C 259.167,308.5 258.833,308.5 258.5,308.5C 258.5,307.833 258.167,307.5 257.5,307.5C 259.188,305.613 261.188,304.447 263.5,304C 261.959,305.371 260.625,306.871 259.5,308.5 Z"/></g>
<g><path style="opacity:1" fill="#fbfdfc" d="M 257.5,307.5 C 258.167,307.5 258.5,307.833 258.5,308.5C 251.466,315.701 243.966,322.368 236,328.5C 235.26,329.749 235.427,330.749 236.5,331.5C 236.993,333.806 237.326,336.139 237.5,338.5C 237.389,339.117 237.056,339.617 236.5,340C 231.5,340.333 226.5,340.667 221.5,341C 209.801,348.059 197.467,352.559 184.5,354.5C 185.5,354.167 186.167,353.5 186.5,352.5C 191.409,349.926 195.742,346.592 199.5,342.5C 200.627,341.878 201.627,341.045 202.5,340C 195.836,338.447 189.503,336.113 183.5,333C 187.025,332.821 190.359,332.321 193.5,331.5C 199.222,331.102 204.889,330.269 210.5,329C 212.879,328.284 214.879,327.117 216.5,325.5C 222.548,318.949 228.048,311.949 233,304.5C 233.05,310.01 233.717,315.343 235,320.5C 242.609,316.281 250.109,311.948 257.5,307.5 Z"/></g>
<g><path style="opacity:1" fill="#63c6a7" d="M 40.5,273.5 C 40.8333,273.5 41.1667,273.5 41.5,273.5C 41.175,281.019 41.5084,288.352 42.5,295.5C 42.5,299.5 42.5,303.5 42.5,307.5C 42.5,310.833 42.5,314.167 42.5,317.5C 39.1667,317.5 35.8333,317.5 32.5,317.5C 32.5,305.5 32.5,293.5 32.5,281.5C 35.1667,281.5 37.8333,281.5 40.5,281.5C 40.5,278.833 40.5,276.167 40.5,273.5 Z"/></g>
<g><path style="opacity:1" fill="#00946c" d="M 90.5,282.5 C 91.4767,285.287 91.81,288.287 91.5,291.5C 84.6827,293.439 78.0161,295.772 71.5,298.5C 70.8761,298.917 70.5427,299.584 70.5,300.5C 79.0978,307.812 88.7645,313.646 99.5,318C 101.64,321.781 103.64,325.615 105.5,329.5C 85.5275,331.488 65.1941,332.155 44.5,331.5C 44.2238,323.319 43.5571,315.319 42.5,307.5C 42.5,303.5 42.5,299.5 42.5,295.5C 42.5,291.167 42.5,286.833 42.5,282.5C 58.5,282.5 74.5,282.5 90.5,282.5 Z"/></g>
<g><path style="opacity:1" fill="#23b795" d="M 158.5,328.5 C 159.404,329.209 159.737,330.209 159.5,331.5C 146.527,331.962 133.86,330.295 121.5,326.5C 121.5,325.5 121.5,324.5 121.5,323.5C 132.656,326.397 143.99,328.397 155.5,329.5C 156.726,329.48 157.726,329.147 158.5,328.5 Z"/></g>
<g><path style="opacity:1" fill="#33b898" d="M 258.5,308.5 C 258.833,308.5 259.167,308.5 259.5,308.5C 254.473,314.194 249.14,319.527 243.5,324.5C 241.99,325.836 240.323,327.003 238.5,328C 237.177,328.816 236.511,329.983 236.5,331.5C 235.427,330.749 235.26,329.749 236,328.5C 243.966,322.368 251.466,315.701 258.5,308.5 Z"/></g>
<g><path style="opacity:0.91" fill="#54c2a1" d="M 409.5,282.5 C 410.49,288.645 410.823,294.978 410.5,301.5C 414.167,301.5 417.833,301.5 421.5,301.5C 421.5,311.833 421.5,322.167 421.5,332.5C 418.167,332.5 414.833,332.5 411.5,332.5C 411.784,330.585 411.451,328.919 410.5,327.5C 410.5,326.833 410.5,326.167 410.5,325.5C 410.254,311.164 409.92,296.831 409.5,282.5 Z"/></g>
<g><path style="opacity:1" fill="#009972" d="M 243.5,324.5 C 298.998,325.499 354.664,325.832 410.5,325.5C 410.5,326.167 410.5,326.833 410.5,327.5C 410.5,332.833 410.5,338.167 410.5,343.5C 352.664,343.832 294.998,343.499 237.5,342.5C 238.354,340.965 238.354,339.632 237.5,338.5C 237.326,336.139 236.993,333.806 236.5,331.5C 236.511,329.983 237.177,328.816 238.5,328C 240.323,327.003 241.99,325.836 243.5,324.5 Z"/></g>
<g><path style="opacity:1" fill="#4cc09e" d="M 42.5,307.5 C 43.5571,315.319 44.2238,323.319 44.5,331.5C 44.5,331.833 44.5,332.167 44.5,332.5C 44.5,334.833 44.5,337.167 44.5,339.5C 40.5,339.5 36.5,339.5 32.5,339.5C 32.5,332.167 32.5,324.833 32.5,317.5C 35.8333,317.5 39.1667,317.5 42.5,317.5C 42.5,314.167 42.5,310.833 42.5,307.5 Z"/></g>
<g><path style="opacity:1" fill="#2cb898" d="M 193.5,331.5 C 190.359,332.321 187.025,332.821 183.5,333C 189.503,336.113 195.836,338.447 202.5,340C 201.627,341.045 200.627,341.878 199.5,342.5C 193.17,340.886 187.004,338.553 181,335.5C 180.508,334.451 180.674,333.451 181.5,332.5C 185.445,331.509 189.445,331.176 193.5,331.5 Z"/></g>
<g><path style="opacity:1" fill="#37bc9d" d="M 237.5,338.5 C 238.354,339.632 238.354,340.965 237.5,342.5C 231.915,343.288 226.248,343.788 220.5,344C 215.261,346.787 209.928,349.287 204.5,351.5C 197.442,354.863 190.109,356.53 182.5,356.5C 182.855,355.478 183.522,354.811 184.5,354.5C 197.467,352.559 209.801,348.059 221.5,341C 226.5,340.667 231.5,340.333 236.5,340C 237.056,339.617 237.389,339.117 237.5,338.5 Z"/></g>
<g><path style="opacity:1" fill="#00a079" d="M 410.5,327.5 C 411.451,328.919 411.784,330.585 411.5,332.5C 411.5,339.167 411.5,345.833 411.5,352.5C 342.331,352.833 273.331,352.499 204.5,351.5C 209.928,349.287 215.261,346.787 220.5,344C 226.248,343.788 231.915,343.288 237.5,342.5C 294.998,343.499 352.664,343.832 410.5,343.5C 410.5,338.167 410.5,332.833 410.5,327.5 Z"/></g>
<g><path style="opacity:1" fill="#019d76" d="M 151.5,325.5 C 173.167,325.5 194.833,325.5 216.5,325.5C 214.879,327.117 212.879,328.284 210.5,329C 204.889,330.269 199.222,331.102 193.5,331.5C 189.445,331.176 185.445,331.509 181.5,332.5C 180.674,333.451 180.508,334.451 181,335.5C 187.004,338.553 193.17,340.886 199.5,342.5C 195.742,346.592 191.409,349.926 186.5,352.5C 139.833,352.5 93.1667,352.5 46.5,352.5C 46.1109,345.661 45.4442,338.994 44.5,332.5C 44.5,332.167 44.5,331.833 44.5,331.5C 65.1941,332.155 85.5275,331.488 105.5,329.5C 109.874,336.382 114.874,342.882 120.5,349C 121.5,349.667 122.5,349.667 123.5,349C 124.738,348.31 124.738,347.81 123.5,347.5C 121.918,340.602 121.251,333.602 121.5,326.5C 133.86,330.295 146.527,331.962 159.5,331.5C 159.737,330.209 159.404,329.209 158.5,328.5C 155.843,328.065 153.509,327.065 151.5,325.5 Z"/></g>
<g><path style="opacity:1" fill="#00a57e" d="M 204.5,351.5 C 273.331,352.499 342.331,352.833 411.5,352.5C 411.5,353.167 411.5,353.833 411.5,354.5C 411.5,357.5 411.5,360.5 411.5,363.5C 290.167,363.5 168.833,363.5 47.5,363.5C 46.7564,359.881 46.423,356.215 46.5,352.5C 93.1667,352.5 139.833,352.5 186.5,352.5C 186.167,353.5 185.5,354.167 184.5,354.5C 183.522,354.811 182.855,355.478 182.5,356.5C 190.109,356.53 197.442,354.863 204.5,351.5 Z"/></g>
<g><path style="opacity:0.9" fill="#3bbd97" d="M 411.5,332.5 C 414.833,332.5 418.167,332.5 421.5,332.5C 421.5,342.167 421.5,351.833 421.5,361.5C 418.5,361.5 415.5,361.5 412.5,361.5C 412.802,358.941 412.468,356.607 411.5,354.5C 411.5,353.833 411.5,353.167 411.5,352.5C 411.5,345.833 411.5,339.167 411.5,332.5 Z"/></g>
<g><path style="opacity:1" fill="#00ac85" d="M 47.5,363.5 C 168.833,363.5 290.167,363.5 411.5,363.5C 412.43,367.4 412.763,371.4 412.5,375.5C 291.096,375.831 169.763,375.498 48.5,374.5C 48.4476,370.802 48.1143,367.135 47.5,363.5 Z"/></g>
<g><path style="opacity:1" fill="#2cb991" d="M 44.5,332.5 C 45.4442,338.994 46.1109,345.661 46.5,352.5C 46.423,356.215 46.7564,359.881 47.5,363.5C 48.1143,367.135 48.4476,370.802 48.5,374.5C 49.0916,377.127 49.4249,379.794 49.5,382.5C 43.8333,382.5 38.1667,382.5 32.5,382.5C 32.5,368.167 32.5,353.833 32.5,339.5C 36.5,339.5 40.5,339.5 44.5,339.5C 44.5,337.167 44.5,334.833 44.5,332.5 Z"/></g>
<g><path style="opacity:1" fill="#00b38d" d="M 48.5,374.5 C 169.763,375.498 291.096,375.831 412.5,375.5C 413.326,383.349 410.326,389.183 403.5,393C 288.5,393.667 173.5,393.667 58.5,393C 54.1675,390.511 51.1675,387.011 49.5,382.5C 49.4249,379.794 49.0916,377.127 48.5,374.5 Z"/></g>
<g><path style="opacity:0.998" fill="#11b386" d="M 411.5,354.5 C 412.468,356.607 412.802,358.941 412.5,361.5C 415.5,361.5 418.5,361.5 421.5,361.5C 421.5,376.5 421.5,391.5 421.5,406.5C 291.833,406.5 162.167,406.5 32.5,406.5C 32.5,398.5 32.5,390.5 32.5,382.5C 38.1667,382.5 43.8333,382.5 49.5,382.5C 51.1675,387.011 54.1675,390.511 58.5,393C 173.5,393.667 288.5,393.667 403.5,393C 410.326,389.183 413.326,383.349 412.5,375.5C 412.763,371.4 412.43,367.4 411.5,363.5C 411.5,360.5 411.5,357.5 411.5,354.5 Z"/></g>
</svg>
