<?xml version="1.0" encoding="utf-8"?>
<!-- Generator: Adobe Illustrator 23.0.4, SVG Export Plug-In . SVG Version: 6.00 Build 0)  -->
<svg version="1.1" id="Layer_1" xmlns="http://www.w3.org/2000/svg" xmlns:xlink="http://www.w3.org/1999/xlink" x="0px" y="0px"
	 viewBox="0 0 46 46" style="enable-background:new 0 0 46 46;" xml:space="preserve">
<style type="text/css">
	.st0{fill:#00C4B3;}
	.st1{fill:#FFFFFF;}
</style>
<rect class="st0" width="46.2" height="46.2"/>
<g>
	<g>
		<g>
			<g>
				<g>
					<path class="st1" d="M7.7,19.5H6.3l-0.8,4.3H4.2l0.8-4.3H3.6l0.2-1.1h4.1L7.7,19.5z"/>
				</g>
			</g>
			<g>
				<g>
					<path class="st1" d="M7,22.7c0-0.2,0-0.3,0.1-0.5l0.4-2h1.2L8.4,22c0,0.1,0,0.2,0,0.3c0,0.4,0.2,0.5,0.5,0.5
						c0.4,0,0.7-0.3,0.8-0.9l0.3-1.7h1.2l-0.7,3.6H9.3l0.1-0.6h0c-0.3,0.5-0.7,0.7-1.2,0.7C7.6,23.9,7,23.5,7,22.7z M8.4,18.4h1
						l-0.2,1h-1L8.4,18.4z M9.9,18.4h1l-0.2,1h-1L9.9,18.4z"/>
				</g>
			</g>
			<g>
				<g>
					<path class="st1" d="M12,20.2h1.2L13,20.9h0c0.3-0.7,0.8-0.8,1.3-0.8c0.1,0,0.1,0,0.2,0l-0.2,1.2c0,0-0.1,0-0.2,0
						c-0.7,0-1.1,0.3-1.3,1.1l-0.3,1.3h-1.2L12,20.2z"/>
				</g>
			</g>
			<g>
				<g>
					<path class="st1" d="M16.8,21.9l1.2,1.8h-1.5l-0.9-1.6l-0.3,1.6h-1.2l1.1-5.4h1.2l-0.6,3.2l1.3-1.4h1.6L16.8,21.9z"/>
				</g>
			</g>
			<g>
				<g>
					<path class="st1" d="M18.8,20.2H20l-0.7,3.6h-1.2L18.8,20.2z M20.2,19.5h-1.3l0.2-1.2h1.3L20.2,19.5z"/>
				</g>
			</g>
			<g>
				<g>
					<path class="st1" d="M24.5,20.2l-3.3,5.1H20l1.3-2l-1-3.1h1.3l0.5,1.9l1.2-1.9H24.5z"/>
				</g>
			</g>
			<g>
				<g>
					<path class="st1" d="M27.9,22.3h-2.6c0.1,0.4,0.3,0.6,0.8,0.6c0.5,0,0.8-0.2,1.1-0.3l0.4,0.9c-0.5,0.2-1,0.4-1.6,0.4
						c-1.1,0-1.9-0.6-1.9-1.7c0-1,0.6-2.1,2.1-2.1c1,0,1.7,0.5,1.7,1.4C28,21.7,28,22,27.9,22.3z M26.9,21.4c0-0.3-0.2-0.5-0.6-0.5
						c-0.4,0-0.7,0.3-0.9,0.7h1.5C26.9,21.5,26.9,21.5,26.9,21.4z"/>
				</g>
			</g>
			<g>
				<g>
					<path class="st1" d="M10.1,26.2l-0.2,1.1h2l-0.2,1.1h-2l-0.4,2.1H8l1.1-5.4h3.5l-0.2,1.1H10.1z"/>
				</g>
			</g>
			<g>
				<g>
					<path class="st1" d="M12.8,26.9H14l-0.7,3.6h-1.2L12.8,26.9z M14.2,26.3h-1.3l0.2-1.2h1.3L14.2,26.3z"/>
				</g>
			</g>
			<g>
				<g>
					<path class="st1" d="M14.7,26.9h1.2l-0.1,0.5h0c0.3-0.4,0.7-0.7,1.2-0.7c0.7,0,1.2,0.4,1.2,1.2c0,0.1,0,0.4-0.1,0.7l-0.4,1.8
						h-1.2l0.3-1.7c0-0.1,0.1-0.3,0.1-0.4c0-0.4-0.2-0.6-0.6-0.6c-0.4,0-0.7,0.2-0.8,0.9l-0.4,1.8H14L14.7,26.9z"/>
				</g>
			</g>
			<g>
				<g>
					<path class="st1" d="M18.4,28.9c0-1.2,0.8-2.1,1.9-2.1c0.6,0,1.1,0.3,1.3,0.7h0l0.1-0.6h1.2l-0.7,3.6H21l0.1-0.5h0
						c-0.3,0.4-0.7,0.6-1.2,0.6C19,30.6,18.4,30,18.4,28.9z M21.3,28.6c0-0.5-0.3-0.8-0.8-0.8c-0.5,0-0.9,0.4-0.9,0.9
						c0,0.4,0.3,0.7,0.8,0.7C21,29.5,21.3,29.2,21.3,28.6z"/>
				</g>
			</g>
			<g>
				<g>
					<path class="st1" d="M23.5,26.9h1.2l-0.1,0.5h0c0.3-0.4,0.7-0.7,1.2-0.7c0.7,0,1.2,0.4,1.2,1.2c0,0.1,0,0.4-0.1,0.7l-0.4,1.8
						h-1.2l0.3-1.7c0-0.1,0.1-0.3,0.1-0.4c0-0.4-0.2-0.6-0.6-0.6c-0.4,0-0.7,0.2-0.8,0.9L24,30.5h-1.2L23.5,26.9z"/>
				</g>
			</g>
			<g>
				<g>
					<path class="st1" d="M28.6,29.7c0.2,0,0.2-0.1,0.2-0.2c0-0.1-0.1-0.1-0.2-0.2L28.2,29c-0.5-0.2-0.7-0.6-0.7-1
						c0-0.7,0.5-1.1,1.4-1.1c0.5,0,1.1,0.1,1.6,0.4L30,28.1c-0.4-0.2-0.8-0.3-1.1-0.3c-0.2,0-0.3,0-0.3,0.1c0,0.1,0.1,0.1,0.3,0.2
						l0.5,0.3c0.4,0.2,0.7,0.5,0.7,1c0,0.8-0.6,1.2-1.5,1.2c-0.7,0-1.2-0.2-1.8-0.6l0.6-0.8C27.9,29.5,28.3,29.7,28.6,29.7z"/>
				</g>
			</g>
		</g>
	</g>
	<path class="st1" d="M34.1,25.2C34,25.2,34,25.3,34.1,25.2C34,25.3,34,25.3,34,25.3s0,0,0,0c0,0,0,0,0,0.1
		c-0.1,0.2-0.2,0.3-0.2,0.5c0,0.2,0,0.4,0,0.6c0.1,0.2,0.1,0.5,0.3,0.7c0.1,0.2,0.3,0.4,0.5,0.7l1.4,1.6l1.1-0.8
		c0.2-0.1,0.3-0.3,0.3-0.5c0.1-0.2,0.1-0.4,0-0.7c0-0.3-0.1-0.5-0.3-0.8c-0.1-0.3-0.3-0.5-0.6-0.8c0,0-0.1-0.1-0.1-0.1
		c0,0-0.1-0.1-0.1-0.1c0,0-0.1-0.1-0.1-0.1c0,0-0.1,0-0.1-0.1l-0.9,0.9L34.1,25.2"/>
	<path class="st1" d="M33.1,15.6l-0.9,2.3C32,18.2,32,18.5,32,18.8c0,0.3,0,0.6,0.1,0.9c0.1,0.3,0.2,0.6,0.3,0.9
		c0.1,0.3,0.3,0.5,0.6,0.8c0,0,0.1,0.1,0.1,0.1c0,0,0.1,0,0.1,0.1c0,0,0.1,0,0.1,0.1c0,0,0.1,0,0.1,0.1l0.8-1.4l1.4,1.4
		c0,0,0,0,0.1-0.1c0,0,0,0,0.1-0.1c0,0,0-0.1,0.1-0.1c0,0,0-0.1,0.1-0.1c0.2-0.3,0.3-0.6,0.4-0.9c0.1-0.3,0.1-0.7,0-1.1
		c-0.1-0.4-0.2-0.7-0.4-1.1c-0.2-0.3-0.4-0.7-0.7-0.9L33.1,15.6"/>
	<path class="st1" d="M31.3,21.3c-0.1,0-0.2,0-0.3,0c-0.1,0-0.2,0.1-0.2,0.1c-0.1,0-0.1,0.1-0.2,0.2c-0.1,0.1-0.1,0.2-0.1,0.2
		L30,23.1l1.2,1.4c0.1,0.1,0.2,0.2,0.3,0.3c0.1,0.1,0.2,0.1,0.3,0.2c0.1,0.1,0.2,0.1,0.3,0.1c0.1,0,0.2,0.1,0.3,0.1
		c0.1,0,0.2,0,0.3,0c0.1,0,0.2,0,0.2-0.1c0.1,0,0.2-0.1,0.2-0.1c0.1-0.1,0.1-0.1,0.2-0.2c0,0,0,0,0-0.1c0,0,0,0,0-0.1c0,0,0,0,0-0.1
		c0,0,0,0,0-0.1l-1.2-1.2l0.6-1.1c0,0,0-0.1-0.1-0.1c0,0,0-0.1-0.1-0.1c0,0,0-0.1-0.1-0.1c0,0,0-0.1-0.1-0.1
		c-0.1-0.1-0.2-0.2-0.3-0.3c-0.1-0.1-0.2-0.2-0.3-0.2c-0.1-0.1-0.2-0.1-0.3-0.1C31.5,21.3,31.4,21.3,31.3,21.3"/>
	<path class="st1" d="M38,21.3c-0.2,0-0.3,0-0.5,0.1c-0.2,0-0.3,0.1-0.4,0.1c-0.1,0.1-0.3,0.1-0.4,0.2c-0.1,0.1-0.2,0.2-0.3,0.3
		c0,0,0,0.1-0.1,0.1c0,0,0,0.1-0.1,0.1c0,0,0,0.1-0.1,0.1c0,0,0,0.1,0,0.1l1.5,1.5l-1.1,1.1c0,0,0,0.1,0.1,0.1c0,0,0.1,0.1,0.1,0.1
		c0,0,0.1,0.1,0.1,0.1c0,0,0.1,0.1,0.1,0.1c0.1,0.1,0.3,0.2,0.4,0.4c0.1,0.1,0.3,0.2,0.4,0.3c0.2,0.1,0.3,0.1,0.5,0.2
		c0.2,0.1,0.3,0.1,0.5,0.1c0.2,0,0.3,0,0.5,0c0.2,0,0.3,0,0.5,0c0.1,0,0.3-0.1,0.4-0.1c0.1-0.1,0.3-0.1,0.4-0.2l2.1-1.6l-2.4-2.2
		c-0.2-0.2-0.3-0.3-0.5-0.4c-0.2-0.1-0.4-0.2-0.6-0.3c-0.2-0.1-0.4-0.1-0.6-0.2C38.4,21.3,38.2,21.3,38,21.3"/>
</g>
</svg>
