<?xml version="1.0" encoding="utf-8"?>
<!-- Generator: Adobe Illustrator 23.0.4, SVG Export Plug-In . SVG Version: 6.00 Build 0)  -->
<svg version="1.1" id="Layer_1" xmlns="http://www.w3.org/2000/svg" xmlns:xlink="http://www.w3.org/1999/xlink" x="0px" y="0px"
	 viewBox="0 0 46 46" style="enable-background:new 0 0 46 46;" xml:space="preserve">
<style type="text/css">
	.st0{fill-rule:evenodd;clip-rule:evenodd;fill:#FBBA00;}
	.st1{fill:#FFFFFF;}
	.st2{fill:#FBBA00;}
</style>
<g>
	<polygon class="st0" points="0,0 46,0 46,46 0,46 0,0 	"/>
</g>
<path class="st1" d="M39,18.1c0.4-2.3-1.7-5.6-7.6-5.6H16.8c-4,0-6.5,2.7-6.9,5.5L7,33.5c2.6,0,19.7,0,19.6,0h1.1
	c6.1,0,9.6-1.4,10.3-5.8c0.4-3-2.2-4.9-4.3-5.3C35.8,21.9,38.5,21.2,39,18.1"/>
<path class="st2" d="M28.2,19.1c-1.5,1.9-6.9,8.4-8,9.6c-2.4,2.8-7.5,2.4-7.5,2.3c0,0,1.8-8.6,2.4-11c1.6-6.6,7.2-5,7.2-5
	s-1.5,0.2-2.5,1.5c-1.1,1.4-2.3,7.9-2.9,11c3.2-3.7,7.5-8.5,8.3-9.4c3.2-3.8,8.1-3.3,8.1-3.3S31.3,15.2,28.2,19.1"/>
</svg>
